<?xml version="1.0" encoding="UTF-8"?>
<svg width="40px" height="40px" viewBox="0 0 40 40" version="1.1" xmlns="http://www.w3.org/2000/svg" xmlns:xlink="http://www.w3.org/1999/xlink">
    <!-- Generator: Sketch 61.2 (89653) - https://sketch.com -->
    <title>icon-code</title>
    <desc>Created with Sketch.</desc>
    <g id="icon-code" stroke="none" stroke-width="1" fill="none" fill-rule="evenodd">
        <g id="Icons-/-Rich-/-Code" fill="#556FF2" fill-rule="nonzero">
            <path d="M32,5 C33.6545,5 35,6.3455 35,8 L35,32 C35,33.6545 33.6545,35 32,35 L8,35 C6.3455,35 5,33.6545 5,32 L5,8 C5,6.3455 6.3455,5 8,5 L32,5 Z M32,7 L8,7 C7.4485,7 7,7.4485 7,8 L7,32 C7,32.5515 7.4485,33 8,33 L32,33 C32.5515,33 33,32.5515 33,32 L33,8 C33,7.4485 32.5515,7 32,7 Z M20.53535,14.2367 L22.46485,14.7632 L19.46485,25.7632 L17.53535,25.2367 L20.53535,14.2367 Z M13.7002,15.4001 L15.2997,16.6001 L12.7502,20.0001 L15.2997,23.4001 L13.7002,24.6001 L10.2502,20.0001 L13.7002,15.4001 Z M26.2998,15.4001 L29.7498,20.0001 L26.2998,24.6001 L24.7003,23.4001 L27.2498,20.0001 L24.7003,16.6001 L26.2998,15.4001 Z" id="Color"></path>
        </g>
    </g>
</svg>