<?xml version="1.0" encoding="UTF-8"?>
<svg width="24px" height="24px" viewBox="0 0 24 24" version="1.1" xmlns="http://www.w3.org/2000/svg" xmlns:xlink="http://www.w3.org/1999/xlink">
    <!-- Generator: Sketch 61.2 (89653) - https://sketch.com -->
    <title>Icon / About</title>
    <desc>Created with Sketch.</desc>
    <g id="Icon-/-About" stroke="none" stroke-width="1" fill="none" fill-rule="evenodd">
        <path d="M18.7041,17.9902 C18.0471,15.7972 16.3461,14.0582 14.1771,13.3492 C15.2721,12.6362 16.0001,11.4052 16.0001,10.0002 C16.0001,7.7912 14.2091,6.0002 12.0001,6.0002 C9.7911,6.0002 8.0001,7.7912 8.0001,10.0002 C8.0001,11.4052 8.7271,12.6362 9.8231,13.3492 C7.6541,14.0582 5.9531,15.7972 5.2961,17.9902 C3.8731,16.3982 3.0001,14.3032 3.0001,12.0002 C3.0001,7.0292 7.0291,3.0002 12.0001,3.0002 C16.9711,3.0002 21.0001,7.0292 21.0001,12.0002 C21.0001,14.3032 20.1271,16.3982 18.7041,17.9902 M12.0001,1.0002 C5.9251,1.0002 1.0001,5.9252 1.0001,12.0002 C1.0001,18.0752 5.9251,23.0002 12.0001,23.0002 C18.0751,23.0002 23.0001,18.0752 23.0001,12.0002 C23.0001,5.9252 18.0751,1.0002 12.0001,1.0002" id="Color" fill="#242459" fill-rule="nonzero"></path>
    </g>
</svg>