<?xml version="1.0" encoding="UTF-8"?>
<svg width="40px" height="40px" viewBox="0 0 40 40" version="1.1" xmlns="http://www.w3.org/2000/svg" xmlns:xlink="http://www.w3.org/1999/xlink">
    <!-- Generator: Sketch 61.2 (89653) - https://sketch.com -->
    <title>icon-agile</title>
    <desc>Created with Sketch.</desc>
    <g id="icon-agile" stroke="none" stroke-width="1" fill="none" fill-rule="evenodd">
        <g id="Icons-/-Rich-/-Agile" fill="#556FF2" fill-rule="nonzero">
            <path d="M12.22355,10.22395 L13.65105,11.65095 C13.27455,11.93795 12.90955,12.24095 12.57505,12.57545 C12.10005,13.05045 11.66855,13.57395 11.29255,14.13045 C10.91355,14.69145 10.58805,15.29195 10.32455,15.91345 C10.05655,16.54645 9.85105,17.20945 9.71305,17.88295 C9.57155,18.57495 9.50005,19.28745 9.50005,19.99995 C9.50005,20.71245 9.57155,21.42495 9.71355,22.11745 C9.85105,22.79045 10.05655,23.45345 10.32455,24.08645 C10.58805,24.70845 10.91355,25.30845 11.29255,25.86995 C11.66855,26.42645 12.10005,26.94945 12.57505,27.42495 C13.05055,27.89995 13.57355,28.33145 14.13005,28.70745 C14.69205,29.08645 15.29155,29.41245 15.91305,29.67545 C16.54705,29.94345 17.20955,30.14895 17.88255,30.28645 C18.57505,30.42845 19.28755,30.49995 20.00005,30.49995 L20.00005,30.49995 L31.58605,30.49995 L29.79305,28.70695 L31.20705,27.29295 L34.70705,30.79295 C35.09755,31.18345 35.09755,31.81645 34.70705,32.20695 L34.70705,32.20695 L31.20705,35.70695 L29.79305,34.29295 L31.58605,32.49995 L20.00005,32.49995 C19.15355,32.49995 18.30605,32.41445 17.48205,32.24595 C16.67905,32.08195 15.88905,31.83645 15.13405,31.51695 C14.39355,31.20395 13.67905,30.81645 13.01055,30.36445 C12.34905,29.91745 11.72655,29.40445 11.16105,28.83895 C10.59605,28.27345 10.08255,27.65145 9.63505,26.98995 C9.18355,26.32045 8.79605,25.60595 8.48305,24.86595 C8.16355,24.11095 7.91805,23.32095 7.75405,22.51845 C7.58555,21.69345 7.50005,20.84645 7.50005,19.99995 C7.50005,19.15345 7.58555,18.30645 7.75355,17.48245 C7.91805,16.67895 8.16355,15.88895 8.48305,15.13395 C8.79605,14.39395 9.18355,13.67945 9.63505,13.01095 C10.08255,12.34845 10.59605,11.72645 11.16105,11.16095 C11.49505,10.82695 11.85405,10.51845 12.22355,10.22395 L12.22355,10.22395 Z M10,30.5 L12.5,32.5 L5,32.5 L5,30.5 L10,30.5 Z M18.793,4.2929 L20.207,5.7069 L18.414,7.4999 L20,7.4999 C20.8465,7.4999 21.694,7.5854 22.518,7.7539 C23.321,7.9179 24.111,8.1634 24.866,8.4829 C25.6065,8.7959 26.321,9.1834 26.989,9.6354 C27.651,10.0824 28.2735,10.5959 28.839,11.1609 C29.404,11.7264 29.9175,12.3484 30.3645,13.0104 C30.8165,13.6794 31.204,14.3939 31.517,15.1339 C31.8365,15.8894 32.082,16.6789 32.246,17.4819 C32.4145,18.3069 32.5,19.1534 32.5,19.9999 C32.5,20.8464 32.4145,21.6934 32.2465,22.5174 C32.082,23.3209 31.8365,24.1109 31.517,24.8659 C31.31,25.3559 31.059,25.8279 30.7895,26.2894 L30.7895,26.2894 L29.3215,24.8214 C29.447,24.5794 29.5695,24.3364 29.6755,24.0869 C29.9435,23.4534 30.149,22.7904 30.287,22.1169 C30.428,21.4249 30.5,20.7124 30.5,19.9999 C30.5,19.2874 30.428,18.5754 30.2865,17.8824 C30.149,17.2094 29.9435,16.5464 29.6755,15.9134 C29.412,15.2919 29.0865,14.6919 28.7075,14.1299 C28.3315,13.5739 27.9,13.0504 27.425,12.5754 C26.949,12.0999 26.4265,11.6684 25.87,11.2929 C25.308,10.9134 24.7085,10.5879 24.087,10.3249 C23.453,10.0569 22.7905,9.8509 22.1175,9.7134 C21.425,9.5719 20.7125,9.4999 20,9.4999 L20,9.4999 L18.414,9.4999 L20.207,11.2929 L18.793,12.7069 L15.293,9.2069 C14.9025,8.8169 14.9025,8.1834 15.293,7.7929 L15.293,7.7929 L18.793,4.2929 Z" id="Color"></path>
        </g>
    </g>
</svg>