<?xml version="1.0" encoding="UTF-8"?>
<svg width="40px" height="40px" viewBox="0 0 40 40" version="1.1" xmlns="http://www.w3.org/2000/svg" xmlns:xlink="http://www.w3.org/1999/xlink">
    <!-- Generator: Sketch 61.2 (89653) - https://sketch.com -->
    <title>icon-games</title>
    <desc>Created with Sketch.</desc>
    <g id="icon-games" stroke="none" stroke-width="1" fill="none" fill-rule="evenodd">
        <g id="Icons-/-Rich-/-Games" fill="#556FF2" fill-rule="nonzero">
            <path d="M27.4883,5 C28.8733,5 29.9998,6.127 29.9998,7.512 L29.9998,7.512 L29.9998,32.488 C29.9998,33.873 28.8733,35 27.4883,35 L27.4883,35 L12.5118,35 C11.1268,35 9.9998,33.873 9.9998,32.488 L9.9998,32.488 L9.9998,7.512 C9.9998,6.127 11.1268,5 12.5118,5 L12.5118,5 Z M27.9998,31.125 L11.9998,31.125 L11.9998,32.488 C11.9998,32.7705 12.2293,33 12.5118,33 L12.5118,33 L27.4883,33 C27.7703,33 27.9998,32.7705 27.9998,32.488 L27.9998,32.488 L27.9998,31.125 Z M27.9998,11 L11.9998,11 L11.9998,29.125 L27.9998,29.125 L27.9998,11 Z M15.4644,16.4644 C17.4134,14.5149 20.5864,14.5149 22.5354,16.4644 C22.7229,16.6519 22.8284,16.9064 22.8284,17.1714 C22.8284,17.4369 22.7229,17.6914 22.5354,17.8789 L22.5354,17.8789 L20.4139,19.9999 L22.5354,22.1214 C22.7229,22.3089 22.8284,22.5634 22.8284,22.8284 C22.8284,23.0934 22.7229,23.3479 22.5354,23.5354 C21.5609,24.5104 20.2804,24.9974 18.9999,24.9974 C17.7199,24.9974 16.4389,24.5104 15.4644,23.5354 C13.5144,21.5859 13.5144,18.4139 15.4644,16.4644 Z M18.9999,17.0014 C18.2314,17.0014 17.4634,17.2939 16.8784,17.8789 C15.7089,19.0484 15.7089,20.9519 16.8784,22.1214 C17.8004,23.0434 19.1784,23.2379 20.2929,22.7074 L20.2929,22.7074 L18.2929,20.7069 C18.1054,20.5194 17.9999,20.2649 17.9999,19.9999 C17.9999,19.7349 18.1054,19.4804 18.2929,19.2929 L18.2929,19.2929 L20.2929,17.2929 C19.8854,17.0984 19.4429,17.0014 18.9999,17.0014 Z M25.5,19 C26.052,19 26.5,19.448 26.5,20 C26.5,20.552 26.052,21 25.5,21 C24.948,21 24.5,20.552 24.5,20 C24.5,19.448 24.948,19 25.5,19 Z M23,19 C23.552,19 24,19.448 24,20 C24,20.552 23.552,21 23,21 C22.448,21 22,20.552 22,20 C22,19.448 22.448,19 23,19 Z M27.4883,7 L12.5118,7 C12.2293,7 11.9998,7.2295 11.9998,7.512 L11.9998,7.512 L11.9998,9 L27.9998,9 L27.9998,7.512 C27.9998,7.2295 27.7703,7 27.4883,7 L27.4883,7 Z" id="Color"></path>
        </g>
    </g>
</svg>