<?xml version="1.0" encoding="UTF-8"?>
<svg width="24px" height="24px" viewBox="0 0 24 24" version="1.1" xmlns="http://www.w3.org/2000/svg" xmlns:xlink="http://www.w3.org/1999/xlink">
    <!-- Generator: Sketch 61.2 (89653) - https://sketch.com -->
    <title>Icon / Logo </title>
    <desc>Created with Sketch.</desc>
    <g id="Icon-/-Logo-" stroke="none" stroke-width="1" fill="none" fill-rule="evenodd">
        <path d="M21.5529506,15.04205 L21.1294301,16.19243 C20.7059096,17.43774 20.2117471,18.054455 19.670582,18.054455 C19.3647061,18.054455 19.2117681,17.88841 19.2117681,17.544495 C19.2117681,17.342865 19.258826,17.11753 19.3411772,16.86849 L21.6470662,9.87117 C21.8352976,9.26628 21.9294132,8.732615 21.9294132,8.24636 C21.9294132,7.641525 21.7647108,7.15527 21.4470705,6.8113 C21.1294301,6.467385 20.6235584,6.2894875 19.9411646,6.2894875 C19.2117681,6.2894875 18.5529585,6.4436635 17.9765,6.740185 C17.3999863,7.036635 16.8352923,7.54665 16.2941272,8.24636 C15.7529622,8.95795 15.2235615,9.91858 14.6705768,11.15201 L17.5176309,1 L12.5882676,1 C11.2705931,1 10.164734,1.20161735 9.25881545,1.6167095 C8.35295216,2.0318055 7.60002683,2.648515 7.02351314,3.478707 C6.43529574,4.3088935 5.94117745,5.3644205 5.57647371,6.64531 L3.6352939,6.64531 L3.50588486,7.119685 L5.44705915,7.119685 L1,23 L4.29412014,23 L8.74117929,7.107805 L10.9647171,7.107805 L11.0941262,6.63343 L8.87058833,6.63343 L9.57645583,4.0717005 C9.84703837,3.0873325 10.2235563,2.411322 10.6823701,2.0199475 C11.141184,1.628573 11.7411714,1.4388142 12.4705678,1.4388142 C12.9176725,1.4388142 13.2470773,1.5099732 13.4470731,1.6641525 C13.6470689,1.8183285 13.7411845,2.0436635 13.7411845,2.363879 C13.7411845,2.565498 13.7058912,2.790833 13.6353044,3.051753 L9.22352208,18.884625 L12.5411546,18.884625 L12.6117965,18.623705 L12.6117965,18.65929 C13.1176683,16.761735 13.7176556,14.947175 14.4235231,13.22749 C15.1293906,11.49598 15.8235489,10.10833 16.5294164,9.064705 C17.2235194,8.009145 17.8235621,7.487305 18.3059048,7.487305 C18.6353097,7.487305 18.8000121,7.66523 18.8000121,8.021025 C18.8000121,8.25824 18.7176609,8.602155 18.5529585,9.052825 L16.4588297,15.457135 C16.2235405,16.1569 16.1176604,16.761735 16.1176604,17.283575 C16.1176604,18.576295 16.8352923,19.228595 18.258847,19.228595 C19.8117555,19.228595 20.8588475,18.41025 21.4117771,16.78544 L22,15.05393 L21.5529506,15.05393 L21.5529506,15.04205 Z" id="Color" fill="#242459" fill-rule="nonzero"></path>
    </g>
</svg>