<?xml version="1.0" encoding="UTF-8"?>
<svg width="40px" height="40px" viewBox="0 0 40 40" version="1.1" xmlns="http://www.w3.org/2000/svg" xmlns:xlink="http://www.w3.org/1999/xlink">
    <!-- Generator: Sketch 61.2 (89653) - https://sketch.com -->
    <title>icon-illustration</title>
    <desc>Created with Sketch.</desc>
    <g id="icon-illustration" stroke="none" stroke-width="1" fill="none" fill-rule="evenodd">
        <g id="Icons-/-Rich-/-Illustration" fill="#556FF2" fill-rule="nonzero">
            <path d="M12.9741,7 L27.0291,7 C27.3081,11.769 29.4806,16 30.3261,17.482 L21.0001,32.1375 L21.0001,23.8685 C22.7221,23.4225 24.0001,21.86 24.0001,20 C24.0001,17.7945 22.2056,16 20.0001,16 C17.7946,16 16.0001,17.7945 16.0001,20 C16.0001,21.86 17.2776,23.4225 19.0001,23.8685 L19.0001,32.1375 L9.6871,17.5025 C10.5661,16.062 12.7146,12.0595 12.9741,7 L12.9741,7 Z M20.0001,22 C18.8971,22 18.0001,21.103 18.0001,20 C18.0001,18.897 18.8971,18 20.0001,18 C21.1031,18 22.0001,18.897 22.0001,20 C22.0001,21.103 21.1031,22 20.0001,22 L20.0001,22 Z M22.8216,33 L32.3436,18.037 C32.5516,17.7095 32.5516,17.2915 32.3441,16.964 C32.3106,16.911 29.0001,11.625 29.0001,6 C29.0001,5.448 28.5521,5 28.0001,5 L12.0001,5 C11.4476,5 11.0001,5.448 11.0001,6 C11.0001,12.088 7.7136,16.88 7.6806,16.9265 C7.4486,17.258 7.4396,17.696 7.6561,18.037 L17.1781,33 L5.0001,33 L5.0001,35 L35.0001,35 L35.0001,33 L22.8216,33 Z" id="Color"></path>
        </g>
    </g>
</svg>