<?xml version="1.0" encoding="UTF-8"?>
<svg width="40px" height="40px" viewBox="0 0 40 40" version="1.1" xmlns="http://www.w3.org/2000/svg" xmlns:xlink="http://www.w3.org/1999/xlink">
    <!-- Generator: Sketch 61.2 (89653) - https://sketch.com -->
    <title>icon-concept</title>
    <desc>Created with Sketch.</desc>
    <g id="icon-concept" stroke="none" stroke-width="1" fill="none" fill-rule="evenodd">
        <g id="Icons-/-Rich-/-Concept" fill="#556FF2" fill-rule="nonzero">
            <path d="M27.5,25 L27.5,19 L33.5,19 L33.5015,25 L27.5,25 Z M29.5,29 L20,29 L20,27 C20,25.897 19.103,25 18,25 L13.25,25 L13.25,15 L18,15 C19.103,15 20,14.103 20,13 L20,11 L29.5,11 L29.5,17 L27.5,17 C26.397,17 25.5,17.897 25.5,19 L25.5,25 C25.5,26.103 26.397,27 27.5,27 L29.5,27 L29.5,29 Z M7,33 L7,27 L18,27 L18.0015,33 L7,33 Z M7,7 L18,7 L18.0015,13 L7,13 L7,7 Z M33.5,17 L31.5,17 L31.5,11 C31.5,9.897 30.603,9 29.5,9 L20,9 L20,7 C20,5.897 19.103,5 18,5 L7,5 C5.897,5 5,5.897 5,7 L5,13 C5,14.103 5.897,15 7,15 L11.25,15 L11.25,25 L7,25 C5.897,25 5,25.897 5,27 L5,33 C5,34.103 5.897,35 7,35 L18,35 C19.103,35 20,34.103 20,33 L20,31 L29.5,31 C30.603,31 31.5,30.103 31.5,29 L31.5,27 L33.5,27 C34.603,27 35.5,26.103 35.5,25 L35.5,19 C35.5,17.897 34.603,17 33.5,17 L33.5,17 Z" id="Color"></path>
        </g>
    </g>
</svg>