<?xml version="1.0" encoding="UTF-8"?>
<svg width="41px" height="40px" viewBox="0 0 41 40" version="1.1" xmlns="http://www.w3.org/2000/svg" xmlns:xlink="http://www.w3.org/1999/xlink">
    <!-- Generator: Sketch 61.2 (89653) - https://sketch.com -->
    <title>icon-team</title>
    <desc>Created with Sketch.</desc>
    <g id="icon-team" stroke="none" stroke-width="1" fill="none" fill-rule="evenodd" transform="translate(0.000000, 0.000000)">
        <g id="Icons-/-Rich-/-Team" fill="#556FF2" fill-rule="nonzero">
            <path d="M24.52345,29.0703 C24.02495,28.4973 23.42195,28.0203 22.74195,27.6693 C23.21495,27.0723 23.49995,26.3193 23.49995,25.4998 C23.49995,23.5703 21.92995,21.9998 19.99995,21.9998 C18.07045,21.9998 16.49995,23.5703 16.49995,25.4998 C16.49995,26.3193 16.78495,27.0723 17.25845,27.6693 C16.57795,28.0203 15.97495,28.4973 15.47645,29.0703 C11.27745,27.2718 8.49995,23.1138 8.49995,18.4998 C8.49995,17.7303 8.57995,16.9678 8.72995,16.2213 C8.87595,16.2373 9.02195,16.2493 9.16795,16.2493 C10.55145,16.2493 11.89895,15.5318 12.63895,14.2498 C13.45645,12.8333 13.30495,11.1198 12.39245,9.8783 C14.49345,8.0173 17.15895,6.9998 19.99995,6.9998 C22.84095,6.9998 25.50695,8.0173 27.60695,9.8788 C26.69545,11.1198 26.54345,12.8333 27.36145,14.2498 C28.10145,15.5318 29.44895,16.2493 30.83195,16.2493 C30.97645,16.2493 31.12195,16.2373 31.26645,16.2213 C31.41695,16.9683 31.49995,17.7298 31.49995,18.4998 C31.49995,23.1138 28.72245,27.2718 24.52345,29.0703 M18.49995,25.4998 C18.49995,24.6728 19.17295,23.9998 19.99995,23.9998 C20.82695,23.9998 21.49995,24.6728 21.49995,25.4998 C21.49995,26.3273 20.82695,26.9998 19.99995,26.9998 C19.17295,26.9998 18.49995,26.3273 18.49995,25.4998 M7.44295,11.2498 C7.81295,10.6093 8.48645,10.2503 9.17845,10.2503 C9.51695,10.2503 9.86095,10.3368 10.17495,10.5178 C11.12945,11.0693 11.45795,12.2953 10.90695,13.2498 C10.35495,14.2048 9.12995,14.5338 8.17495,13.9823 C7.71195,13.7148 7.38095,13.2838 7.24245,12.7678 C7.10445,12.2518 7.17545,11.7128 7.44295,11.2498 M32.55695,11.2498 C32.82495,11.7128 32.89545,12.2518 32.75745,12.7678 C32.61895,13.2838 32.28795,13.7148 31.82545,13.9823 C30.86995,14.5333 29.64395,14.2048 29.09345,13.2498 C28.54195,12.2953 28.86995,11.0698 29.82545,10.5178 C30.77995,9.9673 32.00595,10.2953 32.55695,11.2498 M34.28895,10.2498 C33.25395,8.4563 31.02995,7.7688 29.18045,8.6038 C26.67895,6.2753 23.44945,4.9998 19.99995,4.9998 C16.55095,4.9998 13.32195,6.2753 10.81945,8.6038 C8.96995,7.7683 6.74545,8.4563 5.71095,10.2498 C5.17645,11.1753 5.03395,12.2533 5.31095,13.2853 C5.55295,14.1878 6.08995,14.9613 6.83995,15.4983 C6.61695,16.4788 6.49995,17.4848 6.49995,18.4998 C6.49995,23.8193 9.64245,28.6253 14.42495,30.7958 C14.15395,31.4793 13.99995,32.2213 13.99995,32.9998 L13.99995,34.9998 L15.99995,34.9998 L15.99995,32.9998 C15.99995,30.7943 17.79445,28.9998 19.99995,28.9998 C22.20545,28.9998 23.99995,30.7943 23.99995,32.9998 L23.99995,34.9998 L25.99995,34.9998 L25.99995,32.9998 C25.99995,32.2213 25.84645,31.4793 25.57545,30.7958 C30.35745,28.6253 33.49995,23.8193 33.49995,18.4998 C33.49995,17.4838 33.38645,16.4768 33.16295,15.4958 C33.91145,14.9588 34.44795,14.1863 34.68895,13.2853 C34.96595,12.2533 34.82395,11.1753 34.28895,10.2498" id="Color"></path>
        </g>
    </g>
</svg>