<?xml version="1.0" encoding="UTF-8"?>
<svg width="600px" height="600px" viewBox="0 0 600 600" version="1.1" xmlns="http://www.w3.org/2000/svg" xmlns:xlink="http://www.w3.org/1999/xlink">
    <!-- Generator: Sketch 61.2 (89653) - https://sketch.com -->
    <title>Illustrations / 404</title>
    <desc>Created with Sketch.</desc>
    <defs>
        <polygon id="path-1" points="0 0.542271744 577.713043 0.542271744 577.713043 82.3631394 0 82.3631394"></polygon>
        <path d="M80.8826835,0.621060327 C70.4131718,0.708111186 60.179941,2.79660027 50.4660893,6.83093208 L50.4660893,6.83093208 C40.7515061,10.8645324 32.0478833,16.6384183 24.5966224,23.9923871 L24.5966224,23.9923871 C16.8827459,31.6060453 10.8550226,40.5883772 6.67950748,50.6928605 L6.67950748,50.6928605 C2.50472386,60.7980753 0.433059733,71.4153539 0.523768191,82.2535516 L0.523768191,82.2535516 C0.61081905,92.7223317 2.69930814,102.955563 6.73363994,112.670146 L6.73363994,112.670146 C10.7672402,122.383997 16.5411262,131.08762 23.8950949,138.539613 L23.8950949,138.539613 C31.5080217,146.253489 40.4918166,152.281212 50.5955684,156.456728 L50.5955684,156.456728 C60.7000516,160.631511 71.3187933,162.702444 82.1562595,162.612467 L82.1562595,162.612467 C92.6250396,162.526148 102.859002,160.436195 112.572854,156.403327 L112.572854,156.403327 C122.286705,152.368995 130.990328,146.595109 138.441589,139.24114 L138.441589,139.24114 C146.156197,131.627482 152.18392,122.64515 156.359435,112.539935 L156.359435,112.539935 C160.534219,102.436183 162.605152,91.8181732 162.515906,80.9799756 L162.515906,80.9799756 C162.428124,70.5111955 160.338903,60.2779647 156.305303,50.5633815 L156.305303,50.5633815 C152.272434,40.8487983 146.497817,32.145907 139.143848,24.693183 L139.143848,24.693183 C131.53019,16.9800381 122.547858,10.9523147 112.442643,6.77679961 L112.442643,6.77679961 C102.548837,2.68906686 92.1641821,0.618134248 81.5608023,0.618134248 L81.5608023,0.618134248 C81.3354942,0.618134248 81.1079916,0.618134248 80.8826835,0.621060327" id="path-3"></path>
        <path d="M80.8826835,0.621060327 C70.4131718,0.708111186 60.179941,2.79660027 50.4660893,6.83093208 L50.4660893,6.83093208 C40.7515061,10.8645324 32.0478833,16.6384183 24.5966224,23.9923871 L24.5966224,23.9923871 C16.8827459,31.6060453 10.8550226,40.5883772 6.67950748,50.6928605 L6.67950748,50.6928605 C2.50472386,60.7980753 0.433059733,71.4153539 0.523768191,82.2535516 L0.523768191,82.2535516 C0.61081905,92.7223317 2.69930814,102.955563 6.73363994,112.670146 L6.73363994,112.670146 C10.7672402,122.383997 16.5411262,131.08762 23.8950949,138.539613 L23.8950949,138.539613 C31.5080217,146.253489 40.4918166,152.281212 50.5955684,156.456728 L50.5955684,156.456728 C60.7000516,160.631511 71.3187933,162.702444 82.1562595,162.612467 L82.1562595,162.612467 C92.6250396,162.526148 102.859002,160.436195 112.572854,156.403327 L112.572854,156.403327 C122.286705,152.368995 130.990328,146.595109 138.441589,139.24114 L138.441589,139.24114 C146.156197,131.627482 152.18392,122.64515 156.359435,112.539935 L156.359435,112.539935 C160.534219,102.436183 162.605152,91.8181732 162.515906,80.9799756 L162.515906,80.9799756 C162.428124,70.5111955 160.338903,60.2779647 156.305303,50.5633815 L156.305303,50.5633815 C152.272434,40.8487983 146.497817,32.145907 139.143848,24.693183 L139.143848,24.693183 C131.53019,16.9800381 122.547858,10.9523147 112.442643,6.77679961 L112.442643,6.77679961 C102.548837,2.68906686 92.1641821,0.618134248 81.5608023,0.618134248 L81.5608023,0.618134248 C81.3354942,0.618134248 81.1079916,0.618134248 80.8826835,0.621060327 L80.8826835,0.621060327 Z" id="path-5"></path>
        <path d="M80.8826835,0.621060327 C70.4131718,0.708111186 60.179941,2.79660027 50.4660893,6.83093208 L50.4660893,6.83093208 C40.7515061,10.8645324 32.0478833,16.6384183 24.5966224,23.9923871 L24.5966224,23.9923871 C16.8827459,31.6060453 10.8550226,40.5883772 6.67950748,50.6928605 L6.67950748,50.6928605 C2.50472386,60.7980753 0.433059733,71.4153539 0.523768191,82.2535516 L0.523768191,82.2535516 C0.61081905,92.7223317 2.69930814,102.955563 6.73363994,112.670146 L6.73363994,112.670146 C10.7672402,122.383997 16.5411262,131.08762 23.8950949,138.539613 L23.8950949,138.539613 C31.5080217,146.253489 40.4918166,152.281212 50.5955684,156.456728 L50.5955684,156.456728 C60.7000516,160.631511 71.3187933,162.702444 82.1562595,162.612467 L82.1562595,162.612467 C92.6250396,162.526148 102.859002,160.436195 112.572854,156.403327 L112.572854,156.403327 C122.286705,152.368995 130.990328,146.595109 138.441589,139.24114 L138.441589,139.24114 C146.156197,131.627482 152.18392,122.64515 156.359435,112.539935 L156.359435,112.539935 C160.534219,102.436183 162.605152,91.8181732 162.515906,80.9799756 L162.515906,80.9799756 C162.428124,70.5111955 160.338903,60.2779647 156.305303,50.5633815 L156.305303,50.5633815 C152.272434,40.8487983 146.497817,32.145907 139.143848,24.693183 L139.143848,24.693183 C131.53019,16.9800381 122.547858,10.9523147 112.442643,6.77679961 L112.442643,6.77679961 C102.548837,2.68906686 92.1641821,0.618134248 81.5608023,0.618134248 L81.5608023,0.618134248 C81.3354942,0.618134248 81.1079916,0.618134248 80.8826835,0.621060327" id="path-7"></path>
        <path d="M80.8826835,0.621060327 C70.4131718,0.708111186 60.179941,2.79660027 50.4660893,6.83093208 L50.4660893,6.83093208 C40.7515061,10.8645324 32.0478833,16.6384183 24.5966224,23.9923871 L24.5966224,23.9923871 C16.8827459,31.6060453 10.8550226,40.5883772 6.67950748,50.6928605 L6.67950748,50.6928605 C2.50472386,60.7980753 0.433059733,71.4153539 0.523768191,82.2535516 L0.523768191,82.2535516 C0.61081905,92.7223317 2.69930814,102.955563 6.73363994,112.670146 L6.73363994,112.670146 C10.7672402,122.383997 16.5411262,131.08762 23.8950949,138.539613 L23.8950949,138.539613 C31.5080217,146.253489 40.4918166,152.281212 50.5955684,156.456728 L50.5955684,156.456728 C60.7000516,160.631511 71.3187933,162.702444 82.1562595,162.612467 L82.1562595,162.612467 C92.6250396,162.526148 102.859002,160.436195 112.572854,156.403327 L112.572854,156.403327 C122.286705,152.368995 130.990328,146.595109 138.441589,139.24114 L138.441589,139.24114 C146.156197,131.627482 152.18392,122.64515 156.359435,112.539935 L156.359435,112.539935 C160.534219,102.436183 162.605152,91.8181732 162.515906,80.9799756 L162.515906,80.9799756 C162.428124,70.5111955 160.338903,60.2779647 156.305303,50.5633815 L156.305303,50.5633815 C152.272434,40.8487983 146.497817,32.145907 139.143848,24.693183 L139.143848,24.693183 C131.53019,16.9800381 122.547858,10.9523147 112.442643,6.77679961 L112.442643,6.77679961 C102.548837,2.68906686 92.1641821,0.618134248 81.5608023,0.618134248 L81.5608023,0.618134248 C81.3354942,0.618134248 81.1079916,0.618134248 80.8826835,0.621060327" id="path-9"></path>
        <path d="M80.8826835,0.621060327 C70.4131718,0.708111186 60.179941,2.79660027 50.4660893,6.83093208 L50.4660893,6.83093208 C40.7515061,10.8645324 32.0478833,16.6384183 24.5966224,23.9923871 L24.5966224,23.9923871 C16.8827459,31.6060453 10.8550226,40.5883772 6.67950748,50.6928605 L6.67950748,50.6928605 C2.50472386,60.7980753 0.433059733,71.4153539 0.523768191,82.2535516 L0.523768191,82.2535516 C0.61081905,92.7223317 2.69930814,102.955563 6.73363994,112.670146 L6.73363994,112.670146 C10.7672402,122.383997 16.5411262,131.08762 23.8950949,138.539613 L23.8950949,138.539613 C31.5080217,146.253489 40.4918166,152.281212 50.5955684,156.456728 L50.5955684,156.456728 C60.7000516,160.631511 71.3187933,162.702444 82.1562595,162.612467 L82.1562595,162.612467 C92.6250396,162.526148 102.859002,160.436195 112.572854,156.403327 L112.572854,156.403327 C122.286705,152.368995 130.990328,146.595109 138.441589,139.24114 L138.441589,139.24114 C146.156197,131.627482 152.18392,122.64515 156.359435,112.539935 L156.359435,112.539935 C160.534219,102.436183 162.605152,91.8181732 162.515906,80.9799756 L162.515906,80.9799756 C162.428124,70.5111955 160.338903,60.2779647 156.305303,50.5633815 L156.305303,50.5633815 C152.272434,40.8487983 146.497817,32.145907 139.143848,24.693183 L139.143848,24.693183 C131.53019,16.9800381 122.547858,10.9523147 112.442643,6.77679961 L112.442643,6.77679961 C102.548837,2.68906686 92.1641821,0.618134248 81.5608023,0.618134248 L81.5608023,0.618134248 C81.3354942,0.618134248 81.1079916,0.618134248 80.8826835,0.621060327 L80.8826835,0.621060327 Z" id="path-11"></path>
        <path d="M80.8826835,0.621060327 C70.4131718,0.708111186 60.179941,2.79660027 50.4660893,6.83093208 L50.4660893,6.83093208 C40.7515061,10.8645324 32.0478833,16.6384183 24.5966224,23.9923871 L24.5966224,23.9923871 C16.8827459,31.6060453 10.8550226,40.5883772 6.67950748,50.6928605 L6.67950748,50.6928605 C2.50472386,60.7980753 0.433059733,71.4153539 0.523768191,82.2535516 L0.523768191,82.2535516 C0.61081905,92.7223317 2.69930814,102.955563 6.73363994,112.670146 L6.73363994,112.670146 C10.7672402,122.383997 16.5411262,131.08762 23.8950949,138.539613 L23.8950949,138.539613 C31.5080217,146.253489 40.4918166,152.281212 50.5955684,156.456728 L50.5955684,156.456728 C60.7000516,160.631511 71.3187933,162.702444 82.1562595,162.612467 L82.1562595,162.612467 C92.6250396,162.526148 102.859002,160.436195 112.572854,156.403327 L112.572854,156.403327 C122.286705,152.368995 130.990328,146.595109 138.441589,139.24114 L138.441589,139.24114 C146.156197,131.627482 152.18392,122.64515 156.359435,112.539935 L156.359435,112.539935 C160.534219,102.436183 162.605152,91.8181732 162.515906,80.9799756 L162.515906,80.9799756 C162.428124,70.5111955 160.338903,60.2779647 156.305303,50.5633815 L156.305303,50.5633815 C152.272434,40.8487983 146.497817,32.145907 139.143848,24.693183 L139.143848,24.693183 C131.53019,16.9800381 122.547858,10.9523147 112.442643,6.77679961 L112.442643,6.77679961 C102.548837,2.68906686 92.1641821,0.618134248 81.5608023,0.618134248 L81.5608023,0.618134248 C81.3354942,0.618134248 81.1079916,0.618134248 80.8826835,0.621060327 L80.8826835,0.621060327 Z" id="path-13"></path>
        <path d="M80.8826835,0.621060327 C70.4131718,0.708111186 60.179941,2.79660027 50.4660893,6.83093208 L50.4660893,6.83093208 C40.7515061,10.8645324 32.0478833,16.6384183 24.5966224,23.9923871 L24.5966224,23.9923871 C16.8827459,31.6060453 10.8550226,40.5883772 6.67950748,50.6928605 L6.67950748,50.6928605 C2.50472386,60.7980753 0.433059733,71.4153539 0.523768191,82.2535516 L0.523768191,82.2535516 C0.61081905,92.7223317 2.69930814,102.955563 6.73363994,112.670146 L6.73363994,112.670146 C10.7672402,122.383997 16.5411262,131.08762 23.8950949,138.539613 L23.8950949,138.539613 C31.5080217,146.253489 40.4918166,152.281212 50.5955684,156.456728 L50.5955684,156.456728 C60.7000516,160.631511 71.3187933,162.702444 82.1562595,162.612467 L82.1562595,162.612467 C92.6250396,162.526148 102.859002,160.436195 112.572854,156.403327 L112.572854,156.403327 C122.286705,152.368995 130.990328,146.595109 138.441589,139.24114 L138.441589,139.24114 C146.156197,131.627482 152.18392,122.64515 156.359435,112.539935 L156.359435,112.539935 C160.534219,102.436183 162.605152,91.8181732 162.515906,80.9799756 L162.515906,80.9799756 C162.428124,70.5111955 160.338903,60.2779647 156.305303,50.5633815 L156.305303,50.5633815 C152.272434,40.8487983 146.497817,32.145907 139.143848,24.693183 L139.143848,24.693183 C131.53019,16.9800381 122.547858,10.9523147 112.442643,6.77679961 L112.442643,6.77679961 C102.548837,2.68906686 92.1641821,0.618134248 81.5608023,0.618134248 L81.5608023,0.618134248 C81.3354942,0.618134248 81.1079916,0.618134248 80.8826835,0.621060327 L80.8826835,0.621060327 Z" id="path-15"></path>
        <path d="M80.8826835,0.621060327 C70.4131718,0.708111186 60.179941,2.79660027 50.4660893,6.83093208 L50.4660893,6.83093208 C40.7515061,10.8645324 32.0478833,16.6384183 24.5966224,23.9923871 L24.5966224,23.9923871 C16.8827459,31.6060453 10.8550226,40.5883772 6.67950748,50.6928605 L6.67950748,50.6928605 C2.50472386,60.7980753 0.433059733,71.4153539 0.523768191,82.2535516 L0.523768191,82.2535516 C0.61081905,92.7223317 2.69930814,102.955563 6.73363994,112.670146 L6.73363994,112.670146 C10.7672402,122.383997 16.5411262,131.08762 23.8950949,138.539613 L23.8950949,138.539613 C31.5080217,146.253489 40.4918166,152.281212 50.5955684,156.456728 L50.5955684,156.456728 C60.7000516,160.631511 71.3187933,162.702444 82.1562595,162.612467 L82.1562595,162.612467 C92.6250396,162.526148 102.859002,160.436195 112.572854,156.403327 L112.572854,156.403327 C122.286705,152.368995 130.990328,146.595109 138.441589,139.24114 L138.441589,139.24114 C146.156197,131.627482 152.18392,122.64515 156.359435,112.539935 L156.359435,112.539935 C160.534219,102.436183 162.605152,91.8181732 162.515906,80.9799756 L162.515906,80.9799756 C162.428124,70.5111955 160.338903,60.2779647 156.305303,50.5633815 L156.305303,50.5633815 C152.272434,40.8487983 146.497817,32.145907 139.143848,24.693183 L139.143848,24.693183 C131.53019,16.9800381 122.547858,10.9523147 112.442643,6.77679961 L112.442643,6.77679961 C102.548837,2.68906686 92.1641821,0.618134248 81.5608023,0.618134248 L81.5608023,0.618134248 C81.3354942,0.618134248 81.1079916,0.618134248 80.8826835,0.621060327 L80.8826835,0.621060327 Z" id="path-17"></path>
    </defs>
    <g id="Illustrations-/-404" stroke="none" stroke-width="1" fill="none" fill-rule="evenodd">
        <g id="Group-298" transform="translate(11.000000, 17.000000)">
            <polygon id="Fill-1" fill="#242459" points="184.275261 531.679443 393.724739 531.679443 393.724739 0 184.275261 0"></polygon>
            <g id="Group-243" transform="translate(0.000000, 70.487805)">
                <path d="M483.729733,202.417886 C483.729733,310.02074 396.482384,397.249732 288.856887,397.249732 C181.231389,397.249732 93.9840407,310.02074 93.9840407,202.417886 C93.9840407,94.8143028 181.231389,7.58604023 288.856887,7.58604023 C396.482384,7.58604023 483.729733,94.8143028 483.729733,202.417886" id="Fill-2" fill="#141733"></path>
                <path d="M16.8582604,286.56289 C49.6385962,286.56289 57.0175836,255.102082 76.4323992,255.102082 C95.8479447,255.102082 62.926028,213.265729 81.0469119,194.837829 C99.1677957,176.4092 115.721803,204.307884 126.799407,204.307884 C137.87774,204.307884 150.965207,150.801598 168.43876,150.801598 C185.913043,150.801598 182.583705,197.622152 216.52223,198.511589 C256.256081,199.552062 248.750109,247.088397 253.355864,252.643909 C257.962349,258.198693 263.808031,250.095991 272.258361,255.034954 C280.708692,259.975377 280.436478,286.56289 293.968392,286.56289 L16.8582604,286.56289 Z" id="Fill-4" fill="#17204D"></path>
                <path d="M235.606593,286.56289 C268.387659,286.56289 275.765916,255.102082 295.181462,255.102082 C314.596278,255.102082 281.674361,213.265729 299.795245,194.837829 C317.916129,176.4092 334.470136,204.307884 345.54774,204.307884 C356.626803,204.307884 369.71354,150.801598 387.187823,150.801598 C404.661376,150.801598 401.332767,197.622152 435.271293,198.511589 C475.004414,199.552062 467.498442,247.088397 472.104927,252.643909 C476.711411,258.198693 482.557093,250.095991 491.006694,255.034954 C499.457755,259.975377 499.18481,286.56289 512.716724,286.56289 L235.606593,286.56289 Z" id="Fill-6" fill="#17204D"></path>
                <path d="M547.612745,286.56289 C547.612745,273.61462 538.38153,267.230231 537.437901,259.745539 C536.493543,252.260116 540.794242,243.875772 539.849884,236.040121 C538.906255,228.204469 533.891083,220.902188 529.045954,218.49728 C524.200096,216.092371 521.492545,203.732195 514.464591,204.682192 C507.436636,205.632918 506.666699,218.341865 503.046901,220.891973 C499.426373,223.44281 493.452977,225.140692 492.735586,232.648004 C492.018194,240.155315 501.35231,250.541804 496.316704,258.729144 C491.281828,266.915025 489.183659,275.803553 489.183659,286.56289 L547.612745,286.56289 Z" id="Fill-8" fill="#FFB057"></path>
                <path d="M513.280493,220.165903 C516.856504,224.490506 522.608041,221.89589 523.728281,223.913357 C524.849251,225.930824 518.528471,231.236798 519.404958,242.650626 C520.281445,254.065184 532.002731,251.682895 539.383908,265.179128 C539.385367,265.182046 539.386827,265.184235 539.388286,265.187154 C538.409627,263.367421 537.670342,261.592196 537.437536,259.745466 C536.493908,252.260044 540.794607,243.875699 539.850248,236.040048 C538.90589,228.204396 533.890718,220.902115 529.045589,218.497207 C524.200461,216.092299 521.49291,203.732122 514.464956,204.682119 C514.464956,204.682119 509.705213,215.84203 513.280493,220.165903" id="Fill-10" fill="#FFC785"></path>
                <path d="M464.849786,228.821165 C481.446122,228.821165 479.603382,253.82389 490.637927,253.82389 C501.673203,253.82389 508.091046,247.33954 514.209672,251.865525 C520.328298,256.391509 524.030564,271.781899 529.700364,273.324368 C535.370165,274.866836 538.739642,268.043931 548.250369,269.956329 C557.761096,271.868727 565.564096,286.563036 577.391203,286.563036 L464.849786,286.563036 L464.849786,228.821165 Z" id="Fill-12" fill="#17204D"></path>
                <path d="M453.326568,148.299502 C469.938959,151.184516 470.123598,172.342745 474.737381,179.075174 C479.351893,185.806874 492.087598,182.92186 497.348712,194.030696 C502.609095,205.138074 490.980494,219.083768 498.733138,230.624554 C506.485053,242.16534 495.503053,242.838072 499.101686,252.937081 C502.70105,263.03536 511.468843,264.28524 511.468843,286.562744 L402.38302,286.562744 C402.38302,256.59187 413.642343,255.053049 416.411196,235.241014 C419.17932,215.428979 401.691171,202.541999 405.289805,191.722101 C408.889169,180.902934 422.17879,181.191143 427.301242,175.276645 C432.422964,169.361418 436.714176,145.414488 453.326568,148.299502" id="Fill-14" fill="#17204D"></path>
                <path d="M498.732992,230.624627 C490.980348,219.083841 502.608949,205.138147 497.348566,194.03004 C492.088182,182.921933 479.351747,185.806947 474.737965,179.075247 C470.123452,172.342818 469.938813,151.184589 453.326422,148.299575 C452.328788,148.126649 451.377861,148.054414 450.466343,148.064284 C450.381687,148.18721 429.881662,177.685275 440.596556,191.912612 C451.333343,206.169134 474.365768,197.64105 475.577962,201.117076 C476.790157,204.591643 453.58477,212.998606 459.819434,225.840348 C466.053369,238.68282 483.167861,238.098375 485.001843,241.263572 C486.834366,244.42877 474.365768,246.594354 479.214545,255.798089 C484.064053,265.001824 511.468697,266.79675 511.468697,286.562817 C511.468697,264.285313 502.700904,263.035433 499.10154,252.937154 C495.502907,242.838145 506.484907,242.165413 498.732992,230.624627" id="Fill-16" fill="#1F2B66"></path>
                <path d="M333.283704,56.1904287 C352.15336,61.1826559 352.363542,88.6121792 357.604951,100.260953 C362.84636,111.910456 377.313145,106.917499 383.288002,126.138522 C389.263587,145.360275 376.054974,169.490346 384.860716,189.459985 C393.666459,209.430353 381.192022,210.594865 385.28035,228.06839 C389.368678,245.542645 399.327502,247.706041 399.327502,286.253886 L275.417292,286.253886 C275.417292,234.392219 288.206272,231.729746 291.351701,197.448132 C294.496401,163.166518 274.63057,140.867125 278.719628,122.145178 C282.807956,103.422502 297.903827,103.922308 303.721777,93.6883155 C309.539726,83.4528634 314.414777,51.1974718 333.283704,56.1904287" id="Fill-18" fill="#17204D"></path>
                <path d="M384.860643,189.460277 C376.054901,169.490638 389.263514,145.360567 383.287929,126.138814 C377.313072,106.917791 362.846287,111.910747 357.604878,100.261244 C352.363469,88.6117414 352.153287,61.1822181 333.283631,56.1907206 C332.150254,55.890107 331.070883,55.7675268 330.03457,55.7834057 C329.938966,55.9959055 306.652572,97.8563364 318.823413,122.47454 C331.019797,147.144548 357.182325,132.387489 358.559454,138.400489 C359.936583,144.414948 333.577009,158.96041 340.658969,181.182461 C347.740199,203.403782 367.180557,202.393224 369.263401,207.869206 C371.345514,213.345917 357.182325,217.0941 362.69011,233.01932 C368.197896,248.945269 399.327429,252.051365 399.327429,286.253448 C399.327429,247.705603 389.368605,245.542207 385.280277,228.068682 C381.191949,210.595157 393.666386,209.429915 384.860643,189.460277" id="Fill-20" fill="#1F2B66"></path>
                <path d="M163.547654,208.740985 L187.015038,208.740985 L187.015038,168.622215 L185.134349,171.666292 L163.547654,208.740985 Z M217.200212,208.740985 L230.456993,208.740985 L230.456993,232.024668 L217.200212,232.024668 L217.200212,259.695704 L187.015038,259.695704 L187.015038,232.024668 L136.586728,232.024668 L134.795803,213.577068 L187.015038,129.577482 L187.015038,129.308973 L217.200212,129.308973 L217.200212,208.740985 Z" id="Fill-22" fill="#FFFFFF"></path>
                <path d="M299.140032,145.993023 C296.580631,131.439535 290.775817,117.856474 282.5291,105.808585 L273.421951,106.623598 L279.02753,100.980528 C258.913567,74.70968 226.86157,56.6779771 192.077209,53.4347076 C227.106782,65.5832874 223.519825,122.426237 233.412966,155.236158 L257.138699,157.443333 L237.857436,166.27349 C238.524471,167.492726 239.231646,168.646294 239.994285,169.711574 C260.405274,198.231916 284.766661,202.53317 299.881507,236.169049 C295.327567,195.128738 306.44312,187.518547 299.140032,145.993023" id="Fill-24" fill="#364AB3"></path>
                <path d="M233.413331,155.236158 L257.139064,157.443333 L237.857801,166.27349 C238.524107,167.492726 239.231281,168.646294 239.99392,169.711574 C260.405639,198.231916 284.767026,202.53317 299.881872,236.169049 C289.501225,132.589454 232.844089,63.2907446 192.076844,53.4347076 C227.106417,65.5832874 223.51946,122.426237 233.413331,155.236158" id="Fill-26" fill="#3D55CC"></path>
                <path d="M297.974764,213.696073 C314.78712,190.423334 334.03992,190.970568 354.087471,172.430303 C354.836243,171.73787 355.556554,170.968825 356.25643,170.145056 L342.941996,160.382414 L361.380342,162.426148 C374.081746,138.962972 380.28211,95.0544288 408.902597,91.294571 C381.86869,88.3030288 354.593951,97.0164427 335.126589,113.888011 L338.513582,119.072135 L331.697998,117.019645 C323.515504,124.910749 316.95389,134.355997 312.715223,145.051125 C300.618822,175.567774 307.898557,183.118134 297.974764,213.696073" id="Fill-28" fill="#3D55CC"></path>
                <path d="M408.90267,91.294644 C376.267564,92.4051628 322.172018,136.344351 297.974837,213.696146 C314.787193,190.422678 334.039993,190.970641 354.087544,172.430376 C354.836316,171.737943 355.556627,170.968898 356.256503,170.144399 L342.942069,160.382487 L361.380415,162.426221 C374.081819,138.963045 380.282183,95.0545017 408.90267,91.294644" id="Fill-30" fill="#364AB3"></path>
                <g id="Group-34" transform="translate(0.000000, 286.020619)">
                    <mask id="mask-2" fill="white">
                        <use xlink:href="#path-1"></use>
                    </mask>
                    <g id="Clip-33"></g>
                    <polygon id="Fill-32" fill="#3D55CC" mask="url(#mask-2)" points="-0.000145959596 0.542271744 577.713043 0.542271744 184.238084 82.3631394"></polygon>
                </g>
                <path d="M376.008632,208.740985 L399.476015,208.740985 L399.476015,168.622215 L397.595326,171.666292 L376.008632,208.740985 Z M429.661919,208.740985 L442.91797,208.740985 L442.91797,232.024668 L429.661919,232.024668 L429.661919,259.695704 L399.476015,259.695704 L399.476015,232.024668 L349.048435,232.024668 L347.256781,213.577068 L399.476015,129.577482 L399.476015,129.308973 L429.661919,129.308973 L429.661919,208.740985 Z" id="Fill-35" fill="#FFFFFF"></path>
                <path d="M491.710511,271.747679 C495.087287,273.142759 496.693572,277.010604 495.298928,280.386669 C493.902824,283.763463 490.034895,285.369411 486.65739,283.974331 C483.280615,282.579251 481.67433,278.711405 483.069703,275.335341 C484.465077,271.958546 488.333736,270.352599 491.710511,271.747679" id="Fill-37" fill="#2A9BA6"></path>
                <path d="M212.614746,162.814756 C195.110541,205.169156 215.262453,253.690511 257.625766,271.191033 C299.989079,288.692285 348.520645,268.543883 366.024849,226.189483 C383.529054,183.836542 363.377872,135.314458 321.014559,117.813206 C278.651246,100.312684 230.11895,120.460356 212.614746,162.814756 M214.655991,163.657496 C218.821678,153.579647 224.835943,144.619613 232.531662,137.025474 C239.965385,129.691088 248.648521,123.931275 258.339508,119.908015 C268.031226,115.884756 278.240369,113.800891 288.684508,113.714064 C299.497195,113.624317 310.090213,115.689941 320.170912,119.854022 C330.250882,124.018832 339.213531,130.031102 346.808539,137.725203 C354.145198,145.158091 359.906223,153.8394 363.929599,163.529078 C367.954435,173.218027 370.038008,183.425023 370.125584,193.867694 C370.215349,204.677376 368.148561,215.268895 363.983604,225.346744 C359.818647,235.425322 353.804382,244.385356 346.108662,251.978766 C338.67421,259.313881 329.991074,265.072965 320.300087,269.096954 C310.609099,273.120213 300.399226,275.204078 289.955087,275.290176 C279.14313,275.379922 268.549382,273.314299 258.469412,269.150218 C248.388713,264.985407 239.426794,258.973137 231.831786,251.279037 C224.494397,243.846878 218.734102,235.164839 214.709996,225.475891 C210.68589,215.786942 208.601587,205.579217 208.514741,195.137275 C208.424976,184.326863 210.491034,173.736804 214.655991,163.657496" id="Fill-39" fill="#2A9BA6"></path>
                <polygon id="Fill-41" fill="#50D9E6" points="403.716361 242.553365 401.686063 247.46679 368.445224 233.734882 370.476252 228.821456"></polygon>
                <polygon id="Fill-43" fill="#8ADEE6" points="405.747169 237.640377 403.716142 242.553073 370.476033 228.821165 372.507061 223.908469"></polygon>
                <polygon id="Fill-45" fill="#33BFCC" points="489.183951 277.861297 485.587506 286.563036 386.169317 245.49281 389.765761 236.790341"></polygon>
                <polygon id="Fill-47" fill="#50D9E6" points="492.780614 269.158973 489.18417 277.861443 389.76598 236.790487 393.361695 228.088018"></polygon>
                <path d="M366.025214,226.189775 C348.52101,268.544175 299.988714,288.691847 257.625401,271.191325 C215.262088,253.690803 195.110176,205.168719 212.615111,162.815048 C230.119315,120.460648 278.650881,100.312247 321.014194,117.813498 C363.377507,135.31402 383.529419,183.836104 366.025214,226.189775 M204.254545,159.360911 C184.841919,206.331042 207.190522,260.14159 254.171267,279.550132 C301.151282,298.957944 354.973154,276.614042 374.38578,229.643912 C393.797676,182.673051 371.449073,128.862504 324.469058,109.454691 C277.488313,90.046879 223.666441,112.390051 204.254545,159.360911" id="Fill-49" fill="#33BFCC"></path>
                <path d="M204.254545,159.361057 C184.841919,206.331188 207.190522,260.141736 254.171267,279.550278 C301.151282,298.95809 354.973154,276.614188 374.38578,229.643328 C393.797676,182.673197 371.449073,128.86265 324.469058,109.454837 C277.488313,90.047025 223.666441,112.390197 204.254545,159.361057 M206.29579,160.203797 C210.927818,148.997917 217.614957,139.033893 226.172568,130.589718 C234.438989,122.433752 244.094217,116.028934 254.870414,111.555484 C265.64734,107.082034 277.000078,104.764683 288.613353,104.66837 C300.636775,104.567679 312.416444,106.865329 323.625411,111.495653 C334.834378,116.126706 344.800499,122.812438 353.245722,131.368249 C361.404133,139.632931 367.80957,149.286127 372.283962,160.060057 C376.759083,170.834716 379.076921,182.184335 379.173255,193.795897 C379.273237,205.816789 376.975103,217.59398 372.343805,228.800589 C367.712507,240.007197 361.024638,249.971222 352.467027,258.414667 C344.200606,266.571362 334.545378,272.975452 323.769181,277.449631 C312.992984,281.923081 301.640247,284.239702 290.026242,284.336745 C278.00355,284.436706 266.223881,282.139056 255.014914,277.508733 C243.805946,272.878409 233.839825,266.191947 225.393873,257.636137 C217.236191,249.371454 210.830025,239.718258 206.355633,228.944329 C201.881242,218.170399 199.563404,206.82005 199.46634,195.208488 C199.367088,183.187596 201.664492,171.411135 206.29579,160.203797" id="Fill-51" fill="#50D9E6"></path>
                <path d="M258.571,167.159862 C249.733877,157.173219 238.859157,149.465255 226.829167,144.088505 L220.209899,149.012146 L221.857783,142.02653 C193.988258,131.309512 160.825508,132.560852 132.539998,146.475901 C165.216702,139.295471 189.28544,184.70854 212.379897,205.275758 L231.669917,195.781624 L221.006839,211.669632 C222.095697,212.292018 223.183826,212.845819 224.272685,213.305495 C253.432493,225.612407 274.200354,217.428715 301.700601,236.168903 C278.828003,206.751828 283.78625,195.653936 258.571,167.159862" id="Fill-53" fill="#364AB3"></path>
                <path d="M212.379605,205.275903 L231.670355,195.78104 L221.007277,211.669778 C222.095405,212.292164 223.183534,212.845964 224.272393,213.30564 C253.432201,225.612553 274.200062,217.428132 301.700309,236.169049 C244.831532,161.397276 168.547938,134.825085 132.540436,146.476047 C165.21641,139.294887 189.285148,184.708686 212.379605,205.275903" id="Fill-55" fill="#3D55CC"></path>
                <path d="M369.379877,253.644106 C369.214942,254.183313 368.255988,254.369373 367.237919,254.057814 C366.220581,253.747716 365.529462,253.057472 365.694397,252.517535 C365.859331,251.977598 366.818286,251.792268 367.835624,252.103097 C368.853692,252.413926 369.544811,253.104169 369.379877,253.644106 M319.120149,218.963376 L318.426841,227.61623 L317.703611,236.66455 C341.430073,228.441458 359.331288,270.847663 389.173457,255.255891 C365.484215,253.576979 365.32293,204.30482 319.120149,218.963376" id="Fill-57" fill="#556FF2"></path>
                <path d="M369.379877,253.644106 C369.214942,254.183313 368.255988,254.369373 367.237919,254.057814 C366.220581,253.747716 365.529462,253.057472 365.694397,252.517535 C365.859331,251.977598 366.818286,251.792268 367.835624,252.103097 C368.853692,252.413926 369.544811,253.104169 369.379877,253.644106 M318.594695,227.346991 L318.426841,227.61623 L317.703611,236.66455 C341.430073,228.441458 359.331288,270.847663 389.173457,255.255891 C365.615579,257.663717 353.157197,215.337044 318.594695,227.346991" id="Fill-59" fill="#3D55CC"></path>
                <path d="M314.4925,222.161043 C328.301008,216.337021 336.408334,221.34749 350.264278,218.358136 C350.781705,218.246501 351.308619,218.094735 351.842831,217.914513 L348.894447,210.418875 L356.228187,215.870778 C368.326778,208.944993 383.427028,191.626153 396.775033,197.11089 C386.02073,189.119825 371.847323,186.096908 358.713149,188.51349 L358.697823,191.580186 L356.354442,189.007459 C350.607283,190.367517 345.115553,192.796503 340.266046,196.337467 C326.429076,206.443043 327.415033,211.490723 314.4925,222.161043" id="Fill-61" fill="#3D55CC"></path>
                <path d="M396.774741,197.11089 C382.454645,189.492673 346.790878,194.944576 314.492208,222.161043 C328.300716,216.337021 336.408042,221.34749 350.264716,218.358136 C350.782143,218.246501 351.308327,218.094735 351.842539,217.914513 L348.894885,210.418875 L356.228625,215.870778 C368.326486,208.944993 383.426736,191.626153 396.774741,197.11089" id="Fill-63" fill="#364AB3"></path>
                <path d="M301.700382,244.108821 C301.541286,234.940838 300.58744,230.60748 300.58744,230.60748 L300.375069,229.977797 L299.593456,228.813284 L294.057938,226.674697 L268.090996,229.470694 L272.763892,245.662963 L301.700382,244.108821 Z" id="Fill-65" fill="#364AB3"></path>
                <path d="M304.083611,178.741508 C304.083611,169.367766 302.859739,162.368287 300.411267,157.741612 C297.962065,153.114936 294.081729,150.801234 288.76734,150.801234 C283.571909,150.801234 279.795204,152.950037 277.436497,157.249102 C275.07633,161.547437 273.808671,168.055136 273.629871,176.771468 L273.629871,210.084114 C273.629871,219.815382 274.852282,226.935253 277.302214,231.442996 C279.750686,235.95001 283.630292,238.203152 288.946141,238.203152 C294.081729,238.203152 297.8723,236.009111 300.321502,231.621759 C302.769974,227.233677 304.023767,220.352401 304.083611,210.980118 L304.083611,178.741508 Z M334.268785,206.412544 C334.268785,224.024701 330.31255,237.607032 322.40081,247.158807 C314.487611,256.710583 303.336297,261.486835 288.946141,261.486835 C274.435568,261.486835 263.208356,256.680667 255.267424,247.069791 C247.325762,237.457455 243.354931,223.905039 243.354931,206.412544 L243.354931,182.591842 C243.354931,164.980414 247.309707,151.398083 255.222906,141.846308 C263.135376,132.293803 274.315151,127.51755 288.76734,127.51755 C303.21734,127.51755 314.413901,132.323718 322.356292,141.936054 C330.296494,151.54693 334.268785,165.129261 334.268785,182.681588 L334.268785,206.412544 Z" id="Fill-67" fill="#FFFFFF"></path>
                <path d="M326.779306,206.239253 C326.604155,205.789792 326.923076,205.246207 327.491589,205.025125 C328.059372,204.804042 328.661455,204.989372 328.836607,205.438833 C329.011758,205.889024 328.692836,206.432609 328.124324,206.652961 C327.556541,206.874044 326.954458,206.688714 326.779306,206.239253 M300.721869,230.78814 C298.446359,223.826602 309.436387,220.136061 320.707387,214.331739 L321.328445,209.849534 L322.558155,213.358394 C333.256263,207.608796 343.566849,199.684857 342.359033,184.967199 C340.701662,189.11158 336.756374,190.861267 331.944816,191.892984 L330.753786,195.136983 L329.721852,192.316908 C322.263316,193.581381 313.373647,193.828001 307.657869,198.496266 C290.860839,212.213582 300.721869,230.78814 300.721869,230.78814" id="Fill-69" fill="#556FF2"></path>
                <path d="M328.836534,205.439052 C329.011685,205.888513 328.692763,206.432098 328.124251,206.65318 C327.556468,206.874263 326.954385,206.688933 326.779233,206.239472 C326.604082,205.789281 326.923003,205.245696 327.491516,205.025344 C328.059299,204.804261 328.661382,204.989591 328.836534,205.439052 M342.35896,184.966688 C339.479178,208.594035 295.473819,198.234543 298.086496,221.845107 C298.777614,227.121896 300.721796,230.787629 300.721796,230.787629 C298.446286,223.826092 309.436314,220.13628 320.707314,214.331958 L321.328372,209.849753 L322.558082,213.358613 C333.25619,207.609015 343.566776,199.684346 342.35896,184.966688" id="Fill-71" fill="#3D55CC"></path>
                <path d="M269.07075,286.56289 C275.152156,286.56289 279.814106,277.629853 288.031631,277.629853 C296.249156,277.629853 301.084068,284.497997 306.192654,284.497997 C311.30124,284.497997 313.535881,281.315288 318.036545,281.315288 C322.537209,281.315288 325.623525,286.56289 333.721363,286.56289 L269.07075,286.56289 Z" id="Fill-73" fill="#17204D"></path>
                <path d="M232.419128,248.446046 L244.977491,224.519546 C256.927933,224.519546 260.466723,252.845802 271.891711,252.845802 C279.73412,252.845802 279.369221,248.167322 288.370549,248.167322 C297.371148,248.167322 299.378092,257.079929 310.142612,257.079929 L309.89959,270.639641 L274.807984,270.639641 L232.419128,248.446046 Z" id="Fill-75" fill="#17204D"></path>
                <path d="M202.649208,259.695704 C192.077355,259.695704 187.015476,251.760091 187.015476,243.095563 L187.015476,232.024668 L180.481595,232.024668 C174.095862,232.024668 172.818716,227.77303 167.345231,227.77303 C161.871746,227.77303 159.499903,232.024668 152.384372,232.024668 L152.384372,271.095669 L202.649208,271.095669 L202.649208,259.695704 Z" id="Fill-77" fill="#17204D"></path>
                <path d="M517.476467,286.406819 C491.659863,286.406819 487.054108,271.620575 475.148184,271.620575 C467.817363,271.620575 463.671381,276.733193 463.671381,276.733193 C463.671381,276.733193 454.46206,263.189533 435.263995,263.189533 C416.065929,263.189533 406.49098,286.406819 406.49098,286.406819 L517.476467,286.406819 Z" id="Fill-79" fill="#17204D"></path>
                <path d="M362.955684,494.698927 L360.76629,494.698927 C360.76629,492.442866 359.57453,491.328699 358.193752,490.037229 C356.662636,488.604937 354.927906,486.982207 354.927906,483.776879 C354.927906,480.572281 356.662636,478.948822 358.193752,477.51653 C359.57453,476.225789 360.76629,475.110892 360.76629,472.855562 C360.76629,470.600231 359.57453,469.484604 358.193752,468.194593 C356.662636,466.762301 354.927906,465.139572 354.927906,461.934973 C354.927906,458.729645 356.662636,457.106916 358.193752,455.675354 C359.57453,454.384613 360.76629,453.269716 360.76629,451.014385 C360.76629,448.760513 359.57453,447.646346 358.194482,446.355605 C356.663366,444.924043 354.927906,443.302773 354.927906,440.098175 C354.927906,436.892847 356.662636,435.270847 358.194482,433.839285 C359.57453,432.548544 360.76629,431.433647 360.76629,429.179046 L362.955684,429.179046 C362.955684,432.384374 361.220954,434.006373 359.689108,435.437936 C358.30906,436.728677 357.1173,437.843573 357.1173,440.098175 C357.1173,442.352046 358.30906,443.466213 359.689108,444.756954 C361.220224,446.188517 362.955684,447.809787 362.955684,451.014385 C362.955684,454.218983 361.220954,455.841713 359.689838,457.274005 C358.30906,458.564746 357.1173,459.679642 357.1173,461.934973 C357.1173,464.190304 358.30906,465.305201 359.689838,466.595212 C361.220954,468.027504 362.955684,469.650234 362.955684,472.855562 C362.955684,476.06016 361.220954,477.683619 359.689838,479.115911 C358.30906,480.406652 357.1173,481.520819 357.1173,483.776879 C357.1173,486.03294 358.30906,487.147107 359.689838,488.438578 C361.220954,489.87087 362.955684,491.493599 362.955684,494.698927" id="Fill-81" fill="#556FF2"></path>
                <path d="M352.196491,494.698927 L350.007097,494.698927 C350.007097,492.442866 348.815337,491.328699 347.434559,490.037229 C345.903443,488.604937 344.168713,486.982207 344.168713,483.776879 C344.168713,480.572281 345.903443,478.948822 347.434559,477.51653 C348.815337,476.225789 350.007097,475.110892 350.007097,472.855562 C350.007097,470.600231 348.815337,469.484604 347.434559,468.194593 C345.903443,466.762301 344.168713,465.139572 344.168713,461.934973 C344.168713,458.729645 345.903443,457.106916 347.434559,455.675354 C348.815337,454.384613 350.007097,453.269716 350.007097,451.014385 C350.007097,448.760513 348.815337,447.646346 347.435289,446.355605 C345.904173,444.924043 344.168713,443.302773 344.168713,440.098175 C344.168713,436.892847 345.903443,435.270847 347.435289,433.839285 C348.815337,432.548544 350.007097,431.433647 350.007097,429.179046 L352.196491,429.179046 C352.196491,432.384374 350.461761,434.006373 348.929915,435.437936 C347.549867,436.728677 346.358107,437.843573 346.358107,440.098175 C346.358107,442.352046 347.549867,443.466213 348.929915,444.756954 C350.461032,446.188517 352.196491,447.809787 352.196491,451.014385 C352.196491,454.218983 350.461761,455.841713 348.930645,457.274005 C347.549867,458.564746 346.358107,459.679642 346.358107,461.934973 C346.358107,464.190304 347.549867,465.305201 348.930645,466.595212 C350.461761,468.027504 352.196491,469.650234 352.196491,472.855562 C352.196491,476.06016 350.461761,477.683619 348.930645,479.115911 C347.549867,480.406652 346.358107,481.520819 346.358107,483.776879 C346.358107,486.03294 347.549867,487.147107 348.930645,488.438578 C350.461761,489.87087 352.196491,491.493599 352.196491,494.698927" id="Fill-83" fill="#556FF2"></path>
                <path d="M341.436934,494.698927 L339.24754,494.698927 C339.24754,492.442866 338.05578,491.328699 336.675002,490.037229 C335.143886,488.604937 333.409156,486.982207 333.409156,483.776879 C333.409156,480.572281 335.143886,478.948822 336.675002,477.51653 C338.05578,476.225789 339.24754,475.110892 339.24754,472.855562 C339.24754,470.600231 338.05578,469.484604 336.675002,468.194593 C335.143886,466.762301 333.409156,465.139572 333.409156,461.934973 C333.409156,458.729645 335.143886,457.106916 336.675002,455.675354 C338.05578,454.384613 339.24754,453.269716 339.24754,451.014385 C339.24754,448.760513 338.05578,447.646346 336.675732,446.355605 C335.144615,444.924043 333.409156,443.302773 333.409156,440.098175 C333.409156,436.892847 335.143886,435.270847 336.675732,433.839285 C338.05578,432.548544 339.24754,431.433647 339.24754,429.179046 L341.436934,429.179046 C341.436934,432.384374 339.702204,434.006373 338.170358,435.437936 C336.79031,436.728677 335.59855,437.843573 335.59855,440.098175 C335.59855,442.352046 336.79031,443.466213 338.170358,444.756954 C339.701474,446.188517 341.436934,447.809787 341.436934,451.014385 C341.436934,454.218983 339.702204,455.841713 338.171088,457.274005 C336.79031,458.564746 335.59855,459.679642 335.59855,461.934973 C335.59855,464.190304 336.79031,465.305201 338.171088,466.595212 C339.702204,468.027504 341.436934,469.650234 341.436934,472.855562 C341.436934,476.06016 339.702204,477.683619 338.171088,479.115911 C336.79031,480.406652 335.59855,481.520819 335.59855,483.776879 C335.59855,486.03294 336.79031,487.147107 338.171088,488.438578 C339.702204,489.87087 341.436934,491.493599 341.436934,494.698927" id="Fill-85" fill="#556FF2"></path>
                <path d="M330.677741,494.698927 L328.488347,494.698927 C328.488347,492.442866 327.296587,491.328699 325.915809,490.037229 C324.384693,488.604937 322.649963,486.982207 322.649963,483.776879 C322.649963,480.572281 324.384693,478.948822 325.915809,477.51653 C327.296587,476.225789 328.488347,475.110892 328.488347,472.855562 C328.488347,470.600231 327.296587,469.484604 325.915809,468.194593 C324.384693,466.762301 322.649963,465.139572 322.649963,461.934973 C322.649963,458.729645 324.384693,457.106916 325.915809,455.675354 C327.296587,454.384613 328.488347,453.269716 328.488347,451.014385 C328.488347,448.760513 327.296587,447.646346 325.916539,446.355605 C324.385423,444.924043 322.649963,443.302773 322.649963,440.098175 C322.649963,436.892847 324.384693,435.270847 325.916539,433.839285 C327.296587,432.548544 328.488347,431.433647 328.488347,429.179046 L330.677741,429.179046 C330.677741,432.384374 328.943011,434.006373 327.411165,435.437936 C326.031117,436.728677 324.839357,437.843573 324.839357,440.098175 C324.839357,442.352046 326.031117,443.466213 327.411165,444.756954 C328.942281,446.188517 330.677741,447.809787 330.677741,451.014385 C330.677741,454.218983 328.943011,455.841713 327.411895,457.274005 C326.031117,458.564746 324.839357,459.679642 324.839357,461.934973 C324.839357,464.190304 326.031117,465.305201 327.411895,466.595212 C328.943011,468.027504 330.677741,469.650234 330.677741,472.855562 C330.677741,476.06016 328.943011,477.683619 327.411895,479.115911 C326.031117,480.406652 324.839357,481.520819 324.839357,483.776879 C324.839357,486.03294 326.031117,487.147107 327.411895,488.438578 C328.943011,489.87087 330.677741,491.493599 330.677741,494.698927" id="Fill-87" fill="#556FF2"></path>
                <path d="M319.918621,494.698927 L317.729227,494.698927 C317.729227,492.442866 316.537467,491.328699 315.156689,490.037229 C313.625573,488.604937 311.890843,486.982207 311.890843,483.776879 C311.890843,480.572281 313.625573,478.948822 315.156689,477.51653 C316.537467,476.225789 317.729227,475.110892 317.729227,472.855562 C317.729227,470.600231 316.537467,469.484604 315.156689,468.194593 C313.625573,466.762301 311.890843,465.139572 311.890843,461.934973 C311.890843,458.729645 313.625573,457.106916 315.156689,455.675354 C316.537467,454.384613 317.729227,453.269716 317.729227,451.014385 C317.729227,448.760513 316.537467,447.646346 315.157419,446.355605 C313.626303,444.924043 311.890843,443.302773 311.890843,440.098175 C311.890843,436.892847 313.625573,435.270847 315.157419,433.839285 C316.537467,432.548544 317.729227,431.433647 317.729227,429.179046 L319.918621,429.179046 C319.918621,432.384374 318.183891,434.006373 316.652045,435.437936 C315.271997,436.728677 314.080237,437.843573 314.080237,440.098175 C314.080237,442.352046 315.271997,443.466213 316.652045,444.756954 C318.183162,446.188517 319.918621,447.809787 319.918621,451.014385 C319.918621,454.218983 318.183891,455.841713 316.652775,457.274005 C315.271997,458.564746 314.080237,459.679642 314.080237,461.934973 C314.080237,464.190304 315.271997,465.305201 316.652775,466.595212 C318.183891,468.027504 319.918621,469.650234 319.918621,472.855562 C319.918621,476.06016 318.183891,477.683619 316.652775,479.115911 C315.271997,480.406652 314.080237,481.520819 314.080237,483.776879 C314.080237,486.03294 315.271997,487.147107 316.652775,488.438578 C318.183891,489.87087 319.918621,491.493599 319.918621,494.698927" id="Fill-89" fill="#556FF2"></path>
                <path d="M132.540144,46.5276745 C109.804017,46.5276745 91.3065578,65.0212423 91.3065578,87.7525851 C91.3065578,110.483928 109.804017,128.977496 132.540144,128.977496 C155.27627,128.977496 173.77373,110.483928 173.77373,87.7525851 C173.77373,65.0212423 155.27627,46.5276745 132.540144,46.5276745 M132.540144,131.166429 C108.596202,131.166429 89.1171639,111.691489 89.1171639,87.7525851 C89.1171639,63.8136808 108.596202,44.3387412 132.540144,44.3387412 C156.484086,44.3387412 175.963123,63.8136808 175.963123,87.7525851 C175.963123,111.691489 156.484086,131.166429 132.540144,131.166429" id="Fill-91" fill="#FFC785"></path>
                <path d="M373.570887,56.2325292 C373.570887,57.224116 374.375125,58.0281841 375.36765,58.0281841 C376.359445,58.0281841 377.163683,57.224116 377.163683,56.2325292 C377.163683,55.2409424 376.359445,54.4361446 375.36765,54.4361446 C374.375125,54.4361446 373.570887,55.2409424 373.570887,56.2325292" id="Fill-93" fill="#50D9E6"></path>
                <path d="M373.570887,47.2287898 C373.570887,48.2203766 374.375125,49.0251744 375.36765,49.0251744 C376.359445,49.0251744 377.163683,48.2203766 377.163683,47.2287898 C377.163683,46.237203 376.359445,45.4331349 375.36765,45.4331349 C374.375125,45.4331349 373.570887,46.237203 373.570887,47.2287898" id="Fill-95" fill="#50D9E6"></path>
                <path d="M382.576084,56.2325292 C382.576084,57.224116 383.380321,58.0281841 384.372846,58.0281841 C385.364642,58.0281841 386.168879,57.224116 386.168879,56.2325292 C386.168879,55.2409424 385.364642,54.4361446 384.372846,54.4361446 C383.380321,54.4361446 382.576084,55.2409424 382.576084,56.2325292" id="Fill-97" fill="#50D9E6"></path>
                <path d="M382.576084,47.2287898 C382.576084,48.2203766 383.380321,49.0251744 384.372846,49.0251744 C385.364642,49.0251744 386.168879,48.2203766 386.168879,47.2287898 C386.168879,46.237203 385.364642,45.4331349 384.372846,45.4331349 C383.380321,45.4331349 382.576084,46.237203 382.576084,47.2287898" id="Fill-99" fill="#50D9E6"></path>
                <path d="M373.570887,38.2257801 C373.570887,39.2173669 374.375125,40.0221647 375.36765,40.0221647 C376.359445,40.0221647 377.163683,39.2173669 377.163683,38.2257801 C377.163683,37.2341933 376.359445,36.4293955 375.36765,36.4293955 C374.375125,36.4293955 373.570887,37.2341933 373.570887,38.2257801" id="Fill-101" fill="#50D9E6"></path>
                <path d="M382.576084,38.2257801 C382.576084,39.2173669 383.380321,40.0221647 384.372846,40.0221647 C385.364642,40.0221647 386.168879,39.2173669 386.168879,38.2257801 C386.168879,37.2341933 385.364642,36.4293955 384.372846,36.4293955 C383.380321,36.4293955 382.576084,37.2341933 382.576084,38.2257801" id="Fill-103" fill="#50D9E6"></path>
                <path d="M373.570887,29.2221137 C373.570887,30.2144301 374.375125,31.0184983 375.36765,31.0184983 C376.359445,31.0184983 377.163683,30.2144301 377.163683,29.2221137 C377.163683,28.2305269 376.359445,27.4264587 375.36765,27.4264587 C374.375125,27.4264587 373.570887,28.2305269 373.570887,29.2221137" id="Fill-105" fill="#50D9E6"></path>
                <path d="M382.576084,29.2221137 C382.576084,30.2144301 383.380321,31.0184983 384.372846,31.0184983 C385.364642,31.0184983 386.168879,30.2144301 386.168879,29.2221137 C386.168879,28.2305269 385.364642,27.4264587 384.372846,27.4264587 C383.380321,27.4264587 382.576084,28.2305269 382.576084,29.2221137" id="Fill-107" fill="#50D9E6"></path>
                <path d="M373.570887,20.219104 C373.570887,21.2106908 374.375125,22.0154886 375.36765,22.0154886 C376.359445,22.0154886 377.163683,21.2106908 377.163683,20.219104 C377.163683,19.2275172 376.359445,18.4227194 375.36765,18.4227194 C374.375125,18.4227194 373.570887,19.2275172 373.570887,20.219104" id="Fill-109" fill="#50D9E6"></path>
                <path d="M382.576084,20.219104 C382.576084,21.2106908 383.380321,22.0154886 384.372846,22.0154886 C385.364642,22.0154886 386.168879,21.2106908 386.168879,20.219104 C386.168879,19.2275172 385.364642,18.4227194 384.372846,18.4227194 C383.380321,18.4227194 382.576084,19.2275172 382.576084,20.219104" id="Fill-111" fill="#50D9E6"></path>
                <path d="M373.570887,11.2161672 C373.570887,12.207754 374.375125,13.0118222 375.36765,13.0118222 C376.359445,13.0118222 377.163683,12.207754 377.163683,11.2161672 C377.163683,10.2238508 376.359445,9.41978262 375.36765,9.41978262 C374.375125,9.41978262 373.570887,10.2238508 373.570887,11.2161672" id="Fill-113" fill="#50D9E6"></path>
                <path d="M382.576084,11.2161672 C382.576084,12.207754 383.380321,13.0118222 384.372846,13.0118222 C385.364642,13.0118222 386.168879,12.207754 386.168879,11.2161672 C386.168879,10.2238508 385.364642,9.41978262 384.372846,9.41978262 C383.380321,9.41978262 382.576084,10.2238508 382.576084,11.2161672" id="Fill-115" fill="#50D9E6"></path>
                <path d="M377.163902,2.21242786 C377.163902,1.22084107 376.359664,0.416043257 375.367869,0.416043257 C374.375344,0.416043257 373.571106,1.22084107 373.571106,2.21242786 C373.571106,3.20401464 374.375344,4.00881246 375.367869,4.00881246 C376.359664,4.00881246 377.163902,3.20401464 377.163902,2.21242786" id="Fill-117" fill="#50D9E6"></path>
                <path d="M382.576084,2.21242786 C382.576084,3.20401464 383.380321,4.00881246 384.372846,4.00881246 C385.364642,4.00881246 386.168879,3.20401464 386.168879,2.21242786 C386.168879,1.22084107 385.364642,0.416043257 384.372846,0.416043257 C383.380321,0.416043257 382.576084,1.22084107 382.576084,2.21242786" id="Fill-119" fill="#50D9E6"></path>
                <path d="M391.581353,56.2325292 C391.581353,57.224116 392.38559,58.0281841 393.378115,58.0281841 C394.369911,58.0281841 395.174148,57.224116 395.174148,56.2325292 C395.174148,55.2409424 394.369911,54.4361446 393.378115,54.4361446 C392.38559,54.4361446 391.581353,55.2409424 391.581353,56.2325292" id="Fill-121" fill="#50D9E6"></path>
                <path d="M391.581353,47.2287898 C391.581353,48.2203766 392.38559,49.0251744 393.378115,49.0251744 C394.369911,49.0251744 395.174148,48.2203766 395.174148,47.2287898 C395.174148,46.237203 394.369911,45.4331349 393.378115,45.4331349 C392.38559,45.4331349 391.581353,46.237203 391.581353,47.2287898" id="Fill-123" fill="#50D9E6"></path>
                <path d="M400.586549,56.2325292 C400.586549,57.224116 401.390786,58.0281841 402.382582,58.0281841 C403.375107,58.0281841 404.179344,57.224116 404.179344,56.2325292 C404.179344,55.2409424 403.375107,54.4361446 402.382582,54.4361446 C401.390786,54.4361446 400.586549,55.2409424 400.586549,56.2325292" id="Fill-125" fill="#50D9E6"></path>
                <path d="M400.586549,47.2287898 C400.586549,48.2203766 401.390786,49.0251744 402.382582,49.0251744 C403.375107,49.0251744 404.179344,48.2203766 404.179344,47.2287898 C404.179344,46.237203 403.375107,45.4331349 402.382582,45.4331349 C401.390786,45.4331349 400.586549,46.237203 400.586549,47.2287898" id="Fill-127" fill="#50D9E6"></path>
                <path d="M391.581353,38.2257801 C391.581353,39.2173669 392.38559,40.0221647 393.378115,40.0221647 C394.369911,40.0221647 395.174148,39.2173669 395.174148,38.2257801 C395.174148,37.2341933 394.369911,36.4293955 393.378115,36.4293955 C392.38559,36.4293955 391.581353,37.2341933 391.581353,38.2257801" id="Fill-129" fill="#50D9E6"></path>
                <path d="M400.586549,38.2257801 C400.586549,39.2173669 401.390786,40.0221647 402.382582,40.0221647 C403.375107,40.0221647 404.179344,39.2173669 404.179344,38.2257801 C404.179344,37.2341933 403.375107,36.4293955 402.382582,36.4293955 C401.390786,36.4293955 400.586549,37.2341933 400.586549,38.2257801" id="Fill-131" fill="#50D9E6"></path>
                <path d="M391.581353,29.2221137 C391.581353,30.2144301 392.38559,31.0184983 393.378115,31.0184983 C394.369911,31.0184983 395.174148,30.2144301 395.174148,29.2221137 C395.174148,28.2305269 394.369911,27.4264587 393.378115,27.4264587 C392.38559,27.4264587 391.581353,28.2305269 391.581353,29.2221137" id="Fill-133" fill="#50D9E6"></path>
                <path d="M400.586549,29.2221137 C400.586549,30.2144301 401.390786,31.0184983 402.382582,31.0184983 C403.375107,31.0184983 404.179344,30.2144301 404.179344,29.2221137 C404.179344,28.2305269 403.375107,27.4264587 402.382582,27.4264587 C401.390786,27.4264587 400.586549,28.2305269 400.586549,29.2221137" id="Fill-135" fill="#50D9E6"></path>
                <path d="M391.581353,20.219104 C391.581353,21.2106908 392.38559,22.0154886 393.378115,22.0154886 C394.369911,22.0154886 395.174148,21.2106908 395.174148,20.219104 C395.174148,19.2275172 394.369911,18.4227194 393.378115,18.4227194 C392.38559,18.4227194 391.581353,19.2275172 391.581353,20.219104" id="Fill-137" fill="#50D9E6"></path>
                <path d="M400.586549,20.219104 C400.586549,21.2106908 401.390786,22.0154886 402.382582,22.0154886 C403.375107,22.0154886 404.179344,21.2106908 404.179344,20.219104 C404.179344,19.2275172 403.375107,18.4227194 402.382582,18.4227194 C401.390786,18.4227194 400.586549,19.2275172 400.586549,20.219104" id="Fill-139" fill="#50D9E6"></path>
                <path d="M391.581353,11.2161672 C391.581353,12.207754 392.38559,13.0118222 393.378115,13.0118222 C394.369911,13.0118222 395.174148,12.207754 395.174148,11.2161672 C395.174148,10.2238508 394.369911,9.41978262 393.378115,9.41978262 C392.38559,9.41978262 391.581353,10.2238508 391.581353,11.2161672" id="Fill-141" fill="#50D9E6"></path>
                <path d="M400.586549,11.2161672 C400.586549,12.207754 401.390786,13.0118222 402.382582,13.0118222 C403.375107,13.0118222 404.179344,12.207754 404.179344,11.2161672 C404.179344,10.2238508 403.375107,9.41978262 402.382582,9.41978262 C401.390786,9.41978262 400.586549,10.2238508 400.586549,11.2161672" id="Fill-143" fill="#50D9E6"></path>
                <path d="M391.581353,2.21242786 C391.581353,3.20401464 392.38559,4.00881246 393.378115,4.00881246 C394.369911,4.00881246 395.174148,3.20401464 395.174148,2.21242786 C395.174148,1.22084107 394.369911,0.416043257 393.378115,0.416043257 C392.38559,0.416043257 391.581353,1.22084107 391.581353,2.21242786" id="Fill-145" fill="#50D9E6"></path>
                <path d="M400.586549,2.21242786 C400.586549,3.20401464 401.390786,4.00881246 402.382582,4.00881246 C403.375107,4.00881246 404.179344,3.20401464 404.179344,2.21242786 C404.179344,1.22084107 403.375107,0.416043257 402.382582,0.416043257 C401.390786,0.416043257 400.586549,1.22084107 400.586549,2.21242786" id="Fill-147" fill="#50D9E6"></path>
                <path d="M409.591818,56.2325292 C409.591818,57.224116 410.396056,58.0281841 411.387851,58.0281841 C412.380376,58.0281841 413.184614,57.224116 413.184614,56.2325292 C413.184614,55.2409424 412.380376,54.4361446 411.387851,54.4361446 C410.396056,54.4361446 409.591818,55.2409424 409.591818,56.2325292" id="Fill-149" fill="#50D9E6"></path>
                <path d="M409.591818,47.2287898 C409.591818,48.2203766 410.396056,49.0251744 411.387851,49.0251744 C412.380376,49.0251744 413.184614,48.2203766 413.184614,47.2287898 C413.184614,46.237203 412.380376,45.4331349 411.387851,45.4331349 C410.396056,45.4331349 409.591818,46.237203 409.591818,47.2287898" id="Fill-151" fill="#50D9E6"></path>
                <path d="M418.597014,56.2325292 C418.597014,57.224116 419.401252,58.0281841 420.393047,58.0281841 C421.385572,58.0281841 422.18981,57.224116 422.18981,56.2325292 C422.18981,55.2409424 421.385572,54.4361446 420.393047,54.4361446 C419.401252,54.4361446 418.597014,55.2409424 418.597014,56.2325292" id="Fill-153" fill="#50D9E6"></path>
                <path d="M418.597014,47.2287898 C418.597014,48.2203766 419.401252,49.0251744 420.393047,49.0251744 C421.385572,49.0251744 422.18981,48.2203766 422.18981,47.2287898 C422.18981,46.237203 421.385572,45.4331349 420.393047,45.4331349 C419.401252,45.4331349 418.597014,46.237203 418.597014,47.2287898" id="Fill-155" fill="#50D9E6"></path>
                <path d="M409.591818,38.2257801 C409.591818,39.2173669 410.396056,40.0221647 411.387851,40.0221647 C412.380376,40.0221647 413.184614,39.2173669 413.184614,38.2257801 C413.184614,37.2341933 412.380376,36.4293955 411.387851,36.4293955 C410.396056,36.4293955 409.591818,37.2341933 409.591818,38.2257801" id="Fill-157" fill="#50D9E6"></path>
                <path d="M418.597014,38.2257801 C418.597014,39.2173669 419.401252,40.0221647 420.393047,40.0221647 C421.385572,40.0221647 422.18981,39.2173669 422.18981,38.2257801 C422.18981,37.2341933 421.385572,36.4293955 420.393047,36.4293955 C419.401252,36.4293955 418.597014,37.2341933 418.597014,38.2257801" id="Fill-159" fill="#50D9E6"></path>
                <path d="M409.591818,29.2221137 C409.591818,30.2144301 410.396056,31.0184983 411.387851,31.0184983 C412.380376,31.0184983 413.184614,30.2144301 413.184614,29.2221137 C413.184614,28.2305269 412.380376,27.4264587 411.387851,27.4264587 C410.396056,27.4264587 409.591818,28.2305269 409.591818,29.2221137" id="Fill-161" fill="#50D9E6"></path>
                <path d="M418.597014,29.2221137 C418.597014,30.2144301 419.401252,31.0184983 420.393047,31.0184983 C421.385572,31.0184983 422.18981,30.2144301 422.18981,29.2221137 C422.18981,28.2305269 421.385572,27.4264587 420.393047,27.4264587 C419.401252,27.4264587 418.597014,28.2305269 418.597014,29.2221137" id="Fill-163" fill="#50D9E6"></path>
                <path d="M409.591818,20.219104 C409.591818,21.2106908 410.396056,22.0154886 411.387851,22.0154886 C412.380376,22.0154886 413.184614,21.2106908 413.184614,20.219104 C413.184614,19.2275172 412.380376,18.4227194 411.387851,18.4227194 C410.396056,18.4227194 409.591818,19.2275172 409.591818,20.219104" id="Fill-165" fill="#50D9E6"></path>
                <path d="M418.597014,20.219104 C418.597014,21.2106908 419.401252,22.0154886 420.393047,22.0154886 C421.385572,22.0154886 422.18981,21.2106908 422.18981,20.219104 C422.18981,19.2275172 421.385572,18.4227194 420.393047,18.4227194 C419.401252,18.4227194 418.597014,19.2275172 418.597014,20.219104" id="Fill-167" fill="#50D9E6"></path>
                <path d="M409.591818,11.2161672 C409.591818,12.207754 410.396056,13.0118222 411.387851,13.0118222 C412.380376,13.0118222 413.184614,12.207754 413.184614,11.2161672 C413.184614,10.2238508 412.380376,9.41978262 411.387851,9.41978262 C410.396056,9.41978262 409.591818,10.2238508 409.591818,11.2161672" id="Fill-169" fill="#50D9E6"></path>
                <path d="M418.597014,11.2161672 C418.597014,12.207754 419.401252,13.0118222 420.393047,13.0118222 C421.385572,13.0118222 422.18981,12.207754 422.18981,11.2161672 C422.18981,10.2238508 421.385572,9.41978262 420.393047,9.41978262 C419.401252,9.41978262 418.597014,10.2238508 418.597014,11.2161672" id="Fill-171" fill="#50D9E6"></path>
                <path d="M409.591818,2.21242786 C409.591818,3.20401464 410.396056,4.00881246 411.387851,4.00881246 C412.380376,4.00881246 413.184614,3.20401464 413.184614,2.21242786 C413.184614,1.22084107 412.380376,0.416043257 411.387851,0.416043257 C410.396056,0.416043257 409.591818,1.22084107 409.591818,2.21242786" id="Fill-173" fill="#50D9E6"></path>
                <path d="M427.602284,56.2325292 C427.602284,57.224116 428.406521,58.0281841 429.398316,58.0281841 C430.390842,58.0281841 431.195079,57.224116 431.195079,56.2325292 C431.195079,55.2409424 430.390842,54.4361446 429.398316,54.4361446 C428.406521,54.4361446 427.602284,55.2409424 427.602284,56.2325292" id="Fill-175" fill="#50D9E6"></path>
                <path d="M427.602284,47.2287898 C427.602284,48.2203766 428.406521,49.0251744 429.398316,49.0251744 C430.390842,49.0251744 431.195079,48.2203766 431.195079,47.2287898 C431.195079,46.237203 430.390842,45.4331349 429.398316,45.4331349 C428.406521,45.4331349 427.602284,46.237203 427.602284,47.2287898" id="Fill-177" fill="#50D9E6"></path>
                <path d="M427.602284,38.2257801 C427.602284,39.2173669 428.406521,40.0221647 429.398316,40.0221647 C430.390842,40.0221647 431.195079,39.2173669 431.195079,38.2257801 C431.195079,37.2341933 430.390842,36.4293955 429.398316,36.4293955 C428.406521,36.4293955 427.602284,37.2341933 427.602284,38.2257801" id="Fill-179" fill="#50D9E6"></path>
                <path d="M427.602284,29.2221137 C427.602284,30.2144301 428.406521,31.0184983 429.398316,31.0184983 C430.390842,31.0184983 431.195079,30.2144301 431.195079,29.2221137 C431.195079,28.2305269 430.390842,27.4264587 429.398316,27.4264587 C428.406521,27.4264587 427.602284,28.2305269 427.602284,29.2221137" id="Fill-181" fill="#50D9E6"></path>
                <path d="M427.602284,20.219104 C427.602284,21.2106908 428.406521,22.0154886 429.398316,22.0154886 C430.390842,22.0154886 431.195079,21.2106908 431.195079,20.219104 C431.195079,19.2275172 430.390842,18.4227194 429.398316,18.4227194 C428.406521,18.4227194 427.602284,19.2275172 427.602284,20.219104" id="Fill-183" fill="#50D9E6"></path>
                <path d="M427.602284,11.2161672 C427.602284,12.207754 428.406521,13.0118222 429.398316,13.0118222 C430.390842,13.0118222 431.195079,12.207754 431.195079,11.2161672 C431.195079,10.2238508 430.390842,9.41978262 429.398316,9.41978262 C428.406521,9.41978262 427.602284,10.2238508 427.602284,11.2161672" id="Fill-185" fill="#50D9E6"></path>
                <path d="M418.597014,2.21242786 C418.597014,3.20401464 419.401252,4.00881246 420.393047,4.00881246 C421.385572,4.00881246 422.18981,3.20401464 422.18981,2.21242786 C422.18981,1.22084107 421.385572,0.416043257 420.393047,0.416043257 C419.401252,0.416043257 418.597014,1.22084107 418.597014,2.21242786" id="Fill-187" fill="#50D9E6"></path>
                <path d="M427.602284,2.21242786 C427.602284,3.20401464 428.406521,4.00881246 429.398316,4.00881246 C430.390842,4.00881246 431.195079,3.20401464 431.195079,2.21242786 C431.195079,1.22084107 430.390842,0.416043257 429.398316,0.416043257 C428.406521,0.416043257 427.602284,1.22084107 427.602284,2.21242786" id="Fill-189" fill="#50D9E6"></path>
                <path d="M436.607553,56.2325292 C436.607553,57.224116 437.41179,58.0281841 438.403586,58.0281841 C439.396111,58.0281841 440.200348,57.224116 440.200348,56.2325292 C440.200348,55.2409424 439.396111,54.4361446 438.403586,54.4361446 C437.41179,54.4361446 436.607553,55.2409424 436.607553,56.2325292" id="Fill-191" fill="#50D9E6"></path>
                <path d="M436.607553,47.2287898 C436.607553,48.2203766 437.41179,49.0251744 438.403586,49.0251744 C439.396111,49.0251744 440.200348,48.2203766 440.200348,47.2287898 C440.200348,46.237203 439.396111,45.4331349 438.403586,45.4331349 C437.41179,45.4331349 436.607553,46.237203 436.607553,47.2287898" id="Fill-193" fill="#50D9E6"></path>
                <path d="M445.612384,56.2325292 C445.612384,57.224116 446.417351,58.0281841 447.409147,58.0281841 C448.400942,58.0281841 449.20518,57.224116 449.20518,56.2325292 C449.20518,55.2409424 448.400942,54.4361446 447.409147,54.4361446 C446.417351,54.4361446 445.612384,55.2409424 445.612384,56.2325292" id="Fill-195" fill="#50D9E6"></path>
                <path d="M445.612384,47.2287898 C445.612384,48.2203766 446.417351,49.0251744 447.409147,49.0251744 C448.400942,49.0251744 449.20518,48.2203766 449.20518,47.2287898 C449.20518,46.237203 448.400942,45.4331349 447.409147,45.4331349 C446.417351,45.4331349 445.612384,46.237203 445.612384,47.2287898" id="Fill-197" fill="#50D9E6"></path>
                <path d="M436.607553,38.2257801 C436.607553,39.2173669 437.41179,40.0221647 438.403586,40.0221647 C439.396111,40.0221647 440.200348,39.2173669 440.200348,38.2257801 C440.200348,37.2341933 439.396111,36.4293955 438.403586,36.4293955 C437.41179,36.4293955 436.607553,37.2341933 436.607553,38.2257801" id="Fill-199" fill="#50D9E6"></path>
                <path d="M445.612384,38.2257801 C445.612384,39.2173669 446.417351,40.0221647 447.409147,40.0221647 C448.400942,40.0221647 449.20518,39.2173669 449.20518,38.2257801 C449.20518,37.2341933 448.400942,36.4293955 447.409147,36.4293955 C446.417351,36.4293955 445.612384,37.2341933 445.612384,38.2257801" id="Fill-201" fill="#50D9E6"></path>
                <path d="M436.607553,29.2221137 C436.607553,30.2144301 437.41179,31.0184983 438.403586,31.0184983 C439.396111,31.0184983 440.200348,30.2144301 440.200348,29.2221137 C440.200348,28.2305269 439.396111,27.4264587 438.403586,27.4264587 C437.41179,27.4264587 436.607553,28.2305269 436.607553,29.2221137" id="Fill-203" fill="#50D9E6"></path>
                <path d="M445.612384,29.2221137 C445.612384,30.2144301 446.417351,31.0184983 447.409147,31.0184983 C448.400942,31.0184983 449.20518,30.2144301 449.20518,29.2221137 C449.20518,28.2305269 448.400942,27.4264587 447.409147,27.4264587 C446.417351,27.4264587 445.612384,28.2305269 445.612384,29.2221137" id="Fill-205" fill="#50D9E6"></path>
                <path d="M436.607553,20.219104 C436.607553,21.2106908 437.41179,22.0154886 438.403586,22.0154886 C439.396111,22.0154886 440.200348,21.2106908 440.200348,20.219104 C440.200348,19.2275172 439.396111,18.4227194 438.403586,18.4227194 C437.41179,18.4227194 436.607553,19.2275172 436.607553,20.219104" id="Fill-207" fill="#50D9E6"></path>
                <path d="M445.612384,20.219104 C445.612384,21.2106908 446.417351,22.0154886 447.409147,22.0154886 C448.400942,22.0154886 449.20518,21.2106908 449.20518,20.219104 C449.20518,19.2275172 448.400942,18.4227194 447.409147,18.4227194 C446.417351,18.4227194 445.612384,19.2275172 445.612384,20.219104" id="Fill-209" fill="#50D9E6"></path>
                <path d="M436.607553,11.2161672 C436.607553,12.207754 437.41179,13.0118222 438.403586,13.0118222 C439.396111,13.0118222 440.200348,12.207754 440.200348,11.2161672 C440.200348,10.2238508 439.396111,9.41978262 438.403586,9.41978262 C437.41179,9.41978262 436.607553,10.2238508 436.607553,11.2161672" id="Fill-211" fill="#50D9E6"></path>
                <path d="M445.612384,11.2161672 C445.612384,12.207754 446.417351,13.0118222 447.409147,13.0118222 C448.400942,13.0118222 449.20518,12.207754 449.20518,11.2161672 C449.20518,10.2238508 448.400942,9.41978262 447.409147,9.41978262 C446.417351,9.41978262 445.612384,10.2238508 445.612384,11.2161672" id="Fill-213" fill="#50D9E6"></path>
                <path d="M436.607553,2.21242786 C436.607553,3.20401464 437.41179,4.00881246 438.403586,4.00881246 C439.396111,4.00881246 440.200348,3.20401464 440.200348,2.21242786 C440.200348,1.22084107 439.396111,0.416043257 438.403586,0.416043257 C437.41179,0.416043257 436.607553,1.22084107 436.607553,2.21242786" id="Fill-215" fill="#50D9E6"></path>
                <path d="M445.612384,2.21242786 C445.612384,3.20401464 446.417351,4.00881246 447.409147,4.00881246 C448.400942,4.00881246 449.20518,3.20401464 449.20518,2.21242786 C449.20518,1.22084107 448.400942,0.416043257 447.409147,0.416043257 C446.417351,0.416043257 445.612384,1.22084107 445.612384,2.21242786" id="Fill-217" fill="#50D9E6"></path>
                <path d="M454.617653,56.2325292 C454.617653,57.224116 455.421891,58.0281841 456.414416,58.0281841 C457.406211,58.0281841 458.210449,57.224116 458.210449,56.2325292 C458.210449,55.2409424 457.406211,54.4361446 456.414416,54.4361446 C455.421891,54.4361446 454.617653,55.2409424 454.617653,56.2325292" id="Fill-219" fill="#50D9E6"></path>
                <path d="M454.617653,47.2287898 C454.617653,48.2203766 455.421891,49.0251744 456.414416,49.0251744 C457.406211,49.0251744 458.210449,48.2203766 458.210449,47.2287898 C458.210449,46.237203 457.406211,45.4331349 456.414416,45.4331349 C455.421891,45.4331349 454.617653,46.237203 454.617653,47.2287898" id="Fill-221" fill="#50D9E6"></path>
                <path d="M454.617653,38.2257801 C454.617653,39.2173669 455.421891,40.0221647 456.414416,40.0221647 C457.406211,40.0221647 458.210449,39.2173669 458.210449,38.2257801 C458.210449,37.2341933 457.406211,36.4293955 456.414416,36.4293955 C455.421891,36.4293955 454.617653,37.2341933 454.617653,38.2257801" id="Fill-223" fill="#50D9E6"></path>
                <path d="M454.617653,29.2221137 C454.617653,30.2144301 455.421891,31.0184983 456.414416,31.0184983 C457.406211,31.0184983 458.210449,30.2144301 458.210449,29.2221137 C458.210449,28.2305269 457.406211,27.4264587 456.414416,27.4264587 C455.421891,27.4264587 454.617653,28.2305269 454.617653,29.2221137" id="Fill-225" fill="#50D9E6"></path>
                <path d="M454.617653,20.219104 C454.617653,21.2106908 455.421891,22.0154886 456.414416,22.0154886 C457.406211,22.0154886 458.210449,21.2106908 458.210449,20.219104 C458.210449,19.2275172 457.406211,18.4227194 456.414416,18.4227194 C455.421891,18.4227194 454.617653,19.2275172 454.617653,20.219104" id="Fill-227" fill="#50D9E6"></path>
                <path d="M454.617653,11.2161672 C454.617653,12.207754 455.421891,13.0118222 456.414416,13.0118222 C457.406211,13.0118222 458.210449,12.207754 458.210449,11.2161672 C458.210449,10.2238508 457.406211,9.41978262 456.414416,9.41978262 C455.421891,9.41978262 454.617653,10.2238508 454.617653,11.2161672" id="Fill-229" fill="#50D9E6"></path>
                <path d="M454.617653,2.21242786 C454.617653,3.20401464 455.421891,4.00881246 456.414416,4.00881246 C457.406211,4.00881246 458.210449,3.20401464 458.210449,2.21242786 C458.210449,1.22084107 457.406211,0.416043257 456.414416,0.416043257 C455.421891,0.416043257 454.617653,1.22084107 454.617653,2.21242786" id="Fill-231" fill="#50D9E6"></path>
                <path d="M105.937767,165.780323 C119.208413,168.300515 119.355832,186.783868 123.042042,192.665532 C126.728252,198.545736 136.902365,196.025544 141.104542,205.729086 C145.306719,215.433357 136.01785,227.6155 142.210186,237.696268 C148.403252,247.778494 139.63035,248.367317 142.505024,257.187989 C145.380428,266.01012 152.384299,267.101668 152.384299,286.562744 L65.2420419,286.562744 C65.2420419,260.380913 74.236802,259.036908 76.4480899,241.729742 C78.6601076,224.422576 64.6888551,213.164162 67.5642591,203.713078 C70.4396631,194.261264 81.0560343,194.513721 85.1472818,189.346379 C89.2392591,184.179767 92.6671202,163.260131 105.937767,165.780323" id="Fill-233" fill="#17204D"></path>
                <path d="M142.210259,237.696632 C136.017923,227.615865 145.306792,215.432992 141.104615,205.728721 C136.902438,196.025909 126.728324,198.546101 123.042115,192.665167 C119.355905,186.784233 119.208486,168.30088 105.93784,165.780688 C105.1409,165.628922 104.381181,165.566902 103.652842,165.57485 C103.585701,165.682186 87.2090341,191.451039 95.7681048,203.879072 C104.34542,216.334103 122.745087,208.884433 123.713529,211.919754 C124.681971,214.955804 106.144372,222.298946 111.124514,233.517959 C116.104655,244.736242 129.776691,244.22622 131.241395,246.990843 C132.7061,249.755466 122.745087,251.647434 126.618855,259.688116 C130.491893,267.728068 152.384372,269.296074 152.384372,286.563109 C152.384372,267.102033 145.380501,266.010485 142.505097,257.188354 C139.629693,248.366953 148.403324,247.77813 142.210259,237.696632" id="Fill-235" fill="#1F2B66"></path>
                <path d="M78.6312806,237.626076 C71.0129194,238.93141 71.4332831,245.730237 69.8452427,248.113255 C68.2572023,250.496274 64.685571,250.659714 63.0530129,255.359354 C61.4204548,260.058264 65.6277402,264.062553 63.6463386,269.804855 C61.6656669,275.545697 57.7108917,277.282981 57.7108917,286.562598 L99.8545356,286.562598 C99.8545356,276.708021 91.3436316,274.729955 94.8838816,266.993535 C97.8395634,260.533993 99.1123311,257.036807 90.9510003,248.973506 C88.0215912,246.079007 86.9444093,236.20181 78.6312806,237.626076" id="Fill-237" fill="#FFB057"></path>
                <path d="M94.8835167,266.993608 C97.8391985,260.534065 99.112696,257.03688 90.9506354,248.973579 C88.1533197,246.209686 87.0403778,237.088401 79.7095571,237.508676 C79.7095571,247.373469 88.9327439,250.319043 89.7326025,252.140966 C90.5317313,253.962158 78.1974157,255.904472 84.2802818,271.089102 C88.0110091,280.400824 96.851052,277.268461 99.8549005,286.562671 C99.8549005,276.707364 91.3432667,274.730028 94.8835167,266.993608" id="Fill-239" fill="#FFC785"></path>
                <path d="M125.618083,286.56289 C119.536676,286.56289 114.874727,277.629853 106.657202,277.629853 C98.4396763,277.629853 93.6047646,284.497997 88.4961788,284.497997 C83.3875929,284.497997 81.1529515,281.315288 76.6522874,281.315288 C72.1516232,281.315288 69.0653076,286.56289 60.9674692,286.56289 L125.618083,286.56289 Z" id="Fill-241" fill="#17204D"></path>
            </g>
            <g id="Group-268" transform="translate(207.435540, 183.268293)">
                <g id="Group-246">
                    <mask id="mask-4" fill="white">
                        <use xlink:href="#path-3"></use>
                    </mask>
                    <g id="Clip-245"></g>
                    <path d="M158.373529,96.2448923 L158.786838,105.859257 L185.570704,83.2838241 C176.627875,82.2048324 167.116654,89.6356107 158.373529,96.2448923" id="Fill-244" fill="#8ADEE6" mask="url(#mask-4)"></path>
                </g>
                <g id="Group-249">
                    <mask id="mask-6" fill="white">
                        <use xlink:href="#path-5"></use>
                    </mask>
                    <g id="Clip-248"></g>
                    <path d="M31.2158527,-38.905589 L18.7631908,25.8083119 L34.4820887,25.8083119 L35.4462318,29.890924 L40.1981845,29.0745479 L50.2200061,42.7517739 L81.0104068,43.9770696 L97.7673313,37.8030423 L87.4916724,50.2366847 L99.0599269,55.0003418 L109.970545,49.692434 L122.264467,51.7341058 L134.780771,48.845334 L148.599181,64.3915932 L152.885887,64.3915932 L149.726453,67.0455472 L153.951711,75.1800475 C165.225163,73.7938175 177.00629,76.3073196 186.587005,82.4264829 L198.221096,72.6211912 L205.676746,13.559744 L31.2158527,-38.905589 Z" id="Fill-247" fill="#8ADEE6" opacity="0.6" mask="url(#mask-6)"></path>
                </g>
                <g id="Group-252">
                    <mask id="mask-8" fill="white">
                        <use xlink:href="#path-7"></use>
                    </mask>
                    <g id="Clip-251"></g>
                    <path d="M166.962449,133.867396 L158.786984,105.858965 L152.54712,115.397983 C157.996211,121.35987 162.230248,128.431472 166.962449,133.867396" id="Fill-250" fill="#8ADEE6" opacity="0.6" mask="url(#mask-8)"></path>
                </g>
                <g id="Group-255">
                    <mask id="mask-10" fill="white">
                        <use xlink:href="#path-9"></use>
                    </mask>
                    <g id="Clip-254"></g>
                    <path d="M127.491761,125.763546 L120.098291,133.581298 L109.675596,135.419607 L105.048002,132.909031 L102.391122,132.909031 L102.391122,141.421728 L98.5155298,147.682074 L96.3180443,156.392281 L78.9181138,160.787983 L55.5767794,159.250329 C55.5767794,159.250329 55.6455423,189.328229 55.5093284,189.736417 C55.3734169,190.144605 147.102345,187.286557 147.102345,187.286557 L165.333282,145.837181 C151.149112,144.242468 139.506974,131.608389 127.491761,125.763546" id="Fill-253" fill="#8ADEE6" opacity="0.6" mask="url(#mask-10)"></path>
                </g>
                <g id="Group-258">
                    <mask id="mask-12" fill="white">
                        <use xlink:href="#path-11"></use>
                    </mask>
                    <g id="Clip-257"></g>
                    <polygon id="Fill-256" fill="#8ADEE6" opacity="0.6" mask="url(#mask-12)" points="-0.358444712 94.6046785 6.41250274 104.913987 14.3743645 110.017801 18.4569766 110.017801 24.4839684 114.40692 26.2147443 122.674557 24.4839684 129.200445 34.0741932 126.655488 37.4421105 127.166089 32.7472163 133.580786 33.7676864 137.474666 41.5803181 152.072144 11.515585 156.86872 -14.0020209 113.872179"></polygon>
                </g>
                <g id="Group-261">
                    <mask id="mask-14" fill="white">
                        <use xlink:href="#path-13"></use>
                    </mask>
                    <g id="Clip-260"></g>
                    <polygon id="Fill-259" fill="#FFFFFF" opacity="0.8" mask="url(#mask-14)" points="153.789753 75.2643918 149.496463 66.9996809 152.383772 64.5746927 148.516958 64.5746927 134.716105 49.0481845 122.270027 51.9208628 122.234182 51.9150106 109.99805 49.8828486 99.0662179 55.2002662 98.9901399 55.1695423 87.1929197 50.3122507 97.1942587 38.2092553 81.039375 44.1609006 50.1246159 42.9312157 50.0719465 42.8595268 40.1174248 29.2737407 35.3076819 30.1003581 34.3376867 25.9914113 18.7636297 25.9914113 18.7636297 25.6256514 34.6273685 25.6256514 35.5849279 29.6811972 40.2790906 28.8750624 40.3456589 28.9665024 50.314811 42.572771 80.9815849 43.7929461 98.3398187 37.3972683 87.7905714 50.1622892 99.0537821 54.8001248 109.943186 49.5024583 110.000245 49.511968 122.258322 51.5477877 134.845584 48.642191 134.917273 48.7241212 148.68155 64.2089327 153.388148 64.2089327 149.956589 67.0911208 154.113816 75.0961422"></polygon>
                </g>
                <g id="Group-264">
                    <mask id="mask-16" fill="white">
                        <use xlink:href="#path-15"></use>
                    </mask>
                    <g id="Clip-263"></g>
                    <polygon id="Fill-262" fill="#FFFFFF" opacity="0.8" mask="url(#mask-16)" points="41.4189448 152.158244 33.6063131 137.561497 32.5485355 133.543259 37.1168768 127.301932 34.0847271 126.842538 24.226766 129.457721 26.0263048 122.669217 24.319669 114.513503 18.3972846 110.201193 14.3205246 110.201193 14.2759019 110.171932 6.25990771 105.014718 -0.511039746 94.7054088 -0.205264461 94.5042409 6.5437374 104.780631 14.428058 109.835433 18.5165223 109.835433 24.6488529 114.30063 24.6634833 114.370125 26.402306 122.679458 24.741756 128.943462 34.063513 126.469462 37.7679294 127.029807 32.9457507 133.618606 33.9442753 137.428361 41.7408135 151.985605"></polygon>
                </g>
                <g id="Group-267">
                    <mask id="mask-18" fill="white">
                        <use xlink:href="#path-17"></use>
                    </mask>
                    <g id="Clip-266"></g>
                    <polygon id="Fill-265" fill="#FFFFFF" opacity="0.8" mask="url(#mask-18)" points="78.9346462 160.972253 78.9053854 160.970059 55.5647825 159.433135 55.5889226 159.068107 78.9009963 160.603567 96.1670586 156.241514 98.360155 147.58544 102.207949 141.369717 102.207949 132.726078 105.135492 132.748024 109.706759 135.228608 120.006558 133.411512 127.359064 125.637651 127.624605 125.889294 120.189438 133.750206 120.130185 133.761179 109.64458 135.611192 105.001623 133.091838 102.573709 133.091838 102.573709 141.474324 98.6856813 147.754421 96.4684447 156.542901 96.3623744 156.569235"></polygon>
                </g>
            </g>
            <g id="Group-297" transform="translate(103.717770, 35.243902)">
                <path d="M343.081513,326.512645 C344.050538,322.108569 343.833821,318.931978 340.63706,315.878573 C337.62564,313.001565 333.324133,312.080951 332.683467,308.557399 C331.48678,316.205125 336.639103,320.451027 339.690655,321.103402 C341.476201,321.48608 342.963304,323.736226 343.081513,326.512645" id="Fill-269" fill="#3D55CC"></path>
                <path d="M343.462775,324.261114 C344.661651,317.508489 347.352009,317.845246 349.355001,314.085527 C351.358722,310.326537 347.452705,300.781457 352.348178,297.831557 C345.579598,299.138494 340.867276,306.055852 341.097858,312.648116 C341.291225,318.185647 343.250436,317.792035 343.462775,324.261114" id="Fill-271" fill="#3D55CC"></path>
                <path d="M155.774546,280.116487 C155.292223,281.308256 154.303496,282.033521 153.566512,281.735397 C152.828798,281.437273 152.621567,280.230197 153.10389,279.038429 C153.585484,277.846661 154.57421,277.122124 155.311924,277.41952 C156.049638,277.716915 156.25687,278.924719 155.774546,280.116487 M162.176094,263.228366 C147.284633,272.137107 151.764184,298.663609 125.377957,307.051908 C156.595445,311.501176 173.29726,290.679126 183.26479,276.43622 L177.371105,275.226229 L185.111629,273.772782 C189.026402,268.086553 191.797755,263.985704 194.034247,263.985704 C194.728909,263.985704 196.328384,264.141691 196.925998,266.092254 C195.47392,258.815544 172.45666,257.07855 162.176094,263.228366" id="Fill-273" fill="#556FF2"></path>
                <path d="M183.265009,276.436365 L177.370594,275.226374 L185.111118,273.772927 C189.026621,268.086699 191.797974,263.98585 194.033736,263.98585 C194.729128,263.98585 196.328603,264.141836 196.926217,266.0924 C196.251256,262.709528 190.913593,260.526442 184.363918,259.773477 C184.256654,259.761086 184.15012,259.749423 184.042856,259.737761 C183.827598,259.715165 183.608692,259.695484 183.390515,259.675803 C160.350635,257.535723 165.459177,304.862407 125.378176,307.052053 C156.594934,311.500593 173.297479,290.679272 183.265009,276.436365" id="Fill-275" fill="#3D55CC"></path>
                <path d="M293.174177,321.991142 C293.174177,321.991142 243.057785,327.687575 181.237208,327.687575 C119.4159,327.687575 69.2995089,321.991142 69.2995089,321.991142 L293.174177,321.991142 Z" id="Fill-277" fill="#364AB3"></path>
                <path d="M308.795471,342.283128 C306.458282,342.283128 304.202819,339.190362 300.878363,339.190362 C297.554636,339.190362 294.948193,341.495176 294.948193,341.495176 C294.948193,341.495176 292.521982,340.317986 290.35627,340.317986 C288.190558,340.317986 285.353533,342.283128 282.587288,342.283128 L308.795471,342.283128 Z" id="Fill-279" fill="#17204D"></path>
                <polygon id="Fill-281" fill="#556FF2" points="2.80812907 360.119416 100.739478 360.119416 31.1594041 369.083554"></polygon>
                <path d="M0.436280109,341.250262 C0.436280109,341.250262 3.16020325,337.129733 7.87033556,337.129733 C12.5790085,337.129733 15.3036613,340.20136 15.3036613,340.20136 C15.3036613,340.20136 18.4799907,338.632017 21.3651747,338.632017 C25.7082743,338.632017 28.8371739,341.250262 31.1590393,341.250262 L0.436280109,341.250262 Z" id="Fill-283" fill="#17204D"></path>
                <polygon id="Fill-285" fill="#556FF2" points="221.581771 345.904208 333.841992 345.904208 292.255646 350.675655"></polygon>
                <polygon id="Fill-287" fill="#141733" points="196.940957 15.0899727 203.704429 11.1035626 210.373043 13.7597115 211.299746 15.3115614 211.705452 13.2538478 218.237614 10.7777397 225.085001 14.811529 223.057929 15.2080561 217.80199 13.8982044 213.057563 14.7488427 211.255965 17.4822561 209.879774 15.5367946 204.312259 14.178106 199.324845 15.5455416"></polygon>
                <polygon id="Fill-289" fill="#141733" points="237.598264 7.9354271 234.664921 4.15894315 230.289715 4.16550334 229.416279 4.83682967 229.649049 3.58018842 226.507015 0.71119772 221.720996 1.45833072 222.779772 2.13767506 226.05169 2.57575011 228.547221 4.12395546 228.952198 6.07597708 230.169317 5.28292274 233.628765 5.7640035 236.146186 7.6577123"></polygon>
                <path d="M180.968683,66.2803183 C180.968683,66.2803183 185.17825,59.9132874 192.454692,59.9132874 C199.730406,59.9132874 203.939972,64.658493 203.939972,64.658493 C203.939972,64.658493 208.84785,62.2348665 213.304781,62.2348665 C220.016446,62.2348665 224.849895,66.2803183 228.438498,66.2803183 L180.968683,66.2803183 Z" id="Fill-291" fill="#FFFFFF"></path>
                <path d="M90.9845056,32.1709636 C90.9845056,32.1709636 94.2958271,18.1591221 106.538523,18.1591221 C118.781218,18.1591221 123.104616,28.3011792 123.104616,28.3011792 C123.104616,28.3011792 127.120086,23.7804779 133.201301,23.7804779 C144.810628,23.7804779 145.605258,32.1709636 152.279708,32.1709636 L90.9845056,32.1709636 Z" id="Fill-293" fill="#FFFFFF"></path>
                <path d="M308.056882,264.71753 L309.847534,264.049848 L309.847534,265.923876 L310.299941,267.841639 L308.056882,264.71753 Z M307.236713,261.39953 L306.202016,261.463674 L305.058596,262.47686 L305.360687,259.503635 L307.118504,258.49045 L307.236713,257.348976 L307.603746,257.262236 L309.99785,259.503635 L308.639172,260.0423 L307.236713,261.39953 Z M305.44679,274.069448 L305.317635,275.038899 L304.195376,275.771454 L303.807182,274.177327 L304.433254,273.487049 L304.174215,271.376125 L305.317635,269.738264 L307.603746,272.215829 L305.44679,274.069448 Z M318.712507,270.104905 C318.604513,269.587379 319.273637,268.164546 319.294798,267.540599 C319.316688,266.915923 318.712507,266.096628 318.712507,266.096628 L318.539571,264.243738 L318.819771,263.317293 L318.475359,262.304108 C318.475359,262.304108 318.561462,261.528547 317.785074,259.782807 C317.008687,258.037796 314.851731,257.240369 314.851731,257.240369 L314.505859,256.163768 L312.953084,255.948011 C312.953084,255.948011 312.694045,254.719797 312.607942,253.987242 C312.521839,253.253958 311.313476,251.422936 308.833269,251.789578 C306.353061,252.15622 306.374222,255.775259 306.374222,255.775259 L304.347151,257.240369 L304.174215,259.309016 L303.052685,262.58401 L303.052685,265.256194 L300.205445,271.505142 L299.730418,272.194691 L300.291548,273.143003 L297.616514,275.513419 L295.459558,275.513419 L294.94221,275.987211 L295.502609,276.784639 L298.522786,277.021535 L303.052685,276.547014 L303.354776,276.826916 C303.354776,276.826916 302.814807,277.969118 303.095737,278.528921 C303.375937,279.090182 304.691563,278.874424 304.691563,278.874424 C304.691563,278.874424 304.713454,280.77032 304.476305,282.343308 C304.239157,283.916297 303.224891,286.566614 303.224891,286.566614 L303.76413,287.105279 L303.48393,287.751822 C303.48393,287.751822 300.162393,291.414596 299.817251,291.888388 C299.471379,292.362908 300.183554,292.815562 300.399542,293.052458 C300.6148,293.289353 303.116898,293.116602 303.591924,292.857838 C304.066221,292.599804 305.554783,291.307446 306.223177,290.746914 C306.891571,290.186382 306.913461,289.216932 306.913461,289.216932 L306.719364,287.665082 L306.482216,286.889521 L306.784307,286.695631 C306.784307,286.695631 307.4527,283.722406 307.797842,282.62321 C308.142985,281.524742 308.812108,277.430453 308.812108,277.430453 L313.40622,276.374262 C313.40622,276.374262 316.016312,276.288251 317.763184,275.383673 C319.510785,274.479096 318.927765,271.462136 318.927765,271.462136 L319.165643,271.139229 C319.165643,271.139229 318.819771,270.621703 318.712507,270.104905 L318.712507,270.104905 Z" id="Fill-295" fill="#1F2B66"></path>
            </g>
        </g>
    </g>
</svg>