<?xml version="1.0" encoding="UTF-8"?>
<svg width="600px" height="600px" viewBox="0 0 600 600" version="1.1" xmlns="http://www.w3.org/2000/svg" xmlns:xlink="http://www.w3.org/1999/xlink">
    <!-- Generator: Sketch 62 (91390) - https://sketch.com -->
    <title>Illustrations / Contact</title>
    <desc>Created with Sketch.</desc>
    <defs>
        <polygon id="path-1" points="0 600.281289 568.936877 600.281289 568.936877 0.281288724 0 0.281288724"></polygon>
    </defs>
    <g id="Illustrations-/-Contact" stroke="none" stroke-width="1" fill="none" fill-rule="evenodd">
        <g id="Group-226" transform="translate(16.000000, -1.000000)">
            <polygon id="Fill-1" fill="#242459" points="228.903792 563.992813 403.017348 563.992813 403.017348 27.4813135 228.903792 27.4813135"></polygon>
            <g id="Group-225" transform="translate(0.000000, 0.711524)">
                <path d="M516.012919,294.302875 C516.012919,400.293383 430.090268,486.215316 324.100478,486.215316 C218.10997,486.215316 132.187318,400.293383 132.187318,294.302875 C132.187318,188.311648 218.10997,102.390434 324.100478,102.390434 C430.090268,102.390434 516.012919,188.311648 516.012919,294.302875" id="Fill-2" fill="#141733"></path>
                <path d="M293.922726,354.523765 L293.922726,470.396553 C293.922726,504.051646 321.206444,531.335363 354.861537,531.335363 L354.862255,531.335363 C388.517348,531.335363 415.801066,504.051646 415.801066,470.396553 L415.801066,354.610729" id="Stroke-4" stroke="#50D9E6" stroke-width="1.43742255"></path>
                <path d="M38.7268947,353.066649 C87.752347,353.066649 98.7860025,306.006154 127.822657,306.006154 C156.858592,306.006154 107.622558,243.425088 134.723004,215.860354 C161.82345,188.294183 186.580178,230.026154 203.147192,230.026154 C219.715643,230.026154 239.288307,149.98831 265.420649,149.98831 C291.552991,149.98831 286.575197,220.026005 337.331306,221.355621 C396.753636,222.912349 385.527366,294.020206 392.416213,302.329227 C399.305061,310.638248 408.048183,298.517901 420.685284,305.906253 C433.323103,313.294605 432.915594,353.066649 453.153066,353.066649 L38.7268947,353.066649 Z" id="Fill-6" fill="#17204D"></path>
                <path d="M149.359271,352.802739 C149.359271,339.122788 140.988441,332.476146 140.131737,324.568166 C139.275752,316.660186 143.17548,307.802069 142.319494,299.523234 C141.464228,291.245118 136.916223,283.530471 132.521304,280.989827 C128.127103,278.449182 125.671985,265.390198 119.298454,266.394238 C112.924922,267.398278 112.227053,280.82596 108.94398,283.520409 C105.660188,286.214857 100.24398,288.00948 99.5935465,295.940458 C98.9431128,303.871437 107.407375,314.84544 102.840684,323.494411 C98.2747113,332.142664 96.3722825,341.533346 96.3722825,352.901202 L149.359271,352.802739 Z" id="Fill-8" fill="#FFB057"></path>
                <path d="M118.224483,282.752969 C121.468027,287.321098 126.684434,284.579933 127.699973,286.712349 C128.71623,288.844047 122.983789,294.448558 123.778684,306.507814 C124.573579,318.567071 135.203318,316.050144 141.897395,330.309375 L141.900989,330.318 C141.01338,328.394729 140.342823,326.519611 140.131522,324.56831 C139.275537,316.66033 143.175983,307.802213 142.319279,299.523378 C141.464012,291.244543 136.916007,283.530615 132.521807,280.98997 C128.126887,278.449326 125.67177,265.390342 119.298238,266.394382 C119.298238,266.394382 114.981658,278.18484 118.224483,282.752969" id="Fill-10" fill="#FFC785"></path>
                <path d="M132.461866,317.59717 C124.002634,317.59717 117.967616,332.884159 107.127294,332.884159 C96.2869715,332.884159 89.9809988,328.919029 83.9696976,331.686786 C77.959834,334.453824 74.3217175,343.863192 68.7517051,344.806141 C63.1816927,345.749809 59.8720273,341.578409 50.5287807,342.747752 C41.1855341,343.917095 33.5190409,352.900986 21.9003544,352.900986 L228.409822,352.900986 L216.071705,310.472585 C204.93168,310.472585 199.889202,318.558805 193.732002,321.996401 C187.574803,325.433279 183.849722,319.322796 176.423279,321.018954 C168.996116,322.715113 163.007095,331.09888 155.221296,329.901507 C147.434778,328.703415 141.2208,317.59717 132.461866,317.59717" id="Fill-12" fill="#17204D"></path>
                <polygon id="Fill-14" fill="#3D55CC" points="0 352.901058 568.936877 352.901058 228.903792 421.037762"></polygon>
                <path d="M507.628434,302.239603 C500.339983,303.589343 500.742461,310.619777 499.223824,313.083519 C497.704468,315.547261 494.287715,315.716159 492.726674,320.575366 C491.165633,325.434572 495.188979,329.575068 493.294456,335.512342 C491.399933,341.448897 487.616637,343.245675 487.616637,352.840471 L527.929871,352.840471 C527.929871,342.650582 519.78831,340.60513 523.174877,332.605874 C526.002287,325.92689 527.220503,322.310335 519.412424,313.972565 C516.610169,310.979851 515.580255,300.766964 507.628434,302.239603" id="Fill-16" fill="#FFB057"></path>
                <path d="M523.174805,332.605874 C526.002934,325.92689 527.220431,322.310335 519.413071,313.972565 C516.737309,311.114969 515.672897,301.683321 508.659713,302.117423 C508.659713,312.318092 517.482612,315.364709 518.24804,317.247732 C519.01203,319.130756 507.213665,321.139554 513.032352,336.84052 C516.600753,346.469095 525.056392,343.229864 527.929799,352.840471 C527.929799,342.650582 519.788238,340.60513 523.174805,332.605874" id="Fill-18" fill="#FFC785"></path>
                <path d="M439.096798,317.537445 C447.55603,317.537445 453.59033,332.824434 464.431371,332.824434 C475.271693,332.824434 481.576947,328.859304 487.588248,331.627061 C493.59883,334.394099 497.236228,343.803467 502.80624,344.746416 C508.376253,345.690084 511.686637,341.517965 521.029884,342.687309 C530.37313,343.856652 538.038905,352.840543 549.65831,352.840543 L343.148843,352.840543 L355.48624,310.412141 C366.626265,310.412141 371.669462,318.499081 377.826662,321.935958 C383.983143,325.372835 387.708942,319.263071 395.135385,320.959229 C402.561829,322.654669 408.551569,331.039155 416.337368,329.841063 C424.123167,328.64369 430.337864,317.537445 439.096798,317.537445" id="Fill-20" fill="#17204D"></path>
                <polygon id="Fill-22" fill="#2A9BA6" points="450.297913 302.094999 446.115014 302.094999 444.18743 325.468208 454.628867 325.468208"></polygon>
                <path d="M454.37854,312.559147 C453.925752,313.011936 449.988652,309.807921 445.584389,305.403658 C441.180126,300.999395 437.976112,297.062295 438.4289,296.609507 C438.880969,296.156719 442.818069,299.360734 447.222332,303.764996 C451.627314,308.169978 454.83061,312.107078 454.37854,312.559147" id="Fill-24" fill="#2A9BA6"></path>
                <polygon id="Fill-26" fill="#2A9BA6" points="454.37854 312.559147 438.4289 296.609507 443.405975 291.631713 459.356335 307.581353"></polygon>
                <path d="M480.179844,317.253195 C480.179844,317.253195 465.240711,321.220481 447.503636,303.484124 C429.767279,285.747048 433.734565,270.807916 433.734565,270.807916 L480.179844,317.253195 Z" id="Fill-28" fill="#33BFCC"></path>
                <path d="M480.179844,317.253195 C479.236895,318.196144 468.07459,308.563975 455.249187,295.738572 C442.423784,282.91317 432.790897,271.750865 433.734565,270.807916 C434.677514,269.864248 445.839819,279.497135 458.665222,292.322538 C471.490625,305.147941 481.122793,316.310245 480.179844,317.253195" id="Fill-30" fill="#FFFFFF"></path>
                <line x1="471.643063" y1="281.782996" x2="470.424129" y2="308.059081" id="Stroke-32" stroke="#FFFFFF" stroke-width="1.43742255"></line>
                <line x1="469.204763" y1="279.344696" x2="442.928679" y2="280.563631" id="Stroke-34" stroke="#FFFFFF" stroke-width="1.43742255"></line>
                <polygon id="Fill-36" fill="#FFFFFF" points="470.9531 285.111923 465.876124 280.034947 469.12973 276.781341 474.205988 281.858317"></polygon>
                <path d="M474.206275,281.858102 C474.103499,281.961596 472.883846,280.907965 471.481641,279.506478 C470.080154,278.103554 469.026523,276.883901 469.130017,276.781844 C469.232074,276.678349 470.451727,277.731261 471.854652,279.133467 C473.256139,280.534954 474.30977,281.755326 474.206275,281.858102" id="Fill-38" fill="#FFFFFF"></path>
                <path d="M470.9531,285.111923 C470.849606,285.214699 469.629953,284.161787 468.228466,282.759581 C466.82626,281.357375 465.773348,280.137722 465.876124,280.034947 C465.9789,279.932171 467.198553,280.985083 468.600758,282.387289 C470.002964,283.788776 471.055876,285.008429 470.9531,285.111923" id="Fill-40" fill="#FFFFFF"></path>
                <path d="M468.277626,285.761854 C468.207911,285.832287 467.468357,285.205571 466.625309,284.362523 C465.78226,283.519475 465.155544,282.779921 465.225259,282.710206 C465.295693,282.639772 466.035247,283.266488 466.878295,284.109537 C467.721343,284.952585 468.348059,285.692139 468.277626,285.761854" id="Fill-42" fill="#FFFFFF"></path>
                <polygon id="Fill-44" fill="#FFFFFF" points="468.277626 285.761854 465.225259 282.710206 468.897155 279.03831 471.949522 282.090677"></polygon>
                <path d="M444.948976,302.094999 L444.948976,302.094999 C443.196758,302.094999 441.704714,303.367836 441.429447,305.098493 L438.177279,325.468208 L448.619435,325.468208 L448.513784,305.64112 C448.503004,303.679757 446.91034,302.094999 444.948976,302.094999" id="Fill-46" fill="#FFFFFF"></path>
                <mask id="mask-2" fill="white">
                    <use xlink:href="#path-1"></use>
                </mask>
                <g id="Clip-49"></g>
                <polygon id="Fill-48" fill="#50D9E6" mask="url(#mask-2)" points="432.915737 335.234201 459.390186 335.234201 459.390186 325.467633 432.915737 325.467633"></polygon>
                <polygon id="Fill-50" fill="#FFFFFF" mask="url(#mask-2)" points="410.473259 337.390335 482.332887 337.390335 482.332887 335.234201 410.473259 335.234201"></polygon>
                <polyline id="Stroke-51" stroke="#FFFFFF" stroke-width="0.718711276" mask="url(#mask-2)" points="410.473259 337.390478 410.473259 328.447554 482.332887 328.447554 482.332887 337.390478"></polyline>
                <line x1="419.455784" y1="337.390478" x2="419.455784" y2="328.447554" id="Stroke-52" stroke="#FFFFFF" stroke-width="0.718711276" mask="url(#mask-2)"></line>
                <line x1="428.438238" y1="337.390478" x2="428.438238" y2="328.447554" id="Stroke-53" stroke="#FFFFFF" stroke-width="0.718711276" mask="url(#mask-2)"></line>
                <line x1="437.420763" y1="337.390478" x2="437.420763" y2="328.447554" id="Stroke-54" stroke="#FFFFFF" stroke-width="0.718711276" mask="url(#mask-2)"></line>
                <line x1="446.403217" y1="337.390478" x2="446.403217" y2="328.447554" id="Stroke-55" stroke="#FFFFFF" stroke-width="0.718711276" mask="url(#mask-2)"></line>
                <line x1="455.385742" y1="337.390478" x2="455.385742" y2="328.447554" id="Stroke-56" stroke="#FFFFFF" stroke-width="0.718711276" mask="url(#mask-2)"></line>
                <line x1="464.368196" y1="328.447266" x2="464.368196" y2="337.390191" id="Stroke-57" stroke="#FFFFFF" stroke-width="0.718711276" mask="url(#mask-2)"></line>
                <line x1="473.350721" y1="337.390478" x2="473.350721" y2="328.447554" id="Stroke-58" stroke="#FFFFFF" stroke-width="0.718711276" mask="url(#mask-2)"></line>
                <polygon id="Fill-59" fill="#33BFCC" mask="url(#mask-2)" points="415.801066 352.840471 476.606914 352.840471 476.606914 337.390335 415.801066 337.390335"></polygon>
                <path d="M398.13234,352.840686 L428.482798,352.840686 C423.212488,352.840686 420.211869,348.698035 415.801138,348.698035 L415.801138,344.625098 C406.667036,344.625098 404.809886,352.840686 398.13234,352.840686" id="Fill-60" fill="#17204D" mask="url(#mask-2)"></path>
                <path d="M448.422508,352.840686 C451.870885,352.840686 454.515024,347.719869 459.17371,347.719869 C463.833115,347.719869 466.574999,351.615284 469.471405,351.615284 C472.367812,351.615284 473.6349,349.809881 476.187043,349.809881 C478.739187,349.809881 480.48853,352.840686 485.080377,352.840686 L448.422508,352.840686 Z" id="Fill-61" fill="#17204D" mask="url(#mask-2)"></path>
                <polygon id="Fill-62" fill="#2A9BA6" mask="url(#mask-2)" points="415.801066 340.268055 476.606914 340.268055 476.606914 337.390335 415.801066 337.390335"></polygon>
                <path d="M445.971559,305.680146 C445.971559,306.300394 445.468461,306.802773 444.848932,306.802773 C444.227965,306.802773 443.725586,306.300394 443.725586,305.680146 C443.725586,305.060617 444.227965,304.557519 444.848932,304.557519 C445.468461,304.557519 445.971559,305.060617 445.971559,305.680146" id="Fill-63" fill="#98D9D3" mask="url(#mask-2)"></path>
                <path d="M471.033093,271.317482 C475.803898,271.317482 479.670565,275.184149 479.670565,279.954954" id="Stroke-64" stroke="#FFFFFF" stroke-width="0.718711276" mask="url(#mask-2)"></path>
                <path d="M471.033093,266.339113 C478.552969,266.339113 484.647641,272.434503 484.647641,279.954379" id="Stroke-65" stroke="#FFFFFF" stroke-width="0.718711276" mask="url(#mask-2)"></path>
                <path d="M471.033093,261.592384 C481.174109,261.592384 489.395447,269.813004 489.395447,279.954739" id="Stroke-66" stroke="#FFFFFF" stroke-width="0.718711276" mask="url(#mask-2)"></path>
                <path d="M309.02055,240.535725 C326.358022,208.618476 350.600872,206.200012 372.760178,179.69969 C373.587415,178.710743 374.367217,177.629802 375.11252,176.48202 L356.832818,166.379095 L380.295866,165.970149 C392.444962,134.477658 393.137799,78.3786493 428.438022,69.0433086 C394.038344,69.6499009 361.227019,84.9843247 339.525532,109.296171 L344.611851,115.255725 L335.729299,113.779492 C326.736783,125.002169 320.029051,137.913098 316.436213,152.017807 C306.185234,192.263482 316.536833,200.562441 309.02055,240.535725" id="Fill-67" fill="#364AB3" mask="url(#mask-2)"></path>
                <path d="M428.438238,69.0430211 C387.673653,75.7025998 326.896553,139.566565 309.020766,240.535437 C326.358238,208.618188 350.600369,206.199725 372.759675,179.700121 C373.587631,178.710456 374.367432,177.629514 375.112736,176.481732 L356.833033,166.379527 L380.296082,165.969861 C392.445177,134.477371 393.138015,78.3783618 428.438238,69.0430211" id="Fill-68" fill="#3D55CC" mask="url(#mask-2)"></path>
                <path d="M239.896553,191.667527 C241.149266,190.92366 243.033727,191.783958 244.106045,193.589361 C245.178362,195.394763 245.032463,197.461058 243.779031,198.204924 C242.527036,198.948791 240.641856,198.089212 239.570258,196.28309 C238.497941,194.477688 238.643839,192.411393 239.896553,191.667527 M122.587779,93.3054201 C130.632315,108.276176 145.362302,116.910773 161.2911,126.105247 L175.836379,124.805817 L166.473727,129.105866 C168.074297,130.038753 169.682055,130.98314 171.289812,131.949088 L184.376107,130.656845 L176.830357,135.36656 L176.828201,135.365841 C192.288399,145.202124 207.232563,157.5848 216.833108,178.583388 C224.205648,194.706957 232.993331,206.32205 242.161212,215.737886 L270.406565,217.493698 L251.372216,224.468791 C275.375735,245.636994 299.637271,257.229807 306.439874,298.713822 C306.439874,298.713822 330.278808,181.293648 269.723789,132.301975 C253.904954,119.503884 238.661807,112.022818 224.158932,107.614962 L209.81058,111.086337 L215.032017,105.203685 C177.934297,96.8213556 146.138511,106.224255 122.587779,93.3054201" id="Fill-69" fill="#364AB3" mask="url(#mask-2)"></path>
                <path d="M243.779318,198.204709 C242.527323,198.948575 240.642144,198.088996 239.570545,196.282875 C238.497509,194.477472 238.643408,192.411177 239.89684,191.667311 C241.149554,190.923445 243.034015,191.783742 244.106332,193.589145 C245.177931,195.394548 245.032032,197.460843 243.779318,198.204709 M306.440161,298.714325 C305.117732,256.106964 300.18881,200.712292 255.931289,156.98518 C211.674486,113.258067 142.545242,116.101289 122.588067,93.3052045 C130.631884,108.27596 145.361871,116.911276 161.291388,126.10575 L175.836667,124.805601 L166.473296,129.105651 C168.074585,130.038538 169.681623,130.983643 171.290099,131.948872 L184.376394,130.657348 L176.830644,135.366344 L176.828488,135.365626 C192.287968,145.201908 207.232131,157.584585 216.833395,178.583172 C224.205936,194.70746 232.9929,206.321834 242.161499,215.738389 L270.406853,217.493482 L251.371784,224.468575 C275.376022,245.636778 299.637559,257.229591 306.440161,298.714325" id="Fill-70" fill="#3D55CC" mask="url(#mask-2)"></path>
                <path d="M394.629341,254.79201 C395.409861,253.863435 396.993901,253.910151 398.166838,254.896942 C399.340493,255.883014 399.658164,257.43543 398.877643,258.364005 C398.097123,259.29258 396.513083,259.245145 395.340146,258.259073 C394.166491,257.273001 393.84882,255.721304 394.629341,254.79201 M309.020766,226.964947 C321.631993,213.540857 343.038089,233.323385 369.449291,251.171143 L380.084781,247.129829 L373.830555,254.07833 C399.428176,270.73087 429.353876,283.901973 460.362674,263.467574 C449.218337,264.817314 440.597395,258.226731 432.511893,248.861923 L423.918981,250.153447 L428.893901,244.470597 C417.099849,229.547995 405.823988,210.240535 388.627383,203.270473 C338.090481,182.788639 309.020766,226.964947 309.020766,226.964947" id="Fill-71" fill="#3D55CC" mask="url(#mask-2)"></path>
                <path d="M398.877715,258.363789 C398.097195,259.292364 396.513155,259.245648 395.340218,258.258857 C394.166563,257.272786 393.848892,255.721088 394.629413,254.791794 C395.409933,253.863219 396.993973,253.910654 398.16691,254.896726 C399.340565,255.882798 399.658235,257.435214 398.877715,258.363789 M460.362746,263.468077 C404.765398,285.643913 374.495435,176.083566 325.565571,210.355314 C314.760466,218.249638 309.020838,226.964731 309.020838,226.964731 C321.631346,213.540642 343.038161,233.32317 369.449363,251.170927 L380.084853,247.129613 L373.829908,254.078114 C399.428248,270.730654 429.353948,283.901757 460.362746,263.468077" id="Fill-72" fill="#556FF2" mask="url(#mask-2)"></path>
                <path d="M226.818667,201.857918 C219.295916,200.659108 212.711083,199.396332 206.849274,198.097621 L197.485903,202.694498 L201.021963,196.739257 C166.142905,188.177249 158.788332,178.43943 122.865705,174.618042 C151.141244,188.795341 157.603177,232.049542 190.261418,244.617646 C190.708456,244.789418 191.154057,244.947534 191.600377,245.113556 L220.06853,240.453432 L200.050984,247.917968 C204.671579,249.275613 209.246895,250.356555 213.755371,251.236976 L234.948729,242.163247 L224.360674,253.011475 C259.693958,258.052515 289.940203,255.082082 305.859658,290.311871 C298.013487,242.383891 277.81195,209.986543 226.818667,201.857918" id="Fill-73" fill="#364AB3" mask="url(#mask-2)"></path>
                <path d="M218.599844,222.669713 C165.167973,214.473529 158.888592,181.616206 122.866064,174.618114 C151.141603,188.795413 157.603537,232.049613 190.261058,244.617717 C190.708097,244.789489 191.153698,244.947606 191.600736,245.113628 L220.06889,240.453504 L200.050625,247.91804 C204.671219,249.275685 209.246535,250.356627 213.75573,251.237048 L234.948369,242.163318 L224.361033,253.011546 C259.694317,258.052587 289.940563,255.082154 305.859299,290.311943 C291.421827,243.746639 267.971715,230.243492 218.599844,222.669713" id="Fill-74" fill="#3D55CC" mask="url(#mask-2)"></path>
                <path d="M317.045752,182.941222 C333.111105,181.30256 333.126917,209.06997 341.267041,218.01577 C349.407165,226.960131 361.477202,216.333266 370.459656,231.90774 C379.442109,247.481494 352.497623,267.748434 365.514203,289.94655 C378.530783,312.144667 384.495368,334.94147 384.495368,352.979685 L246.228974,352.979685 C246.228974,328.704493 271.654104,312.639859 264.543175,301.765038 C257.432245,290.890937 254.30657,273.176141 266.414699,259.320107 C278.522109,245.464072 258.929321,228.100007 265.66652,218.98028 C272.403001,209.859115 286.140449,211.771606 295.658342,204.121643 C305.176954,196.47168 300.981118,184.580602 317.045752,182.941222" id="Fill-75" fill="#17204D" mask="url(#mask-2)"></path>
                <path d="M370.459871,231.907668 C361.477418,216.333195 349.40738,226.960059 341.267257,218.015698 C333.127133,209.070617 333.110602,181.302488 317.045968,182.94115 C317.045968,195.760803 297.879375,213.311014 312.681953,230.844694 C327.485249,248.376937 357.929859,242.939167 355.852064,247.267247 C353.773551,251.596045 314.723812,248.73198 325.954394,278.419787 C337.184258,308.106875 384.494865,316.73716 384.494865,352.979613 C384.494865,334.942116 378.53028,312.144595 365.514419,289.946478 C352.497839,267.748362 379.442325,247.481423 370.459871,231.907668" id="Fill-76" fill="#1F2B66" mask="url(#mask-2)"></path>
                <path d="M228.903936,246.699465 C228.735757,236.978176 227.723812,232.382017 227.723812,232.382017 L227.498855,231.714335 L226.6709,230.480307 L220.801903,228.212773 L193.272387,231.177457 L198.226463,248.346751 L228.903936,246.699465 Z" id="Fill-77" fill="#364AB3" mask="url(#mask-2)"></path>
                <path d="M292.756905,263.886798 L280.487066,264.902337 L280.487066,258.561147 L292.756905,259.575968 C293.878813,259.6694 294.741266,260.6066 294.741266,261.731383 C294.741266,262.856885 293.878813,263.794084 292.756905,263.886798" id="Fill-78" fill="#FFFFFF" mask="url(#mask-2)"></path>
                <path d="M250.341727,272.754186 L215.085346,272.754186 L179.828964,272.754186 C174.797985,301.502637 159.091269,307.171113 152.144206,307.171113 L215.085346,307.171113 L278.026486,307.171113 C271.079423,307.171113 255.372706,301.502637 250.341727,272.754186" id="Fill-79" fill="#FFFFFF" mask="url(#mask-2)"></path>
                <path d="M287.613663,352.979613 L140.277851,352.979613 L140.277851,319.036317 C140.277851,315.760431 141.606748,312.793591 143.753539,310.646082 C145.901048,308.498572 148.86717,307.171113 152.144493,307.171113 L213.945757,307.171113 L275.74774,307.171113 C279.024344,307.171113 281.991185,308.498572 284.138694,310.646082 C286.285485,312.793591 287.613663,315.760431 287.613663,319.036317 L287.613663,352.979613 Z" id="Fill-80" fill="#33BFCC" mask="url(#mask-2)"></path>
                <path d="M122.067936,352.987375 C128.056957,352.987375 132.648084,344.188193 140.740773,344.188193 C148.833462,344.188193 153.594924,350.952704 158.625903,350.952704 C163.656882,350.952704 165.858295,347.818404 170.289869,347.818404 C174.722161,347.818404 177.761591,352.987375 185.73713,352.987375 L122.067936,352.987375 Z" id="Fill-81" fill="#17204D" mask="url(#mask-2)"></path>
                <path d="M286.02603,264.557787 L282.925509,253.606783 C282.545311,252.267824 281.774853,251.10423 280.724815,250.318679 C274.948533,245.993475 253.786798,232.465172 215.085633,232.465172 C176.38375,232.465172 155.222015,245.993475 149.445732,250.318679 C148.395695,251.10423 147.625237,252.267824 147.245038,253.606783 L144.144518,264.557787 C143.532895,266.715358 144.759735,268.979299 146.767814,269.399026 L167.844022,273.810476 C169.566773,274.171269 171.256463,273.029955 171.753093,271.169931 L173.947318,262.957936 C174.331829,261.519794 175.325807,260.3792 176.614456,259.912756 C181.360107,258.195755 194.241569,254.385866 215.085633,254.385866 C235.928979,254.385866 248.810441,258.195755 253.556092,259.912756 C254.844741,260.3792 255.838719,261.519794 256.223229,262.957936 L258.417455,271.169931 C258.914084,273.029955 260.603774,274.171269 262.325807,273.810476 L283.402734,269.399026 C285.410813,268.979299 286.637653,266.715358 286.02603,264.557787" id="Fill-82" fill="#33BFCC" mask="url(#mask-2)"></path>
                <path d="M215.085561,252.515133 L215.084843,252.515133 C183.702315,252.934141 176.178126,259.524005 175.001596,261.00455 C175.448634,260.51367 175.99773,260.136347 176.614384,259.912828 C181.360035,258.195827 194.241497,254.385938 215.085561,254.385938 C235.928907,254.385938 248.810369,258.195827 253.55602,259.912828 C254.172674,260.136347 254.72177,260.51367 255.168808,261.00455 C253.992278,259.524005 246.468089,252.934141 215.085561,252.515133" id="Fill-83" fill="#2A9BA6" mask="url(#mask-2)"></path>
                <path d="M246.468161,250.93598 L246.468161,250.93598 C248.684667,250.93598 250.481445,252.732758 250.481445,254.949264 L250.481445,273.523638 L242.454877,273.523638 L242.454877,254.949264 C242.454877,252.732758 244.251656,250.93598 246.468161,250.93598" id="Fill-84" fill="#FFFFFF" mask="url(#mask-2)"></path>
                <path d="M183.702315,250.93598 L183.702315,250.93598 C185.91882,250.93598 187.715599,252.732758 187.715599,254.949264 L187.715599,273.523638 L179.689031,273.523638 L179.689031,254.949264 C179.689031,252.732758 181.485809,250.93598 183.702315,250.93598" id="Fill-85" fill="#FFFFFF" mask="url(#mask-2)"></path>
                <path d="M250.142429,274.339016 C254.372045,286.006575 239.132491,297.755348 215.081537,297.755348 C191.029864,297.755348 175.791029,286.006575 180.020644,274.339016 C183.428055,264.938273 198.876035,258.561147 215.081537,258.561147 C231.287038,258.561147 246.735019,264.938273 250.142429,274.339016" id="Fill-86" fill="#2A9BA6" mask="url(#mask-2)"></path>
                <path d="M250.142429,272.182882 C254.372045,283.850441 239.132491,295.599214 215.081537,295.599214 C191.029864,295.599214 175.791029,283.850441 180.020644,272.182882 C183.428055,262.782139 198.876035,256.405014 215.081537,256.405014 C231.287038,256.405014 246.735019,262.782139 250.142429,272.182882" id="Fill-87" fill="#8ADEE6" mask="url(#mask-2)"></path>
                <path d="M230.339274,272.182882 C231.08889,276.936439 224.289162,281.147368 215.081752,281.147368 C205.873623,281.147368 199.073896,276.936439 199.823512,272.182882 C200.506287,267.854803 207.313921,264.619884 215.081752,264.619884 C222.848865,264.619884 229.656498,267.854803 230.339274,272.182882" id="Fill-88" fill="#FFFFFF" mask="url(#mask-2)"></path>
                <path d="M230.339274,272.182882 C231.08889,276.936439 224.289162,281.147368 215.081752,281.147368 C205.873623,281.147368 199.073896,276.936439 199.823512,272.182882 C200.506287,267.854803 207.313921,264.619884 215.081752,264.619884 C222.848865,264.619884 229.656498,267.854803 230.339274,272.182882" id="Fill-89" fill="#FFFFFF" mask="url(#mask-2)"></path>
                <path d="M220.526421,288.267569 C220.619135,290.185809 218.181985,291.789254 215.081465,291.789254 C211.979507,291.789254 209.543794,290.185809 209.636508,288.267569 C209.725628,286.412575 212.162059,284.953591 215.081465,284.953591 C218.000151,284.953591 220.437301,286.412575 220.526421,288.267569" id="Fill-90" fill="#2A9BA6" mask="url(#mask-2)"></path>
                <path d="M207.042176,287.894126 C205.599722,289.608253 202.225373,290.344213 199.579797,289.501884 C196.973031,288.672491 196.172387,286.653631 197.71546,285.027187 C199.214691,283.44746 202.406488,282.795589 204.914791,283.540892 C207.45831,284.297695 208.441507,286.231029 207.042176,287.894126" id="Fill-91" fill="#2A9BA6" mask="url(#mask-2)"></path>
                <path d="M195.848104,284.044421 C193.367831,285.145487 190.088352,284.919093 188.603494,283.548511 C187.155291,282.211708 188.006964,280.321497 190.431177,279.314582 C192.808674,278.327073 195.89482,278.527594 197.398364,279.77312 C198.938563,281.048833 198.279504,282.965636 195.848104,284.044421" id="Fill-92" fill="#2A9BA6" mask="url(#mask-2)"></path>
                <path d="M189.670278,278.04347 C186.908989,278.392763 184.528617,277.444783 184.373375,275.964238 C184.223884,274.525378 186.243462,273.133234 188.866758,272.818439 C191.472805,272.505799 193.798555,273.363941 194.084602,274.768302 C194.378555,276.213631 192.41288,277.697051 189.670278,278.04347" id="Fill-93" fill="#2A9BA6" mask="url(#mask-2)"></path>
                <path d="M189.197941,271.57859 C186.788102,271.276731 185.633851,269.974426 186.581113,268.70087 C187.503938,267.461093 190.091299,266.701415 192.394768,266.975244 C194.713331,267.251229 195.955264,268.478788 195.138089,269.745876 C194.298634,271.0489 191.622872,271.883323 189.197941,271.57859" id="Fill-94" fill="#2A9BA6" mask="url(#mask-2)"></path>
                <path d="M193.574102,265.986082 C191.87938,265.235747 191.919628,263.896069 193.607881,262.99768 C195.261636,262.117978 197.921586,261.973517 199.603371,262.669948 C201.312466,263.37716 201.413086,264.701745 199.773705,265.635351 C198.099827,266.588362 195.297571,266.748634 193.574102,265.986082" id="Fill-95" fill="#2A9BA6" mask="url(#mask-2)"></path>
                <path d="M201.325475,262.0451 C200.488895,261.056154 201.535338,259.896154 203.624632,259.439053 C205.690927,258.986265 208.069143,259.377963 208.974719,260.328099 C209.901138,261.300515 208.953157,262.499326 206.817866,262.990924 C204.658139,263.488273 202.180741,263.057046 201.325475,262.0451" id="Fill-96" fill="#2A9BA6" mask="url(#mask-2)"></path>
                <path d="M210.955774,260.115001 C211.002491,259.066401 212.828736,258.233415 215.035898,258.231257 C217.242342,258.229822 219.074337,259.059214 219.12824,260.108533 C219.183581,261.183725 217.357336,262.077083 215.048116,262.079243 C212.738897,262.081395 210.907621,261.190912 210.955774,260.115001" id="Fill-97" fill="#2A9BA6" mask="url(#mask-2)"></path>
                <path d="M221.110374,260.31854 C222.009482,259.366967 224.384104,258.970957 226.453274,259.420151 C228.544005,259.874377 229.597636,261.031502 228.767524,262.021886 C227.919445,263.035269 225.445641,263.470089 223.283038,262.977053 C221.145591,262.489767 220.191143,261.291675 221.110374,260.31854" id="Fill-98" fill="#2A9BA6" mask="url(#mask-2)"></path>
                <path d="M232.524156,284.989814 C234.076572,286.613383 233.289584,288.632243 230.690005,289.467385 C228.051616,290.315465 224.673673,289.586691 223.221157,287.876877 C221.811046,286.216654 222.781306,284.281884 225.319794,283.52005 C227.821628,282.768996 231.015581,283.41368 232.524156,284.989814" id="Fill-99" fill="#2A9BA6" mask="url(#mask-2)"></path>
                <path d="M228.518634,286.997893 C228.609192,286.868525 228.636503,286.657224 228.600568,286.363271 C228.564632,286.071475 228.486292,285.863048 228.366268,285.735836 C228.246243,285.610062 228.068002,285.546815 227.832984,285.546815 C227.597247,285.546815 227.43338,285.610062 227.342104,285.735836 C227.250828,285.863048 227.221361,286.071475 227.253703,286.363271 C227.286045,286.657224 227.362228,286.868525 227.482971,286.997893 C227.603715,287.12798 227.784112,287.192664 228.023442,287.192664 C228.262773,287.192664 228.427358,287.12798 228.518634,286.997893 M226.152637,286.363271 C226.063517,285.46632 226.603269,285.022875 227.771893,285.022875 C228.940518,285.022875 229.583046,285.46632 229.701633,286.363271 C229.821658,287.276035 229.283343,287.737447 228.08597,287.737447 C226.888597,287.737447 226.243913,287.276035 226.152637,286.363271" id="Fill-100" fill="#FFFFFF" mask="url(#mask-2)"></path>
                <path d="M214.541641,287.520756 C214.434553,287.583284 214.379931,287.671685 214.379205,287.78596 C214.378493,287.900954 214.432397,287.990074 214.538766,288.053321 C214.646572,288.116568 214.798221,288.148191 214.995866,288.148191 C215.188481,288.148191 215.33941,288.115849 215.449373,288.051165 C215.558617,287.986481 215.61252,287.898079 215.61252,287.78596 C215.611802,287.67456 215.55718,287.586877 215.447936,287.522912 C215.337973,287.458947 215.187762,287.427323 214.996585,287.427323 C214.800377,287.427323 214.64801,287.458228 214.541641,287.520756 M216.350637,287.236146 C216.66112,287.474758 216.819955,287.823333 216.827143,288.284027 C216.833611,288.760533 216.679807,289.114139 216.361418,289.343408 C216.04231,289.574114 215.581616,289.689827 214.981492,289.689827 C214.576857,289.689827 214.240501,289.640235 213.972421,289.542491 C213.704342,289.443309 213.506696,289.290223 213.37661,289.083234 L214.399336,288.828092 C214.438146,288.930867 214.503549,289.009207 214.593388,289.062392 C214.683945,289.115576 214.820501,289.14145 215.002335,289.14145 C215.542087,289.14145 215.810166,288.881276 215.806572,288.363086 L215.806572,288.296245 L215.78573,288.296245 C215.72967,288.411958 215.604615,288.501078 215.412,288.563606 C215.217948,288.626134 214.995147,288.657038 214.743599,288.657038 C214.484144,288.657038 214.246969,288.621103 214.031356,288.54995 C213.816461,288.477361 213.647564,288.374585 213.523945,288.243061 C213.401046,288.110818 213.340674,287.959888 213.343549,287.790991 C213.347861,287.504944 213.498072,287.281425 213.793462,287.120434 C214.088134,286.96088 214.499955,286.880384 215.029646,286.880384 C215.60174,286.880384 216.04231,286.998971 216.350637,287.236146" id="Fill-101" fill="#FFFFFF" mask="url(#mask-2)"></path>
                <path d="M201.992295,285.671368 C201.887363,285.723834 201.828429,285.79858 201.817648,285.89345 C201.806149,285.985445 201.848553,286.058753 201.943423,286.112657 C202.037574,286.167279 202.171254,286.19459 202.343745,286.19459 C202.520548,286.19459 202.662853,286.167279 202.769941,286.112657 C202.877029,286.058753 202.935244,285.985445 202.946025,285.89345 C202.956087,285.79858 202.913683,285.723834 202.818813,285.671368 C202.724662,285.619621 202.588825,285.593029 202.41346,285.593029 C202.237375,285.593029 202.097227,285.619621 201.992295,285.671368 M202.716037,287.214441 C202.840374,287.154788 202.907214,287.074292 202.918714,286.972235 C202.930932,286.867304 202.880622,286.786089 202.769941,286.728592 C202.659978,286.671095 202.499705,286.642347 202.292716,286.642347 C202.089321,286.642347 201.925455,286.671095 201.801836,286.728592 C201.678218,286.786089 201.609941,286.867304 201.597004,286.972235 C201.584786,287.074292 201.633658,287.154788 201.743621,287.214441 C201.854302,287.274094 202.0117,287.303561 202.216533,287.303561 C202.425678,287.303561 202.592419,287.274094 202.716037,287.214441 M203.610833,285.296919 C203.882506,285.425569 204.007561,285.60309 203.983844,285.830203 C203.970907,285.963884 203.899755,286.081033 203.771824,286.180216 C203.642456,286.280835 203.467809,286.355581 203.245727,286.405891 L203.245009,286.409485 C203.503745,286.463388 203.697078,286.544602 203.826446,286.654565 C203.955814,286.764528 204.01403,286.899646 203.997499,287.061356 C203.974501,287.293499 203.800572,287.477489 203.474996,287.61117 C203.147264,287.746287 202.70885,287.813846 202.157599,287.813846 C201.61569,287.813846 201.195963,287.746287 200.898416,287.61117 C200.600151,287.477489 200.467908,287.293499 200.498094,287.061356 C200.518937,286.899646 200.607338,286.764528 200.761861,286.654565 C200.916384,286.544602 201.129123,286.463388 201.399358,286.409485 L201.400077,286.405891 C201.190932,286.355581 201.032097,286.280835 200.927165,286.180216 C200.820796,286.081033 200.776954,285.963884 200.794203,285.830203 C200.82367,285.60309 200.988974,285.425569 201.289395,285.296919 C201.589817,285.167551 201.982952,285.102867 202.469519,285.102867 C202.960399,285.102867 203.341316,285.167551 203.610833,285.296919" id="Fill-102" fill="#FFFFFF" mask="url(#mask-2)"></path>
                <path d="M194.990466,280.433328 L194.907095,280.871024 C194.369499,281.14629 193.966302,281.443118 193.69966,281.762944 C193.431581,282.084208 193.256216,282.44572 193.174283,282.848198 L192.108434,282.848198 C192.188929,282.473031 192.371482,282.125893 192.65681,281.808223 C192.939983,281.492709 193.342461,281.1966 193.863527,280.918458 L191.554307,280.918458 L191.662833,280.433328 L194.990466,280.433328 Z" id="Fill-103" fill="#FFFFFF" mask="url(#mask-2)"></path>
                <path d="M188.887745,275.55256 C188.774907,275.603589 188.706629,275.674022 188.682912,275.763143 C188.659913,275.852263 188.691537,275.922696 188.777782,275.973725 C188.864027,276.025472 188.991239,276.050627 189.159418,276.050627 C189.335502,276.050627 189.477807,276.026191 189.587051,275.975881 C189.695576,275.925571 189.761698,275.854419 189.784696,275.763143 C189.807695,275.671147 189.776791,275.600714 189.694139,275.551123 C189.612206,275.501532 189.482838,275.476377 189.307472,275.476377 C189.140731,275.476377 189.000582,275.50225 188.887745,275.55256 M190.900855,274.73826 L190.030496,274.949561 C189.989529,274.787851 189.817038,274.705918 189.511586,274.705918 C189.295254,274.705918 189.104796,274.761978 188.940211,274.874815 C188.775626,274.986934 188.666382,275.138582 188.616072,275.32976 L188.602416,275.382226 L188.613916,275.382226 C188.703755,275.291668 188.837435,275.221953 189.0128,275.173799 C189.188885,275.124927 189.390843,275.101209 189.620112,275.101209 C189.856568,275.101209 190.062838,275.12852 190.238922,275.183143 C190.415725,275.238483 190.545093,275.316104 190.627745,275.416724 C190.709678,275.516625 190.734833,275.633056 190.702491,275.766017 C190.650025,275.984506 190.476097,276.157715 190.182144,276.284927 C189.888191,276.412139 189.50368,276.476823 189.032206,276.476823 C188.509703,276.476823 188.133098,276.380515 187.906704,276.189338 C187.679591,275.998161 187.616344,275.722176 187.714808,275.36282 C187.781648,275.119177 187.910297,274.915782 188.099318,274.752634 C188.28834,274.589487 188.518327,274.468743 188.79,274.391123 C189.060954,274.312064 189.359938,274.273254 189.686952,274.273254 C190.379071,274.273254 190.783705,274.427777 190.900855,274.73826" id="Fill-104" fill="#FFFFFF" mask="url(#mask-2)"></path>
                <path d="M191.770999,269.005532 C191.928397,269.053685 192.041953,269.121244 192.112387,269.207489 C192.181383,269.293735 192.203663,269.392917 192.176352,269.503599 C192.140416,269.65309 192.046984,269.779584 191.897492,269.881641 C191.747281,269.983698 191.558979,270.0606 191.332585,270.110191 C191.105472,270.160501 190.857517,270.186374 190.588719,270.186374 C190.257393,270.186374 189.982845,270.156907 189.767232,270.096535 C189.5509,270.036164 189.384877,269.938419 189.267009,269.803301 L190.16396,269.556064 C190.178335,269.640154 190.224332,269.7034 190.301234,269.745086 C190.378855,269.788208 190.508223,269.809051 190.691494,269.809051 C190.863985,269.809051 191.00629,269.786052 191.11769,269.739336 C191.227653,269.694057 191.294493,269.626498 191.316773,269.538097 C191.334741,269.45257 191.304555,269.386449 191.224059,269.340451 C191.144283,269.294454 191.013477,269.272173 190.830206,269.272173 C190.567876,269.272173 190.366637,269.308828 190.226488,269.383574 L189.52862,269.328952 L190.043217,268.273884 L192.275534,268.273884 L192.183539,268.647613 L190.621779,268.647613 L190.447851,268.998344 C190.429165,269.030686 190.413353,269.052967 190.403291,269.066622 L190.408322,269.066622 C190.492411,269.024937 190.602374,268.991876 190.739648,268.968877 C190.876922,268.94516 191.025695,268.932942 191.185968,268.932942 C191.41883,268.932942 191.613601,268.957378 191.770999,269.005532" id="Fill-105" fill="#FFFFFF" mask="url(#mask-2)"></path>
                <path d="M195.920406,264.468667 L196.814483,264.468667 L196.906478,264.018753 L196.98338,263.744206 L196.973318,263.744206 C196.895698,263.820389 196.77711,263.911665 196.617556,264.018753 L195.920406,264.468667 Z M198.070791,264.7734 L197.544694,264.7734 L197.470667,265.150005 L196.674335,265.150005 L196.751955,264.7734 L195.02058,264.7734 L195.067296,264.564255 L196.769923,263.459596 L197.802711,263.459596 L197.604347,264.468667 L198.129006,264.468667 L198.070791,264.7734 Z" id="Fill-106" fill="#FFFFFF" mask="url(#mask-2)"></path>
                <path d="M206.176057,260.491893 C206.372984,260.570233 206.464979,260.676602 206.452042,260.809564 C206.443418,260.890778 206.400295,260.957618 206.323393,261.012959 C206.246491,261.067581 206.157371,261.10711 206.056032,261.132984 C205.954694,261.158857 205.86773,261.171076 205.794421,261.171076 L205.793703,261.178263 C205.887135,261.178263 205.98488,261.189762 206.087656,261.212761 C206.190431,261.23576 206.277395,261.27457 206.348548,261.327036 C206.420419,261.380939 206.452042,261.450654 206.443418,261.537618 C206.434074,261.627457 206.370828,261.706515 206.252959,261.77623 C206.13509,261.845945 205.976255,261.899849 205.776454,261.938659 C205.577371,261.97747 205.352414,261.996875 205.10374,261.996875 C204.74654,261.996875 204.464805,261.965252 204.259254,261.902005 C204.053703,261.838758 203.914991,261.738139 203.841683,261.600146 L204.645921,261.438436 C204.652389,261.522525 204.69623,261.582897 204.777445,261.618833 C204.858659,261.656206 204.975809,261.674892 205.130332,261.674892 C205.274793,261.674892 205.389787,261.658362 205.476032,261.625301 C205.562278,261.59224 205.608275,261.546243 205.614743,261.487309 C205.621931,261.424781 205.586714,261.379502 205.511249,261.352191 C205.435784,261.325599 205.312885,261.311943 205.143269,261.311943 L204.957123,261.311943 L204.988027,261.05177 L205.132488,261.05177 C205.292761,261.05177 205.411348,261.036677 205.487532,261.005772 C205.563715,260.974867 205.606119,260.927432 205.613306,260.864905 C205.619774,260.807408 205.591026,260.764285 205.525623,260.73338 C205.460939,260.702476 205.367507,260.686664 205.244607,260.686664 C204.965747,260.686664 204.804756,260.757098 204.761633,260.897247 L204.023517,260.776503 C204.094669,260.638511 204.245599,260.536454 204.477742,260.472488 C204.709167,260.407086 204.993058,260.374743 205.330134,260.374743 C205.697395,260.374743 205.97913,260.414273 206.176057,260.491893" id="Fill-107" fill="#FFFFFF" mask="url(#mask-2)"></path>
                <path d="M213.862962,260.638582 C214.417807,260.475435 214.818129,260.330974 215.064647,260.205918 C215.309727,260.081581 215.431908,259.964431 215.431908,259.854468 C215.43119,259.792659 215.393098,259.743068 215.317633,259.705695 C215.242169,259.667603 215.134362,259.648917 214.993494,259.648917 C214.838971,259.648917 214.718228,259.675509 214.631264,259.727975 C214.543581,259.781879 214.499021,259.858781 214.494709,259.960838 L213.770967,259.856625 C213.78031,259.69204 213.902491,259.564828 214.137509,259.474989 C214.371809,259.384431 214.675105,259.339152 215.047398,259.339152 C215.318352,259.339152 215.545465,259.36287 215.728736,259.409586 C215.912726,259.455584 216.048563,259.515955 216.137683,259.589264 C216.227522,259.663291 216.2728,259.742349 216.273519,259.826439 C216.275675,259.970181 216.162838,260.102424 215.935725,260.223886 C215.706456,260.345348 215.359318,260.469685 214.892875,260.59546 L214.892875,260.598335 C215.111363,260.592585 215.332007,260.588991 215.554089,260.588991 L216.324548,260.588991 L216.32886,260.898037 L213.859368,260.898037 L213.862962,260.638582 Z" id="Fill-108" fill="#FFFFFF" mask="url(#mask-2)"></path>
                <path d="M225.523765,260.304454 L225.717817,261.875556 L224.879799,261.875556 L224.746838,260.701901 C224.503195,260.811864 224.250927,260.877985 223.990753,260.900265 L223.876478,260.564627 C224.043938,260.556002 224.228647,260.524379 224.429886,260.469757 C224.630406,260.415854 224.769118,260.360513 224.845301,260.304454 L225.523765,260.304454 Z" id="Fill-109" fill="#FFFFFF" mask="url(#mask-2)"></path>
                <path d="M291.843782,261.731383 C297.862989,261.731383 311.248986,263.157306 311.248986,271.641693 C311.248986,280.125361 288.160387,284.437628 291.843782,292.882486 C295.527177,301.327343 327.869185,306.95629 323.736595,317.771457 C319.604005,328.586625 293.923014,330.196538 293.923014,352.979685" id="Stroke-110" stroke="#50D9E6" stroke-width="1.43742255" mask="url(#mask-2)"></path>
                <path d="M280.724815,250.31832 C274.948533,245.993115 253.786798,232.464813 215.085633,232.464813 C176.38375,232.464813 155.222015,245.993115 149.445732,250.31832 C148.395695,251.10459 147.625237,252.268183 147.245038,253.606424 C148.131209,251.257675 169.632895,236.404069 215.084914,236.404069 L215.085633,236.404069 C260.537653,236.404069 282.039338,251.257675 282.925509,253.606424 C282.545311,252.268183 281.774853,251.10459 280.724815,250.31832" id="Fill-111" fill="#50D9E6" mask="url(#mask-2)"></path>
                <polygon id="Fill-112" fill="#8ADEE6" mask="url(#mask-2)" points="195.20917 350.945229 234.234473 350.945229 234.234473 321.192739 195.20917 321.192739"></polygon>
                <polygon id="Fill-113" fill="#2A9BA6" mask="url(#mask-2)" points="214.362825 350.945229 215.081537 350.945229 215.081537 321.192739 214.362825 321.192739"></polygon>
                <polygon id="Fill-114" fill="#2A9BA6" mask="url(#mask-2)" points="225.034538 334.897413 225.034538 344.743038 221.543757 344.743038 221.543757 350.348986 225.034538 350.348986 230.743261 350.348986 234.234761 350.348986 234.234761 334.897413"></polygon>
                <path d="M205.658082,324.236121 L205.658082,321.193098 L204.939371,321.193098 L204.939371,324.236121 C203.056347,324.419393 201.578677,325.98834 201.578677,327.919517 C201.578677,329.973594 203.244649,331.640285 205.298726,331.640285 C207.352803,331.640285 209.018776,329.973594 209.018776,327.919517 C209.018776,325.98834 207.541105,324.419393 205.658082,324.236121" id="Fill-115" fill="#2A9BA6" mask="url(#mask-2)"></path>
                <polygon id="Fill-116" fill="#8ADEE6" mask="url(#mask-2)" points="153.902677 337.690756 184.982627 337.690756 184.982627 329.947361 153.902677 329.947361"></polygon>
                <polygon id="Fill-117" fill="#FFFFFF" mask="url(#mask-2)" points="145.855266 352.987088 147.292689 352.987088 147.292689 321.192739 145.855266 321.192739"></polygon>
                <polygon id="Fill-118" fill="#FFFFFF" mask="url(#mask-2)" points="114.171599 352.987088 115.609021 352.987088 115.609021 321.192739 114.171599 321.192739"></polygon>
                <polygon id="Fill-119" fill="#FFFFFF" mask="url(#mask-2)" points="110.578761 321.192739 253.559901 321.192739 253.559901 316.880471 110.578761 316.880471"></polygon>
                <polygon id="Fill-120" fill="#FFFFFF" mask="url(#mask-2)" points="248.528922 352.987088 249.966344 352.987088 249.966344 321.192739 248.528922 321.192739"></polygon>
                <polygon id="Fill-121" fill="#FFFFFF" mask="url(#mask-2)" points="179.465081 352.987088 180.902503 352.987088 180.902503 321.192739 179.465081 321.192739"></polygon>
                <polygon id="Fill-122" fill="#8ADEE6" mask="url(#mask-2)" points="261.558439 347.248178 287.613879 347.248178 287.613879 321.192739 261.558439 321.192739"></polygon>
                <polygon id="Fill-123" fill="#2A9BA6" mask="url(#mask-2)" points="266.059727 347.248178 283.548129 347.248178 283.548129 341.335341 266.059727 341.335341"></polygon>
                <polygon id="Fill-124" fill="#2A9BA6" mask="url(#mask-2)" points="272.663965 330.887435 274.124387 330.887435 274.124387 326.069913 272.663965 326.069913"></polygon>
                <polygon id="Fill-125" fill="#2A9BA6" mask="url(#mask-2)" points="274.553457 328.479033 276.013879 328.479033 276.013879 323.660793 274.553457 323.660793"></polygon>
                <polygon id="Fill-126" fill="#2A9BA6" mask="url(#mask-2)" points="276.443668 332.07259 277.904089 332.07259 277.904089 327.254349 276.443668 327.254349"></polygon>
                <polygon id="Fill-127" fill="#FFFFFF" mask="url(#mask-2)" points="237.251911 351.6643 237.251911 350.349058 192.191589 350.349058 192.191589 351.6643 188.598032 351.6643 188.598032 352.979542 240.845467 352.979542 240.845467 351.6643"></polygon>
                <path d="M184.089772,247.268684 C183.578768,248.534335 182.530169,249.303356 181.748211,248.987841 C180.966253,248.67089 180.747046,247.389428 181.25805,246.124496 C181.769053,244.859564 182.816934,244.089824 183.599611,244.406776 C184.381569,244.72229 184.601494,246.003752 184.089772,247.268684 M190.877281,229.343306 C175.087913,238.79939 179.837157,266.956342 151.859884,275.859737 C184.960131,280.582389 202.669896,258.48058 213.239264,243.362488 L206.988632,242.078151 L215.196315,240.535078 C219.347591,234.500059 222.286401,230.146825 224.656711,230.146825 C225.394109,230.146825 227.090268,230.312129 227.724171,232.382017 C226.183254,224.659465 201.777975,222.814533 190.877281,229.343306" id="Fill-128" fill="#3D55CC" mask="url(#mask-2)"></path>
                <path d="M213.238976,243.362848 L206.989063,242.078511 L215.196746,240.534719 C219.347304,234.500419 222.286114,230.146466 224.657143,230.146466 C225.393822,230.146466 227.08998,230.312488 227.723884,232.382377 C227.008047,228.792414 221.348196,226.47457 214.404007,225.676082 C214.290451,225.663145 214.177613,225.650208 214.063338,225.63799 C213.834788,225.613554 213.603363,225.592711 213.371938,225.571869 C188.941504,223.300741 194.357713,273.535784 151.860315,275.860097 C184.959844,280.58203 202.669608,258.480221 213.238976,243.362848" id="Fill-129" fill="#556FF2" mask="url(#mask-2)"></path>
                <path d="M92.658342,302.239603 C86.9115266,303.589343 87.2284783,310.620496 86.0311053,313.084238 C84.8337323,315.548699 82.1392838,315.717596 80.9081314,320.577522 C79.6769789,325.436729 82.8508079,329.577943 81.3558885,335.515217 C79.8616877,341.453209 76.8790359,343.249269 76.8790359,352.845502 L108.66548,352.845502 C108.66548,342.654176 102.246669,340.608724 104.916682,332.609467 C107.145405,325.929046 108.105603,322.312491 101.95056,313.974002 C99.7405229,310.98057 98.9283792,300.766964 92.658342,302.239603" id="Fill-130" fill="#17204D" mask="url(#mask-2)"></path>
                <path d="M104.916394,332.609395 C107.145836,325.928974 108.105316,322.312419 101.950273,313.973931 C99.840855,311.116335 99.0014002,301.683249 93.4716357,302.117351 C93.460855,307.153361 89.8385502,309.671006 92.7730483,313.609544 C95.7104213,317.555269 98.675824,316.799903 99.5152788,319.318268 C100.354734,321.836632 89.7788971,329.056087 93.1359975,337.198367 C96.4938166,345.340647 106.399814,343.234104 108.665911,352.84543 C108.665911,342.654823 102.246382,340.608652 104.916394,332.609395" id="Fill-131" fill="#1F2B66" mask="url(#mask-2)"></path>
                <path d="M511.936533,225.374726 C512.913261,225.374726 513.706,224.582706 513.706,223.605259 C513.706,222.62853 512.913261,221.836511 511.936533,221.836511 C510.959804,221.836511 510.167784,222.62853 510.167784,223.605259 C510.167784,224.582706 510.959804,225.374726 511.936533,225.374726" id="Fill-132" fill="#556FF2" mask="url(#mask-2)"></path>
                <path d="M503.068426,225.374726 C504.045155,225.374726 504.837893,224.582706 504.837893,223.605259 C504.837893,222.62853 504.045155,221.836511 503.068426,221.836511 C502.091698,221.836511 501.298959,222.62853 501.298959,223.605259 C501.298959,224.582706 502.091698,225.374726 503.068426,225.374726" id="Fill-133" fill="#556FF2" mask="url(#mask-2)"></path>
                <path d="M511.936533,216.50662 C512.913261,216.50662 513.706,215.713881 513.706,214.737152 C513.706,213.760424 512.913261,212.967685 511.936533,212.967685 C510.959804,212.967685 510.167784,213.760424 510.167784,214.737152 C510.167784,215.713881 510.959804,216.50662 511.936533,216.50662" id="Fill-134" fill="#556FF2" mask="url(#mask-2)"></path>
                <path d="M503.068426,216.50662 C504.045155,216.50662 504.837893,215.713881 504.837893,214.737152 C504.837893,213.760424 504.045155,212.967685 503.068426,212.967685 C502.091698,212.967685 501.298959,213.760424 501.298959,214.737152 C501.298959,215.713881 502.091698,216.50662 503.068426,216.50662" id="Fill-135" fill="#556FF2" mask="url(#mask-2)"></path>
                <path d="M494.199601,225.374726 C495.177048,225.374726 495.969068,224.582706 495.969068,223.605259 C495.969068,222.62853 495.177048,221.836511 494.199601,221.836511 C493.222872,221.836511 492.430853,222.62853 492.430853,223.605259 C492.430853,224.582706 493.222872,225.374726 494.199601,225.374726" id="Fill-136" fill="#556FF2" mask="url(#mask-2)"></path>
                <path d="M494.199601,216.50662 C495.177048,216.50662 495.969068,215.713881 495.969068,214.737152 C495.969068,213.760424 495.177048,212.967685 494.199601,212.967685 C493.222872,212.967685 492.430853,213.760424 492.430853,214.737152 C492.430853,215.713881 493.222872,216.50662 494.199601,216.50662" id="Fill-137" fill="#556FF2" mask="url(#mask-2)"></path>
                <path d="M485.331566,225.374726 C486.308295,225.374726 487.101033,224.582706 487.101033,223.605259 C487.101033,222.62853 486.308295,221.836511 485.331566,221.836511 C484.354838,221.836511 483.562099,222.62853 483.562099,223.605259 C483.562099,224.582706 484.354838,225.374726 485.331566,225.374726" id="Fill-138" fill="#556FF2" mask="url(#mask-2)"></path>
                <path d="M485.331566,216.50662 C486.308295,216.50662 487.101033,215.713881 487.101033,214.737152 C487.101033,213.760424 486.308295,212.967685 485.331566,212.967685 C484.354838,212.967685 483.562099,213.760424 483.562099,214.737152 C483.562099,215.713881 484.354838,216.50662 485.331566,216.50662" id="Fill-139" fill="#556FF2" mask="url(#mask-2)"></path>
                <path d="M476.46346,225.374726 C477.440188,225.374726 478.232208,224.582706 478.232208,223.605259 C478.232208,222.62853 477.440188,221.836511 476.46346,221.836511 C475.486012,221.836511 474.693993,222.62853 474.693993,223.605259 C474.693993,224.582706 475.486012,225.374726 476.46346,225.374726" id="Fill-140" fill="#556FF2" mask="url(#mask-2)"></path>
                <path d="M476.46346,216.50662 C477.440188,216.50662 478.232208,215.713881 478.232208,214.737152 C478.232208,213.760424 477.440188,212.967685 476.46346,212.967685 C475.486012,212.967685 474.693993,213.760424 474.693993,214.737152 C474.693993,215.713881 475.486012,216.50662 476.46346,216.50662" id="Fill-141" fill="#556FF2" mask="url(#mask-2)"></path>
                <path d="M467.594706,225.374726 C468.571435,225.374726 469.364173,224.582706 469.364173,223.605259 C469.364173,222.62853 468.571435,221.836511 467.594706,221.836511 C466.617978,221.836511 465.825239,222.62853 465.825239,223.605259 C465.825239,224.582706 466.617978,225.374726 467.594706,225.374726" id="Fill-142" fill="#556FF2" mask="url(#mask-2)"></path>
                <path d="M467.594706,216.50662 C468.571435,216.50662 469.364173,215.713881 469.364173,214.737152 C469.364173,213.760424 468.571435,212.967685 467.594706,212.967685 C466.617978,212.967685 465.825239,213.760424 465.825239,214.737152 C465.825239,215.713881 466.617978,216.50662 467.594706,216.50662" id="Fill-143" fill="#556FF2" mask="url(#mask-2)"></path>
                <path d="M458.7266,221.836582 C457.749152,221.836582 456.957133,222.628602 456.957133,223.605331 C456.957133,224.582778 457.749152,225.374798 458.7266,225.374798 C459.703328,225.374798 460.495348,224.582778 460.495348,223.605331 C460.495348,222.628602 459.703328,221.836582 458.7266,221.836582" id="Fill-144" fill="#556FF2" mask="url(#mask-2)"></path>
                <path d="M458.7266,216.50662 C459.703328,216.50662 460.495348,215.713881 460.495348,214.737152 C460.495348,213.760424 459.703328,212.967685 458.7266,212.967685 C457.749152,212.967685 456.957133,213.760424 456.957133,214.737152 C456.957133,215.713881 457.749152,216.50662 458.7266,216.50662" id="Fill-145" fill="#556FF2" mask="url(#mask-2)"></path>
                <path d="M511.936533,207.637794 C512.913261,207.637794 513.706,206.845774 513.706,205.869046 C513.706,204.891599 512.913261,204.099579 511.936533,204.099579 C510.959804,204.099579 510.167784,204.891599 510.167784,205.869046 C510.167784,206.845774 510.959804,207.637794 511.936533,207.637794" id="Fill-146" fill="#556FF2" mask="url(#mask-2)"></path>
                <path d="M503.068426,207.637794 C504.045155,207.637794 504.837893,206.845774 504.837893,205.869046 C504.837893,204.891599 504.045155,204.099579 503.068426,204.099579 C502.091698,204.099579 501.298959,204.891599 501.298959,205.869046 C501.298959,206.845774 502.091698,207.637794 503.068426,207.637794" id="Fill-147" fill="#556FF2" mask="url(#mask-2)"></path>
                <path d="M511.936533,198.76976 C512.913261,198.76976 513.706,197.977021 513.706,197.000292 C513.706,196.023564 512.913261,195.230825 511.936533,195.230825 C510.959804,195.230825 510.167784,196.023564 510.167784,197.000292 C510.167784,197.977021 510.959804,198.76976 511.936533,198.76976" id="Fill-148" fill="#556FF2" mask="url(#mask-2)"></path>
                <path d="M503.068426,198.76976 C504.045155,198.76976 504.837893,197.977021 504.837893,197.000292 C504.837893,196.023564 504.045155,195.230825 503.068426,195.230825 C502.091698,195.230825 501.298959,196.023564 501.298959,197.000292 C501.298959,197.977021 502.091698,198.76976 503.068426,198.76976" id="Fill-149" fill="#556FF2" mask="url(#mask-2)"></path>
                <path d="M494.199601,207.637794 C495.177048,207.637794 495.969068,206.845774 495.969068,205.869046 C495.969068,204.891599 495.177048,204.099579 494.199601,204.099579 C493.222872,204.099579 492.430853,204.891599 492.430853,205.869046 C492.430853,206.845774 493.222872,207.637794 494.199601,207.637794" id="Fill-150" fill="#556FF2" mask="url(#mask-2)"></path>
                <path d="M494.199601,198.76976 C495.177048,198.76976 495.969068,197.977021 495.969068,197.000292 C495.969068,196.023564 495.177048,195.230825 494.199601,195.230825 C493.222872,195.230825 492.430853,196.023564 492.430853,197.000292 C492.430853,197.977021 493.222872,198.76976 494.199601,198.76976" id="Fill-151" fill="#556FF2" mask="url(#mask-2)"></path>
                <path d="M485.331566,207.637794 C486.308295,207.637794 487.101033,206.845774 487.101033,205.869046 C487.101033,204.891599 486.308295,204.099579 485.331566,204.099579 C484.354838,204.099579 483.562099,204.891599 483.562099,205.869046 C483.562099,206.845774 484.354838,207.637794 485.331566,207.637794" id="Fill-152" fill="#556FF2" mask="url(#mask-2)"></path>
                <path d="M485.331566,198.76976 C486.308295,198.76976 487.101033,197.977021 487.101033,197.000292 C487.101033,196.023564 486.308295,195.230825 485.331566,195.230825 C484.354838,195.230825 483.562099,196.023564 483.562099,197.000292 C483.562099,197.977021 484.354838,198.76976 485.331566,198.76976" id="Fill-153" fill="#556FF2" mask="url(#mask-2)"></path>
                <path d="M476.46346,207.637794 C477.440188,207.637794 478.232208,206.845774 478.232208,205.869046 C478.232208,204.891599 477.440188,204.099579 476.46346,204.099579 C475.486012,204.099579 474.693993,204.891599 474.693993,205.869046 C474.693993,206.845774 475.486012,207.637794 476.46346,207.637794" id="Fill-154" fill="#556FF2" mask="url(#mask-2)"></path>
                <path d="M476.46346,198.76976 C477.440188,198.76976 478.232208,197.977021 478.232208,197.000292 C478.232208,196.023564 477.440188,195.230825 476.46346,195.230825 C475.486012,195.230825 474.693993,196.023564 474.693993,197.000292 C474.693993,197.977021 475.486012,198.76976 476.46346,198.76976" id="Fill-155" fill="#556FF2" mask="url(#mask-2)"></path>
                <path d="M467.594706,207.637794 C468.571435,207.637794 469.364173,206.845774 469.364173,205.869046 C469.364173,204.891599 468.571435,204.099579 467.594706,204.099579 C466.617978,204.099579 465.825239,204.891599 465.825239,205.869046 C465.825239,206.845774 466.617978,207.637794 467.594706,207.637794" id="Fill-156" fill="#556FF2" mask="url(#mask-2)"></path>
                <path d="M467.594706,198.76976 C468.571435,198.76976 469.364173,197.977021 469.364173,197.000292 C469.364173,196.023564 468.571435,195.230825 467.594706,195.230825 C466.617978,195.230825 465.825239,196.023564 465.825239,197.000292 C465.825239,197.977021 466.617978,198.76976 467.594706,198.76976" id="Fill-157" fill="#556FF2" mask="url(#mask-2)"></path>
                <path d="M458.7266,207.637794 C459.703328,207.637794 460.495348,206.845774 460.495348,205.869046 C460.495348,204.891599 459.703328,204.099579 458.7266,204.099579 C457.749152,204.099579 456.957133,204.891599 456.957133,205.869046 C456.957133,206.845774 457.749152,207.637794 458.7266,207.637794" id="Fill-158" fill="#556FF2" mask="url(#mask-2)"></path>
                <path d="M458.7266,198.76976 C459.703328,198.76976 460.495348,197.977021 460.495348,197.000292 C460.495348,196.023564 459.703328,195.230825 458.7266,195.230825 C457.749152,195.230825 456.957133,196.023564 456.957133,197.000292 C456.957133,197.977021 457.749152,198.76976 458.7266,198.76976" id="Fill-159" fill="#556FF2" mask="url(#mask-2)"></path>
                <path d="M511.936533,189.900934 C512.913261,189.900934 513.706,189.108914 513.706,188.132186 C513.706,187.155457 512.913261,186.362719 511.936533,186.362719 C510.959804,186.362719 510.167784,187.155457 510.167784,188.132186 C510.167784,189.108914 510.959804,189.900934 511.936533,189.900934" id="Fill-160" fill="#556FF2" mask="url(#mask-2)"></path>
                <path d="M503.068426,189.900934 C504.045155,189.900934 504.837893,189.108914 504.837893,188.132186 C504.837893,187.155457 504.045155,186.362719 503.068426,186.362719 C502.091698,186.362719 501.298959,187.155457 501.298959,188.132186 C501.298959,189.108914 502.091698,189.900934 503.068426,189.900934" id="Fill-161" fill="#556FF2" mask="url(#mask-2)"></path>
                <path d="M511.936533,181.0329 C512.913261,181.0329 513.706,180.240161 513.706,179.263432 C513.706,178.286704 512.913261,177.494684 511.936533,177.494684 C510.959804,177.494684 510.167784,178.286704 510.167784,179.263432 C510.167784,180.240161 510.959804,181.0329 511.936533,181.0329" id="Fill-162" fill="#556FF2" mask="url(#mask-2)"></path>
                <path d="M503.068426,181.0329 C504.045155,181.0329 504.837893,180.240161 504.837893,179.263432 C504.837893,178.286704 504.045155,177.494684 503.068426,177.494684 C502.091698,177.494684 501.298959,178.286704 501.298959,179.263432 C501.298959,180.240161 502.091698,181.0329 503.068426,181.0329" id="Fill-163" fill="#556FF2" mask="url(#mask-2)"></path>
                <path d="M494.199601,189.900934 C495.177048,189.900934 495.969068,189.108914 495.969068,188.132186 C495.969068,187.155457 495.177048,186.362719 494.199601,186.362719 C493.222872,186.362719 492.430853,187.155457 492.430853,188.132186 C492.430853,189.108914 493.222872,189.900934 494.199601,189.900934" id="Fill-164" fill="#556FF2" mask="url(#mask-2)"></path>
                <path d="M494.199601,181.0329 C495.177048,181.0329 495.969068,180.240161 495.969068,179.263432 C495.969068,178.286704 495.177048,177.494684 494.199601,177.494684 C493.222872,177.494684 492.430853,178.286704 492.430853,179.263432 C492.430853,180.240161 493.222872,181.0329 494.199601,181.0329" id="Fill-165" fill="#556FF2" mask="url(#mask-2)"></path>
                <path d="M485.331566,189.900934 C486.308295,189.900934 487.101033,189.108914 487.101033,188.132186 C487.101033,187.155457 486.308295,186.362719 485.331566,186.362719 C484.354838,186.362719 483.562099,187.155457 483.562099,188.132186 C483.562099,189.108914 484.354838,189.900934 485.331566,189.900934" id="Fill-166" fill="#556FF2" mask="url(#mask-2)"></path>
                <path d="M485.331566,181.0329 C486.308295,181.0329 487.101033,180.240161 487.101033,179.263432 C487.101033,178.286704 486.308295,177.494684 485.331566,177.494684 C484.354838,177.494684 483.562099,178.286704 483.562099,179.263432 C483.562099,180.240161 484.354838,181.0329 485.331566,181.0329" id="Fill-167" fill="#556FF2" mask="url(#mask-2)"></path>
                <path d="M476.46346,189.900934 C477.440188,189.900934 478.232208,189.108914 478.232208,188.132186 C478.232208,187.155457 477.440188,186.362719 476.46346,186.362719 C475.486012,186.362719 474.693993,187.155457 474.693993,188.132186 C474.693993,189.108914 475.486012,189.900934 476.46346,189.900934" id="Fill-168" fill="#556FF2" mask="url(#mask-2)"></path>
                <path d="M476.46346,181.0329 C477.440188,181.0329 478.232208,180.240161 478.232208,179.263432 C478.232208,178.286704 477.440188,177.494684 476.46346,177.494684 C475.486012,177.494684 474.693993,178.286704 474.693993,179.263432 C474.693993,180.240161 475.486012,181.0329 476.46346,181.0329" id="Fill-169" fill="#556FF2" mask="url(#mask-2)"></path>
                <path d="M467.594706,189.900934 C468.571435,189.900934 469.364173,189.108914 469.364173,188.132186 C469.364173,187.155457 468.571435,186.362719 467.594706,186.362719 C466.617978,186.362719 465.825239,187.155457 465.825239,188.132186 C465.825239,189.108914 466.617978,189.900934 467.594706,189.900934" id="Fill-170" fill="#556FF2" mask="url(#mask-2)"></path>
                <path d="M467.594706,181.0329 C468.571435,181.0329 469.364173,180.240161 469.364173,179.263432 C469.364173,178.286704 468.571435,177.494684 467.594706,177.494684 C466.617978,177.494684 465.825239,178.286704 465.825239,179.263432 C465.825239,180.240161 466.617978,181.0329 467.594706,181.0329" id="Fill-171" fill="#556FF2" mask="url(#mask-2)"></path>
                <path d="M458.7266,189.900934 C459.703328,189.900934 460.495348,189.108914 460.495348,188.132186 C460.495348,187.155457 459.703328,186.362719 458.7266,186.362719 C457.749152,186.362719 456.957133,187.155457 456.957133,188.132186 C456.957133,189.108914 457.749152,189.900934 458.7266,189.900934" id="Fill-172" fill="#556FF2" mask="url(#mask-2)"></path>
                <path d="M511.936533,172.164074 C512.913261,172.164074 513.706,171.372055 513.706,170.395326 C513.706,169.418597 512.913261,168.625859 511.936533,168.625859 C510.959804,168.625859 510.167784,169.418597 510.167784,170.395326 C510.167784,171.372055 510.959804,172.164074 511.936533,172.164074" id="Fill-173" fill="#556FF2" mask="url(#mask-2)"></path>
                <path d="M503.068426,172.164074 C504.045155,172.164074 504.837893,171.372055 504.837893,170.395326 C504.837893,169.418597 504.045155,168.625859 503.068426,168.625859 C502.091698,168.625859 501.298959,169.418597 501.298959,170.395326 C501.298959,171.372055 502.091698,172.164074 503.068426,172.164074" id="Fill-174" fill="#556FF2" mask="url(#mask-2)"></path>
                <path d="M494.199601,172.164074 C495.177048,172.164074 495.969068,171.372055 495.969068,170.395326 C495.969068,169.418597 495.177048,168.625859 494.199601,168.625859 C493.222872,168.625859 492.430853,169.418597 492.430853,170.395326 C492.430853,171.372055 493.222872,172.164074 494.199601,172.164074" id="Fill-175" fill="#556FF2" mask="url(#mask-2)"></path>
                <path d="M485.331566,172.164074 C486.308295,172.164074 487.101033,171.372055 487.101033,170.395326 C487.101033,169.418597 486.308295,168.625859 485.331566,168.625859 C484.354838,168.625859 483.562099,169.418597 483.562099,170.395326 C483.562099,171.372055 484.354838,172.164074 485.331566,172.164074" id="Fill-176" fill="#556FF2" mask="url(#mask-2)"></path>
                <path d="M476.46346,172.164074 C477.440188,172.164074 478.232208,171.372055 478.232208,170.395326 C478.232208,169.418597 477.440188,168.625859 476.46346,168.625859 C475.486012,168.625859 474.693993,169.418597 474.693993,170.395326 C474.693993,171.372055 475.486012,172.164074 476.46346,172.164074" id="Fill-177" fill="#556FF2" mask="url(#mask-2)"></path>
                <path d="M467.594706,172.164074 C468.571435,172.164074 469.364173,171.372055 469.364173,170.395326 C469.364173,169.418597 468.571435,168.625859 467.594706,168.625859 C466.617978,168.625859 465.825239,169.418597 465.825239,170.395326 C465.825239,171.372055 466.617978,172.164074 467.594706,172.164074" id="Fill-178" fill="#556FF2" mask="url(#mask-2)"></path>
                <path d="M458.7266,181.0329 C459.703328,181.0329 460.495348,180.240161 460.495348,179.263432 C460.495348,178.286704 459.703328,177.494684 458.7266,177.494684 C457.749152,177.494684 456.957133,178.286704 456.957133,179.263432 C456.957133,180.240161 457.749152,181.0329 458.7266,181.0329" id="Fill-179" fill="#556FF2" mask="url(#mask-2)"></path>
                <path d="M458.7266,172.164074 C459.703328,172.164074 460.495348,171.372055 460.495348,170.395326 C460.495348,169.418597 459.703328,168.625859 458.7266,168.625859 C457.749152,168.625859 456.957133,169.418597 456.957133,170.395326 C456.957133,171.372055 457.749152,172.164074 458.7266,172.164074" id="Fill-180" fill="#556FF2" mask="url(#mask-2)"></path>
                <path d="M511.936533,163.29604 C512.913261,163.29604 513.706,162.503301 513.706,161.526572 C513.706,160.549844 512.913261,159.757824 511.936533,159.757824 C510.959804,159.757824 510.167784,160.549844 510.167784,161.526572 C510.167784,162.503301 510.959804,163.29604 511.936533,163.29604" id="Fill-181" fill="#556FF2" mask="url(#mask-2)"></path>
                <path d="M503.068426,163.29604 C504.045155,163.29604 504.837893,162.503301 504.837893,161.526572 C504.837893,160.549844 504.045155,159.757824 503.068426,159.757824 C502.091698,159.757824 501.298959,160.549844 501.298959,161.526572 C501.298959,162.503301 502.091698,163.29604 503.068426,163.29604" id="Fill-182" fill="#556FF2" mask="url(#mask-2)"></path>
                <path d="M511.936533,154.427933 C512.913261,154.427933 513.706,153.635195 513.706,152.658466 C513.706,151.681737 512.913261,150.888999 511.936533,150.888999 C510.959804,150.888999 510.167784,151.681737 510.167784,152.658466 C510.167784,153.635195 510.959804,154.427933 511.936533,154.427933" id="Fill-183" fill="#556FF2" mask="url(#mask-2)"></path>
                <path d="M503.068426,154.427933 C504.045155,154.427933 504.837893,153.635195 504.837893,152.658466 C504.837893,151.681737 504.045155,150.888999 503.068426,150.888999 C502.091698,150.888999 501.298959,151.681737 501.298959,152.658466 C501.298959,153.635195 502.091698,154.427933 503.068426,154.427933" id="Fill-184" fill="#556FF2" mask="url(#mask-2)"></path>
                <path d="M494.199601,163.29604 C495.177048,163.29604 495.969068,162.503301 495.969068,161.526572 C495.969068,160.549844 495.177048,159.757824 494.199601,159.757824 C493.222872,159.757824 492.430853,160.549844 492.430853,161.526572 C492.430853,162.503301 493.222872,163.29604 494.199601,163.29604" id="Fill-185" fill="#556FF2" mask="url(#mask-2)"></path>
                <path d="M494.199601,154.427933 C495.177048,154.427933 495.969068,153.635195 495.969068,152.658466 C495.969068,151.681737 495.177048,150.888999 494.199601,150.888999 C493.222872,150.888999 492.430853,151.681737 492.430853,152.658466 C492.430853,153.635195 493.222872,154.427933 494.199601,154.427933" id="Fill-186" fill="#556FF2" mask="url(#mask-2)"></path>
                <path d="M485.331566,163.29604 C486.308295,163.29604 487.101033,162.503301 487.101033,161.526572 C487.101033,160.549844 486.308295,159.757824 485.331566,159.757824 C484.354838,159.757824 483.562099,160.549844 483.562099,161.526572 C483.562099,162.503301 484.354838,163.29604 485.331566,163.29604" id="Fill-187" fill="#556FF2" mask="url(#mask-2)"></path>
                <path d="M485.331566,154.427933 C486.308295,154.427933 487.101033,153.635195 487.101033,152.658466 C487.101033,151.681737 486.308295,150.888999 485.331566,150.888999 C484.354838,150.888999 483.562099,151.681737 483.562099,152.658466 C483.562099,153.635195 484.354838,154.427933 485.331566,154.427933" id="Fill-188" fill="#556FF2" mask="url(#mask-2)"></path>
                <path d="M476.46346,163.29604 C477.440188,163.29604 478.232208,162.503301 478.232208,161.526572 C478.232208,160.549844 477.440188,159.757824 476.46346,159.757824 C475.486012,159.757824 474.693993,160.549844 474.693993,161.526572 C474.693993,162.503301 475.486012,163.29604 476.46346,163.29604" id="Fill-189" fill="#556FF2" mask="url(#mask-2)"></path>
                <path d="M476.46346,154.427933 C477.440188,154.427933 478.232208,153.635195 478.232208,152.658466 C478.232208,151.681737 477.440188,150.888999 476.46346,150.888999 C475.486012,150.888999 474.693993,151.681737 474.693993,152.658466 C474.693993,153.635195 475.486012,154.427933 476.46346,154.427933" id="Fill-190" fill="#556FF2" mask="url(#mask-2)"></path>
                <path d="M467.594706,163.29604 C468.571435,163.29604 469.364173,162.503301 469.364173,161.526572 C469.364173,160.549844 468.571435,159.757824 467.594706,159.757824 C466.617978,159.757824 465.825239,160.549844 465.825239,161.526572 C465.825239,162.503301 466.617978,163.29604 467.594706,163.29604" id="Fill-191" fill="#556FF2" mask="url(#mask-2)"></path>
                <path d="M467.594706,154.427933 C468.571435,154.427933 469.364173,153.635195 469.364173,152.658466 C469.364173,151.681737 468.571435,150.888999 467.594706,150.888999 C466.617978,150.888999 465.825239,151.681737 465.825239,152.658466 C465.825239,153.635195 466.617978,154.427933 467.594706,154.427933" id="Fill-192" fill="#556FF2" mask="url(#mask-2)"></path>
                <path d="M458.7266,163.29604 C459.703328,163.29604 460.495348,162.503301 460.495348,161.526572 C460.495348,160.549844 459.703328,159.757824 458.7266,159.757824 C457.749152,159.757824 456.957133,160.549844 456.957133,161.526572 C456.957133,162.503301 457.749152,163.29604 458.7266,163.29604" id="Fill-193" fill="#556FF2" mask="url(#mask-2)"></path>
                <path d="M458.7266,154.427933 C459.703328,154.427933 460.495348,153.635195 460.495348,152.658466 C460.495348,151.681737 459.703328,150.888999 458.7266,150.888999 C457.749152,150.888999 456.957133,151.681737 456.957133,152.658466 C456.957133,153.635195 457.749152,154.427933 458.7266,154.427933" id="Fill-194" fill="#556FF2" mask="url(#mask-2)"></path>
                <path d="M511.936533,145.559108 C512.913261,145.559108 513.706,144.767088 513.706,143.789641 C513.706,142.812912 512.913261,142.020892 511.936533,142.020892 C510.959804,142.020892 510.167784,142.812912 510.167784,143.789641 C510.167784,144.767088 510.959804,145.559108 511.936533,145.559108" id="Fill-195" fill="#556FF2" mask="url(#mask-2)"></path>
                <path d="M503.068426,145.559108 C504.045155,145.559108 504.837893,144.767088 504.837893,143.789641 C504.837893,142.812912 504.045155,142.020892 503.068426,142.020892 C502.091698,142.020892 501.298959,142.812912 501.298959,143.789641 C501.298959,144.767088 502.091698,145.559108 503.068426,145.559108" id="Fill-196" fill="#556FF2" mask="url(#mask-2)"></path>
                <path d="M494.199601,145.559108 C495.177048,145.559108 495.969068,144.767088 495.969068,143.789641 C495.969068,142.812912 495.177048,142.020892 494.199601,142.020892 C493.222872,142.020892 492.430853,142.812912 492.430853,143.789641 C492.430853,144.767088 493.222872,145.559108 494.199601,145.559108" id="Fill-197" fill="#556FF2" mask="url(#mask-2)"></path>
                <path d="M485.331566,145.559108 C486.308295,145.559108 487.101033,144.767088 487.101033,143.789641 C487.101033,142.812912 486.308295,142.020892 485.331566,142.020892 C484.354838,142.020892 483.562099,142.812912 483.562099,143.789641 C483.562099,144.767088 484.354838,145.559108 485.331566,145.559108" id="Fill-198" fill="#556FF2" mask="url(#mask-2)"></path>
                <path d="M476.46346,145.559108 C477.440188,145.559108 478.232208,144.767088 478.232208,143.789641 C478.232208,142.812912 477.440188,142.020892 476.46346,142.020892 C475.486012,142.020892 474.693993,142.812912 474.693993,143.789641 C474.693993,144.767088 475.486012,145.559108 476.46346,145.559108" id="Fill-199" fill="#556FF2" mask="url(#mask-2)"></path>
                <path d="M467.594706,145.559108 C468.571435,145.559108 469.364173,144.767088 469.364173,143.789641 C469.364173,142.812912 468.571435,142.020892 467.594706,142.020892 C466.617978,142.020892 465.825239,142.812912 465.825239,143.789641 C465.825239,144.767088 466.617978,145.559108 467.594706,145.559108" id="Fill-200" fill="#556FF2" mask="url(#mask-2)"></path>
                <path d="M458.7266,145.559108 C459.703328,145.559108 460.495348,144.767088 460.495348,143.789641 C460.495348,142.812912 459.703328,142.020892 458.7266,142.020892 C457.749152,142.020892 456.957133,142.812912 456.957133,143.789641 C456.957133,144.767088 457.749152,145.559108 458.7266,145.559108" id="Fill-201" fill="#556FF2" mask="url(#mask-2)"></path>
                <path d="M259.993086,534.016228 C254.615688,534.016228 254.615688,528.266538 249.237571,528.266538 C243.861611,528.266538 243.861611,534.016228 238.484932,534.016228 C233.106815,534.016228 233.106815,528.266538 227.728699,528.266538 C222.349864,528.266538 222.349864,534.016228 216.971747,534.016228 C211.592193,534.016228 211.592193,528.266538 206.213358,528.266538 C200.833804,528.266538 200.833804,534.016228 195.454969,534.016228" id="Stroke-202" stroke="#50D9E6" stroke-width="2.15613383" mask="url(#mask-2)"></path>
                <path d="M259.993086,523.420196 C254.615688,523.420196 254.615688,517.670506 249.237571,517.670506 C243.861611,517.670506 243.861611,523.420196 238.484932,523.420196 C233.106815,523.420196 233.106815,517.670506 227.728699,517.670506 C222.349864,517.670506 222.349864,523.420196 216.971747,523.420196 C211.592193,523.420196 211.592193,517.670506 206.213358,517.670506 C200.833804,517.670506 200.833804,523.420196 195.454969,523.420196" id="Stroke-203" stroke="#50D9E6" stroke-width="2.15613383" mask="url(#mask-2)"></path>
                <path d="M259.993086,512.82481 C254.615688,512.82481 254.615688,507.07512 249.237571,507.07512 C243.861611,507.07512 243.861611,512.82481 238.484932,512.82481 C233.106815,512.82481 233.106815,507.07512 227.728699,507.07512 C222.349864,507.07512 222.349864,512.82481 216.971747,512.82481 C211.592193,512.82481 211.592193,507.07512 206.213358,507.07512 C200.833804,507.07512 200.833804,512.82481 195.454969,512.82481" id="Stroke-204" stroke="#50D9E6" stroke-width="2.15613383" mask="url(#mask-2)"></path>
                <path d="M259.993086,502.228706 C254.615688,502.228706 254.615688,496.479016 249.237571,496.479016 C243.861611,496.479016 243.861611,502.228706 238.484932,502.228706 C233.106815,502.228706 233.106815,496.479016 227.728699,496.479016 C222.349864,496.479016 222.349864,502.228706 216.971747,502.228706 C211.592193,502.228706 211.592193,496.479016 206.213358,496.479016 C200.833804,496.479016 200.833804,502.228706 195.454969,502.228706" id="Stroke-205" stroke="#50D9E6" stroke-width="2.15613383" mask="url(#mask-2)"></path>
                <path d="M259.993086,491.633321 C254.615688,491.633321 254.615688,485.883631 249.237571,485.883631 C243.861611,485.883631 243.861611,491.633321 238.484932,491.633321 C233.106815,491.633321 233.106815,485.883631 227.728699,485.883631 C222.349864,485.883631 222.349864,491.633321 216.971747,491.633321 C211.592193,491.633321 211.592193,485.883631 206.213358,485.883631 C200.833804,485.883631 200.833804,491.633321 195.454969,491.633321" id="Stroke-206" stroke="#50D9E6" stroke-width="2.15613383" mask="url(#mask-2)"></path>
                <path d="M280.370508,54.9737299 C280.370508,77.9954895 261.707014,96.6589839 238.685254,96.6589839 C215.662776,96.6589839 197,77.9954895 197,54.9737299 C197,31.9519703 215.662776,13.2884758 238.685254,13.2884758 C261.707014,13.2884758 280.370508,31.9519703 280.370508,54.9737299 Z" id="Stroke-207" stroke="#FFC785" stroke-width="2.15613383" mask="url(#mask-2)"></path>
                <path d="M377.729133,366.578996 C379.04653,360.582069 378.751859,356.258302 374.405093,352.101276 C370.309157,348.183581 364.459566,346.931586 363.58777,342.134188 C361.960607,352.546877 368.967323,358.326035 373.117162,359.214362 C375.545688,359.735428 377.568141,362.799294 377.729133,366.578996" id="Fill-208" fill="#3D55CC" mask="url(#mask-2)"></path>
                <path d="M378.247755,363.51398 C379.878511,354.320944 383.536751,354.778763 386.260667,349.66082 C388.985301,344.542159 383.674025,331.54714 390.330729,327.5317 C381.126193,329.310511 374.718164,338.728503 375.030803,347.703051 C375.29457,355.242332 377.959551,354.706173 378.247755,363.51398" id="Fill-209" fill="#3D55CC" mask="url(#mask-2)"></path>
                <polygon id="Fill-210" fill="#364AB3" mask="url(#mask-2)" points="99.421487 352.901058 115.609021 356.233722 282.925006 356.233722 297.607559 352.982991"></polygon>
                <path d="M273.893537,371.952513 C273.893537,372.608696 268.370959,373.140543 261.558295,373.140543 C254.745631,373.140543 249.223772,372.608696 249.223772,371.952513 C249.223772,371.297048 254.745631,370.765202 261.558295,370.765202 C268.370959,370.765202 273.893537,371.297048 273.893537,371.952513" id="Fill-211" fill="#364AB3" mask="url(#mask-2)"></path>
                <polygon id="Fill-212" fill="#17204D" mask="url(#mask-2)" points="255.141784 348.171147 267.974374 351.506686 263.963965 331.79603 258.407608 333.903291"></polygon>
                <polygon id="Fill-213" fill="#17204D" mask="url(#mask-2)" points="257.259323 348.439945 261.201455 371.952585 262.347799 371.952585 265.719274 349.5137"></polygon>
                <path d="M258.5732,325.801259 C257.076843,327.864679 259.012332,332.205695 259.012332,332.205695 L260.018528,331.91318 L259.406905,335.274592 L261.81315,334.93033 C261.81315,334.93033 263.550994,327.483043 262.268813,325.67261 C261.491886,324.575138 259.255975,324.859029 258.5732,325.801259" id="Fill-214" fill="#17204D" mask="url(#mask-2)"></path>
                <path d="M393.201765,373.799817 C391.404986,373.799817 389.670736,371.418726 387.114999,371.418726 C384.559261,371.418726 382.555494,373.193224 382.555494,373.193224 C382.555494,373.193224 380.68972,372.287648 379.024466,372.287648 C377.359931,372.287648 375.178642,373.799817 373.051975,373.799817 L393.201765,373.799817 Z" id="Fill-215" fill="#17204D" mask="url(#mask-2)"></path>
                <polygon id="Fill-216" fill="#556FF2" mask="url(#mask-2)" points="238.579155 381.53085 269.736726 386.96862 361.032463 375.666166"></polygon>
                <polygon id="Fill-217" fill="#556FF2" mask="url(#mask-2)" points="67.5357175 366.578996 123.415519 366.578996 91.0368575 372.883532"></polygon>
                <path d="M174.11485,376.685155 C174.11485,376.685155 171.431182,372.621561 166.79262,372.621561 C162.154057,372.621561 159.471108,375.650211 159.471108,375.650211 C159.471108,375.650211 156.341839,374.102825 153.500773,374.102825 C149.222285,374.102825 146.14117,376.685155 143.85423,376.685155 L174.11485,376.685155 Z" id="Fill-218" fill="#17204D" mask="url(#mask-2)"></path>
                <polygon id="Fill-219" fill="#556FF2" mask="url(#mask-2)" points="375.197472 359.207965 456.403941 359.207965 426.321561 361.184421"></polygon>
                <path d="M125.981534,154.4574 C125.981534,154.4574 130.127779,148.179457 137.294768,148.179457 C144.461757,148.179457 148.607284,152.858268 148.607284,152.858268 C148.607284,152.858268 153.441336,150.467834 157.831224,150.467834 C164.441931,150.467834 169.203393,154.4574 172.737296,154.4574 L125.981534,154.4574 Z" id="Fill-222" fill="#FFFFFF" mask="url(#mask-2)"></path>
                <path d="M316,69.1049814 C316,69.1049814 319.261512,55.2884758 331.32005,55.2884758 C343.379306,55.2884758 347.636952,65.2886245 347.636952,65.2886245 C347.636952,65.2886245 351.591301,60.8311772 357.58176,60.8311772 C369.017175,60.8311772 369.799133,69.1049814 376.373185,69.1049814 L316,69.1049814 Z" id="Fill-223" fill="#FFFFFF" mask="url(#mask-2)"></path>
                <path d="M184.089772,247.268684 C183.578768,248.534335 182.530169,249.303356 181.748211,248.987841 C180.966253,248.67089 180.747046,247.389428 181.25805,246.124496 C181.769053,244.859564 182.816934,244.089824 183.599611,244.406776 C184.381569,244.72229 184.601494,246.003752 184.089772,247.268684" id="Fill-224" fill="#3D55CC" mask="url(#mask-2)"></path>
            </g>
        </g>
    </g>
</svg>