<?xml version="1.0" encoding="UTF-8"?>
<svg width="600px" height="600px" viewBox="0 0 600 600" version="1.1" xmlns="http://www.w3.org/2000/svg" xmlns:xlink="http://www.w3.org/1999/xlink">
    <!-- Generator: Sketch 61.2 (89653) - https://sketch.com -->
    <title>Illustrations / Home</title>
    <desc>Created with Sketch.</desc>
    <g id="Illustrations-/-Home" stroke="none" stroke-width="1" fill="none" fill-rule="evenodd">
        <g id="home" transform="translate(11.000000, 10.000000)" fill-rule="nonzero">
            <polygon id="Path" fill="#242459" points="411.303 0 201.964 0 201.964 546.286 411.303 546.286"></polygon>
            <polygon id="Path" fill="#141733" points="367.42 48.1952 360.921 43.7408 354.058 46.0045 353.036 47.465 352.817 45.4204 346.391 42.4994 339.308 46.0776 341.353 46.6618 346.683 45.6394 351.356 46.8078 352.963 49.6557 354.496 47.8301 360.118 46.8078 365.01 48.4873"></polygon>
            <polygon id="Path" fill="#141733" points="327.261 38.4101 330.473 34.832 334.781 35.1241 335.658 35.8543 335.512 34.6129 338.797 31.9111 343.543 32.9334 342.448 33.5906 339.162 33.8097 336.534 35.1971 336.023 37.0957 334.854 36.2194 331.35 36.5115 328.721 38.2641"></polygon>
            <path d="M278.559,74.9217 C278.559,74.9217 282.794,68.5687 290.022,68.5687 C297.251,68.5687 301.486,73.3152 301.486,73.3152 C301.486,73.3152 306.378,70.9054 310.832,70.9054 C317.55,70.9054 322.369,74.9947 325.946,74.9947 L278.559,74.9947 L278.559,74.9217 Z" id="Path" fill="#FFFFFF"></path>
            <path d="M329.232,484.8 C436.903,484.8 524.187,397.508 524.187,289.829 C524.187,182.149 436.903,94.857 329.232,94.857 C221.562,94.857 134.278,182.149 134.278,289.829 C134.278,397.508 221.562,484.8 329.232,484.8 Z" id="Path" fill="#141733"></path>
            <path d="M540.25,298.958 C532.657,300.272 533.022,307.063 531.488,309.473 C529.882,311.883 526.304,312.029 524.698,316.702 C523.092,321.376 527.254,325.392 525.282,331.161 C523.311,336.93 519.368,338.609 519.368,347.956 L561.498,347.956 C561.498,338.098 552.955,336.126 556.533,328.386 C559.527,321.887 560.768,318.455 552.59,310.349 C549.67,307.355 548.574,297.497 540.25,298.958 Z" id="Path" fill="#FFB057"></path>
            <path d="M556.533,328.312 C559.527,321.813 560.768,318.381 552.59,310.275 C549.816,307.5 548.647,298.372 541.346,298.81 C541.346,308.669 550.546,311.663 551.349,313.488 C552.152,315.314 539.812,317.285 545.873,332.474 C549.597,341.821 558.432,338.681 561.425,347.955 C561.498,338.024 552.955,336.052 556.533,328.312 Z" id="Path" fill="#FFC785"></path>
            <path d="M382.826,253.755 C410.281,253.755 407.214,295.086 425.468,295.086 C443.722,295.086 454.31,284.352 464.459,291.873 C474.608,299.395 480.669,324.807 490.088,327.362 C499.507,329.918 505.056,318.6 520.755,321.813 C536.454,324.953 549.377,349.269 568.946,349.269 C581.067,349.269 382.826,349.269 382.826,349.269 L382.826,253.755 Z" id="Path" fill="#17204C"></path>
            <path d="M461.903,201.471 C480.596,204.611 480.815,227.394 485.999,234.696 C491.183,241.926 505.494,238.859 511.409,250.834 C517.323,262.81 504.253,277.853 512.942,290.34 C521.631,302.827 509.291,303.484 513.38,314.438 C517.396,325.318 527.253,326.705 527.253,350.73 L404.658,350.73 C404.658,318.381 417.29,316.701 420.43,295.379 C423.497,273.837 403.855,259.962 407.871,248.279 C411.887,236.595 426.856,236.887 432.624,230.534 C438.392,224.181 443.211,198.331 461.903,201.471 Z" id="Path" fill="#17204C"></path>
            <path d="M512.942,290.267 C504.253,277.853 517.323,262.737 511.409,250.761 C505.494,238.785 491.183,241.925 485.999,234.623 C480.815,227.394 480.596,204.538 461.903,201.398 C460.808,201.179 459.713,201.106 458.691,201.179 C458.618,201.325 435.544,233.163 447.592,248.498 C459.64,263.905 485.561,254.705 486.948,258.429 C488.336,262.153 462.196,271.281 469.205,285.082 C476.215,298.956 495.418,298.299 497.536,301.731 C499.58,305.163 485.561,307.5 491.037,317.431 C496.513,327.362 527.326,329.261 527.326,350.584 C527.326,326.559 517.469,325.172 513.453,314.291 C509.291,303.411 521.631,302.681 512.942,290.267 Z" id="Path" fill="#1F2A66"></path>
            <path d="M382.096,579 L379.906,579 C379.906,576.736 378.738,575.641 377.35,574.327 C375.817,572.866 374.064,571.26 374.064,568.047 C374.064,564.834 375.817,563.227 377.35,561.767 C378.738,560.452 379.906,559.357 379.906,557.093 C379.906,554.829 378.738,553.734 377.35,552.42 C375.817,550.959 374.064,549.353 374.064,546.14 C374.064,542.927 375.817,541.32 377.35,539.86 C378.738,538.545 379.906,537.45 379.906,535.186 C379.906,532.922 378.738,531.827 377.35,530.513 C375.817,529.052 374.064,527.446 374.064,524.233 C374.064,521.02 375.817,519.413 377.35,517.953 C378.738,516.638 379.906,515.543 379.906,513.279 L382.096,513.279 C382.096,516.492 380.344,518.099 378.811,519.559 C377.423,520.874 376.255,521.969 376.255,524.233 C376.255,526.496 377.423,527.592 378.811,528.906 C380.344,530.367 382.096,531.973 382.096,535.186 C382.096,538.399 380.344,540.006 378.811,541.466 C377.423,542.781 376.255,543.876 376.255,546.14 C376.255,548.403 377.423,549.499 378.811,550.813 C380.344,552.274 382.096,553.88 382.096,557.093 C382.096,560.306 380.344,561.913 378.811,563.373 C377.423,564.687 376.255,565.783 376.255,568.047 C376.255,570.31 377.423,571.406 378.811,572.72 C380.344,574.18 382.096,575.86 382.096,579 Z" id="Path" fill="#556FF2"></path>
            <path d="M371.363,579 L369.172,579 C369.172,576.736 368.004,575.641 366.617,574.327 C365.083,572.866 363.331,571.26 363.331,568.047 C363.331,564.834 365.083,563.227 366.617,561.767 C368.004,560.452 369.172,559.357 369.172,557.093 C369.172,554.829 368.004,553.734 366.617,552.42 C365.083,550.959 363.331,549.353 363.331,546.14 C363.331,542.927 365.083,541.32 366.617,539.86 C368.004,538.545 369.172,537.45 369.172,535.186 C369.172,532.922 368.004,531.827 366.617,530.513 C365.083,529.052 363.331,527.446 363.331,524.233 C363.331,521.02 365.083,519.413 366.617,517.953 C368.004,516.638 369.172,515.543 369.172,513.279 L371.363,513.279 C371.363,516.492 369.61,518.099 368.077,519.559 C366.69,520.874 365.522,521.969 365.522,524.233 C365.522,526.496 366.69,527.592 368.077,528.906 C369.61,530.367 371.363,531.973 371.363,535.186 C371.363,538.399 369.61,540.006 368.077,541.466 C366.69,542.781 365.522,543.876 365.522,546.14 C365.522,548.403 366.69,549.499 368.077,550.813 C369.61,552.274 371.363,553.88 371.363,557.093 C371.363,560.306 369.61,561.913 368.077,563.373 C366.69,564.687 365.522,565.783 365.522,568.047 C365.522,570.31 366.69,571.406 368.077,572.72 C369.61,574.18 371.363,575.86 371.363,579 Z" id="Path" fill="#556FF2"></path>
            <path d="M360.556,579 L358.366,579 C358.366,576.736 357.198,575.641 355.81,574.327 C354.277,572.866 352.525,571.26 352.525,568.047 C352.525,564.834 354.277,563.227 355.81,561.767 C357.198,560.452 358.366,559.357 358.366,557.093 C358.366,554.829 357.198,553.734 355.81,552.42 C354.277,550.959 352.525,549.353 352.525,546.14 C352.525,542.927 354.277,541.32 355.81,539.86 C357.198,538.545 358.366,537.45 358.366,535.186 C358.366,532.922 357.198,531.827 355.81,530.513 C354.277,529.052 352.525,527.446 352.525,524.233 C352.525,521.02 354.277,519.413 355.81,517.953 C357.198,516.638 358.366,515.543 358.366,513.279 L360.556,513.279 C360.556,516.492 358.804,518.099 357.271,519.559 C355.883,520.874 354.715,521.969 354.715,524.233 C354.715,526.496 355.883,527.592 357.271,528.906 C358.804,530.367 360.556,531.973 360.556,535.186 C360.556,538.399 358.804,540.006 357.271,541.466 C355.883,542.781 354.715,543.876 354.715,546.14 C354.715,548.403 355.883,549.499 357.271,550.813 C358.804,552.274 360.556,553.88 360.556,557.093 C360.556,560.306 358.804,561.913 357.271,563.373 C355.883,564.687 354.715,565.783 354.715,568.047 C354.715,570.31 355.883,571.406 357.271,572.72 C358.804,574.18 360.556,575.86 360.556,579 Z" id="Path" fill="#556FF2"></path>
            <path d="M349.823,579 L347.632,579 C347.632,576.736 346.464,575.641 345.077,574.327 C343.544,572.866 341.791,571.26 341.791,568.047 C341.791,564.834 343.544,563.227 345.077,561.767 C346.464,560.452 347.632,559.357 347.632,557.093 C347.632,554.829 346.464,553.734 345.077,552.42 C343.544,550.959 341.791,549.353 341.791,546.14 C341.791,542.927 343.544,541.32 345.077,539.86 C346.464,538.545 347.632,537.45 347.632,535.186 C347.632,532.922 346.464,531.827 345.077,530.513 C343.544,529.052 341.791,527.446 341.791,524.233 C341.791,521.02 343.544,519.413 345.077,517.953 C346.464,516.638 347.632,515.543 347.632,513.279 L349.823,513.279 C349.823,516.492 348.071,518.099 346.537,519.559 C345.15,520.874 343.982,521.969 343.982,524.233 C343.982,526.496 345.15,527.592 346.537,528.906 C348.071,530.367 349.823,531.973 349.823,535.186 C349.823,538.399 348.071,540.006 346.537,541.466 C345.15,542.781 343.982,543.876 343.982,546.14 C343.982,548.403 345.15,549.499 346.537,550.813 C348.071,552.274 349.823,553.88 349.823,557.093 C349.823,560.306 348.071,561.913 346.537,563.373 C345.15,564.687 343.982,565.783 343.982,568.047 C343.982,570.31 345.15,571.406 346.537,572.72 C348.071,574.18 349.823,575.86 349.823,579 Z" id="Path" fill="#556FF2"></path>
            <path d="M339.016,579 L336.826,579 C336.826,576.736 335.658,575.641 334.27,574.327 C332.737,572.866 330.985,571.26 330.985,568.047 C330.985,564.834 332.737,563.227 334.27,561.767 C335.658,560.452 336.826,559.357 336.826,557.093 C336.826,554.829 335.658,553.734 334.27,552.42 C332.737,550.959 330.985,549.353 330.985,546.14 C330.985,542.927 332.737,541.32 334.27,539.86 C335.658,538.545 336.826,537.45 336.826,535.186 C336.826,532.922 335.658,531.827 334.27,530.513 C332.737,529.052 330.985,527.446 330.985,524.233 C330.985,521.02 332.737,519.413 334.27,517.953 C335.658,516.638 336.826,515.543 336.826,513.279 L339.016,513.279 C339.016,516.492 337.264,518.099 335.731,519.559 C334.343,520.874 333.175,521.969 333.175,524.233 C333.175,526.496 334.343,527.592 335.731,528.906 C337.264,530.367 339.016,531.973 339.016,535.186 C339.016,538.399 337.264,540.006 335.731,541.466 C334.343,542.781 333.175,543.876 333.175,546.14 C333.175,548.403 334.343,549.499 335.731,550.813 C337.264,552.274 339.016,553.88 339.016,557.093 C339.016,560.306 337.264,561.913 335.731,563.373 C334.343,564.687 333.175,565.783 333.175,568.047 C333.175,570.31 334.343,571.406 335.731,572.72 C337.337,574.18 339.016,575.86 339.016,579 Z" id="Path" fill="#556FF2"></path>
            <path d="M125.078,157.584 C101.128,157.584 81.6326,138.087 81.6326,114.135 C81.6326,90.1835 101.128,70.6863 125.078,70.6863 C149.027,70.6863 168.522,90.1835 168.522,114.135 C168.522,138.087 149.027,157.584 125.078,157.584 Z M125.078,72.877 C102.296,72.877 83.8231,91.3519 83.8231,114.135 C83.8231,136.918 102.296,155.393 125.078,155.393 C147.859,155.393 166.332,136.918 166.332,114.135 C166.332,91.3519 147.859,72.877 125.078,72.877 Z" id="Shape" fill="#FFC785"></path>
            <path d="M441.97,170.947 C442.978,170.947 443.795,170.13 443.795,169.121 C443.795,168.113 442.978,167.296 441.97,167.296 C440.962,167.296 440.145,168.113 440.145,169.121 C440.145,170.13 440.962,170.947 441.97,170.947 Z" id="Path" fill="#50D9E5"></path>
            <path d="M441.97,161.892 C442.978,161.892 443.795,161.075 443.795,160.067 C443.795,159.058 442.978,158.241 441.97,158.241 C440.962,158.241 440.145,159.058 440.145,160.067 C440.145,161.075 440.962,161.892 441.97,161.892 Z" id="Path" fill="#50D9E5"></path>
            <path d="M451.024,170.947 C452.032,170.947 452.849,170.13 452.849,169.121 C452.849,168.113 452.032,167.296 451.024,167.296 C450.016,167.296 449.198,168.113 449.198,169.121 C449.198,170.13 450.016,170.947 451.024,170.947 Z" id="Path" fill="#50D9E5"></path>
            <path d="M451.024,161.892 C452.032,161.892 452.849,161.075 452.849,160.067 C452.849,159.058 452.032,158.241 451.024,158.241 C450.016,158.241 449.198,159.058 449.198,160.067 C449.198,161.075 450.016,161.892 451.024,161.892 Z" id="Path" fill="#50D9E5"></path>
            <path d="M441.97,152.91 C442.978,152.91 443.795,152.093 443.795,151.085 C443.795,150.077 442.978,149.259 441.97,149.259 C440.962,149.259 440.145,150.077 440.145,151.085 C440.145,152.093 440.962,152.91 441.97,152.91 Z" id="Path" fill="#50D9E5"></path>
            <path d="M451.024,152.91 C452.032,152.91 452.849,152.093 452.849,151.085 C452.849,150.077 452.032,149.259 451.024,149.259 C450.016,149.259 449.198,150.077 449.198,151.085 C449.198,152.093 450.016,152.91 451.024,152.91 Z" id="Path" fill="#50D9E5"></path>
            <path d="M441.97,143.929 C442.978,143.929 443.795,143.111 443.795,142.103 C443.795,141.095 442.978,140.277 441.97,140.277 C440.962,140.277 440.145,141.095 440.145,142.103 C440.145,143.111 440.962,143.929 441.97,143.929 Z" id="Path" fill="#50D9E5"></path>
            <path d="M451.024,143.929 C452.032,143.929 452.849,143.111 452.849,142.103 C452.849,141.095 452.032,140.277 451.024,140.277 C450.016,140.277 449.198,141.095 449.198,142.103 C449.198,143.111 450.016,143.929 451.024,143.929 Z" id="Path" fill="#50D9E5"></path>
            <path d="M441.97,134.874 C442.978,134.874 443.795,134.056 443.795,133.048 C443.795,132.04 442.978,131.222 441.97,131.222 C440.962,131.222 440.145,132.04 440.145,133.048 C440.145,134.056 440.962,134.874 441.97,134.874 Z" id="Path" fill="#50D9E5"></path>
            <path d="M451.024,134.874 C452.032,134.874 452.849,134.056 452.849,133.048 C452.849,132.04 452.032,131.222 451.024,131.222 C450.016,131.222 449.198,132.04 449.198,133.048 C449.198,134.056 450.016,134.874 451.024,134.874 Z" id="Path" fill="#50D9E5"></path>
            <path d="M441.97,125.892 C442.978,125.892 443.795,125.074 443.795,124.066 C443.795,123.058 442.978,122.241 441.97,122.241 C440.962,122.241 440.145,123.058 440.145,124.066 C440.145,125.074 440.962,125.892 441.97,125.892 Z" id="Path" fill="#50D9E5"></path>
            <path d="M451.024,125.892 C452.032,125.892 452.849,125.074 452.849,124.066 C452.849,123.058 452.032,122.241 451.024,122.241 C450.016,122.241 449.198,123.058 449.198,124.066 C449.198,125.074 450.016,125.892 451.024,125.892 Z" id="Path" fill="#50D9E5"></path>
            <path d="M441.97,116.837 C442.978,116.837 443.795,116.02 443.795,115.011 C443.795,114.003 442.978,113.186 441.97,113.186 C440.962,113.186 440.145,114.003 440.145,115.011 C440.145,116.02 440.962,116.837 441.97,116.837 Z" id="Path" fill="#50D9E5"></path>
            <path d="M451.024,116.837 C452.032,116.837 452.849,116.02 452.849,115.011 C452.849,114.003 452.032,113.186 451.024,113.186 C450.016,113.186 449.198,114.003 449.198,115.011 C449.198,116.02 450.016,116.837 451.024,116.837 Z" id="Path" fill="#50D9E5"></path>
            <path d="M460.005,170.947 C461.013,170.947 461.831,170.13 461.831,169.121 C461.831,168.113 461.013,167.296 460.005,167.296 C458.997,167.296 458.18,168.113 458.18,169.121 C458.18,170.13 458.997,170.947 460.005,170.947 Z" id="Path" fill="#50D9E5"></path>
            <path d="M460.005,161.892 C461.013,161.892 461.831,161.075 461.831,160.067 C461.831,159.058 461.013,158.241 460.005,158.241 C458.997,158.241 458.18,159.058 458.18,160.067 C458.18,161.075 458.997,161.892 460.005,161.892 Z" id="Path" fill="#50D9E5"></path>
            <path d="M468.986,170.947 C469.994,170.947 470.811,170.13 470.811,169.121 C470.811,168.113 469.994,167.296 468.986,167.296 C467.978,167.296 467.161,168.113 467.161,169.121 C467.161,170.13 467.978,170.947 468.986,170.947 Z" id="Path" fill="#50D9E5"></path>
            <path d="M468.986,161.892 C469.994,161.892 470.811,161.075 470.811,160.067 C470.811,159.058 469.994,158.241 468.986,158.241 C467.978,158.241 467.161,159.058 467.161,160.067 C467.161,161.075 467.978,161.892 468.986,161.892 Z" id="Path" fill="#50D9E5"></path>
            <path d="M460.005,152.91 C461.013,152.91 461.831,152.093 461.831,151.085 C461.831,150.077 461.013,149.259 460.005,149.259 C458.997,149.259 458.18,150.077 458.18,151.085 C458.18,152.093 458.997,152.91 460.005,152.91 Z" id="Path" fill="#50D9E5"></path>
            <path d="M468.986,152.91 C469.994,152.91 470.811,152.093 470.811,151.085 C470.811,150.077 469.994,149.259 468.986,149.259 C467.978,149.259 467.161,150.077 467.161,151.085 C467.161,152.093 467.978,152.91 468.986,152.91 Z" id="Path" fill="#50D9E5"></path>
            <path d="M460.005,143.929 C461.013,143.929 461.831,143.111 461.831,142.103 C461.831,141.095 461.013,140.277 460.005,140.277 C458.997,140.277 458.18,141.095 458.18,142.103 C458.18,143.111 458.997,143.929 460.005,143.929 Z" id="Path" fill="#50D9E5"></path>
            <path d="M468.986,143.929 C469.994,143.929 470.811,143.111 470.811,142.103 C470.811,141.095 469.994,140.277 468.986,140.277 C467.978,140.277 467.161,141.095 467.161,142.103 C467.161,143.111 467.978,143.929 468.986,143.929 Z" id="Path" fill="#50D9E5"></path>
            <path d="M460.005,134.874 C461.013,134.874 461.831,134.056 461.831,133.048 C461.831,132.04 461.013,131.222 460.005,131.222 C458.997,131.222 458.18,132.04 458.18,133.048 C458.18,134.056 458.997,134.874 460.005,134.874 Z" id="Path" fill="#50D9E5"></path>
            <path d="M468.986,134.874 C469.994,134.874 470.811,134.056 470.811,133.048 C470.811,132.04 469.994,131.222 468.986,131.222 C467.978,131.222 467.161,132.04 467.161,133.048 C467.161,134.056 467.978,134.874 468.986,134.874 Z" id="Path" fill="#50D9E5"></path>
            <path d="M460.005,125.892 C461.013,125.892 461.831,125.074 461.831,124.066 C461.831,123.058 461.013,122.241 460.005,122.241 C458.997,122.241 458.18,123.058 458.18,124.066 C458.18,125.074 458.997,125.892 460.005,125.892 Z" id="Path" fill="#50D9E5"></path>
            <path d="M468.986,125.892 C469.994,125.892 470.811,125.074 470.811,124.066 C470.811,123.058 469.994,122.241 468.986,122.241 C467.978,122.241 467.161,123.058 467.161,124.066 C467.161,125.074 467.978,125.892 468.986,125.892 Z" id="Path" fill="#50D9E5"></path>
            <path d="M460.005,116.837 C461.013,116.837 461.831,116.02 461.831,115.011 C461.831,114.003 461.013,113.186 460.005,113.186 C458.997,113.186 458.18,114.003 458.18,115.011 C458.18,116.02 458.997,116.837 460.005,116.837 Z" id="Path" fill="#50D9E5"></path>
            <path d="M468.986,116.837 C469.994,116.837 470.811,116.02 470.811,115.011 C470.811,114.003 469.994,113.186 468.986,113.186 C467.978,113.186 467.161,114.003 467.161,115.011 C467.161,116.02 467.978,116.837 468.986,116.837 Z" id="Path" fill="#50D9E5"></path>
            <path d="M478.04,170.947 C479.048,170.947 479.866,170.13 479.866,169.121 C479.866,168.113 479.048,167.296 478.04,167.296 C477.032,167.296 476.215,168.113 476.215,169.121 C476.215,170.13 477.032,170.947 478.04,170.947 Z" id="Path" fill="#50D9E5"></path>
            <path d="M478.04,161.892 C479.048,161.892 479.866,161.075 479.866,160.067 C479.866,159.058 479.048,158.241 478.04,158.241 C477.032,158.241 476.215,159.058 476.215,160.067 C476.215,161.075 477.032,161.892 478.04,161.892 Z" id="Path" fill="#50D9E5"></path>
            <path d="M487.021,170.947 C488.029,170.947 488.847,170.13 488.847,169.121 C488.847,168.113 488.029,167.296 487.021,167.296 C486.013,167.296 485.196,168.113 485.196,169.121 C485.196,170.13 486.013,170.947 487.021,170.947 Z" id="Path" fill="#50D9E5"></path>
            <path d="M487.021,161.892 C488.029,161.892 488.847,161.075 488.847,160.067 C488.847,159.058 488.029,158.241 487.021,158.241 C486.013,158.241 485.196,159.058 485.196,160.067 C485.196,161.075 486.013,161.892 487.021,161.892 Z" id="Path" fill="#50D9E5"></path>
            <path d="M478.04,152.91 C479.048,152.91 479.866,152.093 479.866,151.085 C479.866,150.077 479.048,149.259 478.04,149.259 C477.032,149.259 476.215,150.077 476.215,151.085 C476.215,152.093 477.032,152.91 478.04,152.91 Z" id="Path" fill="#50D9E5"></path>
            <path d="M487.021,152.91 C488.029,152.91 488.847,152.093 488.847,151.085 C488.847,150.077 488.029,149.259 487.021,149.259 C486.013,149.259 485.196,150.077 485.196,151.085 C485.196,152.093 486.013,152.91 487.021,152.91 Z" id="Path" fill="#50D9E5"></path>
            <path d="M478.04,143.929 C479.048,143.929 479.866,143.111 479.866,142.103 C479.866,141.095 479.048,140.277 478.04,140.277 C477.032,140.277 476.215,141.095 476.215,142.103 C476.215,143.111 477.032,143.929 478.04,143.929 Z" id="Path" fill="#50D9E5"></path>
            <path d="M487.021,143.929 C488.029,143.929 488.847,143.111 488.847,142.103 C488.847,141.095 488.029,140.277 487.021,140.277 C486.013,140.277 485.196,141.095 485.196,142.103 C485.196,143.111 486.013,143.929 487.021,143.929 Z" id="Path" fill="#50D9E5"></path>
            <path d="M478.04,134.874 C479.048,134.874 479.866,134.056 479.866,133.048 C479.866,132.04 479.048,131.222 478.04,131.222 C477.032,131.222 476.215,132.04 476.215,133.048 C476.215,134.056 477.032,134.874 478.04,134.874 Z" id="Path" fill="#50D9E5"></path>
            <path d="M487.021,134.874 C488.029,134.874 488.847,134.056 488.847,133.048 C488.847,132.04 488.029,131.222 487.021,131.222 C486.013,131.222 485.196,132.04 485.196,133.048 C485.196,134.056 486.013,134.874 487.021,134.874 Z" id="Path" fill="#50D9E5"></path>
            <path d="M478.04,125.892 C479.048,125.892 479.866,125.074 479.866,124.066 C479.866,123.058 479.048,122.241 478.04,122.241 C477.032,122.241 476.215,123.058 476.215,124.066 C476.215,125.074 477.032,125.892 478.04,125.892 Z" id="Path" fill="#50D9E5"></path>
            <path d="M487.021,125.892 C488.029,125.892 488.847,125.074 488.847,124.066 C488.847,123.058 488.029,122.241 487.021,122.241 C486.013,122.241 485.196,123.058 485.196,124.066 C485.196,125.074 486.013,125.892 487.021,125.892 Z" id="Path" fill="#50D9E5"></path>
            <path d="M478.04,116.837 C479.048,116.837 479.866,116.02 479.866,115.011 C479.866,114.003 479.048,113.186 478.04,113.186 C477.032,113.186 476.215,114.003 476.215,115.011 C476.215,116.02 477.032,116.837 478.04,116.837 Z" id="Path" fill="#50D9E5"></path>
            <path d="M496.075,170.947 C497.083,170.947 497.901,170.13 497.901,169.121 C497.901,168.113 497.083,167.296 496.075,167.296 C495.067,167.296 494.25,168.113 494.25,169.121 C494.25,170.13 495.067,170.947 496.075,170.947 Z" id="Path" fill="#50D9E5"></path>
            <path d="M496.075,161.892 C497.083,161.892 497.901,161.075 497.901,160.067 C497.901,159.058 497.083,158.241 496.075,158.241 C495.067,158.241 494.25,159.058 494.25,160.067 C494.25,161.075 495.067,161.892 496.075,161.892 Z" id="Path" fill="#50D9E5"></path>
            <path d="M496.075,152.91 C497.083,152.91 497.901,152.093 497.901,151.085 C497.901,150.077 497.083,149.259 496.075,149.259 C495.067,149.259 494.25,150.077 494.25,151.085 C494.25,152.093 495.067,152.91 496.075,152.91 Z" id="Path" fill="#50D9E5"></path>
            <path d="M496.075,143.929 C497.083,143.929 497.901,143.111 497.901,142.103 C497.901,141.095 497.083,140.277 496.075,140.277 C495.067,140.277 494.25,141.095 494.25,142.103 C494.25,143.111 495.067,143.929 496.075,143.929 Z" id="Path" fill="#50D9E5"></path>
            <path d="M496.075,134.874 C497.083,134.874 497.901,134.056 497.901,133.048 C497.901,132.04 497.083,131.222 496.075,131.222 C495.067,131.222 494.25,132.04 494.25,133.048 C494.25,134.056 495.067,134.874 496.075,134.874 Z" id="Path" fill="#50D9E5"></path>
            <path d="M496.075,125.892 C497.083,125.892 497.901,125.074 497.901,124.066 C497.901,123.058 497.083,122.241 496.075,122.241 C495.067,122.241 494.25,123.058 494.25,124.066 C494.25,125.074 495.067,125.892 496.075,125.892 Z" id="Path" fill="#50D9E5"></path>
            <path d="M487.021,116.837 C488.029,116.837 488.847,116.02 488.847,115.011 C488.847,114.003 488.029,113.186 487.021,113.186 C486.013,113.186 485.196,114.003 485.196,115.011 C485.196,116.02 486.013,116.837 487.021,116.837 Z" id="Path" fill="#50D9E5"></path>
            <path d="M496.075,116.837 C497.083,116.837 497.901,116.02 497.901,115.011 C497.901,114.003 497.083,113.186 496.075,113.186 C495.067,113.186 494.25,114.003 494.25,115.011 C494.25,116.02 495.067,116.837 496.075,116.837 Z" id="Path" fill="#50D9E5"></path>
            <path d="M505.056,170.947 C506.065,170.947 506.882,170.13 506.882,169.121 C506.882,168.113 506.065,167.296 505.056,167.296 C504.048,167.296 503.231,168.113 503.231,169.121 C503.231,170.13 504.048,170.947 505.056,170.947 Z" id="Path" fill="#50D9E5"></path>
            <path d="M505.056,161.892 C506.065,161.892 506.882,161.075 506.882,160.067 C506.882,159.058 506.065,158.241 505.056,158.241 C504.048,158.241 503.231,159.058 503.231,160.067 C503.231,161.075 504.048,161.892 505.056,161.892 Z" id="Path" fill="#50D9E5"></path>
            <path d="M514.037,170.947 C515.046,170.947 515.863,170.13 515.863,169.121 C515.863,168.113 515.046,167.296 514.037,167.296 C513.029,167.296 512.212,168.113 512.212,169.121 C512.212,170.13 513.029,170.947 514.037,170.947 Z" id="Path" fill="#50D9E5"></path>
            <path d="M514.037,161.892 C515.046,161.892 515.863,161.075 515.863,160.067 C515.863,159.058 515.046,158.241 514.037,158.241 C513.029,158.241 512.212,159.058 512.212,160.067 C512.212,161.075 513.029,161.892 514.037,161.892 Z" id="Path" fill="#50D9E5"></path>
            <path d="M505.056,152.91 C506.065,152.91 506.882,152.093 506.882,151.085 C506.882,150.077 506.065,149.259 505.056,149.259 C504.048,149.259 503.231,150.077 503.231,151.085 C503.231,152.093 504.048,152.91 505.056,152.91 Z" id="Path" fill="#50D9E5"></path>
            <path d="M514.037,152.91 C515.046,152.91 515.863,152.093 515.863,151.085 C515.863,150.077 515.046,149.259 514.037,149.259 C513.029,149.259 512.212,150.077 512.212,151.085 C512.212,152.093 513.029,152.91 514.037,152.91 Z" id="Path" fill="#50D9E5"></path>
            <path d="M505.056,143.929 C506.065,143.929 506.882,143.111 506.882,142.103 C506.882,141.095 506.065,140.277 505.056,140.277 C504.048,140.277 503.231,141.095 503.231,142.103 C503.231,143.111 504.048,143.929 505.056,143.929 Z" id="Path" fill="#50D9E5"></path>
            <path d="M514.037,143.929 C515.046,143.929 515.863,143.111 515.863,142.103 C515.863,141.095 515.046,140.277 514.037,140.277 C513.029,140.277 512.212,141.095 512.212,142.103 C512.212,143.111 513.029,143.929 514.037,143.929 Z" id="Path" fill="#50D9E5"></path>
            <path d="M505.056,134.874 C506.065,134.874 506.882,134.056 506.882,133.048 C506.882,132.04 506.065,131.222 505.056,131.222 C504.048,131.222 503.231,132.04 503.231,133.048 C503.231,134.056 504.048,134.874 505.056,134.874 Z" id="Path" fill="#50D9E5"></path>
            <path d="M514.037,134.874 C515.046,134.874 515.863,134.056 515.863,133.048 C515.863,132.04 515.046,131.222 514.037,131.222 C513.029,131.222 512.212,132.04 512.212,133.048 C512.212,134.056 513.029,134.874 514.037,134.874 Z" id="Path" fill="#50D9E5"></path>
            <path d="M505.056,125.892 C506.065,125.892 506.882,125.074 506.882,124.066 C506.882,123.058 506.065,122.241 505.056,122.241 C504.048,122.241 503.231,123.058 503.231,124.066 C503.231,125.074 504.048,125.892 505.056,125.892 Z" id="Path" fill="#50D9E5"></path>
            <path d="M514.037,125.892 C515.046,125.892 515.863,125.074 515.863,124.066 C515.863,123.058 515.046,122.241 514.037,122.241 C513.029,122.241 512.212,123.058 512.212,124.066 C512.212,125.074 513.029,125.892 514.037,125.892 Z" id="Path" fill="#50D9E5"></path>
            <path d="M505.056,116.837 C506.065,116.837 506.882,116.02 506.882,115.011 C506.882,114.003 506.065,113.186 505.056,113.186 C504.048,113.186 503.231,114.003 503.231,115.011 C503.231,116.02 504.048,116.837 505.056,116.837 Z" id="Path" fill="#50D9E5"></path>
            <path d="M514.037,116.837 C515.046,116.837 515.863,116.02 515.863,115.011 C515.863,114.003 515.046,113.186 514.037,113.186 C513.029,113.186 512.212,114.003 512.212,115.011 C512.212,116.02 513.029,116.837 514.037,116.837 Z" id="Path" fill="#50D9E5"></path>
            <path d="M523.092,170.947 C524.1,170.947 524.917,170.13 524.917,169.121 C524.917,168.113 524.1,167.296 523.092,167.296 C522.083,167.296 521.266,168.113 521.266,169.121 C521.266,170.13 522.083,170.947 523.092,170.947 Z" id="Path" fill="#50D9E5"></path>
            <path d="M523.092,161.892 C524.1,161.892 524.917,161.075 524.917,160.067 C524.917,159.058 524.1,158.241 523.092,158.241 C522.083,158.241 521.266,159.058 521.266,160.067 C521.266,161.075 522.083,161.892 523.092,161.892 Z" id="Path" fill="#50D9E5"></path>
            <path d="M523.092,152.91 C524.1,152.91 524.917,152.093 524.917,151.085 C524.917,150.077 524.1,149.259 523.092,149.259 C522.083,149.259 521.266,150.077 521.266,151.085 C521.266,152.093 522.083,152.91 523.092,152.91 Z" id="Path" fill="#50D9E5"></path>
            <path d="M523.092,143.929 C524.1,143.929 524.917,143.111 524.917,142.103 C524.917,141.095 524.1,140.277 523.092,140.277 C522.083,140.277 521.266,141.095 521.266,142.103 C521.266,143.111 522.083,143.929 523.092,143.929 Z" id="Path" fill="#50D9E5"></path>
            <path d="M523.092,134.874 C524.1,134.874 524.917,134.056 524.917,133.048 C524.917,132.04 524.1,131.222 523.092,131.222 C522.083,131.222 521.266,132.04 521.266,133.048 C521.266,134.056 522.083,134.874 523.092,134.874 Z" id="Path" fill="#50D9E5"></path>
            <path d="M523.092,125.892 C524.1,125.892 524.917,125.074 524.917,124.066 C524.917,123.058 524.1,122.241 523.092,122.241 C522.083,122.241 521.266,123.058 521.266,124.066 C521.266,125.074 522.083,125.892 523.092,125.892 Z" id="Path" fill="#50D9E5"></path>
            <path d="M523.092,116.837 C524.1,116.837 524.917,116.02 524.917,115.011 C524.917,114.003 524.1,113.186 523.092,113.186 C522.083,113.186 521.266,114.003 521.266,115.011 C521.266,116.02 522.083,116.837 523.092,116.837 Z" id="Path" fill="#50D9E5"></path>
            <path d="M43.0068,349.415 C92.8042,349.415 104.049,301.585 133.548,301.585 C163.046,301.585 113.03,237.982 140.557,210.014 C168.084,182.047 193.275,224.4 210.069,224.4 C226.936,224.4 246.796,143.052 273.301,143.052 C299.806,143.052 334.562,208.846 346.391,215.564 C358.22,222.282 404.877,173.503 425.176,189.057 C445.475,204.611 426.709,349.415 464.021,349.415 L43.0068,349.415 Z" id="Path" fill="#17204C"></path>
            <path d="M490.307,273.837 C487.678,272.522 486.145,269.017 488.993,265.074 C492.936,259.67 501.259,262.226 505.129,250.177 C505.056,268.36 495.929,276.758 490.307,273.837 Z" id="Path" fill="#FFFFFF"></path>
            <path d="M488.993,276.757 L491.329,277.926 C491.329,277.926 491.037,282.672 484.027,296.401 C477.018,310.129 458.107,342.551 455.916,341.456 L488.993,276.757 Z" id="Path" fill="#50D9E5"></path>
            <path d="M488.993,276.757 L486.656,275.589 C486.656,275.589 483.005,278.583 475.923,292.311 C468.913,306.04 453.652,340.361 455.843,341.456 L488.993,276.757 Z" id="Path" fill="#299BA6"></path>
            <polygon id="Path" fill="#299BA6" points="490.771 273.233 488.496 272.068 486.7 275.578 488.974 276.743"></polygon>
            <polygon id="Path" fill="#299BA6" points="493.043 274.385 490.769 273.221 488.972 276.73 491.246 277.895"></polygon>
            <polygon id="Path" fill="#33BFCC" points="450.477 266.646 448.604 266.957 455.626 309.167 457.498 308.855"></polygon>
            <polygon id="Path" fill="#50D9E5" points="458.764 308.742 457.523 308.888 450.513 266.68 451.827 267.118"></polygon>
            <polygon id="Path" fill="#299BA6" points="455.624 309.253 454.456 309.399 447.519 267.849 448.615 266.972"></polygon>
            <polygon id="Path" fill="#33BFCC" points="462.128 263.577 460.523 263.518 458.726 312.774 460.331 312.833"></polygon>
            <polygon id="Path" fill="#50D9E5" points="461.319 312.904 460.37 312.831 462.122 263.613 463.072 264.344"></polygon>
            <polygon id="Path" fill="#299BA6" points="458.764 312.759 457.741 312.759 459.494 264.272 460.516 263.542"></polygon>
            <polygon id="Path" fill="#33BFCC" points="447.496 280.814 444.741 281.534 455.549 322.939 458.304 322.219"></polygon>
            <polygon id="Path" fill="#50D9E5" points="460.078 321.74 458.326 322.178 447.519 280.774 449.418 280.92"></polygon>
            <polygon id="Path" fill="#299BA6" points="455.551 322.908 453.799 323.419 443.138 282.599 444.745 281.504"></polygon>
            <polygon id="Path" fill="#33BFCC" points="488.92 292.165 442.919 292.165 442.919 349.342 488.92 349.342"></polygon>
            <polygon id="Path" fill="#299BA6" points="455.332 292.165 442.919 292.165 442.919 349.342 455.332 349.342"></polygon>
            <path d="M488.482,293.407 L443.357,293.407 C442.481,293.407 441.751,292.677 441.751,291.8 C441.751,290.924 442.481,290.194 443.357,290.194 L488.482,290.194 C489.358,290.194 490.088,290.924 490.088,291.8 C490.088,292.677 489.358,293.407 488.482,293.407 Z" id="Path" fill="#FFFFFF"></path>
            <path d="M488.482,293.407 L443.357,293.407 C442.481,293.407 441.751,292.677 441.751,291.8 L490.015,291.8 C490.088,292.677 489.358,293.407 488.482,293.407 Z" id="Path" fill="#299BA6"></path>
            <path d="M488.482,349.415 L443.357,349.415 C442.481,349.415 441.751,348.685 441.751,347.809 C441.751,346.933 442.481,346.202 443.357,346.202 L488.482,346.202 C489.358,346.202 490.088,346.933 490.088,347.809 C490.088,348.685 489.358,349.415 488.482,349.415 Z" id="Path" fill="#50D9E5"></path>
            <path d="M488.482,349.415 L443.357,349.415 C442.481,349.415 441.751,348.685 441.751,347.809 L490.015,347.809 C490.088,348.685 489.358,349.415 488.482,349.415 Z" id="Path" fill="#299BA6"></path>
            <polygon id="Path" fill="#299BA6" points="441.897 314.729 490.088 314.729 488.993 315.825 442.919 315.825"></polygon>
            <polygon id="Path" fill="#50D9E5" points="441.897 314.729 490.088 314.729 488.993 313.634 442.919 313.634"></polygon>
            <polygon id="Path" fill="#299BA6" points="441.897 317.577 490.088 317.577 488.993 318.673 442.919 318.673"></polygon>
            <polygon id="Path" fill="#50D9E5" points="441.897 317.577 490.088 317.577 488.993 316.555 442.919 316.555"></polygon>
            <polygon id="Path" fill="#299BA6" points="441.897 320.498 490.088 320.498 488.993 321.521 442.919 321.521"></polygon>
            <polygon id="Path" fill="#50D9E5" points="441.897 320.498 490.088 320.498 488.993 319.403 442.919 319.403"></polygon>
            <polygon id="Path" fill="#299BA6" points="441.897 323.346 490.088 323.346 488.993 324.442 442.919 324.442"></polygon>
            <polygon id="Path" fill="#50D9E5" points="441.897 323.346 490.088 323.346 488.993 322.251 442.919 322.251"></polygon>
            <polygon id="Path" fill="#299BA6" points="441.897 326.194 490.088 326.194 488.993 327.289 442.919 327.289"></polygon>
            <polygon id="Path" fill="#50D9E5" points="441.897 326.194 490.088 326.194 488.993 325.172 442.919 325.172"></polygon>
            <path d="M501.479,272.741 C500.164,272.741 500.748,269.82 499.434,270.551 C497.098,271.865 500.529,286.762 498.193,286.762 C495.637,286.762 499.215,270.258 497.098,272.668 L495.126,268.068 L503.669,261.423 C501.186,268.944 502.793,272.741 501.479,272.741 Z" id="Path" fill="#FFFFFF"></path>
            <path d="M166.332,349.269 C166.332,336.928 156.548,330.941 155.526,323.784 C154.503,316.628 159.103,308.669 158.081,301.22 C157.059,293.772 151.729,286.835 146.618,284.498 C141.506,282.234 138.586,270.404 131.138,271.354 C123.69,272.23 122.887,284.352 119.017,286.762 C115.147,289.171 108.795,290.778 108.065,297.934 C107.335,305.09 117.192,314.949 111.862,322.762 C106.531,330.575 104.268,339.046 104.268,349.269 L166.332,349.269 Z" id="Path" fill="#FFB057"></path>
            <path d="M129.897,286.104 C133.694,290.194 139.827,287.784 140.995,289.683 C142.163,291.581 135.446,296.693 136.395,307.5 C137.344,318.381 149.757,316.117 157.643,328.969 C156.621,327.216 155.818,325.537 155.599,323.784 C154.576,316.628 159.176,308.669 158.154,301.22 C157.132,293.772 151.802,286.835 146.69,284.498 C141.579,282.234 138.659,270.404 131.211,271.354 C131.138,271.354 126.1,282.015 129.897,286.104 Z" id="Path" fill="#FFC785"></path>
            <path d="M202.329,456.029 C185.462,456.029 171.735,442.301 171.735,425.433 L171.735,374.536 L173.196,374.536 L173.196,425.433 C173.196,441.498 186.266,454.569 202.329,454.569 C218.393,454.569 231.463,441.498 231.463,425.433 L231.463,374.536 L232.923,374.536 L232.923,425.433 C232.923,442.301 219.196,456.029 202.329,456.029 Z" id="Path" fill="#50D9E5"></path>
            <path d="M271.111,464.135 L254.828,464.135 C252.054,464.135 249.717,461.871 249.717,459.023 L249.717,442.812 C249.717,440.037 251.981,437.7 254.828,437.7 L271.038,437.7 C273.813,437.7 276.149,439.964 276.149,442.812 L276.149,459.023 C276.222,461.871 273.886,464.135 271.111,464.135 Z" id="Path" fill="#FFFFFF"></path>
            <path d="M263.006,458.293 C267.079,458.293 270.381,454.991 270.381,450.917 C270.381,446.844 267.079,443.542 263.006,443.542 C258.933,443.542 255.631,446.844 255.631,450.917 C255.631,454.991 258.933,458.293 263.006,458.293 Z" id="Path" fill="#2E4099"></path>
            <path d="M266.511,453.108 L259.355,453.108 C258.187,453.108 257.165,452.159 257.165,450.918 C257.165,449.749 258.114,448.727 259.355,448.727 L266.511,448.727 C267.679,448.727 268.701,449.676 268.701,450.918 C268.701,452.086 267.752,453.108 266.511,453.108 Z" id="Path" fill="#50D9E5"></path>
            <path d="M251.542,508.314 C244.825,508.314 239.349,502.837 239.349,496.119 L239.349,374.462 L240.809,374.462 L240.809,496.046 C240.809,501.961 245.628,506.78 251.542,506.78 C257.457,506.78 262.276,501.961 262.276,496.046 L262.276,450.991 L263.736,450.991 L263.736,496.046 C263.736,502.837 258.26,508.314 251.542,508.314 Z" id="Path" fill="#50D9E5"></path>
            <polygon id="Path" fill="#364AB2" points="0 349.415 578 349.415 413.859 431.274"></polygon>
            <path d="M501.917,387.314 C504.326,386.146 504.618,390.819 506.152,390.308 C508.05,389.651 507.685,386.803 508.926,386.511 C510.168,386.146 511.993,391.258 511.993,402.503 C511.993,413.749 509.364,424.921 512.65,424.921 C515.936,424.921 513.234,411.12 513.234,402.576 C513.234,394.033 514.549,387.899 516.739,387.314 C519.733,386.584 520.463,390.454 522.653,390.089 C526.012,389.505 525.501,378.625 527.472,377.894 C530.101,377.018 531.05,375.558 531.05,372.783 L509.948,375.193 L501.917,387.314 Z" id="Path" fill="#FFFFFF"></path>
            <path d="M262.787,177.446 C255.266,163.353 244.679,151.377 232.12,141.811 L223.066,145.754 L226.936,138.087 C197.364,117.932 158.373,110.192 121.5,118.662 C161.586,119.32 177.138,178.907 198.386,209.284 L223.504,203.515 L206.71,219.142 C207.805,220.165 208.901,221.114 210.069,221.917 C240.663,244.335 267.168,240.465 294.111,269.966 C275.492,229.219 284.327,217.682 262.787,177.446 Z" id="Path" fill="#364AB2"></path>
            <path d="M198.386,209.211 L223.504,203.442 L206.71,219.069 C207.805,220.092 208.901,221.041 210.069,221.844 C240.663,244.262 267.168,240.392 294.111,269.893 C248.403,167.004 166.77,114.938 121.5,118.589 C161.586,119.174 177.138,178.834 198.386,209.211 Z" id="Path" fill="#3D55CC"></path>
            <path d="M308.788,347.809 C315.87,309.18 346.464,304.725 380.052,291.143 L366.982,283.037 L390.128,286.835 C394.363,284.863 398.598,282.672 402.833,280.19 L381.293,277.707 L410.5,275.37 C410.865,275.078 411.303,274.859 411.668,274.567 C440.802,254.193 436.64,209.941 461.027,189.057 C426.564,201.617 421.671,213.008 389.325,229.95 L394.29,234.988 L383.922,232.725 C378.445,235.426 372.239,238.274 365.156,241.341 C316.819,261.788 304.772,298.664 308.788,347.809 Z" id="Path" fill="#364AB2"></path>
            <path d="M308.788,347.809 C315.87,309.18 346.464,304.725 380.052,291.143 L366.982,283.037 L390.128,286.835 C394.363,284.863 398.598,282.672 402.833,280.19 L381.293,277.707 L410.5,275.37 C410.865,275.078 411.303,274.859 411.668,274.567 C440.802,254.193 436.64,209.941 461.027,189.057 C427.221,204.757 429.046,238.712 378.372,259.816 C331.496,279.313 311.635,298.372 308.788,347.809 Z" id="Path" fill="#3D55CC"></path>
            <path d="M362.163,83.1733 L370.341,88.7961 L351.721,88.8691 C335.293,98.6542 318.937,112.456 303.457,132.902 C244.168,211.256 309.007,347.809 309.007,347.809 C304.772,294.94 330.912,273.398 353.912,240.173 L328.502,237.398 L362.528,226.664 C370.925,212.351 378.153,195.483 382.242,173.503 C387.646,144.878 402.176,125.162 418.094,108.439 L407.433,104.934 L423.862,102.524 C425.541,100.845 427.221,99.2384 428.9,97.5588 L416.122,95.1491 L434.303,92.3012 C451.024,76.2361 466.431,61.1933 471.761,40.3818 C446.789,63.5301 405.024,61.7045 362.163,83.1733 Z M359.753,202.128 C359.023,204.684 356.906,206.29 355.153,205.779 C353.401,205.268 352.598,202.785 353.328,200.229 C354.058,197.673 356.175,196.067 357.928,196.578 C359.68,197.162 360.483,199.645 359.753,202.128 Z" id="Shape" fill="#364AB2"></path>
            <path d="M353.839,240.246 L328.429,237.471 L362.455,226.737 C370.852,212.424 378.08,195.556 382.169,173.576 C387.573,144.951 402.103,125.235 418.02,108.512 L407.36,105.007 L423.789,102.597 C425.468,100.918 427.148,99.3114 428.827,97.6318 L416.049,95.2221 L434.23,92.3742 C450.951,76.3091 466.358,61.2664 471.688,40.4548 C454.164,74.5566 368.734,92.0091 327.772,158.971 C286.81,225.933 297.616,295.232 308.934,347.809 C304.699,295.013 330.839,273.471 353.839,240.246 Z M353.401,200.229 C354.131,197.673 356.248,196.067 358.001,196.578 C359.753,197.089 360.556,199.572 359.826,202.128 C359.096,204.684 356.979,206.29 355.226,205.779 C353.401,205.268 352.598,202.785 353.401,200.229 Z" id="Shape" fill="#3D55CC"></path>
            <path d="M96.236,349.415 C104.487,349.415 113.468,334.592 125.37,334.592 C132.671,334.592 136.833,339.703 136.833,339.703 C136.833,339.703 148.297,326.121 165.237,326.121 C189.551,326.121 194.005,349.342 194.005,349.342 L96.236,349.342 L96.236,349.415 Z" id="Path" fill="#17204C"></path>
            <path d="M355.956,118.882 C374.868,123.847 375.014,151.304 380.271,162.988 C385.528,174.671 399.985,169.633 405.973,188.911 C411.96,208.189 398.744,232.286 407.579,252.295 C416.414,272.303 403.928,273.471 408.017,290.924 C412.106,308.376 422.036,310.567 422.036,349.123 L298.054,349.123 C298.054,297.204 310.832,294.575 313.972,260.254 C317.111,225.933 297.251,203.661 301.34,184.894 C305.429,166.127 320.543,166.639 326.385,156.415 C332.153,146.192 337.045,113.916 355.956,118.882 Z" id="Path" fill="#17204C"></path>
            <path d="M407.506,252.295 C398.671,232.286 411.887,208.189 405.9,188.911 C399.912,169.633 385.455,174.671 380.198,162.987 C374.941,151.304 374.722,123.847 355.883,118.882 C354.715,118.589 353.693,118.443 352.598,118.443 C352.525,118.662 329.232,160.578 341.353,185.187 C353.547,209.868 379.76,195.118 381.074,201.106 C382.461,207.093 356.102,221.698 363.185,243.897 C370.268,266.169 389.69,265.147 391.807,270.624 C393.925,276.1 379.687,279.824 385.236,295.816 C390.712,311.735 421.89,314.875 421.89,349.123 C421.89,310.567 411.96,308.376 407.871,290.924 C403.855,273.471 416.341,272.303 407.506,252.295 Z" id="Path" fill="#1F2A66"></path>
            <path d="M400.058,349.415 L469.278,349.415 C457.23,349.415 452.995,338.608 442.919,338.608 L442.919,329.333802 C422.109,329.261 415.319,349.415 400.058,349.415 Z" id="Path" fill="#17204C"></path>
            <path d="M217.371,246.015 C248.914,215.856 230.441,193.949 224.307,189.13 L218.466,185.479 L161.148,192.27 C176.189,207.313 178.161,226.006 202.037,246.015 L217.371,246.015 Z" id="Path" fill="#364AB2"></path>
            <path d="M342.156,347.444 L158.008,347.444 C154.138,347.444 151.072,344.304 151.072,340.507 L151.072,216.367 C151.072,212.497 154.211,209.43 158.008,209.43 L342.156,209.43 C346.026,209.43 349.093,212.57 349.093,216.367 L349.093,340.507 C349.093,344.304 345.953,347.444 342.156,347.444 Z" id="Path" fill="#299BA6"></path>
            <path d="M342.156,348.174 L158.008,348.174 C153.773,348.174 150.341,344.742 150.341,340.507 L150.341,216.367 C150.341,212.132 153.773,208.7 158.008,208.7 L342.156,208.7 C346.391,208.7 349.823,212.132 349.823,216.367 L349.823,340.507 C349.823,344.742 346.391,348.174 342.156,348.174 Z M158.008,210.16 C154.576,210.16 151.802,212.935 151.802,216.367 L151.802,340.507 C151.802,343.939 154.576,346.714 158.008,346.714 L342.156,346.714 C345.588,346.714 348.363,343.939 348.363,340.507 L348.363,216.367 C348.363,212.935 345.588,210.16 342.156,210.16 L158.008,210.16 Z" id="Shape" fill="#33BFCC"></path>
            <polygon id="Path" fill="#17204C" points="342.01 219.142 158.081 219.142 158.081 333.569 342.01 333.569"></polygon>
            <polygon id="Path" fill="#50D9E5" points="371.655 344.012 128.436 344.012 128.436 345.545 371.655 345.545"></polygon>
            <path d="M250.082,345.545 L128.436,345.545 C128.436,345.545 140.557,349.415 158.811,349.415 L250.009,349.415 L250.009,345.545 L250.082,345.545 Z" id="Path" fill="#299BA6"></path>
            <path d="M250.082,345.545 L371.655,345.545 C371.655,345.545 359.534,349.415 341.28,349.415 L250.082,349.415 L250.082,345.545 Z" id="Path" fill="#299BA6"></path>
            <polygon id="Path" fill="#33BFCC" points="273.301 344.012 226.863 344.012 226.863 345.545 273.301 345.545"></polygon>
            <path d="M335.512,321.594 L224.672,321.594 C223.942,321.594 223.358,321.009 223.358,320.279 L223.358,228.635 L336.826,228.635 L336.826,320.279 C336.826,320.936 336.242,321.594 335.512,321.594 Z" id="Path" fill="#33BFCC"></path>
            <path d="M336.826,228.635 L223.358,228.635 L223.358,224.327 C223.358,223.597 223.942,223.012 224.672,223.012 L335.512,223.012 C336.242,223.012 336.826,223.597 336.826,224.327 L336.826,228.635 Z" id="Path" fill="#141733"></path>
            <path d="M227.228,226.956 C227.873,226.956 228.396,226.433 228.396,225.787 C228.396,225.142 227.873,224.619 227.228,224.619 C226.583,224.619 226.06,225.142 226.06,225.787 C226.06,226.433 226.583,226.956 227.228,226.956 Z" id="Path" fill="#FFFFFF"></path>
            <path d="M230.733,226.956 C231.378,226.956 231.901,226.433 231.901,225.787 C231.901,225.142 231.378,224.619 230.733,224.619 C230.088,224.619 229.564,225.142 229.564,225.787 C229.564,226.433 230.088,226.956 230.733,226.956 Z" id="Path" fill="#FFFFFF"></path>
            <path d="M234.237,226.956 C234.883,226.956 235.406,226.433 235.406,225.787 C235.406,225.142 234.883,224.619 234.237,224.619 C233.592,224.619 233.069,225.142 233.069,225.787 C233.069,226.433 233.592,226.956 234.237,226.956 Z" id="Path" fill="#FFFFFF"></path>
            <path d="M244.898,327.801 L158.081,327.801 L158.081,241.414 L246.212,241.414 L246.212,326.486 C246.212,327.216 245.628,327.801 244.898,327.801 Z" id="Path" fill="#50D9E5"></path>
            <path d="M246.212,241.414 L158.081,241.414 L158.081,235.792 L244.898,235.792 C245.628,235.792 246.212,236.376 246.212,237.106 L246.212,241.414 Z" id="Path" fill="#141733"></path>
            <path d="M303.968,273.325 L303.822,273.106 L305.429,272.084 L304.042,264.709 L304.261,259.889 L304.626,256.457 L304.188,255.727 L302.727,256.822 L301.778,257.991 L301.778,258.794 L302.07,258.794 L301.778,261.788 L299.222,262.664 L299.441,259.524 L299.953,259.305 L300.245,258.429 L301.632,256.53 L301.705,254.777 L302.654,252.952 L303.53,251.053 L303.968,249.009 L305.867,247.767 L305.867,247.475 L306.305,247.329 L306.305,246.599 L305.94,246.234 L305.721,244.992 L306.086,243.897 C306.086,243.897 306.159,242.144 307.473,242.291 C308.788,242.437 308.861,244.043 308.861,244.043 L309.007,244.773 L309.226,245.211 L308.934,246.307 L308.642,246.891 L308.642,247.183 L309.737,246.891 L310.905,245.796 L312.438,243.24 L312.073,243.021 L312.292,242.291 L312.584,241.852 L313.315,240.83 L313.315,240.246 L313.023,239.516 L313.461,238.347 L313.68,234.404 L311.635,234.185 L311.781,233.674 L316.308,234.039 L316.162,234.55 L314.191,234.477 L313.972,237.909 L314.337,238.712 L314.556,240.1 L314.264,240.903 L314.118,243.24 L313.607,243.386 L312.438,246.745 L311.489,248.351 L310.686,249.374 L309.883,253.828 L310.321,259.597 L312.219,264.197 L313.388,271.062 L314.629,273.544 L314.629,273.91 L313.68,273.91 L312.438,273.106 L311.854,271.208 L311.489,270.989 L309.883,265.074 L307.4,260.692 L306.305,266.169 L306.597,268.506 L307.035,272.303 L306.816,273.325 L303.968,273.325 Z" id="Path" fill="#141733"></path>
            <path d="M324.559,261.131 L324.559,273.179 L279.508,273.179 L279.508,261.131 L324.559,261.131 Z M325.289,260.4 L278.778,260.4 L278.778,273.91 L325.289,273.91 L325.289,260.4 Z" id="Shape" fill="#FFFFFF"></path>
            <polygon id="Path" fill="#FFFFFF" points="283.962 260.4 283.232 260.4 283.232 273.91 283.962 273.91"></polygon>
            <polygon id="Path" fill="#FFFFFF" points="320.762 260.4 320.032 260.4 320.032 273.91 320.762 273.91"></polygon>
            <polygon id="Path" fill="#FFFFFF" points="302.362 260.4 301.632 260.4 301.632 273.91 302.362 273.91"></polygon>
            <polygon id="Path" fill="#FFFFFF" points="325.289 263.029 278.778 263.029 278.778 263.759 325.289 263.759"></polygon>
            <path d="M282.502,260.4 L280.092,260.4 C280.092,259.743 280.603,259.159 281.333,259.159 C282.063,259.159 282.502,259.67 282.502,260.4 Z" id="Path" fill="#FFFFFF"></path>
            <polygon id="Path" fill="#FFFFFF" points="281.698 208.7 280.968 208.7 280.968 259.743 281.698 259.743"></polygon>
            <path d="M323.902,260.4 L321.492,260.4 C321.492,259.743 322.004,259.159 322.734,259.159 C323.391,259.159 323.902,259.67 323.902,260.4 Z" id="Path" fill="#FFFFFF"></path>
            <polygon id="Path" fill="#FFFFFF" points="323.026 208.7 322.296 208.7 322.296 259.743 323.026 259.743"></polygon>
            <path d="M321.711,280.774 L282.209,280.774 C280.822,280.774 279.727,279.678 279.727,278.291 L279.727,275.443 L324.194,275.443 L324.194,278.291 C324.267,279.678 323.099,280.774 321.711,280.774 Z" id="Path" fill="#299BA6"></path>
            <path d="M322.734,277.853 L281.187,277.853 C279.8,277.853 278.705,276.757 278.705,275.37 L278.705,273.91 L325.216,273.91 L325.216,275.37 C325.289,276.684 324.121,277.853 322.734,277.853 Z" id="Path" fill="#FFFFFF"></path>
            <path d="M202.402,315.168 L168.815,315.168 C167.866,315.168 167.062,314.364 167.062,313.415 L167.062,251.784 C167.062,250.834 167.866,250.031 168.815,250.031 L202.402,250.031 C203.352,250.031 204.155,250.834 204.155,251.784 L204.155,313.415 C204.155,314.364 203.352,315.168 202.402,315.168 Z" id="Path" fill="#FFFFFF"></path>
            <polygon id="Path" fill="#33BFCC" points="204.155 255.727 166.989 255.727 166.989 280.19 204.155 280.19"></polygon>
            <polygon id="Path" fill="#8ADEE5" points="166.989 280.19 166.989 279.751 203.57 255.727 204.155 255.727 204.155 256.165 167.646 280.19"></polygon>
            <polygon id="Path" fill="#8ADEE5" points="204.155 280.19 203.57 280.19 166.989 256.165 166.989 255.727 167.646 255.727 204.155 279.751"></polygon>
            <polygon id="Path" fill="#33BFCC" points="190.208 283.768 169.253 283.768 169.253 286.323 190.208 286.323"></polygon>
            <polygon id="Path" fill="#8ADEE5" points="201.964 288.66 169.253 288.66 169.253 290.048 201.964 290.048"></polygon>
            <polygon id="Path" fill="#8ADEE5" points="201.964 291.362 169.253 291.362 169.253 292.749 201.964 292.749"></polygon>
            <polygon id="Path" fill="#8ADEE5" points="201.964 294.064 169.253 294.064 169.253 295.451 201.964 295.451"></polygon>
            <polygon id="Path" fill="#8ADEE5" points="194.589 296.693 169.253 296.693 169.253 298.08 194.589 298.08"></polygon>
            <path d="M194.735,307.792 L176.481,307.792 C175.094,307.792 173.999,306.697 173.999,305.31 C173.999,303.922 175.094,302.827 176.481,302.827 L194.735,302.827 C196.123,302.827 197.218,303.922 197.218,305.31 C197.145,306.624 196.05,307.792 194.735,307.792 Z" id="Path" fill="#33BFCC"></path>
            <path d="M266.949,315.168 L233.361,315.168 C232.412,315.168 231.609,314.364 231.609,313.415 L231.609,251.784 C231.609,250.834 232.412,250.031 233.361,250.031 L266.949,250.031 C267.898,250.031 268.701,250.834 268.701,251.784 L268.701,313.415 C268.774,314.364 267.971,315.168 266.949,315.168 Z" id="Path" fill="#FFFFFF"></path>
            <polygon id="Path" fill="#33BFCC" points="268.774 255.727 231.609 255.727 231.609 280.19 268.774 280.19"></polygon>
            <polygon id="Path" fill="#8ADEE5" points="231.609 280.19 231.609 279.751 268.117 255.727 268.774 255.727 268.774 256.165 232.193 280.19"></polygon>
            <polygon id="Path" fill="#8ADEE5" points="268.774 280.19 268.117 280.19 231.609 256.165 231.609 255.727 232.193 255.727 268.774 279.751"></polygon>
            <polygon id="Path" fill="#33BFCC" points="254.755 283.768 233.799 283.768 233.799 286.323 254.755 286.323"></polygon>
            <polygon id="Path" fill="#8ADEE5" points="266.511 288.66 233.799 288.66 233.799 290.048 266.511 290.048"></polygon>
            <polygon id="Path" fill="#8ADEE5" points="266.511 291.362 233.799 291.362 233.799 292.749 266.511 292.749"></polygon>
            <polygon id="Path" fill="#8ADEE5" points="266.511 294.064 233.799 294.064 233.799 295.451 266.511 295.451"></polygon>
            <polygon id="Path" fill="#8ADEE5" points="259.136 296.693 233.799 296.693 233.799 298.08 259.136 298.08"></polygon>
            <polygon id="Path" fill="#33BFCC" points="266.511 303.192 233.799 303.192 233.799 315.168 266.511 315.168"></polygon>
            <path d="M206.783,305.675 L206.783,304.944 C215.107,304.944 216.714,295.232 218.393,285.739 C219.926,276.611 221.46,268.068 228.615,268.068 L228.615,268.798 C222.044,268.798 220.656,277.123 219.123,285.885 C217.444,295.597 215.691,305.675 206.783,305.675 Z" id="Path" fill="#FFFFFF"></path>
            <path d="M159.614,303.193 C154.357,304.435 154.649,310.861 153.554,313.124 C152.459,315.388 149.976,315.534 148.881,319.989 C147.786,324.443 150.633,328.24 149.319,333.644 C147.932,339.048 145.23,340.727 145.23,349.49 L174.218,349.49 C174.218,340.216 168.376,338.317 170.786,331.015 C172.83,324.881 173.707,321.595 168.084,314.001 C166.04,311.153 165.31,301.806 159.614,303.193 Z" id="Path" fill="#17204C"></path>
            <path d="M170.786,330.868 C172.83,324.734 173.707,321.448 168.084,313.853 C166.186,311.224 165.383,302.608 160.345,303.046 C160.345,307.646 157.059,309.91 159.687,313.561 C162.389,317.139 165.091,316.482 165.821,318.746 C166.551,321.009 156.913,327.655 159.98,335.103 C163.046,342.551 172.1,340.58 174.145,349.415 C174.218,340.068 168.376,338.243 170.786,330.868 Z" id="Path" fill="#1F2A66"></path>
            <path d="M140.046,183.799 C124.639,194.607 117.849,216.294 109.525,233.747 L115.731,238.274 L106.896,238.932 C101.055,250.031 93.9724,258.502 82.6548,259.743 C117.995,272.887 144.646,253.098 166.186,230.753 L158.446,225.276 L169.91,226.883 C192.034,203.223 208.682,178.761 224.234103,189.13 C224.307,189.13 185.462,151.961 140.046,183.799 Z M145.96,239.735 C145.011,240.976 143.478,241.414 142.456,240.611 C141.506,239.881 141.433,238.274 142.382,237.033 C143.332,235.792 144.865,235.353 145.887,236.157 C146.837,236.887 146.91,238.493 145.96,239.735 Z" id="Shape" fill="#3D55CC"></path>
            <path d="M166.259,230.68 L158.519,225.203 L169.983,226.81 C192.107,203.15 208.755,178.687 224.307,189.057 C224.307,189.057 216.64,181.754 204.155,176.351 C147.932,153.568 142.894,268.944 82.8009,259.597 C118.068,272.887 144.719,253.025 166.259,230.68 Z M142.383,237.033 C143.332,235.792 144.865,235.353 145.887,236.157 C146.837,236.887 146.91,238.493 145.96,239.735 C145.011,240.976 143.478,241.414 142.456,240.611 C141.506,239.881 141.433,238.274 142.383,237.033 Z" id="Shape" fill="#556FF2"></path>
            <path d="M291.044,349.415 C297.105,349.415 301.778,340.507 310.029,340.507 C318.28,340.507 323.099,347.371 328.21,347.371 C333.321,347.371 335.585,344.158 340.039,344.158 C344.566,344.158 347.632,349.415 355.737,349.415 L291.044,349.415 Z" id="Path" fill="#242459"></path>
            <polygon id="Path" fill="#2E4099" points="128.436 349.269 154.43 353.286 352.451 353.286 371.655 349.269"></polygon>
            <path d="M416.268,382.86 C413.931,382.86 411.668,379.793 408.382,379.793 C405.023,379.793 402.468,382.13 402.468,382.13 C402.468,382.13 400.058,380.961 397.868,380.961 C395.677,380.961 392.83,382.933 390.128,382.933 L416.268,382.933 L416.268,382.86 Z" id="Path" fill="#242459"></path>
            <polygon id="Path" fill="#556FF2" points="173.269 371.76 271.257 371.76 203.132 377.237"></polygon>
            <path d="M139.17,368.328 C139.17,368.328 141.871,364.166 146.617,364.166 C151.364,364.166 154.065,367.233 154.065,367.233 C154.065,367.233 157.278,365.627 160.126,365.627 C164.507,365.627 167.573,368.255 169.91,368.255 L139.17,368.255 L139.17,368.328 Z" id="Path" fill="#242459"></path>
            <polygon id="Path" fill="#556FF2" points="329.013 386.511 441.386 386.511 399.766 391.258"></polygon>
            <path d="M188.456,40.8199 C188.456,40.8199 191.742,26.7995 204.009,26.7995 C216.275,26.7995 220.583,36.9497 220.583,36.9497 C220.583,36.9497 224.599,32.4222 230.66,32.4222 C242.269,32.4222 243.073,40.8199 249.717,40.8199 L188.456,40.8199 Z" id="Path" fill="#FFFFFF"></path>
            <path d="M515.571,349.415 C515.571,352.774 492.57,353.651 492.57,356.718 C492.57,359.785 520.901,363.874 531.05,372.856 L501.99,387.387 C493.447,371.541 459.202,364.239 459.202,358.543 C459.202,354.162 485.926,351.825 468.402,349.415 L515.571,349.415 Z" id="Path" fill="#FFFFFF"></path>
            <path d="M472.783,354.965 C459.348,357.813 470.446,362.341 472.856,361.245 C477.091,359.42 463.802,358.543 472.783,354.965 Z" id="Path" fill="#364AB2"></path>
            <path d="M526.45,354.235 C528.95,354.235 530.977,353.843 530.977,353.359 C530.977,352.875 528.95,352.482 526.45,352.482 C523.95,352.482 521.923,352.875 521.923,353.359 C521.923,353.843 523.95,354.235 526.45,354.235 Z" id="Path" fill="#FFFFFF"></path>
            <path d="M438.392,353.87 C439.706,347.809 439.414,343.355 435.033,339.192 C430.871,335.176 424.957,333.935 424.008,329.042 C422.329,339.63 429.484,345.472 433.719,346.421 C436.202,346.933 438.246,350 438.392,353.87 Z" id="Path" fill="#364AB2"></path>
            <path d="M438.976,350.73 C440.656,341.383 444.38,341.821 447.154,336.636 C449.929,331.452 444.526,318.235 451.316,314.145 C441.97,315.971 435.472,325.537 435.764,334.665 C435.91,342.332 438.684,341.821 438.976,350.73 Z" id="Path" fill="#364AB2"></path>
        </g>
    </g>
</svg>