<svg xmlns="http://www.w3.org/2000/svg" width="660" height="660"><defs><style>.cls-2{fill:#fff}.cls-3{fill:#141733}.cls-4{fill:#8adee5}.cls-5{fill:#3d55cc}.cls-6{fill:#17204c}.cls-7{fill:#ffb057}.cls-8{fill:#ffc785}.cls-9{fill:#364ab2}.cls-10{fill:#299ba6}.cls-11{fill:#33bfcc}.cls-12{fill:#50d9e5}.cls-14{fill:#556ff2}.cls-15{fill:#1f2a66}</style></defs><g id="Contact"><path fill="#242459" d="M470 580l-280 50V30h280v550z"/><path class="cls-2" d="M246.51 60.25S251.05 41 267.83 41a24.82 24.82 0 0122.7 13.92s5.5-6.2 13.84-6.2c15.91 0 17 11.51 26.14 11.51z"/><circle class="cls-3" cx="330" cy="330" r="240"/><path class="cls-4" d="M428 646a71.75 71.75 0 01-71.66-71.66V440h2v134.34a69.66 69.66 0 00139.32 0V440.09h2v134.25A71.75 71.75 0 01428 646z"/><path class="cls-5" d="M29 440h600l-439 84.96L29 440z"/><path class="cls-6" d="M29 440c41.07 0 44.51-64.55 83.34-64.55s-5.15-65.27 31.09-98.52 78.87 14.63 101 14.63 55.59-135.92 104-135.92 36.09 82.06 104 83.66c79.46 1.88 89.4 99.43 98.61 109.45s29.09 7.77 40.79 20.64S602.45 440 629.51 440z"/><path class="cls-7" d="M147.93 439.86c0-19-11.65-28.28-12.84-39.28s4.24-23.33 3-34.85-7.52-22.25-13.63-25.79-9.53-21.7-18.4-20.3-9.84 20.08-14.4 23.83-12.11 6.24-13 17.28 10.88 26.3 4.52 38.33-9 25.1-9 40.92z"/><path class="cls-8" d="M104.61 342.4c4.51 6.35 11.77 2.54 13.18 5.51s-6.56 10.76-5.45 27.54 15.89 13.28 25.21 33.12a25.89 25.89 0 01-2.46-8c-1.19-11 4.24-23.33 3-34.85s-7.52-22.25-13.63-25.79-9.53-21.7-18.4-20.3c.04.01-5.96 16.37-1.45 22.77z"/><path class="cls-5" d="M322.54 158.15a171.84 171.84 0 00-29.28-66.67l-15.21 1.7 9.18-9.65c-34.64-43.25-89-72.27-147.29-76.42C199 26.16 195.1 121.46 212.86 176l39.79 2.83-32 15.49a57.28 57.28 0 003.7 5.68c35.21 47 76.15 53.31 102.68 109.07-9.03-68.51 9.25-81.66-4.49-150.92z"/><path class="cls-9" d="M212.86 176l30.08 4.75-22.24 13.6a57.28 57.28 0 003.7 5.68c35.21 47 76.15 53.31 102.68 109.07-21.17-173-118.54-287-187.14-302C199 26.16 195.1 121.46 212.86 176z"/><ellipse class="cls-3" cx="226.43" cy="147.04" rx="4.68" ry="6.01" transform="rotate(-30.35 226.443 147.053)"/><path class="cls-6" d="M178.68 390.88c-11.77 0-20.17 21.27-35.25 21.27s-23.86-5.52-32.22-1.67S97.78 427.43 90 428.74s-18.15-7.39-31.15-5.74S45.17 440 29 440h283.18L295 381c-15.5 0-22.52 11.25-31.08 16s-13.75-3.72-24.09-1.36-18.66 14-29.5 12.36-19.47-17.12-31.65-17.12z"/><path class="cls-7" d="M601.56 375.12c-8.19 1.73-7.74 10.74-9.44 13.9s-5.55 3.38-7.3 9.61 2.77 11.54.64 19.15-6.38 9.92-6.38 22.22h45.29c0-13.07-9.15-15.69-5.35-25.95 3.18-8.56 4.55-13.2-4.22-23.89-3.15-3.84-4.31-16.93-13.24-15.04z"/><path class="cls-8" d="M619 414.05c3.18-8.56 4.55-13.2-4.22-23.89-3-3.66-4.2-15.76-12.08-15.2 0 13.08 9.91 17 10.77 19.4s-12.4 5-5.86 25.12c4 12.35 13.51 8.2 16.74 20.52.02-13.07-9.13-15.69-5.35-25.95z"/><path class="cls-6" d="M517.48 381.26c8.57 0 14.68 25.43 25.67 25.43s17.37-6.59 23.46-2S576.39 425 582 426.53s9-5.37 18.46-3.42 17.24 16.89 29 16.89H420.25l12.5-70.6c11.29 0 16.4 13.46 22.64 19.18s10-4.45 17.54-1.63 13.59 16.78 21.48 14.78 14.19-20.47 23.07-20.47z"/><path class="cls-10" d="M534.5 369.39h-5.81L526 401.91h14.53l-6.03-32.52z"/><ellipse class="cls-10" cx="529.09" cy="372.86" rx="1.61" ry="15.69" transform="rotate(-45 529.09 372.853)"/><path class="cls-10" transform="rotate(45 532.553 369.39)" d="M516.86 364.5h31.38v9.8h-31.38z"/><path class="cls-11" d="M576.08 390.48s-20.78 5.52-45.46-19.15-19.16-45.47-19.16-45.47z"/><ellipse class="cls-2" cx="543.77" cy="358.17" rx="3.36" ry="45.7" transform="rotate(-45 543.77 358.173)"/><path class="cls-2" transform="rotate(-87.37 563.353 359.412)" d="M545.06 358.41h36.6v2h-36.6z"/><path class="cls-2" transform="rotate(-2.63 542.72 338.701)" d="M524.23 337.59h36.6v2h-36.6z"/><path class="cls-2" transform="rotate(45 561.971 339.966)" d="M556.98 336.77h9.99v6.4h-9.99z"/><ellipse class="cls-2" cx="564.24" cy="337.7" rx=".37" ry="5" transform="rotate(-45 564.241 337.704)"/><ellipse class="cls-2" cx="559.71" cy="342.23" rx=".37" ry="5" transform="rotate(-45 559.707 342.232)"/><ellipse class="cls-2" cx="557.4" cy="344.54" rx=".25" ry="3" transform="rotate(-45 557.405 344.545)"/><path class="cls-2" transform="rotate(45 559.953 341.99)" d="M556.95 338.38h6.01v7.23h-6.01z"/><path class="cls-2" d="M527.06 369.39a5 5 0 00-4.89 4.18l-4.53 28.34h14.53l-.17-27.58a5 5 0 00-4.94-4.94z"/><path class="cls-12" d="M510.32 401.91h36.84v13.59h-36.84z"/><path class="cls-2" d="M479.09 415.5h99.98v3h-99.98z"/><path class="cls-2" d="M580.08 418.5h-2v-11.44H480.1v11.44h-2v-13.44h101.98v13.44z"/><path class="cls-2" d="M490.59 406.06h2v12.44h-2zM503.09 406.06h2v12.44h-2zM515.59 406.06h2v12.44h-2zM528.09 406.06h2v12.44h-2zM540.58 406.06h2v12.44h-2zM553.08 406.06h2v12.44h-2zM565.58 406.06h2v12.44h-2z"/><path class="cls-11" d="M486.51 418.5h84.6V440h-84.6z"/><path class="cls-6" d="M461.92 440h42.23c-7.33 0-11.51-5.76-17.64-5.76v-5.67c-12.71 0-15.3 11.43-24.59 11.43zM531.9 440c4.79 0 8.47-7.12 15-7.12s10.29 5.41 14.32 5.41 5.8-2.51 9.35-2.51 6 4.22 12.37 4.22z"/><path class="cls-10" d="M486.51 418.5h84.6v4h-84.6z"/><circle cx="526.92" cy="374.38" r="1.56" fill="#98d9d3"/><path class="cls-4" d="M576.37 338.59h-2a11 11 0 00-11-11v-2a13 13 0 0113 13z"/><path class="cls-4" d="M583.3 338.59h-2a18 18 0 00-17.94-17.95v-2a20 20 0 0119.94 19.95z"/><path class="cls-4" d="M589.9 338.59h-2A24.57 24.57 0 00563.36 314v-2a26.57 26.57 0 0126.54 26.59z"/><path class="cls-9" d="M378.22 283.43c24.12-44.41 57.85-47.78 88.68-84.65a45.28 45.28 0 003.27-4.48l-25.43-14.05 32.65-.57c16.9-43.82 17.86-121.88 67-134.86-47.86.84-93.52 22.18-123.71 56l7.08 8.29-12.36-2a140.74 140.74 0 00-26.85 53.2c-14.28 55.95.12 67.5-10.33 123.12z"/><path class="cls-5" d="M544.37 44.82c-56.72 9.26-141.28 98.12-166.15 238.61 24.12-44.41 57.85-47.78 88.68-84.65a45.28 45.28 0 003.27-4.48l-25.43-14.05 32.65-.57c16.9-43.82 17.86-121.88 66.98-134.86z"/><path class="cls-14" d="M375.18 285.61c12.79-22.21 48.1-2.26 89.57 13.48l13.11-8.87-6.25 11.4c40 14.38 84.72 22.65 120.18-14.92-14.66 5.38-28.44-.79-42.38-10.89l-11.22 4.5 4.92-9.29c-20.74-16.44-42.17-39-67.69-42.93-74.98-11.59-100.24 57.52-100.24 57.52zM500 296c.76-1.51 2.92-1.95 4.82-1s2.83 3 2.07 4.46-2.92 1.95-4.82 1-2.82-3.01-2.07-4.46z"/><path class="cls-5" d="M591.79 286.7c-68.2 47.79-144.19-90.91-199.51-28.87a101.21 101.21 0 00-17.1 27.78c12.79-22.21 48.1-2.26 89.57 13.48l13.11-8.87-6.25 11.4c39.99 14.38 84.72 22.65 120.18-14.92zm-84.89 12.72c-.76 1.51-2.92 1.95-4.82 1s-2.83-3-2.07-4.46 2.92-1.95 4.82-1 2.83 2.96 2.07 4.46zM211.12 218.56c-8.77.25-16.49.23-23.4 0l-9.61 7.2 2.73-7.49c-41.29-2.23-51.7-11.67-93.16-8.31 35 10 51.59 57.54 91.22 64.77l1.63.28 31.21-11.36-21.05 12.72c5.51.55 10.92.8 16.21.83l22-14.8-9.62 14.6c41-1.86 74.64-11.69 100.18 24.76-19.13-52.58-48.91-84.91-108.34-83.2z"/><path class="cls-9" d="M206.27 243.86C144.07 246 129.93 210.19 87.68 210c35 10 51.59 57.54 91.22 64.77l1.63.28 31.21-11.36-21.05 12.72c5.51.55 10.92.8 16.21.83l22-14.8-9.62 14.56c41-1.86 74.64-11.69 100.18 24.76-26.29-49.63-55.71-59.89-113.19-57.9z"/><path class="cls-6" d="M360.48 184.77c20.31-2.46 20.33 39.22 30.62 52.65s25.55-2.53 36.91 20.85-22.71 53.8-6.25 87.12 24 67.53 24 94.61H270.94c0-36.44 32.14-60.55 23.15-76.87s-12.94-42.92 2.37-63.71-9.46-46.87-.95-60.55 25.89-10.82 37.93-22.31 6.72-29.33 27.04-31.79z"/><path class="cls-15" d="M428 258.27c-11.36-23.38-26.62-7.43-36.91-20.85s-10.31-55.11-30.62-52.65c0 19.24-24.24 45.59-5.52 71.9s57.21 18.16 54.58 24.65-52 2.2-37.8 46.76 74 57.52 74 111.92c0-27.08-7.54-61.29-24-94.61s17.64-63.74 6.27-87.12z"/><path class="cls-9" d="M266.56 294.12c-.24-13.53-.94-19.43-.94-19.43l-.52-2.61-.55-1.36-2.07-2.33-45.48 4.13 6.89 23.89z"/><path class="cls-2" d="M355.59 316l-17.08 1.41v-8.82l17.08 1.41a3 3 0 012.76 3 3 3 0 01-2.76 3zM296.57 328.37h-98.11c-7 40-28.85 47.88-38.52 47.88h175.15c-9.67 0-31.52-7.88-38.52-47.88z"/><path class="cls-11" d="M348.43 440h-205v-47.24a16.52 16.52 0 0116.51-16.51h172a16.52 16.52 0 0116.51 16.51z"/><path class="cls-6" d="M118.09 440c8.34 0 14.72-12.24 26-12.24s17.91 9.41 24.91 9.41 10.06-4.36 16.23-4.36 10.35 7.19 21.45 7.19z"/><path class="cls-11" d="M346.22 317l-4.31-15.24a8.58 8.58 0 00-3.07-4.57c-8-6-37.48-24.84-91.32-24.84s-83.3 18.82-91.33 24.84a8.63 8.63 0 00-3.07 4.57L148.81 317c-.85 3 .86 6.15 3.65 6.74l29.33 6.14a4.74 4.74 0 005.43-3.68l3.06-11.42a6.08 6.08 0 013.72-4.28c6.6-2.39 24.52-7.69 53.53-7.69s46.92 5.3 53.52 7.69a6.06 6.06 0 013.71 4.24l3.06 11.42a4.74 4.74 0 005.44 3.68l29.32-6.14c2.78-.59 4.49-3.7 3.64-6.7z"/><path class="cls-10" d="M247.52 300.21c-43.67.58-54.14 9.75-55.78 11.81a5.62 5.62 0 012.26-1.52c6.6-2.39 24.52-7.69 53.53-7.69s46.92 5.3 53.52 7.69a5.55 5.55 0 012.25 1.52c-1.65-2.02-12.12-11.23-55.78-11.81z"/><path class="cls-2" d="M291.18 298a5.58 5.58 0 015.58 5.58v25.84H285.6v-25.83a5.58 5.58 0 015.58-5.59zM203.85 298a5.58 5.58 0 015.58 5.58v25.84h-11.16v-25.83a5.58 5.58 0 015.58-5.59z"/><path class="cls-10" d="M296.29 330.57c5.89 16.24-15.32 32.58-48.78 32.58s-54.67-16.34-48.78-32.58c4.74-13.08 26.23-21.95 48.78-21.95s44.04 8.87 48.78 21.95z"/><path class="cls-4" d="M296.29 327.57c5.89 16.24-15.32 32.58-48.78 32.58s-54.67-16.34-48.78-32.58c4.74-13.08 26.23-21.95 48.78-21.95s44.04 8.87 48.78 21.95z"/><path class="cls-2" d="M268.74 327.57c1 6.61-8.42 12.47-21.23 12.47s-22.27-5.86-21.23-12.47c.95-6 10.42-10.52 21.23-10.52s20.28 4.5 21.23 10.52z"/><path class="cls-2" d="M268.74 327.57c1 6.61-8.42 12.47-21.23 12.47s-22.27-5.86-21.23-12.47c.95-6 10.42-10.52 21.23-10.52s20.28 4.5 21.23 10.52z"/><path class="cls-10" d="M255.09 350c.13 2.67-3.26 4.9-7.58 4.9s-7.7-2.23-7.58-4.9 3.52-4.61 7.58-4.61 7.49 1.98 7.58 4.61zM236.32 349.43c-2 2.39-6.7 3.41-10.38 2.24s-4.74-4-2.59-6.23 6.52-3.1 10-2.07 4.92 3.75 2.97 6.06zM220.75 344.08c-3.45 1.53-8 1.21-10.08-.7s-.83-4.49 2.54-5.89 7.61-1.09 9.7.64 1.22 4.44-2.16 5.95zM212.15 335.73c-3.84.48-7.15-.84-7.37-2.9s2.61-3.94 6.26-4.37 6.86.75 7.26 2.71-2.3 4.07-6.15 4.56zM211.5 326.73c-3.36-.42-5-2.23-3.64-4s4.88-2.79 8.09-2.41 5 2.1 3.81 3.86-4.89 2.97-8.26 2.55zM217.59 319c-2.36-1.05-2.31-2.91 0-4.16a11.08 11.08 0 018.34-.46c2.38 1 2.52 2.83.24 4.13a10.85 10.85 0 01-8.58.49zM228.37 313.47c-1.16-1.38.29-3 3.2-3.63s6.18-.09 7.44 1.24 0 3-3 3.7-6.45.09-7.64-1.31zM241.77 310.78c.07-1.46 2.61-2.62 5.68-2.62s5.62 1.15 5.69 2.61-2.46 2.74-5.68 2.74-5.76-1.23-5.69-2.73zM255.9 311.06c1.25-1.32 4.55-1.87 7.43-1.25s4.38 2.25 3.22 3.62-4.62 2-7.63 1.33-4.3-2.34-3.02-3.7zM271.78 345.39c2.16 2.26 1.07 5.07-2.55 6.23s-8.37.17-10.39-2.21-.62-5 2.92-6.06 7.92-.15 10.02 2.04z"/><path class="cls-2" d="M262.91 347.3c-.12-1.25.63-1.86 2.26-1.86s2.52.61 2.68 1.86-.58 1.91-2.24 1.91-2.61-.64-2.7-1.91zm3.3.88a1.33 1.33 0 00.11-.88 1.5 1.5 0 00-.33-.87.94.94 0 00-.74-.26.77.77 0 00-.68.26 1.23 1.23 0 00-.12.87 1.47 1.47 0 00.32.88 1 1 0 00.75.27.8.8 0 00.69-.27zM249.28 348.52a1.75 1.75 0 01.66 1.45 1.67 1.67 0 01-.65 1.48 3.24 3.24 0 01-1.92.48 4 4 0 01-1.4-.21 1.55 1.55 0 01-.83-.63l1.42-.36a.73.73 0 00.27.33 1.22 1.22 0 00.57.11 1 1 0 001.12-1.09V350a.8.8 0 01-.52.37 2.94 2.94 0 01-.93.13 3.12 3.12 0 01-1-.15 1.7 1.7 0 01-.71-.42.92.92 0 01-.25-.63 1.08 1.08 0 01.63-.94 3.67 3.67 0 011.72-.33 3 3 0 011.82.49zm-2.52.39a.41.41 0 000 .74 1.21 1.21 0 00.63.13 1.23 1.23 0 00.63-.13.42.42 0 00.23-.37.43.43 0 00-.23-.37 1.35 1.35 0 00-.63-.13 1.23 1.23 0 00-.63.13zM231.55 345.82c.38.18.55.42.52.74a.71.71 0 01-.3.49 1.83 1.83 0 01-.73.31 1.69 1.69 0 01.81.34.62.62 0 01.24.56c0 .32-.28.58-.73.77a4.82 4.82 0 01-1.83.28 4.28 4.28 0 01-1.75-.28c-.42-.19-.6-.45-.56-.77a.8.8 0 01.37-.56 2.1 2.1 0 01.88-.34 1.36 1.36 0 01-.65-.31.55.55 0 01-.19-.49c0-.32.27-.56.69-.74a4.22 4.22 0 011.64-.27 3.76 3.76 0 011.59.27zm-1.24 2.67a.46.46 0 00.28-.34.34.34 0 00-.21-.34 1.47 1.47 0 00-.66-.12 1.68 1.68 0 00-.69.12.43.43 0 00-.28.34.33.33 0 00.2.34 1.5 1.5 0 00.66.12 1.73 1.73 0 00.7-.12zm-1-2.15a.36.36 0 00-.24.31.28.28 0 00.17.3 1.08 1.08 0 00.56.12 1.26 1.26 0 00.59-.12.39.39 0 00.25-.3.3.3 0 00-.18-.31 1.22 1.22 0 00-.57-.11 1.33 1.33 0 00-.59.11zM219.56 339.05l-.12.61a5.31 5.31 0 00-1.68 1.24 3.38 3.38 0 00-.73 1.51h-1.48a3.14 3.14 0 01.76-1.45 5.8 5.8 0 011.68-1.23h-3.21l.15-.68zM213.87 331.13l-1.22.29c-.05-.23-.29-.34-.72-.34a1.34 1.34 0 00-.79.24 1 1 0 00-.45.63v.07a1.34 1.34 0 01.56-.29 3 3 0 01.84-.1 2.86 2.86 0 01.87.12 1.1 1.1 0 01.54.32.53.53 0 01.1.49 1.11 1.11 0 01-.72.72 4.06 4.06 0 01-1.6.26 2.49 2.49 0 01-1.57-.39 1 1 0 01-.27-1.15 1.67 1.67 0 01.54-.85 2.46 2.46 0 011-.51 4.45 4.45 0 011.25-.16c.91 0 1.47.21 1.64.65zm-2.81 1.13a.47.47 0 00-.28.29.26.26 0 00.13.3 1.09 1.09 0 00.53.1 1.44 1.44 0 00.6-.1.44.44 0 00.27-.3.24.24 0 00-.12-.29 1.09 1.09 0 00-.54-.11 1.48 1.48 0 00-.59.11zM215.08 323.15a1 1 0 01.47.28.44.44 0 01.09.41.88.88 0 01-.39.53 2.32 2.32 0 01-.78.32 4.83 4.83 0 01-1 .1 4.52 4.52 0 01-1.14-.12 1.47 1.47 0 01-.7-.41l1.25-.34a.36.36 0 00.19.26 1.21 1.21 0 00.55.09 1.45 1.45 0 00.59-.1.42.42 0 00.27-.28.22.22 0 00-.12-.27 1.12 1.12 0 00-.55-.1 1.71 1.71 0 00-.84.16l-1-.08.71-1.47h3.11l-.13.52h-2.17l-.24.49s-.05.08-.07.09a2 2 0 01.46-.13 4 4 0 01.62-.05 2.74 2.74 0 01.82.1zM223.84 317.26h-.73l-.1.53h-1.11l.11-.53h-2.41l.06-.29 2.37-1.54h1.44l-.28 1.41h.73zm-3-.42h1.24l.13-.63.11-.38a3.73 3.73 0 01-.5.38zM235.12 311.3c.27.11.4.26.38.45a.4.4 0 01-.17.28 1.46 1.46 0 01-.38.17 1.81 1.81 0 01-.36.05 1.53 1.53 0 01.41.05.85.85 0 01.36.16.3.3 0 01.13.29.47.47 0 01-.26.33 2.27 2.27 0 01-.67.23 5.2 5.2 0 01-.93.08 4.53 4.53 0 01-1.18-.13.94.94 0 01-.58-.42l1.12-.23a.28.28 0 00.18.25 1.3 1.3 0 00.5.08 1.28 1.28 0 00.48-.07.26.26 0 00.19-.19c0-.09 0-.15-.15-.19a1.52 1.52 0 00-.51-.06h-.26l.05-.36h.2a1.5 1.5 0 00.49-.06.24.24 0 00.18-.2c0-.08 0-.14-.13-.18a1 1 0 00-.39-.06c-.38 0-.61.09-.67.29l-1-.17a1 1 0 01.64-.42 4.38 4.38 0 011.18-.14 3.55 3.55 0 011.15.17zM245.82 311.51a11.91 11.91 0 001.67-.6c.34-.18.51-.34.51-.49a.24.24 0 00-.16-.21 1.1 1.1 0 00-.45-.08 1 1 0 00-.51.11.4.4 0 00-.19.33l-1-.15c0-.23.18-.41.51-.53a3.45 3.45 0 011.26-.19 3.64 3.64 0 01.95.1 1.38 1.38 0 01.57.25.44.44 0 01.19.33c0 .2-.15.38-.47.55a7.59 7.59 0 01-1.45.52h2v.43h-3.44zM262 311l.27 2.19h-1.17l-.1-1.59a3.26 3.26 0 01-1 .27l-.16-.46a4.07 4.07 0 00.77-.14 1.76 1.76 0 00.58-.23z"/><path class="cls-4" d="M358.21 440h-2c0-20.32 14.53-29 26.21-36 7.13-4.27 13.29-8 15.34-13.32 3-7.83-10.18-13.89-22.92-19.76-9.84-4.53-19.13-8.81-21.44-14.11-3.06-7 5.23-12 13.24-16.77 6.73-4 13.68-8.18 13.68-13.18 0-12.43-23.34-12.79-26-12.79v-2c4.67 0 28 .71 28 14.79 0 6.13-7.45 10.59-14.65 14.9-7.61 4.55-14.79 8.85-12.44 14.25 2 4.61 11.38 8.92 20.45 13.1 13.57 6.25 27.61 12.71 23.94 22.29-2.29 6-9 10-16.18 14.32-11.82 7.05-25.23 15.08-25.23 34.28z"/><path class="cls-12" d="M338.84 297.15c-8-6-37.48-24.84-91.32-24.84s-83.3 18.82-91.33 24.84a8.63 8.63 0 00-3.07 4.57c1.24-3.26 31.15-23.93 94.4-23.93 63.24 0 93.15 20.67 94.39 23.93a8.58 8.58 0 00-3.07-4.57z"/><path class="cls-4" d="M219.86 395.76h54.3v41.4h-54.3z"/><path class="cls-10" d="M246.51 395.76h1v41.4h-1zM261.36 414.83v13.7h-4.86v7.8h17.66v-21.5h-12.8zM234.4 400v-4.24h-1V400a5.17 5.17 0 101 0z"/><path class="cls-4" d="M162.39 407.94h43.24v10.77h-43.24z"/><path class="cls-2" d="M151.19 395.76h2V440h-2zM107.11 395.76h2V440h-2zM102.11 389.76h198.94v6H102.11zM294.05 395.76h2V440h-2zM197.95 395.76h2V440h-2z"/><path class="cls-4" d="M312.18 395.76h36.25v36.25h-36.25z"/><path class="cls-10" d="M318.44 423.79h24.33v8.23h-24.33zM327.63 402.55h2.03v6.7h-2.03zM330.26 399.2h2.03v6.7h-2.03zM332.89 404.2h2.03v6.7h-2.03z"/><path class="cls-2" d="M278.36 438.16v-1.83h-62.7v1.83h-5v1.83h72.7v-1.83h-5z"/><path class="cls-6" d="M77.17 369.59c-8 1.88-7.55 11.66-9.22 15.09s-5.41 3.66-7.13 10.42 2.71 12.53.63 20.79-6.23 10.76-6.23 24.11h44.23c0-14.18-8.94-17-5.22-28.16 3.1-9.29 4.44-14.32-4.13-25.93-3.1-4.16-4.2-18.37-12.93-16.32z"/><path class="cls-15" d="M94.23 411.84c3.1-9.29 4.44-14.32-4.13-25.93-2.93-4-4.1-17.1-11.8-16.49 0 7-5 10.51-1 16s8.22 4.44 9.38 7.94-13.54 13.55-8.87 24.88 18.45 8.4 21.61 21.77c.03-14.19-8.91-17.01-5.19-28.17z"/><path class="cls-8" d="M557.4 240.33a59.5 59.5 0 1159.5-59.5 59.57 59.57 0 01-59.5 59.5zm0-116a56.5 56.5 0 1056.5 56.5 56.56 56.56 0 00-56.5-56.5z"/><path class="cls-2" d="M335.23 76s4.71-7.12 12.83-7.12a18.07 18.07 0 0112.83 5.31s5.49-2.71 10.46-2.71c7.5 0 12.9 4.52 16.91 4.52z"/><path class="cls-5" d="M443.76 451c1.83-8.34 1.42-14.36-4.63-20.14-5.7-5.45-13.83-7.19-15.05-13.87-2.26 14.49 7.49 22.53 13.26 23.77 3.38.67 6.19 4.93 6.42 10.24z"/><path class="cls-5" d="M444.48 446.69c2.27-12.79 7.36-12.16 11.15-19.28s-3.6-25.2 5.66-30.79c-12.8 2.48-21.72 15.58-21.29 28.07.37 10.49 4.08 9.74 4.48 22z"/><path class="cls-6" d="M484 448.35c-2.5 0-4.91-3.32-8.47-3.32a10.66 10.66 0 00-6.34 2.47 13.43 13.43 0 00-4.92-1.26c-2.31 0-5.35 2.11-8.31 2.11z"/><path class="cls-14" d="M323.6 466.81l43.35 7.57 127.03-15.73-170.38 8.16zM85.61 456.17l80.27 5.21-50.25 4.95-30.02-10.16z"/><path class="cls-6" d="M212.85 480.15s-3.73-5.66-10.18-5.66a14.34 14.34 0 00-10.19 4.22 22.14 22.14 0 00-8.31-2.16c-5.95 0-10.24 3.6-13.42 3.6z"/><path class="cls-9" d="M102.93 440.11l21.43 4.52h221.46l19.43-4.52H102.93z"/><ellipse class="cls-9" cx="296.05" cy="467.98" rx="17.16" ry="1.65"/><path class="cls-6" d="M287.12 434.89l17.86 4.64-5.58-27.42-7.73 2.93-4.55 19.85z"/><path class="cls-6" d="M290.07 435.26l5.48 32.72h1.6l4.69-31.22-11.77-1.5zM291.9 403.76c-2.09 2.88.61 8.92.61 8.92l1.39-.41-.85 4.68 3.35-.48s2.42-10.36.64-12.88c-1.04-1.53-4.19-1.14-5.14.17zM197.96 297.82l2-12.15 11.59-2.24-1.87 11.86-9.62 4.91-2.1-2.38z"/><path class="cls-14" d="M213.83 267.85c-22 13.16-15.36 52.34-54.28 64.73 46 6.57 70.69-24.19 85.4-45.22l-8.7-1.79 11.42-2.14c5.78-8.4 9.86-14.46 13.16-14.46a4.15 4.15 0 014.27 3.11c-2.1-10.74-36.1-13.31-51.27-4.23zm-9.44 24.95c-.71 1.76-2.17 2.83-3.26 2.39s-1.39-2.23-.68-4 2.17-2.83 3.26-2.39 1.39 2.2.68 4z"/><path class="cls-5" d="M245 287.36l-8.7-1.79 11.42-2.14c5.78-8.4 9.86-14.46 13.16-14.46a4.15 4.15 0 014.27 3.11c-1-5-8.87-8.22-18.53-9.33l-.48-.05c-.31 0-.64-.06-1-.09-34-3.16-26.45 66.73-85.58 70 46.04 6.54 70.68-24.22 85.44-45.25z"/></g><g id="About"><path class="cls-14" d="M160.05 644.73v-3c3.14 0 4.67-1.47 6.45-3.17 1.95-1.88 4.17-4 8.52-4s6.56 2.13 8.52 4c1.78 1.7 3.31 3.17 6.45 3.17s4.67-1.47 6.44-3.17c2-1.88 4.18-4 8.52-4s6.57 2.13 8.53 4c1.77 1.7 3.3 3.17 6.44 3.17s4.67-1.47 6.44-3.17c2-1.88 4.18-4 8.52-4s6.56 2.13 8.52 4c1.78 1.7 3.31 3.17 6.45 3.17v3c-4.35 0-6.57-2.13-8.53-4-1.77-1.7-3.3-3.17-6.44-3.17s-4.67 1.47-6.44 3.17c-2 1.88-4.18 4-8.52 4s-6.56-2.13-8.52-4c-1.77-1.7-3.31-3.17-6.45-3.17s-4.67 1.47-6.44 3.17c-2 1.88-4.18 4-8.52 4s-6.57-2.13-8.53-4c-1.77-1.7-3.3-3.17-6.44-3.17s-4.67 1.47-6.45 3.17c-1.96 1.87-4.18 4-8.52 4zM160.05 630v-3c3.14 0 4.67-1.47 6.45-3.17 1.95-1.88 4.17-4 8.52-4s6.56 2.13 8.52 4c1.78 1.7 3.31 3.17 6.45 3.17s4.67-1.47 6.44-3.17c2-1.88 4.18-4 8.52-4s6.57 2.13 8.53 4c1.77 1.7 3.3 3.17 6.44 3.17s4.67-1.47 6.44-3.17c2-1.88 4.18-4 8.52-4s6.56 2.13 8.52 4c1.78 1.7 3.31 3.17 6.45 3.17v3c-4.35 0-6.57-2.13-8.53-4-1.77-1.7-3.3-3.17-6.44-3.17s-4.67 1.47-6.44 3.17c-2 1.88-4.18 4-8.52 4s-6.56-2.13-8.52-4c-1.77-1.7-3.31-3.17-6.45-3.17s-4.67 1.47-6.44 3.17c-2 1.88-4.18 4-8.52 4s-6.57-2.13-8.53-4c-1.77-1.7-3.3-3.17-6.44-3.17s-4.67 1.47-6.45 3.17c-1.96 1.86-4.18 4-8.52 4zM160.05 615.25v-3c3.14 0 4.67-1.47 6.45-3.18 1.95-1.88 4.17-4 8.52-4s6.56 2.13 8.52 4c1.78 1.71 3.31 3.18 6.45 3.18s4.67-1.47 6.44-3.18c2-1.88 4.18-4 8.52-4s6.57 2.13 8.53 4c1.77 1.71 3.3 3.18 6.44 3.18s4.67-1.47 6.44-3.18c2-1.88 4.18-4 8.52-4s6.56 2.13 8.52 4c1.78 1.71 3.31 3.18 6.45 3.18v3c-4.35 0-6.57-2.13-8.53-4-1.77-1.71-3.3-3.18-6.44-3.18s-4.67 1.47-6.44 3.18c-2 1.88-4.18 4-8.52 4s-6.56-2.13-8.52-4c-1.77-1.71-3.31-3.18-6.45-3.18s-4.67 1.47-6.44 3.18c-2 1.88-4.18 4-8.52 4s-6.57-2.13-8.53-4c-1.77-1.71-3.3-3.18-6.44-3.18s-4.67 1.47-6.45 3.18c-1.96 1.87-4.18 4-8.52 4zM160.05 600.5v-3c3.14 0 4.67-1.47 6.45-3.17 1.95-1.88 4.17-4 8.52-4s6.56 2.13 8.52 4c1.78 1.7 3.31 3.17 6.45 3.17s4.67-1.47 6.44-3.17c2-1.88 4.18-4 8.52-4s6.57 2.13 8.53 4c1.77 1.7 3.3 3.17 6.44 3.17s4.67-1.47 6.44-3.17c2-1.88 4.18-4 8.52-4s6.56 2.13 8.52 4c1.78 1.7 3.31 3.17 6.45 3.17v3c-4.35 0-6.57-2.13-8.53-4-1.77-1.7-3.3-3.17-6.44-3.17s-4.67 1.47-6.44 3.17c-2 1.88-4.18 4-8.52 4s-6.56-2.13-8.52-4c-1.77-1.7-3.31-3.17-6.45-3.17s-4.67 1.47-6.44 3.17c-2 1.88-4.18 4-8.52 4s-6.57-2.13-8.53-4c-1.77-1.7-3.3-3.17-6.44-3.17s-4.67 1.47-6.45 3.17c-1.96 1.87-4.17 4-8.52 4zM160.05 585.76v-3c3.14 0 4.67-1.47 6.45-3.17 1.95-1.88 4.17-4 8.52-4s6.56 2.13 8.52 4c1.78 1.7 3.31 3.17 6.45 3.17s4.67-1.47 6.44-3.17c2-1.88 4.18-4 8.52-4s6.57 2.13 8.53 4c1.77 1.7 3.3 3.17 6.44 3.17s4.67-1.47 6.44-3.17c2-1.88 4.18-4 8.52-4s6.56 2.13 8.52 4c1.78 1.7 3.31 3.17 6.45 3.17v3c-4.35 0-6.57-2.13-8.53-4-1.77-1.7-3.3-3.17-6.44-3.17s-4.67 1.47-6.44 3.17c-2 1.88-4.18 4-8.52 4s-6.56-2.13-8.52-4c-1.77-1.7-3.31-3.17-6.45-3.17s-4.67 1.47-6.44 3.17c-2 1.88-4.18 4-8.52 4s-6.57-2.13-8.53-4c-1.77-1.7-3.3-3.17-6.44-3.17s-4.67 1.47-6.45 3.17c-1.96 1.87-4.18 4-8.52 4z"/><circle class="cls-12" cx="181.49" cy="103.28" r="2.46"/><circle class="cls-12" cx="181.49" cy="115.62" r="2.46"/><circle class="cls-12" cx="169.15" cy="103.28" r="2.46"/><circle class="cls-12" cx="169.15" cy="115.62" r="2.46"/><circle class="cls-12" cx="181.49" cy="127.96" r="2.46"/><circle class="cls-12" cx="169.15" cy="127.96" r="2.46"/><circle class="cls-12" cx="181.49" cy="140.3" r="2.46"/><circle class="cls-12" cx="169.15" cy="140.3" r="2.46"/><circle class="cls-12" cx="181.49" cy="152.64" r="2.46"/><circle class="cls-12" cx="169.15" cy="152.64" r="2.46"/><circle class="cls-12" cx="181.49" cy="164.98" r="2.46"/><circle class="cls-12" cx="169.15" cy="164.98" r="2.46"/><circle class="cls-12" cx="181.49" cy="177.31" r="2.46"/><circle class="cls-12" cx="169.15" cy="177.31" r="2.46"/><circle class="cls-12" cx="156.82" cy="103.28" r="2.46"/><circle class="cls-12" cx="156.82" cy="115.62" r="2.46"/><circle class="cls-12" cx="144.48" cy="103.28" r="2.46"/><circle class="cls-12" cx="144.48" cy="115.62" r="2.46"/><circle class="cls-12" cx="156.82" cy="127.96" r="2.46"/><circle class="cls-12" cx="144.48" cy="127.96" r="2.46"/><circle class="cls-12" cx="156.82" cy="140.3" r="2.46"/><circle class="cls-12" cx="144.48" cy="140.3" r="2.46"/><circle class="cls-12" cx="156.82" cy="152.64" r="2.46"/><circle class="cls-12" cx="144.48" cy="152.64" r="2.46"/><circle class="cls-12" cx="156.82" cy="164.98" r="2.46"/><circle class="cls-12" cx="144.48" cy="164.98" r="2.46"/><circle class="cls-12" cx="156.82" cy="177.31" r="2.46"/><circle class="cls-12" cx="132.14" cy="103.28" r="2.46"/><circle class="cls-12" cx="132.14" cy="115.62" r="2.46"/><circle class="cls-12" cx="132.14" cy="127.96" r="2.46"/><circle class="cls-12" cx="132.14" cy="140.3" r="2.46"/><circle class="cls-12" cx="132.14" cy="152.64" r="2.46"/><circle class="cls-12" cx="132.14" cy="164.98" r="2.46"/><circle class="cls-12" cx="144.48" cy="177.31" r="2.46"/><circle class="cls-12" cx="132.14" cy="177.31" r="2.46"/><circle class="cls-12" cx="119.8" cy="103.28" r="2.46"/><circle class="cls-12" cx="119.8" cy="115.62" r="2.46"/><circle class="cls-12" cx="107.46" cy="103.28" r="2.46"/><circle class="cls-12" cx="107.46" cy="115.62" r="2.46"/><circle class="cls-12" cx="119.8" cy="127.96" r="2.46"/><circle class="cls-12" cx="107.46" cy="127.96" r="2.46"/><circle class="cls-12" cx="119.8" cy="140.3" r="2.46"/><circle class="cls-12" cx="107.46" cy="140.3" r="2.46"/><circle class="cls-12" cx="119.8" cy="152.64" r="2.46"/><circle class="cls-12" cx="107.46" cy="152.64" r="2.46"/><circle class="cls-12" cx="119.8" cy="164.98" r="2.46"/><circle class="cls-12" cx="107.46" cy="164.98" r="2.46"/><circle class="cls-12" cx="119.8" cy="177.31" r="2.46"/><circle class="cls-12" cx="107.46" cy="177.31" r="2.46"/><circle class="cls-12" cx="95.12" cy="103.28" r="2.46"/><circle class="cls-12" cx="95.12" cy="115.62" r="2.46"/><circle class="cls-12" cx="95.12" cy="127.96" r="2.46"/><circle class="cls-12" cx="95.12" cy="140.3" r="2.46"/><circle class="cls-12" cx="95.12" cy="152.64" r="2.46"/><circle class="cls-12" cx="95.12" cy="164.98" r="2.46"/><circle class="cls-12" cx="95.12" cy="177.31" r="2.46"/></g></svg>