<svg xmlns="http://www.w3.org/2000/svg" width="660" height="660"><defs><style>.a{fill:#242459}.r,.u{fill:none;stroke-miterlimit:10}.c{fill:#3d55cc}.d,.w{fill:#364ab2}.e{fill:#556ff2}.f{fill:#ffb057}.g{fill:#ffc785}.h{fill:#141733}.i,.o{fill:#fff}.j{fill:#17204c}.l{fill:#50d9e5}.m{fill:#1f2a66}.n,.s{fill:#299ba6}.o{opacity:.4}.p{fill:#261773}.q{fill:#33bfcc}.r{stroke:#ffc785;stroke-width:3px}.s,.w{fill-rule:evenodd}.t{fill:#8adee5}.u{stroke:#364ab2}</style></defs><path class="a" d="M470 630l-280-45.31V30h280v600z"/><path stroke="#556ff2" fill="none" stroke-miterlimit="10" d="M345.44 64.26V16.25"/><path class="c" d="M357.52 22.86h17.91l-4.7 7.16 4.7 7.15h-17.91V22.86z"/><path class="d" d="M357.52 22.86l5.82-3.94v14.31l-5.82 3.94V22.86z"/><path class="e" d="M345.44 18.92h17.9v14.31h-17.9z"/><path class="f" d="M595.87 367c-9.74 1.95-9.2 12.09-11.23 15.64s-6.6 3.8-8.68 10.81 3.29 13 .75 21.55-7.58 11.15-7.58 25H623c0-14.7-10.88-17.65-6.36-29.18 3.78-9.64 5.41-14.86-5-26.88-3.77-4.32-5.14-19.05-15.77-16.94z"/><path class="g" d="M616.64 410.82c3.78-9.64 5.41-14.86-5-26.88-3.58-4.12-5-17.73-14.37-17.1 0 14.71 11.79 19.11 12.81 21.82s-14.75 5.62-7 28.26c4.77 13.89 16.07 9.22 19.91 23.08.01-14.7-10.87-17.65-6.35-29.18z"/><circle class="h" cx="330" cy="330" r="240"/><path class="a" d="M91.81 439.82c90.52 0 83.18-239.32 155.69-239.32 59.25 0 72.27 239.5 121.87 239.5zM409.84 139.91c50.07 0 69.5 153.36 69.5 153.36l-112.93-21-2.3-76.76s15.79-55.6 45.73-55.6z"/><path class="a" d="M482.48 340.91h-301.3c39.06 0 78.23-78 92.56-167.39s45-118 71.37-118h.44c38.85.34 59.8 47 72.95 130.78 5.66 36 13.26 69.58 22.22 96.15 11.96 35.42 26.33 58.46 41.76 58.46z"/><path class="i" d="M297.47 113.54c8.67-3.33 14.17 14 25.84 11.26s18.12-43.59 25.06-44.26 3.84 19.09 9 19 3.31-14.75 8.3-19.07c3.83-3.31 21-.94 28.59 14.2-12.19-25.67-28-39.24-49.12-39.24-24.31 0-52.34 24.43-67.78 98.47.03-.14 11.47-37.04 20.11-40.36z"/><path class="j" d="M629 440c-43.52 0-13-37.23-52.44-37.23s-46.44-117.91-71.48-138.27-64.07-9.73-86.59-9.73-45.78-70.66-97.56-65.59-44.2 67.56-104.32 81.55-58.91 96.34-68.27 106.6-21.24-4.7-38.42 4.42S60.38 440 32.88 440z"/><path d="M440.72 282.42h-42.6c-26 0-15.61-225.17-52.57-226.93 38.85.34 59.8 47 72.95 130.78 5.66 36.03 13.26 69.58 22.22 96.15z" fill="#0c0e1f" opacity=".15"/><circle class="e" cx="224.33" cy="553.93" r="2.46"/><circle class="e" cx="236.67" cy="553.93" r="2.46"/><circle class="e" cx="224.33" cy="566.27" r="2.46"/><circle class="e" cx="236.67" cy="566.27" r="2.46"/><circle class="e" cx="249.01" cy="553.93" r="2.46"/><circle class="e" cx="249.01" cy="566.27" r="2.46"/><circle class="e" cx="261.35" cy="553.93" r="2.46"/><circle class="e" cx="261.35" cy="566.27" r="2.46"/><circle class="e" cx="273.69" cy="553.93" r="2.46"/><circle class="e" cx="273.69" cy="566.27" r="2.46"/><circle class="e" cx="286.03" cy="553.93" r="2.46"/><circle class="e" cx="286.03" cy="566.27" r="2.46"/><circle class="e" cx="298.37" cy="553.93" r="2.46"/><circle class="e" cx="298.37" cy="566.27" r="2.46"/><circle class="e" cx="224.33" cy="578.61" r="2.46"/><circle class="e" cx="236.67" cy="578.61" r="2.46"/><circle class="e" cx="224.33" cy="590.94" r="2.46"/><circle class="e" cx="236.67" cy="590.94" r="2.46"/><circle class="e" cx="249.01" cy="578.61" r="2.46"/><circle class="e" cx="249.01" cy="590.94" r="2.46"/><circle class="e" cx="261.35" cy="578.61" r="2.46"/><circle class="e" cx="261.35" cy="590.94" r="2.46"/><circle class="e" cx="273.69" cy="578.61" r="2.46"/><circle class="e" cx="273.69" cy="590.94" r="2.46"/><circle class="e" cx="286.03" cy="578.61" r="2.46"/><circle class="e" cx="286.03" cy="590.94" r="2.46"/><circle class="e" cx="298.37" cy="578.61" r="2.46"/><circle class="e" cx="224.33" cy="603.28" r="2.46"/><circle class="e" cx="236.67" cy="603.28" r="2.46"/><circle class="e" cx="249.01" cy="603.28" r="2.46"/><circle class="e" cx="261.35" cy="603.28" r="2.46"/><circle class="e" cx="273.69" cy="603.28" r="2.46"/><circle class="e" cx="286.03" cy="603.28" r="2.46"/><circle class="e" cx="298.37" cy="590.94" r="2.46"/><circle class="e" cx="298.37" cy="603.28" r="2.46"/><circle class="e" cx="224.33" cy="615.62" r="2.46"/><circle class="e" cx="236.67" cy="615.62" r="2.46"/><circle class="e" cx="224.33" cy="627.96" r="2.46"/><circle class="e" cx="236.67" cy="627.96" r="2.46"/><circle class="e" cx="249.01" cy="615.62" r="2.46"/><circle class="e" cx="249.01" cy="627.96" r="2.46"/><circle class="e" cx="261.35" cy="615.62" r="2.46"/><circle class="e" cx="261.35" cy="627.96" r="2.46"/><circle class="e" cx="273.69" cy="615.62" r="2.46"/><circle class="e" cx="273.69" cy="627.96" r="2.46"/><circle class="e" cx="286.03" cy="615.62" r="2.46"/><circle class="e" cx="286.03" cy="627.96" r="2.46"/><circle class="e" cx="298.37" cy="615.62" r="2.46"/><circle class="e" cx="298.37" cy="627.96" r="2.46"/><circle class="e" cx="224.33" cy="640.3" r="2.46"/><circle class="e" cx="236.67" cy="640.3" r="2.46"/><circle class="e" cx="249.01" cy="640.3" r="2.46"/><circle class="e" cx="261.35" cy="640.3" r="2.46"/><circle class="e" cx="273.69" cy="640.3" r="2.46"/><circle class="e" cx="286.03" cy="640.3" r="2.46"/><circle class="e" cx="298.37" cy="640.3" r="2.46"/><path class="l" d="M445.65 547.92a53.59 53.59 0 01-53.53-53.53V440h2v54.37a51.53 51.53 0 00103.06 0v-54.56h2v54.58a53.59 53.59 0 01-53.53 53.53z"/><path class="l" d="M406.1 658.89a24.86 24.86 0 01-24.82-24.82V440.31h2v193.76a22.82 22.82 0 1045.63 0V439.88h2v194.19a24.85 24.85 0 01-24.81 24.82z"/><path class="c" d="M29 440h600l-439 84.96L29 440z"/><path class="l" d="M100.2 167.52v-3c3.14 0 4.68-1.47 6.45-3.17 2-1.88 4.18-4 8.52-4s6.57 2.13 8.53 4c1.77 1.7 3.3 3.17 6.44 3.17s4.67-1.47 6.45-3.17c1.95-1.88 4.17-4 8.52-4s6.56 2.13 8.52 4c1.77 1.7 3.31 3.17 6.44 3.17s4.67-1.47 6.45-3.17c1.95-1.88 4.17-4 8.52-4s6.56 2.13 8.52 4c1.77 1.7 3.3 3.17 6.44 3.17v3c-4.34 0-6.56-2.13-8.52-4-1.77-1.7-3.31-3.17-6.44-3.17s-4.67 1.47-6.45 3.17c-2 1.88-4.17 4-8.52 4s-6.56-2.13-8.52-4c-1.77-1.7-3.3-3.17-6.44-3.17s-4.67 1.47-6.45 3.17c-1.95 1.88-4.17 4-8.52 4s-6.56-2.13-8.52-4c-1.78-1.7-3.31-3.17-6.45-3.17s-4.67 1.47-6.44 3.17c-1.96 1.87-4.18 4-8.53 4zM100.2 152.78v-3c3.14 0 4.68-1.47 6.45-3.18 2-1.88 4.18-4 8.52-4s6.57 2.13 8.53 4c1.77 1.71 3.3 3.18 6.44 3.18s4.67-1.47 6.45-3.18c1.95-1.88 4.17-4 8.52-4s6.56 2.13 8.52 4c1.77 1.71 3.31 3.18 6.44 3.18s4.67-1.47 6.45-3.18c1.95-1.88 4.17-4 8.52-4s6.56 2.13 8.52 4c1.77 1.71 3.3 3.18 6.44 3.18v3c-4.34 0-6.56-2.13-8.52-4-1.77-1.7-3.31-3.18-6.44-3.18s-4.67 1.48-6.45 3.18c-2 1.88-4.17 4-8.52 4s-6.56-2.13-8.52-4c-1.77-1.7-3.3-3.18-6.44-3.18s-4.67 1.48-6.45 3.18c-1.95 1.88-4.17 4-8.52 4s-6.56-2.13-8.52-4c-1.78-1.7-3.31-3.18-6.45-3.18s-4.67 1.48-6.44 3.18c-1.96 1.87-4.18 4-8.53 4zM100.2 138v-3c3.14 0 4.68-1.47 6.45-3.17 2-1.88 4.18-4 8.52-4s6.57 2.13 8.53 4c1.77 1.7 3.3 3.17 6.44 3.17s4.67-1.47 6.45-3.17c1.95-1.88 4.17-4 8.52-4s6.56 2.13 8.52 4c1.77 1.7 3.31 3.17 6.44 3.17s4.67-1.47 6.45-3.17c1.95-1.88 4.17-4 8.52-4s6.56 2.13 8.52 4c1.77 1.7 3.3 3.17 6.44 3.17v3c-4.34 0-6.56-2.13-8.52-4-1.77-1.71-3.31-3.18-6.44-3.18s-4.67 1.47-6.45 3.18c-2 1.87-4.17 4-8.52 4s-6.56-2.13-8.52-4c-1.77-1.71-3.3-3.18-6.44-3.18s-4.67 1.47-6.45 3.18c-1.95 1.87-4.17 4-8.52 4s-6.56-2.13-8.52-4c-1.78-1.71-3.31-3.18-6.45-3.18s-4.67 1.47-6.44 3.18c-1.96 1.9-4.18 4-8.53 4zM100.2 123.29v-3c3.14 0 4.68-1.47 6.45-3.17 2-1.88 4.18-4 8.52-4s6.57 2.13 8.53 4c1.77 1.7 3.3 3.17 6.44 3.17s4.67-1.47 6.45-3.17c1.95-1.88 4.17-4 8.52-4s6.56 2.13 8.52 4c1.77 1.7 3.31 3.17 6.44 3.17s4.67-1.47 6.45-3.17c1.95-1.88 4.17-4 8.52-4s6.56 2.13 8.52 4c1.77 1.7 3.3 3.17 6.44 3.17v3c-4.34 0-6.56-2.13-8.52-4-1.77-1.7-3.31-3.17-6.44-3.17s-4.67 1.47-6.45 3.17c-2 1.88-4.17 4-8.52 4s-6.56-2.13-8.52-4c-1.77-1.7-3.3-3.17-6.44-3.17s-4.67 1.47-6.45 3.17c-1.95 1.88-4.17 4-8.52 4s-6.56-2.13-8.52-4c-1.78-1.7-3.31-3.17-6.45-3.17s-4.67 1.47-6.44 3.17c-1.96 1.87-4.18 4-8.53 4zM100.2 108.55v-3c3.14 0 4.68-1.47 6.45-3.17 2-1.88 4.18-4 8.52-4s6.57 2.13 8.53 4c1.77 1.7 3.3 3.17 6.44 3.17s4.67-1.47 6.45-3.17c1.95-1.88 4.17-4 8.52-4s6.56 2.13 8.52 4c1.77 1.7 3.31 3.17 6.44 3.17s4.67-1.47 6.45-3.17c1.95-1.88 4.17-4 8.52-4s6.56 2.13 8.52 4c1.77 1.7 3.3 3.17 6.44 3.17v3c-4.34 0-6.56-2.13-8.52-4-1.77-1.7-3.31-3.17-6.44-3.17s-4.67 1.47-6.45 3.17c-2 1.88-4.17 4-8.52 4s-6.56-2.13-8.52-4c-1.77-1.7-3.3-3.17-6.44-3.17s-4.67 1.47-6.45 3.17c-1.95 1.88-4.17 4-8.52 4s-6.56-2.13-8.52-4c-1.78-1.7-3.31-3.17-6.45-3.17s-4.67 1.47-6.44 3.17c-1.96 1.87-4.18 4-8.53 4z"/><path class="j" d="M535.37 295.65c17.34 3 17.54 25.11 22.35 32.13s18.11 4 23.6 15.62-6.64 26.15 1.45 38.2-3.37 12.75.38 23.3 12.91 11.85 12.91 35.1H482.2c0-31.29 11.75-32.89 14.64-53.58s-15.36-34.14-11.61-45.42 17.63-11 23-17.17 9.77-31.19 27.14-28.18z"/><path class="m" d="M582.77 381.6c-8.09-12.05 4.05-26.61-1.45-38.2s-18.78-8.59-23.6-15.62-5-29.11-22.35-32.13a16.38 16.38 0 00-3-.24c-.09.13-21.49 30.92-10.3 45.78s35.24 6 36.51 9.61-23 12.4-16.45 25.81 24.37 12.8 26.29 16.1-11.11 5.57-6 15.17 33.66 11.49 33.66 32.12c0-23.25-9.15-24.56-12.91-35.1s7.69-11.25-.4-23.3z"/><path class="c" d="M434 397.36c-5-22 29.72-30.13 65.89-44.68l3.18-13.55 2.76 11.09c34.4-14.54 68.23-35.86 68.74-81.28-6.26 12.22-18.84 16.45-33.86 18.24l-6.93.66c-23.2 1.74-50.48 0-69.32 12.61-55.37 37.21-30.46 96.91-30.46 96.91zm86.79-67.73c-.41-1.43.73-3 2.53-3.51s3.59.22 4 1.65-.73 3-2.53 3.51-3.61-.22-4.02-1.65z"/><path class="d" d="M574.55 268.94C559 340.47 427.21 296.17 428.46 369.22a88.93 88.93 0 005.54 28.14c-5-22 29.72-30.13 65.89-44.68l5.94-2.46c34.38-14.54 68.17-35.86 68.72-81.28z"/><path class="n" d="M514.25 328.51c-40.64 0-60.77 42.57-43.2 83.85l2.46-6.7c-7.46-22.84-4.63-43.38 7.83-56.29 7.26-7.52 18.12-12.19 32.91-12.19s25.66 4.67 32.92 12.19c12.46 12.91 15.29 33.45 7.83 56.29l2.46 6.7c17.54-41.28-2.57-83.85-43.21-83.85z"/><path class="o" d="M491 334l-.75.4zM498.53 330.87l-.62.21zM492.34 333.33l-.73.37zM507.06 329h-.21zM488.57 335.4c-.93.56-1.83 1.15-2.71 1.78.88-.63 1.78-1.18 2.71-1.78zM489.76 334.69l-.77.45zM505.26 329.25l-.55.1zM502.08 329.89l-.6.15zM497.08 331.36l-.68.25zM503.67 329.54l-.62.13zM494.23 332.48l-1.1.49zM495.65 331.89l-.69.28zM510.8 328.62h-.6zM480.63 341.52c-.27.26-.54.52-.8.79.26-.31.53-.53.8-.79zM483.42 339.05zM479.65 342.49l-.79.83zM500.39 330.32l-.44.12zM485.55 337.4l-.81.6zM512.52 328.54h-.54zM484.42 338.24c-.27.21-.54.42-.8.64.26-.22.53-.43.8-.64zM509.06 328.76l-.56.05z"/><path class="p" d="M514.25 328.51h-1.73c.58.01 1.15 0 1.73 0zM501.48 330l-1.09.28zM506.85 329l-1.59.24zM508.5 328.81l-1.44.17zM504.71 329.35l-1 .19zM503.05 329.67l-1 .22zM512 328.56l-1.18.06zM510.2 328.66l-1.14.1zM483.62 338.88l-.2.17zM485.86 337.18l-.31.22zM480.74 341.42l-.11.1zM484.74 338l-.32.24zM478.86 343.32l-.08.09zM479.83 342.31l-.18.18zM500 330.44l-1.42.43zM496.4 331.61l-.75.28zM497.91 331.08l-.83.28zM495 332.17l-.73.31zM491.61 333.7l-.58.3zM490.28 334.4l-.52.29zM489 335.14l-.42.26zM493.13 333l-.79.36z"/><path class="o" d="M537.48 334l.75.4zM530 330.87l.62.21zM536.16 333.33l.74.37zM521.45 329h.2zM539.94 335.4c.93.56 1.83 1.15 2.71 1.78-.88-.63-1.78-1.18-2.71-1.78zM538.75 334.69l.76.45zM523.24 329.25l.56.1zM526.43 329.89l.6.15zM531.43 331.36l.68.25zM524.84 329.54l.62.13zM534.28 332.48l1.1.49zM532.86 331.89l.69.28zM517.71 328.62h.6zM547.88 341.52c.27.26.54.52.8.79-.26-.31-.53-.53-.8-.79zM545.09 339.05c.93.75 1.82 1.54 2.68 2.37-.86-.83-1.77-1.62-2.68-2.37zM548.86 342.49l.79.83zM528.12 330.32l.44.12zM543 337.4l.81.6zM516 328.54h.53zM544.09 338.24c.27.21.54.42.8.64-.26-.22-.53-.43-.8-.64zM519.45 328.76l.56.05z"/><path class="p" d="M514.25 328.51h1.74c-.58.01-1.15 0-1.74 0zM527 330l1.09.28zM521.65 329q.81.11 1.59.24-.78-.12-1.59-.24zM520 328.81l1.44.17zM523.8 329.35l1 .19zM525.46 329.67l1 .22zM516.52 328.56l1.19.06zM518.31 328.66l1.14.1zM544.89 338.88l.2.17zM542.65 337.18l.31.22zM547.77 341.42l.11.1zM543.77 338l.32.24zM549.65 343.32l.08.09zM548.68 342.31l.18.18zM528.56 330.44l1.42.43zM532.11 331.61l.75.28zM530.6 331.08l.83.28zM533.55 332.17l.73.31zM536.9 333.7l.58.3zM538.23 334.4l.52.29zM539.51 335.14c.15.08.29.17.43.26-.14-.09-.28-.18-.43-.26zM535.38 333l.78.36z"/><path class="l" d="M552.19 346.3c-.27-.34-.55-.67-.83-1l-.32-.39c-.43-.51-.87-1-1.32-1.49l-.08-.09-.79-.83-.18-.18c-.26-.27-.53-.53-.8-.79l-.11-.1c-.86-.83-1.75-1.62-2.68-2.37l-.2-.17c-.26-.22-.53-.43-.8-.64l-.32-.24-.81-.6-.31-.22c-.88-.63-1.78-1.22-2.71-1.78-.14-.09-.28-.18-.43-.26l-.76-.45-.52-.29-.75-.4-.58-.3-.74-.37-.78-.36-1.1-.49-.73-.31-.69-.28-.75-.28-.68-.25-.83-.28-.62-.21-1.42-.43-.44-.12L527 330l-.6-.15-1-.22-.62-.13-1-.19-.56-.1q-.78-.13-1.59-.24h-.2l-1.44-.17-.56-.05-1.14-.1h-.6l-1.19-.06h-4.54l-1.18.06h-.6l-1.14.1-.56.05-1.44.17h-.21l-1.59.24-.55.1-1 .19-.62.13-1 .22-.6.15-1.09.28-.44.12-1.42.43-.62.21-.83.28-.68.25-.75.28-.69.28-.73.31-1.1.49-.79.36-.73.37-.58.3-.75.4-.52.29-.77.45-.42.26c-.93.56-1.83 1.15-2.71 1.78l-.31.22-.81.6-.32.24c-.27.21-.54.42-.8.64l-.2.17c-.93.75-1.82 1.54-2.68 2.37l-.11.1c-.27.26-.54.52-.8.79l-.18.18-.79.83-.08.09c-.45.48-.89 1-1.32 1.49l-.32.39c-.28.34-.56.67-.83 1-12.78 16.23-15.77 41.37-5.26 66.06l1-2.84a74.57 74.57 0 01-5.25-29c0-8.14 3.08-23.65 11.54-33 10.61-11.77 22.47-15.7 35.87-15.71s25.27 3.94 35.88 15.71c8.46 9.39 11.54 24.9 11.54 33a74.57 74.57 0 01-5.25 29l1 2.84c10.63-24.64 7.63-49.78-5.18-66.01z"/><ellipse class="i" cx="530.6" cy="414.77" rx="19.02" ry="2.92" transform="rotate(-69.49 530.652 414.769)"/><ellipse class="i" cx="497.91" cy="414.77" rx="2.92" ry="19.02" transform="rotate(-20.51 497.796 414.689)"/><ellipse class="n" cx="478.91" cy="422.5" rx="5.22" ry="18.61" transform="rotate(-20.91 478.866 422.462)"/><path class="q" d="M484.23 397.41a3 3 0 00-3.23 0c-1.53 1.09-4.64 10.67-4.64 10.67l10.78 26.66s6.37 5.93 8.63 5.2a4.5 4.5 0 002.74-3.24z"/><rect class="q" x="489.05" y="393.29" width="9.82" height="46.25" rx="4.91" transform="rotate(159.58 493.975 416.397)"/><path class="l" d="M497.45 439.81a1.06 1.06 0 00.51-.14 1 1 0 00.35-1.37 112.26 112.26 0 01-14.54-41.51 1 1 0 00-2 .28 114.24 114.24 0 0014.8 42.25 1 1 0 00.88.49z"/><ellipse class="n" cx="549.6" cy="422.5" rx="18.61" ry="5.22" transform="rotate(-69.09 549.616 422.502)"/><path class="q" d="M544.28 397.41a3 3 0 013.23 0c1.53 1.09 4.64 10.67 4.64 10.67l-10.78 26.66s-6.37 5.93-8.63 5.2a4.5 4.5 0 01-2.74-3.24z"/><rect class="q" x="529.63" y="393.29" width="9.82" height="46.25" rx="4.91" transform="rotate(20.42 534.63 416.493)"/><path class="l" d="M531.06 439.81a1.06 1.06 0 01-.51-.14 1 1 0 01-.35-1.37 112.26 112.26 0 0014.54-41.51 1 1 0 112 .28 114.42 114.42 0 01-14.8 42.25 1 1 0 01-.88.49z"/><circle class="r" cx="515.12" cy="132.55" r="58"/><path class="i" d="M91.815 409.942L197.577 304.18l.707.707L92.522 410.65z"/><path class="i" d="M125.259 285.102l.965-.26 38.712 144.474-.966.26z"/><path class="i" d="M107.246 292.697l.866-.5 74.785 129.531-.866.5z"/><path class="i" d="M91.815 304.71l.707-.707 105.762 105.762-.707.707z"/><path class="i" d="M80.01 320.303l.5-.866 129.531 74.785-.5.866z"/><path class="i" d="M72.658 338.413l.26-.966L217.39 376.16l-.26.966z"/><path class="i" d="M70.23 356.82H219.8v1H70.23z"/><path class="i" d="M72.664 376.272l144.447-38.813.26.966-144.447 38.813z"/><path class="i" d="M80.01 394.392l129.506-74.83.5.866-129.505 74.83z"/><path class="i" d="M107.224 421.912l74.83-129.505.866.5-74.83 129.506z"/><path class="i" d="M125.21 429.532l38.813-144.446.966.26-38.813 144.446z"/><path class="i" d="M144.63 282.42h1v149.57h-1z"/><path class="n" d="M157.73 357.2l-2.03 1.87 1.27 2.44-2.55 1.06.36 2.73-2.75.12-.6 2.69-2.63-.82-1.48 2.32-2.19-1.68-2.19 1.68-1.48-2.32-2.63.82-.6-2.69-2.75-.12.36-2.73-2.55-1.06 1.27-2.44-2.03-1.87 2.03-1.86-1.27-2.45 2.55-1.05-.36-2.73 2.75-.13.6-2.69 2.63.83 1.48-2.32 2.19 1.67 2.19-1.67 1.48 2.32 2.63-.83.6 2.69 2.75.13-.35 2.73 2.54 1.05-1.27 2.45 2.03 1.86z"/><path class="n" d="M147.44 370.34l-2.31-1.78-2.32 1.78-1.57-2.46-2.78.87-.63-2.84-2.91-.13.37-2.9-2.7-1.11 1.35-2.59-2.15-2 2.15-2-1.35-2.59 2.7-1.12-.37-2.89 2.91-.13.63-2.85 2.78.88 1.57-2.46 2.32 1.77 2.32-1.77 1.57 2.46 2.78-.88.63 2.85 2.91.13-.37 2.89 2.69 1.12-1.34 2.59 2.14 2-2.14 2 1.34 2.59-2.66 1.11.37 2.9-2.91.13-.63 2.84-2.78-.87zm-5.77-3.64l1.4 2.18 2.06-1.58 2.06 1.58 1.4-2.18 2.47.77.56-2.53 2.59-.11-.33-2.58 2.39-1-1.19-2.3 1.92-1.75-1.91-1.75 1.19-2.3-2.39-1 .33-2.57-2.59-.11-.56-2.54-2.48.78-1.39-2.19-2.06 1.58-2.06-1.58-1.4 2.19-2.47-.78-.56 2.53-2.59.12.33 2.57-2.39 1 1.19 2.3-1.91 1.75 1.91 1.76-1.19 2.3 2.39 1-.33 2.57 2.59.12.56 2.53z"/><path class="q" d="M155.1 357.2l-1.69 1.89.7 2.44-2.34.97-.43 2.5-2.53-.14-1.46 2.06-2.22-1.23-2.22 1.23-1.47-2.06-2.53.14-.42-2.5-2.34-.97.7-2.44-1.69-1.89 1.69-1.89-.7-2.43 2.34-.97.42-2.5 2.53.14 1.47-2.07 2.22 1.23 2.22-1.23 1.46 2.07 2.53-.14.43 2.5 2.34.97-.7 2.43 1.69 1.89z"/><path class="q" d="M147.5 367.58l-2.37-1.32-2.37 1.32-1.56-2.21-2.7.15-.46-2.67-2.5-1 .75-2.6-1.8-2 1.8-2-.75-2.6 2.5-1 .46-2.67 2.7.16 1.56-2.21 2.37 1.31 2.37-1.31 1.56 2.21 2.7-.15.46 2.66 2.5 1-.75 2.6 1.8 2-1.8 2 .75 2.6-2.51 1-.45 2.67-2.7-.15zm-5.81-3.24l1.37 1.93 2.07-1.15 2.07 1.15 1.37-1.93 2.36.13.39-2.33 2.19-.9-.66-2.27 1.58-1.77-1.58-1.76.66-2.27-2.19-.9-.39-2.34-2.36.14-1.37-1.93-2.07 1.14-2.07-1.14-1.37 1.93-2.36-.14-.39 2.33-2.19.91.66 2.27-1.58 1.76 1.58 1.77-.66 2.27 2.19.9.39 2.33z"/><path class="l" d="M152.14 357.2l-1.33 1.85-.01 2.28-2.16.71-1.34 1.83-2.17-.69-2.17.69-1.34-1.83-2.16-.72-.01-2.27-1.33-1.85 1.33-1.84.01-2.28 2.16-.71 1.34-1.84 2.17.7 2.17-.7 1.34 1.84 2.16.71.01 2.28 1.33 1.84z"/><path class="l" d="M147.49 364.46l-2.36-.76-2.36.76-1.46-2-2.35-.77v-2.48l-1.45-2 1.45-2v-2.47l2.35-.78 1.46-2 2.36.75 2.36-.75 1.46 2 2.35.78v2.47l1.45 2-1.45 2v2.48l-2.35.77zM140 361l2 .65 1.22 1.68 2-.64 2 .64 1.22-1.68 2-.65v-2.07l1.22-1.69-1.22-1.68v-2.08l-2-.65-1.22-1.67-2 .63-2-.63-1.22 1.67-2 .65v2.08l-1.22 1.68 1.22 1.69z"/><circle class="h" cx="145.13" cy="357.2" r="2.1"/><path class="n" d="M145.13 279.4a77.8 77.8 0 11-77.8 77.8 77.89 77.89 0 0177.8-77.8m0-5a82.8 82.8 0 1082.8 82.8 82.81 82.81 0 00-82.8-82.8z"/><path class="q" d="M145.13 282.56A74.64 74.64 0 1170.5 357.2a74.73 74.73 0 0174.63-74.64m0-5a79.64 79.64 0 1079.64 79.64 79.64 79.64 0 00-79.64-79.64z"/><path class="i" d="M145.13 283.79a73.42 73.42 0 11-73.41 73.41 73.49 73.49 0 0173.41-73.41m0-3a76.42 76.42 0 1076.42 76.41 76.41 76.41 0 00-76.42-76.41z"/><path class="f" d="M210.46 354.74C199 357 199.59 368.86 197.19 373s-7.79 4.43-10.26 12.62 3.89 15.16.9 25.16-9 13-9 29.2h63.64c0-17.17-12.85-20.62-7.5-34.09 4.46-11.26 6.38-17.35-5.94-31.4-4.39-5.03-6.03-22.23-18.57-19.75z"/><path class="g" d="M235 405.9c4.46-11.26 6.38-17.35-5.94-31.4-4.23-4.81-5.91-20.7-17-20 0 17.19 13.93 22.32 15.14 25.49s-17.42 6.56-8.24 33c5.64 16.22 19 10.77 23.52 27 .03-17.17-12.82-20.62-7.48-34.09z"/><path class="c" d="M426.79 360.81c20.81-52.21 57.61-60.36 86.81-105.13a49.67 49.67 0 003-5.38l-29.9-12.18 36-4.92c12.91-50.61 3.72-136.93 56.25-157.73-52.74 7.22-100.36 36.78-129.25 78.11l8.9 8.22-13.92-.64A156.45 156.45 0 00422 223.44c-8.39 63.71 9 74.56 4.79 137.37z"/><path class="d" d="M578.92 75.47C517.5 93.15 435.8 202.4 426.79 360.81c20.81-52.21 57.61-60.36 86.81-105.13a49.67 49.67 0 003-5.38l-29.9-12.18 36-4.92c12.88-50.61 3.69-136.93 56.22-157.73z"/><path class="j" d="M294.86 360.86c-22.74 0-20.21 34.27-35.33 34.27s-23.92-8.89-32.3-2.68-13.46 27.29-21.23 29.41-12.38-7.24-25.42-4.62S156.86 440 140.65 440h154.21z"/><path class="c" d="M46.92 245.26c15.28 14.51 36 19 58.31 23.63l16.64-7.17-9.37 8.69q3.38.72 6.78 1.48l14.92-6.59-7.07 8.47c22 5.59 44.44 14.39 63.89 35.4a159.24 159.24 0 0044.25 33.95l34-8.89-19.72 15.6c36.45 15.63 69.53 19.88 93.63 66.17 0 0-17.45-147.58-107.79-181.82-23.61-8.94-44.47-11.84-63.26-11.41l-11.69.7c-46.96 4.46-80.77 27.87-113.52 21.79zm176.35 70.38c1.19-1.36 3.74-1.08 5.7.63s2.6 4.21 1.41 5.57-3.74 1.08-5.71-.63-2.59-4.21-1.4-5.57z"/><path class="d" d="M127.13 273.77c22 5.59 44.44 14.39 63.89 35.4a159.24 159.24 0 0044.25 33.95l34-8.89-19.72 15.6c36.45 15.63 69.53 19.88 93.63 66.17-18.08-49.69-41.59-113.24-109.57-149.77-77-41.36-154.34-1.81-186.69-20.92 15.28 14.51 36 19 58.31 23.63l16.64-7.17-9.37 8.69q3.38.72 6.78 1.48zm103.25 48.07c-1.19 1.36-3.74 1.08-5.71-.63s-2.59-4.21-1.4-5.57 3.74-1.08 5.7.63 2.6 4.21 1.41 5.57z"/><path class="r" d="M515.12 74.55a58 58 0 0158 58"/><path class="j" d="M81 373.68c7.28 1.38 7.37 11.53 9.39 14.76s7.61 1.85 9.92 7.17-2.8 12 .6 17.56-1.41 5.86.16 10.7 5.43 5.44 5.43 16.13H58.64c0-14.38 4.94-15.11 6.15-24.62s-6.46-15.68-4.88-20.87 7.41-5.05 9.66-7.89S73.69 372.3 81 373.68z"/><path class="m" d="M100.89 413.17c-3.4-5.54 1.7-12.23-.6-17.56s-7.9-3.94-9.92-7.17-2.11-13.38-9.37-14.76a6.16 6.16 0 00-1.25-.11c0 .06-9 14.2-4.33 21s14.81 2.75 15.34 4.41-9.65 5.7-6.91 11.86 10.24 5.88 11 7.4-4.66 2.56-2.54 7 14.15 5.28 14.15 14.76c0-10.69-3.85-11.29-5.43-16.13s3.26-5.17-.14-10.7z"/><path class="c" d="M327.58 232.73A114.84 114.84 0 00312 186.64l-10.23.23 6.68-5.88c-20.51-30.82-54.95-53.32-93.54-59.51 38.2 16.15 30 79.35 38.61 116.71l26.32 4.22-22.18 8.43a38.53 38.53 0 002.13 4c20.68 33.35 47.55 40 61.93 78.63-2.04-46.17 10.93-53.84 5.86-100.74z"/><path class="d" d="M253.53 238.19l26.32 4.22-22.18 8.43a38.53 38.53 0 002.13 4c20.68 33.35 47.55 40 61.93 78.63-3.92-116.41-62-198-106.81-212 38.2 16.16 29.99 79.36 38.61 116.72z"/><path class="s" d="M320.47 213.75h1V251h-1a1.31 1.31 0 01-1.31-1.31v-34.64a1.31 1.31 0 011.31-1.3zM320.47 264.75h1v21.58h-1a1.31 1.31 0 01-1.31-1.31v-19a1.31 1.31 0 011.31-1.27zM444.39 249.71h-1v21.58h1a1.31 1.31 0 001.3-1.31V251a1.31 1.31 0 00-1.3-1.29z"/><rect class="q" x="320.8" y="175.16" width="123.59" height="264.84" rx="13.73"/><rect class="j" x="323.74" y="188.57" width="117.7" height="240.64" rx="7.85"/><path class="s" d="M351.2 183.67a2.62 2.62 0 11-2.61-2.62 2.61 2.61 0 012.61 2.62M408.09 183.5a2.45 2.45 0 11-2.45-2.45 2.44 2.44 0 012.45 2.45M341.4 183.67a1.31 1.31 0 11-1.31-1.31 1.31 1.31 0 011.31 1.31M364.61 183.67a1.31 1.31 0 11-1.31-1.31 1.31 1.31 0 011.31 1.31M359.05 183.67a2 2 0 11-2-2 2 2 0 012 2M418.88 183.5a1.8 1.8 0 11-1.79-1.8 1.79 1.79 0 011.79 1.8M374.58 181.38h16a1.15 1.15 0 110 2.29h-16a1.15 1.15 0 010-2.29z"/><rect class="f" x="348.1" y="377.55" width="68.99" height="14.65" rx="7.33" transform="rotate(180 382.59 384.87)"/><rect class="i" x="328.8" y="224.35" width="107.58" height="127.96" rx="4"/><path class="t" d="M333.48 305.09h55.49v6.11h-55.49zM333.48 319.04v14.81h78.15v-7.41h15.06v-7.4h-93.21z"/><path class="c" d="M328.52 235.45h107.86v54.5H328.52z"/><circle class="e" cx="373.24" cy="364.89" r="2.58"/><circle class="d" cx="382.56" cy="364.89" r="2.58"/><circle class="d" cx="391.95" cy="364.89" r="2.58"/><circle class="i" cx="398.12" cy="260.89" r="1.81"/><path class="e" d="M405.63 257.12a7.44 7.44 0 01-1.47 4.44h-12.08a7.5 7.5 0 1113.55-4.44z"/><path class="d" d="M396.78 261.56h-4.7a7.49 7.49 0 016-11.95c-2.02 0-4.84 4.69-1.3 11.95z"/><path class="u" d="M398.12 249.61v-14.16"/><circle class="i" cx="383.31" cy="269.57" r="2.43"/><path class="e" d="M393.38 264.52a10 10 0 01-2 6h-16.2a10.06 10.06 0 1118.17-6z"/><path class="d" d="M381.52 270.48h-6.31a10.05 10.05 0 018.1-16c-2.76-.03-6.55 6.26-1.79 16z"/><path class="u" d="M383.31 254.45v-19"/><path class="j" d="M530.6 440c2.46 0 4.36-5.92 10.1-5.92S551 440 556.65 440h-26M467.91 440c2.46 0 4.36-5.92 10.1-5.92S488.29 440 494 440h-26.09M369.37 440c9.19 0 16.66-4.72 23.35-4.72s11.75 2.92 15.94 2.92 7.5-5.69 13.64-5.69 10.18 7.6 19.47 7.6z"/><path class="i" d="M246.32 58.8s2.25-6.64 7.25-6.64 8.53 4.94 8.53 4.94 3.37-2.55 6.43-2.55c4.62 0 7.94 4.25 10.4 4.25zM197.93 80.45s2.58-12.09 12.14-12.09S223 77.47 223 77.47s3.13-4.65 7.88-4.65c9.06 0 9.5 7.63 19.82 7.63z"/><path class="j" d="M343.15 430.14c0 8 11.74 9.86 17.78 9.86h-46.69v-9.82l5.16-4.2z"/><path class="c" d="M477.26 446.89c1.33-6 1-10.4-3.35-14.59-4.13-3.94-10-5.21-10.9-10-1.64 10.49 5.42 16.32 9.6 17.21 2.45.49 4.49 3.57 4.65 7.38z"/><path class="c" d="M477.78 443.8c1.64-9.26 5.33-8.8 8.08-14s-2.61-18.25 4.1-22.3c-9.28 1.8-15.74 11.29-15.42 20.33.26 7.64 2.95 7.1 3.24 15.97zM204.43 442.51c3.94-2.25 7.88-.6 10.34-5.28s6.45-6.28 8.41-5.6c-6.95-3.21-18.28 1.37-18.75 10.88z"/><path class="c" d="M203.05 442.58c4.22-10.05-12.85-17.08-7.69-29.76-.16 6 7.3 7.7 10.82 12.48s1.22 13.7-3.13 17.28z"/><path class="c" d="M203.93 441.91c-1.24-.91-6.16-1.48-7-4.67-.91-3.65-5.66-4.55-7-4.09 2.48-1.81 16.84-2.03 14 8.76z"/><path class="e" d="M266.76 367.45c-8.14 6-11.5 17.71-15.73 27.17l3.39 2.34-4.71.47c-3 6-6.68 10.67-12.75 11.46 19.13 6.62 33.16-4.35 44.45-16.59l-4.24-2.83 6.16.71c11.55-13 20.2-26.3 28.66-20.91.01 0-21.29-19.42-45.23-1.82zm4.39 30.34a1.92 1.92 0 11-.14-3 2.17 2.17 0 01.14 3z"/><path class="c" d="M281.41 392.3l-4.24-2.83 6.16.71c11.55-13 20.2-26.3 28.66-20.91a39.66 39.66 0 00-11-6.55c-30.45-11.52-31.71 50.41-64.06 46.17 19.16 6.62 33.19-4.35 44.48-16.59zm-13.33 3.29a2 2 0 11.14 3.07 2.2 2.2 0 01-.14-3.07z"/><path class="j" d="M317.09 347.75c-9.35 2.2-8.83 13.65-10.78 17.66s-6.34 4.28-8.34 12.2 3.16 14.65.72 24.32-7.28 12.59-7.28 28.21h51.74c0-16.59-10.45-19.92-6.1-32.95 3.63-10.87 5.19-16.76-4.83-30.33-3.6-4.86-4.92-21.51-15.13-19.11z"/><path class="m" d="M337.05 397.19c3.63-10.87 5.19-16.76-4.83-30.33-3.43-4.66-4.8-20-13.8-19.31 0 8.2-5.92 12.3-1.14 18.71s9.61 5.2 11 9.3-15.85 15.85-10.39 29.1 21.6 9.83 25.28 25.48c-.02-16.59-10.47-19.92-6.12-32.95z"/><ellipse class="h" cx="500.39" cy="213.75" rx="6.93" ry="5.39" transform="rotate(-53.98 500.401 213.748)"/><path class="d" d="M306.14 440l23.79 4.44h110.82l23.92-4.44H306.14z"/><path class="j" d="M358.05 461.38c-3.21 0-6.3-4.24-10.85-4.24a13.7 13.7 0 00-8.13 3.16 17.13 17.13 0 00-6.29-1.62c-3 0-6.86 2.7-10.65 2.7z"/><path class="e" d="M121.67 475h188.56l-150.25 15.52L121.67 475z"/><path class="j" d="M122.63 451.72s3.73-5.65 10.19-5.65a14.35 14.35 0 0110.18 4.21 22.28 22.28 0 018.31-2.15c5.95 0 10.24 3.59 13.42 3.59zM506 301.36c1.55 2.15-.46 6.66-.46 6.66l-1-.31.63 3.5-2.5-.36s-1.8-7.74-.47-9.62c.73-1.14 3.05-.84 3.8.13z"/><path class="j" d="M509.57 324.22l-13.33 3.47 4.17-20.48 5.77 2.19 3.39 14.82zM503.21 304.78h-8.76l-.92-.66 6.9-2.34.5-2.66 3.46-1.42 2.02 2.42 5.11-1.21v.97l-8.31 4.9z"/><path class="j" d="M497.3 327.13l.91 1.79 9.66 2.84-4.37 18.02 1.79-.87 2.73-5.63 3.83-2.44 6.55-9.81-8.83-6.81-6.07-.31-6.2 3.22z"/><path d="M514 315.59c6.91-12.13 16.38-18.13 28.49-20.46" stroke="#17204c" fill="none" stroke-miterlimit="10"/><path class="j" d="M508.12 317.88l6.35-4.1 3.33-4.69-1.62 6.5-7.28 8.91-.78-6.62z"/><path class="i" d="M513.61 440.38a.38.38 0 01-.37-.29c-7.28-30.46 4.59-57.75 15.06-81.82 9.59-22 18.65-42.85 11.77-62.58a.38.38 0 01.23-.48.39.39 0 01.48.23c7 20-2.14 41-11.79 63.13-10.43 24-22.24 51.13-15 81.34a.37.37 0 01-.28.45z"/><path class="d" d="M541.29 530.05a3.48 3.48 0 01-2.28 3.19c-1.83.35-2.13-2.24-3.81-1.92-3.09.58-4.26 18-9.41 19s-5.6-18.94-8.09-18.47-2 7.3-5.7 8c-2 .38-3.37-2.18-3.37-7.12v-69.47l32.66-6.26z"/><path class="c" d="M541.29 473c0 2.12-1.18 5.3-2.93 5.63-2.06.39-3.21-4.73-5.65-4.27-3 .56-4.14 14.87-7.16 15.44s-4.55-10.25-7.11-9.8-4 5.16-7 5.73a2.5 2.5 0 01-2.83-2.22v-20.25l32.68-6.26z"/><path class="e" d="M498 440c0 4.79-17.3 5.61-14.93 10.77s20.37 5.65 25.43 12.55l32.79-6.32c-5.4-5.48-20.4-5.22-22.78-8.43s12.09-3.16 12.09-8.54z"/><path class="c" d="M488.31 450c-.56-1.56 3.69-3.13 7.3-3.88-2.37 1.19-5.64 3.86 0 6.94-2.61-.17-6.73-1.47-7.3-3.06z"/><path class="j" d="M348.79 275.82h1.83c0 3.15 3.38 5.44 3.38 9.54a7 7 0 01-1.57 4.59h-3.64z"/><path class="j" d="M348.79 275.82H347c0 3.15-3.38 5.44-3.38 9.54a7 7 0 001.58 4.59h3.63z"/><ellipse class="j" cx="348.79" cy="274.24" rx="3.71" ry="2.91"/><path class="j" d="M350.24 271.83c.5-.6 1.74-1.48 2.52-1.33a3.73 3.73 0 01-.82 2.73zM347.35 271.83c-.5-.6-1.74-1.48-2.52-1.33a3.73 3.73 0 00.82 2.73z"/><path class="d" d="M383.31 280.79h53.07v9.16h-53.07z"/><path class="w" d="M415.4 280.79v-9h-1.33c0 1.12-1.58 4.34-1.58 5.89s1 2.49 1 3.15zM415.4 280.79v-9h1.32c0 1.12 1.59 4.34 1.59 5.89s-1 2.49-1 3.15z"/></svg>