<svg xmlns="http://www.w3.org/2000/svg" width="660" height="660" viewBox="0 0 660 660"><defs><style>.a{fill:#242459;}.b,.r,.u,.v{fill:none;stroke-miterlimit:10;}.b{stroke:#556ff2;}.c{fill:#3d55cc;}.d,.w{fill:#364ab2;}.e{fill:#556ff2;}.f{fill:#ffb057;}.g{fill:#ffc785;}.h{fill:#141733;}.i,.o{fill:#fff;}.j{fill:#17204c;}.k{fill:#0c0e1f;opacity:0.15;}.l{fill:#50d9e5;}.m{fill:#1f2a66;}.n,.s{fill:#299ba6;}.o{opacity:0.4;}.p{fill:#261773;}.q{fill:#33bfcc;}.r{stroke:#ffc785;stroke-width:3px;}.s,.w{fill-rule:evenodd;}.t{fill:#8adee5;}.u{stroke:#364ab2;}.v{stroke:#17204c;}</style></defs><title>illustration-about-me</title><polygon class="a" points="470 630 190 584.69 190 30 470 30 470 630"/><line class="b" x1="345.44" y1="64.26" x2="345.44" y2="16.25"/><polygon class="c" points="357.52 22.86 375.43 22.86 370.73 30.02 375.43 37.17 357.52 37.17 357.52 22.86"/><polygon class="d" points="357.52 22.86 363.34 18.92 363.34 33.23 357.52 37.17 357.52 22.86"/><rect class="e" x="345.44" y="18.92" width="17.9" height="14.31"/><path class="f" d="M595.87,367c-9.74,1.95-9.2,12.09-11.23,15.64s-6.6,3.8-8.68,10.81,3.29,13,.75,21.55-7.58,11.15-7.58,25H623c0-14.7-10.88-17.65-6.36-29.18,3.78-9.64,5.41-14.86-5-26.88C607.87,379.62,606.5,364.89,595.87,367Z"/><path class="g" d="M616.64,410.82c3.78-9.64,5.41-14.86-5-26.88-3.58-4.12-5-17.73-14.37-17.1,0,14.71,11.79,19.11,12.81,21.82s-14.75,5.62-7,28.26c4.77,13.89,16.07,9.22,19.91,23.08C623,425.3,612.12,422.35,616.64,410.82Z"/><circle class="h" cx="330" cy="330" r="240"/><path class="a" d="M91.81,439.82c90.52,0,83.18-239.32,155.69-239.32,59.25,0,72.27,239.5,121.87,239.5Z"/><path class="a" d="M409.84,139.91c50.07,0,69.5,153.36,69.5,153.36l-112.93-21-2.3-76.76S379.9,139.91,409.84,139.91Z"/><path class="a" d="M482.48,340.91H181.18c39.06,0,78.23-78,92.56-167.39s45-118,71.37-118h.44c38.85.34,59.8,47,72.95,130.78,5.66,36,13.26,69.58,22.22,96.15C452.68,317.87,467.05,340.91,482.48,340.91Z"/><path class="i" d="M297.47,113.54c8.67-3.33,14.17,14,25.84,11.26s18.12-43.59,25.06-44.26,3.84,19.09,9,19,3.31-14.75,8.3-19.07c3.83-3.31,21-.94,28.59,14.2-12.19-25.67-28-39.24-49.12-39.24-24.31,0-52.34,24.43-67.78,98.47C277.39,153.76,288.83,116.86,297.47,113.54Z"/><path class="j" d="M629,440c-43.52,0-13-37.23-52.44-37.23S530.12,284.86,505.08,264.5s-64.07-9.73-86.59-9.73-45.78-70.66-97.56-65.59-44.2,67.56-104.32,81.55-58.91,96.34-68.27,106.6-21.24-4.7-38.42,4.42S60.38,440,32.88,440Z"/><path class="k" d="M440.72,282.42h-42.6c-26,0-15.61-225.17-52.57-226.93,38.85.34,59.8,47,72.95,130.78C424.16,222.3,431.76,255.85,440.72,282.42Z"/><circle class="e" cx="224.33" cy="553.93" r="2.46"/><circle class="e" cx="236.67" cy="553.93" r="2.46"/><circle class="e" cx="224.33" cy="566.27" r="2.46"/><circle class="e" cx="236.67" cy="566.27" r="2.46"/><circle class="e" cx="249.01" cy="553.93" r="2.46"/><circle class="e" cx="249.01" cy="566.27" r="2.46"/><circle class="e" cx="261.35" cy="553.93" r="2.46"/><circle class="e" cx="261.35" cy="566.27" r="2.46"/><circle class="e" cx="273.69" cy="553.93" r="2.46"/><circle class="e" cx="273.69" cy="566.27" r="2.46"/><circle class="e" cx="286.03" cy="553.93" r="2.46"/><circle class="e" cx="286.03" cy="566.27" r="2.46"/><circle class="e" cx="298.37" cy="553.93" r="2.46"/><circle class="e" cx="298.37" cy="566.27" r="2.46"/><circle class="e" cx="224.33" cy="578.61" r="2.46"/><circle class="e" cx="236.67" cy="578.61" r="2.46"/><circle class="e" cx="224.33" cy="590.94" r="2.46"/><circle class="e" cx="236.67" cy="590.94" r="2.46"/><circle class="e" cx="249.01" cy="578.61" r="2.46"/><circle class="e" cx="249.01" cy="590.94" r="2.46"/><circle class="e" cx="261.35" cy="578.61" r="2.46"/><circle class="e" cx="261.35" cy="590.94" r="2.46"/><circle class="e" cx="273.69" cy="578.61" r="2.46"/><circle class="e" cx="273.69" cy="590.94" r="2.46"/><circle class="e" cx="286.03" cy="578.61" r="2.46"/><circle class="e" cx="286.03" cy="590.94" r="2.46"/><circle class="e" cx="298.37" cy="578.61" r="2.46"/><circle class="e" cx="224.33" cy="603.28" r="2.46"/><circle class="e" cx="236.67" cy="603.28" r="2.46"/><circle class="e" cx="249.01" cy="603.28" r="2.46"/><circle class="e" cx="261.35" cy="603.28" r="2.46"/><circle class="e" cx="273.69" cy="603.28" r="2.46"/><circle class="e" cx="286.03" cy="603.28" r="2.46"/><circle class="e" cx="298.37" cy="590.94" r="2.46"/><circle class="e" cx="298.37" cy="603.28" r="2.46"/><circle class="e" cx="224.33" cy="615.62" r="2.46"/><circle class="e" cx="236.67" cy="615.62" r="2.46"/><circle class="e" cx="224.33" cy="627.96" r="2.46"/><circle class="e" cx="236.67" cy="627.96" r="2.46"/><circle class="e" cx="249.01" cy="615.62" r="2.46"/><circle class="e" cx="249.01" cy="627.96" r="2.46"/><circle class="e" cx="261.35" cy="615.62" r="2.46"/><circle class="e" cx="261.35" cy="627.96" r="2.46"/><circle class="e" cx="273.69" cy="615.62" r="2.46"/><circle class="e" cx="273.69" cy="627.96" r="2.46"/><circle class="e" cx="286.03" cy="615.62" r="2.46"/><circle class="e" cx="286.03" cy="627.96" r="2.46"/><circle class="e" cx="298.37" cy="615.62" r="2.46"/><circle class="e" cx="298.37" cy="627.96" r="2.46"/><circle class="e" cx="224.33" cy="640.3" r="2.46"/><circle class="e" cx="236.67" cy="640.3" r="2.46"/><circle class="e" cx="249.01" cy="640.3" r="2.46"/><circle class="e" cx="261.35" cy="640.3" r="2.46"/><circle class="e" cx="273.69" cy="640.3" r="2.46"/><circle class="e" cx="286.03" cy="640.3" r="2.46"/><circle class="e" cx="298.37" cy="640.3" r="2.46"/><path class="l" d="M445.65,547.92a53.59,53.59,0,0,1-53.53-53.53V440h2v54.37a51.53,51.53,0,0,0,103.06,0V439.81h2v54.58A53.59,53.59,0,0,1,445.65,547.92Z"/><path class="l" d="M406.1,658.89a24.86,24.86,0,0,1-24.82-24.82V440.31h2V634.07a22.82,22.82,0,1,0,45.63,0V439.88h2V634.07A24.85,24.85,0,0,1,406.1,658.89Z"/><polygon class="c" points="29 440 629 440 190 524.96 29 440"/><path class="l" d="M100.2,167.52v-3c3.14,0,4.68-1.47,6.45-3.17,2-1.88,4.18-4,8.52-4s6.57,2.13,8.53,4c1.77,1.7,3.3,3.17,6.44,3.17s4.67-1.47,6.45-3.17c1.95-1.88,4.17-4,8.52-4s6.56,2.13,8.52,4c1.77,1.7,3.31,3.17,6.44,3.17s4.67-1.47,6.45-3.17c1.95-1.88,4.17-4,8.52-4s6.56,2.13,8.52,4c1.77,1.7,3.3,3.17,6.44,3.17v3c-4.34,0-6.56-2.13-8.52-4-1.77-1.7-3.31-3.17-6.44-3.17s-4.67,1.47-6.45,3.17c-2,1.88-4.17,4-8.52,4s-6.56-2.13-8.52-4c-1.77-1.7-3.3-3.17-6.44-3.17s-4.67,1.47-6.45,3.17c-1.95,1.88-4.17,4-8.52,4s-6.56-2.13-8.52-4c-1.78-1.7-3.31-3.17-6.45-3.17s-4.67,1.47-6.44,3.17C106.77,165.39,104.55,167.52,100.2,167.52Z"/><path class="l" d="M100.2,152.78v-3c3.14,0,4.68-1.47,6.45-3.18,2-1.88,4.18-4,8.52-4s6.57,2.13,8.53,4c1.77,1.71,3.3,3.18,6.44,3.18s4.67-1.47,6.45-3.18c1.95-1.88,4.17-4,8.52-4s6.56,2.13,8.52,4c1.77,1.71,3.31,3.18,6.44,3.18s4.67-1.47,6.45-3.18c1.95-1.88,4.17-4,8.52-4s6.56,2.13,8.52,4c1.77,1.71,3.3,3.18,6.44,3.18v3c-4.34,0-6.56-2.13-8.52-4-1.77-1.7-3.31-3.18-6.44-3.18s-4.67,1.48-6.45,3.18c-2,1.88-4.17,4-8.52,4s-6.56-2.13-8.52-4c-1.77-1.7-3.3-3.18-6.44-3.18s-4.67,1.48-6.45,3.18c-1.95,1.88-4.17,4-8.52,4s-6.56-2.13-8.52-4c-1.78-1.7-3.31-3.18-6.45-3.18s-4.67,1.48-6.44,3.18C106.77,150.65,104.55,152.78,100.2,152.78Z"/><path class="l" d="M100.2,138v-3c3.14,0,4.68-1.47,6.45-3.17,2-1.88,4.18-4,8.52-4s6.57,2.13,8.53,4c1.77,1.7,3.3,3.17,6.44,3.17s4.67-1.47,6.45-3.17c1.95-1.88,4.17-4,8.52-4s6.56,2.13,8.52,4c1.77,1.7,3.31,3.17,6.44,3.17s4.67-1.47,6.45-3.17c1.95-1.88,4.17-4,8.52-4s6.56,2.13,8.52,4c1.77,1.7,3.3,3.17,6.44,3.17v3c-4.34,0-6.56-2.13-8.52-4-1.77-1.71-3.31-3.18-6.44-3.18s-4.67,1.47-6.45,3.18c-2,1.87-4.17,4-8.52,4s-6.56-2.13-8.52-4c-1.77-1.71-3.3-3.18-6.44-3.18s-4.67,1.47-6.45,3.18c-1.95,1.87-4.17,4-8.52,4s-6.56-2.13-8.52-4c-1.78-1.71-3.31-3.18-6.45-3.18s-4.67,1.47-6.44,3.18C106.77,135.9,104.55,138,100.2,138Z"/><path class="l" d="M100.2,123.29v-3c3.14,0,4.68-1.47,6.45-3.17,2-1.88,4.18-4,8.52-4s6.57,2.13,8.53,4c1.77,1.7,3.3,3.17,6.44,3.17s4.67-1.47,6.45-3.17c1.95-1.88,4.17-4,8.52-4s6.56,2.13,8.52,4c1.77,1.7,3.31,3.17,6.44,3.17s4.67-1.47,6.45-3.17c1.95-1.88,4.17-4,8.52-4s6.56,2.13,8.52,4c1.77,1.7,3.3,3.17,6.44,3.17v3c-4.34,0-6.56-2.13-8.52-4-1.77-1.7-3.31-3.17-6.44-3.17s-4.67,1.47-6.45,3.17c-2,1.88-4.17,4-8.52,4s-6.56-2.13-8.52-4c-1.77-1.7-3.3-3.17-6.44-3.17s-4.67,1.47-6.45,3.17c-1.95,1.88-4.17,4-8.52,4s-6.56-2.13-8.52-4c-1.78-1.7-3.31-3.17-6.45-3.17s-4.67,1.47-6.44,3.17C106.77,121.16,104.55,123.29,100.2,123.29Z"/><path class="l" d="M100.2,108.55v-3c3.14,0,4.68-1.47,6.45-3.17,2-1.88,4.18-4,8.52-4s6.57,2.13,8.53,4c1.77,1.7,3.3,3.17,6.44,3.17s4.67-1.47,6.45-3.17c1.95-1.88,4.17-4,8.52-4s6.56,2.13,8.52,4c1.77,1.7,3.31,3.17,6.44,3.17s4.67-1.47,6.45-3.17c1.95-1.88,4.17-4,8.52-4s6.56,2.13,8.52,4c1.77,1.7,3.3,3.17,6.44,3.17v3c-4.34,0-6.56-2.13-8.52-4-1.77-1.7-3.31-3.17-6.44-3.17s-4.67,1.47-6.45,3.17c-2,1.88-4.17,4-8.52,4s-6.56-2.13-8.52-4c-1.77-1.7-3.3-3.17-6.44-3.17s-4.67,1.47-6.45,3.17c-1.95,1.88-4.17,4-8.52,4s-6.56-2.13-8.52-4c-1.78-1.7-3.31-3.17-6.45-3.17s-4.67,1.47-6.44,3.17C106.77,106.42,104.55,108.55,100.2,108.55Z"/><path class="j" d="M535.37,295.65c17.34,3,17.54,25.11,22.35,32.13s18.11,4,23.6,15.62-6.64,26.15,1.45,38.2-3.37,12.75.38,23.3,12.91,11.85,12.91,35.1H482.2c0-31.29,11.75-32.89,14.64-53.58S481.48,352.28,485.23,341s17.63-11,23-17.17S518,292.64,535.37,295.65Z"/><path class="m" d="M582.77,381.6c-8.09-12.05,4.05-26.61-1.45-38.2s-18.78-8.59-23.6-15.62-5-29.11-22.35-32.13a16.38,16.38,0,0,0-3-.24c-.09.13-21.49,30.92-10.3,45.78s35.24,6,36.51,9.61-23,12.4-16.45,25.81,24.37,12.8,26.29,16.1-11.11,5.57-6,15.17,33.66,11.49,33.66,32.12c0-23.25-9.15-24.56-12.91-35.1S590.86,393.65,582.77,381.6Z"/><path class="c" d="M434,397.36c-5-22,29.72-30.13,65.89-44.68l3.18-13.55,2.76,11.09c34.4-14.54,68.23-35.86,68.74-81.28-6.26,12.22-18.84,16.45-33.86,18.24l-6.93.66c-23.2,1.74-50.48,0-69.32,12.61C409.09,337.66,434,397.36,434,397.36Zm86.79-67.73c-.41-1.43.73-3,2.53-3.51s3.59.22,4,1.65-.73,3-2.53,3.51S521.18,331.06,520.77,329.63Z"/><path class="d" d="M574.55,268.94C559,340.47,427.21,296.17,428.46,369.22h0A88.93,88.93,0,0,0,434,397.36c-5-22,29.72-30.13,65.89-44.68l5.94-2.46C540.21,335.68,574,314.36,574.55,268.94Z"/><path class="n" d="M514.25,328.51c-40.64,0-60.77,42.57-43.2,83.85l2.46-6.7c-7.46-22.84-4.63-43.38,7.83-56.29,7.26-7.52,18.12-12.19,32.91-12.19s25.66,4.67,32.92,12.19c12.46,12.91,15.29,33.45,7.83,56.29l2.46,6.7C575,371.08,554.89,328.51,514.25,328.51Z"/><path class="o" d="M491,334l-.75.4Z"/><path class="o" d="M498.53,330.87l-.62.21Z"/><path class="o" d="M492.34,333.33l-.73.37Z"/><path class="o" d="M507.06,329l-.21,0Z"/><path class="o" d="M488.57,335.4c-.93.56-1.83,1.15-2.71,1.78C486.74,336.55,487.64,336,488.57,335.4Z"/><path class="o" d="M489.76,334.69l-.77.45Z"/><path class="o" d="M505.26,329.25l-.55.1Z"/><path class="o" d="M502.08,329.89l-.6.15Z"/><path class="o" d="M497.08,331.36l-.68.25Z"/><path class="o" d="M503.67,329.54l-.62.13Z"/><path class="o" d="M494.23,332.48l-1.1.49Z"/><path class="o" d="M495.65,331.89l-.69.28Z"/><path class="o" d="M510.8,328.62l-.6,0Z"/><path class="o" d="M480.63,341.52c-.27.26-.54.52-.8.79C480.09,342,480.36,341.78,480.63,341.52Z"/><path class="o" d="M483.42,339.05c-.93.75-1.82,1.54-2.68,2.37C481.6,340.59,482.49,339.8,483.42,339.05Z"/><path class="o" d="M479.65,342.49l-.79.83Z"/><path class="o" d="M500.39,330.32l-.44.12Z"/><path class="o" d="M485.55,337.4l-.81.6Z"/><path class="o" d="M512.52,328.54l-.54,0Z"/><path class="o" d="M484.42,338.24c-.27.21-.54.42-.8.64C483.88,338.66,484.15,338.45,484.42,338.24Z"/><path class="o" d="M509.06,328.76l-.56.05Z"/><path class="p" d="M514.25,328.51c-.58,0-1.15,0-1.73,0C513.1,328.52,513.67,328.51,514.25,328.51Z"/><path class="p" d="M501.48,330l-1.09.28Z"/><path class="p" d="M506.85,329l-1.59.24Z"/><path class="p" d="M508.5,328.81l-1.44.17Z"/><path class="p" d="M504.71,329.35l-1,.19Z"/><path class="p" d="M503.05,329.67l-1,.22Z"/><path class="p" d="M512,328.56l-1.18.06Z"/><path class="p" d="M510.2,328.66l-1.14.1Z"/><path class="p" d="M483.62,338.88l-.2.17Z"/><path class="p" d="M485.86,337.18l-.31.22Z"/><path class="p" d="M480.74,341.42l-.11.1Z"/><path class="p" d="M484.74,338l-.32.24Z"/><path class="p" d="M478.86,343.32l-.08.09Z"/><path class="p" d="M479.83,342.31l-.18.18Z"/><path class="p" d="M500,330.44l-1.42.43Z"/><path class="p" d="M496.4,331.61l-.75.28Z"/><path class="p" d="M497.91,331.08l-.83.28Z"/><path class="p" d="M495,332.17l-.73.31Z"/><path class="p" d="M491.61,333.7l-.58.3Z"/><path class="p" d="M490.28,334.4l-.52.29Z"/><path class="p" d="M489,335.14l-.42.26Z"/><path class="p" d="M493.13,333l-.79.36Z"/><path class="o" d="M537.48,334l.75.4Z"/><path class="o" d="M530,330.87l.62.21Z"/><path class="o" d="M536.16,333.33l.74.37Z"/><path class="o" d="M521.45,329l.2,0Z"/><path class="o" d="M539.94,335.4c.93.56,1.83,1.15,2.71,1.78C541.77,336.55,540.87,336,539.94,335.4Z"/><path class="o" d="M538.75,334.69l.76.45Z"/><path class="o" d="M523.24,329.25l.56.1Z"/><path class="o" d="M526.43,329.89l.6.15Z"/><path class="o" d="M531.43,331.36l.68.25Z"/><path class="o" d="M524.84,329.54l.62.13Z"/><path class="o" d="M534.28,332.48l1.1.49Z"/><path class="o" d="M532.86,331.89l.69.28Z"/><path class="o" d="M517.71,328.62l.6,0Z"/><path class="o" d="M547.88,341.52c.27.26.54.52.8.79C548.42,342,548.15,341.78,547.88,341.52Z"/><path class="o" d="M545.09,339.05c.93.75,1.82,1.54,2.68,2.37C546.91,340.59,546,339.8,545.09,339.05Z"/><path class="o" d="M548.86,342.49l.79.83Z"/><path class="o" d="M528.12,330.32l.44.12Z"/><path class="o" d="M543,337.4l.81.6Z"/><path class="o" d="M516,328.54l.53,0Z"/><path class="o" d="M544.09,338.24c.27.21.54.42.8.64C544.63,338.66,544.36,338.45,544.09,338.24Z"/><path class="o" d="M519.45,328.76l.56.05Z"/><path class="p" d="M514.25,328.51c.59,0,1.16,0,1.74,0C515.41,328.52,514.84,328.51,514.25,328.51Z"/><path class="p" d="M527,330l1.09.28Z"/><path class="p" d="M521.65,329q.81.11,1.59.24Q522.46,329.12,521.65,329Z"/><path class="p" d="M520,328.81l1.44.17Z"/><path class="p" d="M523.8,329.35l1,.19Z"/><path class="p" d="M525.46,329.67l1,.22Z"/><path class="p" d="M516.52,328.56l1.19.06Z"/><path class="p" d="M518.31,328.66l1.14.1Z"/><path class="p" d="M544.89,338.88l.2.17Z"/><path class="p" d="M542.65,337.18l.31.22Z"/><path class="p" d="M547.77,341.42l.11.1Z"/><path class="p" d="M543.77,338l.32.24Z"/><path class="p" d="M549.65,343.32l.08.09Z"/><path class="p" d="M548.68,342.31l.18.18Z"/><path class="p" d="M528.56,330.44l1.42.43Z"/><path class="p" d="M532.11,331.61l.75.28Z"/><path class="p" d="M530.6,331.08l.83.28Z"/><path class="p" d="M533.55,332.17l.73.31Z"/><path class="p" d="M536.9,333.7l.58.3Z"/><path class="p" d="M538.23,334.4l.52.29Z"/><path class="p" d="M539.51,335.14c.15.08.29.17.43.26C539.8,335.31,539.66,335.22,539.51,335.14Z"/><path class="p" d="M535.38,333l.78.36Z"/><path class="l" d="M552.19,346.3h0c-.27-.34-.55-.67-.83-1l-.32-.39c-.43-.51-.87-1-1.32-1.49l-.08-.09-.79-.83-.18-.18c-.26-.27-.53-.53-.8-.79l-.11-.1c-.86-.83-1.75-1.62-2.68-2.37l-.2-.17c-.26-.22-.53-.43-.8-.64l-.32-.24-.81-.6-.31-.22c-.88-.63-1.78-1.22-2.71-1.78-.14-.09-.28-.18-.43-.26l-.76-.45-.52-.29-.75-.4-.58-.3-.74-.37-.78-.36-1.1-.49-.73-.31-.69-.28-.75-.28-.68-.25-.83-.28-.62-.21-1.42-.43-.44-.12L527,330l-.6-.15-1-.22-.62-.13-1-.19-.56-.1q-.78-.13-1.59-.24l-.2,0-1.44-.17-.56-.05-1.14-.1-.6,0-1.19-.06-.53,0c-.58,0-1.15,0-1.74,0s-1.15,0-1.73,0l-.54,0-1.18.06-.6,0-1.14.1-.56.05-1.44.17-.21,0-1.59.24-.55.1-1,.19-.62.13-1,.22-.6.15-1.09.28-.44.12-1.42.43-.62.21-.83.28-.68.25-.75.28-.69.28-.73.31-1.1.49-.79.36-.73.37-.58.3-.75.4-.52.29-.77.45-.42.26c-.93.56-1.83,1.15-2.71,1.78l-.31.22-.81.6-.32.24c-.27.21-.54.42-.8.64l-.2.17c-.93.75-1.82,1.54-2.68,2.37l-.11.1c-.27.26-.54.52-.8.79l-.18.18-.79.83-.08.09c-.45.48-.89,1-1.32,1.49l-.32.39c-.28.34-.56.67-.83,1h0c-12.78,16.23-15.77,41.37-5.26,66.06l1-2.84a74.57,74.57,0,0,1-5.25-29c0-8.14,3.08-23.65,11.54-33,10.61-11.77,22.47-15.7,35.87-15.71s25.27,3.94,35.88,15.71c8.46,9.39,11.54,24.9,11.54,33a74.57,74.57,0,0,1-5.25,29l1,2.84C568,387.67,565,362.53,552.19,346.3Z"/><ellipse class="i" cx="530.6" cy="414.77" rx="19.02" ry="2.92" transform="translate(-43.75 766.46) rotate(-69.49)"/><ellipse class="i" cx="497.91" cy="414.77" rx="2.92" ry="19.02" transform="translate(-113.74 200.7) rotate(-20.51)"/><ellipse class="n" cx="478.91" cy="422.5" rx="5.22" ry="18.61" transform="translate(-119.24 198.73) rotate(-20.91)"/><path class="q" d="M484.23,397.41a3,3,0,0,0-3.23,0c-1.53,1.09-4.64,10.67-4.64,10.67l10.78,26.66s6.37,5.93,8.63,5.2a4.5,4.5,0,0,0,2.74-3.24Z"/><rect class="q" x="489.05" y="393.29" width="9.82" height="46.25" rx="4.91" transform="translate(1102.19 634.28) rotate(159.58)"/><path class="l" d="M497.45,439.81a1.06,1.06,0,0,0,.51-.14,1,1,0,0,0,.35-1.37,112.26,112.26,0,0,1-14.54-41.51,1,1,0,0,0-2,.28,114.24,114.24,0,0,0,14.8,42.25A1,1,0,0,0,497.45,439.81Z"/><ellipse class="n" cx="549.6" cy="422.5" rx="18.61" ry="5.22" transform="translate(-41.22 785.13) rotate(-69.09)"/><path class="q" d="M544.28,397.41a3,3,0,0,1,3.23,0c1.53,1.09,4.64,10.67,4.64,10.67l-10.78,26.66s-6.37,5.93-8.63,5.2A4.5,4.5,0,0,1,530,436.7Z"/><rect class="q" x="529.63" y="393.29" width="9.82" height="46.25" rx="4.91" transform="translate(178.91 -160.36) rotate(20.42)"/><path class="l" d="M531.06,439.81a1.06,1.06,0,0,1-.51-.14,1,1,0,0,1-.35-1.37,112.26,112.26,0,0,0,14.54-41.51,1,1,0,1,1,2,.28,114.42,114.42,0,0,1-14.8,42.25A1,1,0,0,1,531.06,439.81Z"/><circle class="r" cx="515.12" cy="132.55" r="58"/><rect class="i" x="70.26" y="356.91" width="149.57" height="1" transform="translate(-210.24 207.25) rotate(-45)"/><rect class="i" x="144.6" y="282.42" width="1" height="149.57" transform="translate(-87.51 49.73) rotate(-15)"/><rect class="i" x="144.57" y="282.43" width="1" height="149.57" transform="translate(-159.17 120.39) rotate(-30)"/><rect class="i" x="144.55" y="282.45" width="1" height="149.57" transform="translate(-210.12 207.2) rotate(-45)"/><rect class="i" x="144.53" y="282.48" width="1" height="149.57" transform="translate(-236.89 304.23) rotate(-60)"/><rect class="i" x="144.52" y="282.51" width="1" height="149.57" transform="translate(-237.63 404.89) rotate(-75)"/><rect class="i" x="70.23" y="356.82" width="149.57" height="1"/><rect class="i" x="70.23" y="356.85" width="149.57" height="1" transform="translate(-87.76 49.87) rotate(-15.04)"/><rect class="i" x="70.24" y="356.89" width="149.57" height="1" transform="translate(-159.36 120.52) rotate(-30.02)"/><rect class="i" x="70.29" y="356.93" width="149.57" height="1" transform="translate(-236.99 304.2) rotate(-59.98)"/><rect class="i" x="70.32" y="356.94" width="149.57" height="1" transform="translate(-237.75 404.82) rotate(-74.96)"/><rect class="i" x="144.63" y="282.42" width="1" height="149.57"/><polygon class="n" points="157.73 357.2 155.7 359.07 156.97 361.51 154.42 362.57 154.78 365.3 152.03 365.42 151.43 368.11 148.8 367.29 147.32 369.61 145.13 367.93 142.94 369.61 141.46 367.29 138.83 368.11 138.23 365.42 135.48 365.3 135.84 362.57 133.29 361.51 134.56 359.07 132.53 357.2 134.56 355.34 133.29 352.89 135.84 351.84 135.48 349.11 138.23 348.98 138.83 346.29 141.46 347.12 142.94 344.8 145.13 346.47 147.32 344.8 148.8 347.12 151.43 346.29 152.03 348.98 154.78 349.11 154.43 351.84 156.97 352.89 155.7 355.34 157.73 357.2"/><path class="n" d="M147.44,370.34l-2.31-1.78-2.32,1.78-1.57-2.46-2.78.87-.63-2.84-2.91-.13.37-2.9-2.7-1.11,1.35-2.59-2.15-2,2.15-2-1.35-2.59,2.7-1.12-.37-2.89,2.91-.13.63-2.85,2.78.88,1.57-2.46,2.32,1.77,2.32-1.77,1.57,2.46,2.78-.88.63,2.85,2.91.13-.37,2.89,2.69,1.12-1.34,2.59,2.14,2-2.14,2,1.34,2.59L155,362.88l.37,2.9-2.91.13-.63,2.84-2.78-.87Zm-5.77-3.64,1.4,2.18,2.06-1.58,2.06,1.58,1.4-2.18,2.47.77.56-2.53,2.59-.11-.33-2.58,2.39-1-1.19-2.3L157,357.2l-1.91-1.75,1.19-2.3-2.39-1,.33-2.57-2.59-.11-.56-2.54-2.48.78-1.39-2.19-2.06,1.58-2.06-1.58-1.4,2.19-2.47-.78-.56,2.53-2.59.12.33,2.57-2.39,1,1.19,2.3-1.91,1.75,1.91,1.76-1.19,2.3,2.39,1-.33,2.57,2.59.12.56,2.53Z"/><polygon class="q" points="155.1 357.2 153.41 359.09 154.11 361.53 151.77 362.5 151.34 365 148.81 364.86 147.35 366.92 145.13 365.69 142.91 366.92 141.44 364.86 138.91 365 138.49 362.5 136.15 361.53 136.85 359.09 135.16 357.2 136.85 355.31 136.15 352.88 138.49 351.91 138.91 349.41 141.44 349.55 142.91 347.48 145.13 348.71 147.35 347.48 148.81 349.55 151.34 349.41 151.77 351.91 154.11 352.88 153.41 355.31 155.1 357.2"/><path class="q" d="M147.5,367.58l-2.37-1.32-2.37,1.32-1.56-2.21-2.7.15-.46-2.67-2.5-1,.75-2.6-1.8-2,1.8-2-.75-2.6,2.5-1,.46-2.67,2.7.16,1.56-2.21,2.37,1.31,2.37-1.31,1.56,2.21,2.7-.15.46,2.66,2.5,1-.75,2.6,1.8,2-1.8,2,.75,2.6-2.51,1-.45,2.67-2.7-.15Zm-5.81-3.24,1.37,1.93,2.07-1.15,2.07,1.15,1.37-1.93,2.36.13.39-2.33,2.19-.9-.66-2.27,1.58-1.77-1.58-1.76.66-2.27-2.19-.9-.39-2.34-2.36.14-1.37-1.93-2.07,1.14-2.07-1.14-1.37,1.93-2.36-.14-.39,2.33-2.19.91.66,2.27-1.58,1.76,1.58,1.77-.66,2.27,2.19.9.39,2.33Z"/><polygon class="l" points="152.14 357.2 150.81 359.05 150.8 361.33 148.64 362.04 147.3 363.87 145.13 363.18 142.96 363.87 141.62 362.04 139.46 361.32 139.45 359.05 138.12 357.2 139.45 355.36 139.46 353.08 141.62 352.37 142.96 350.53 145.13 351.23 147.3 350.53 148.64 352.37 150.8 353.08 150.81 355.36 152.14 357.2"/><path class="l" d="M147.49,364.46l-2.36-.76-2.36.76-1.46-2-2.35-.77v-2.48l-1.45-2,1.45-2v-2.47l2.35-.78,1.46-2,2.36.75,2.36-.75,1.46,2,2.35.78v2.47l1.45,2-1.45,2v2.48l-2.35.77ZM140,361l2,.65,1.22,1.68,2-.64,2,.64,1.22-1.68,2-.65v-2.07l1.22-1.69-1.22-1.68v-2.08l-2-.65-1.22-1.67-2,.63-2-.63-1.22,1.67-2,.65v2.08l-1.22,1.68,1.22,1.69Z"/><circle class="h" cx="145.13" cy="357.2" r="2.1"/><path class="n" d="M145.13,279.4a77.8,77.8,0,1,1-77.8,77.8,77.89,77.89,0,0,1,77.8-77.8m0-5a82.8,82.8,0,1,0,82.8,82.8,82.81,82.81,0,0,0-82.8-82.8Z"/><path class="q" d="M145.13,282.56A74.64,74.64,0,1,1,70.5,357.2a74.73,74.73,0,0,1,74.63-74.64m0-5a79.64,79.64,0,1,0,79.64,79.64,79.64,79.64,0,0,0-79.64-79.64Z"/><path class="i" d="M145.13,283.79A73.42,73.42,0,1,1,71.72,357.2a73.49,73.49,0,0,1,73.41-73.41m0-3a76.42,76.42,0,1,0,76.42,76.41,76.41,76.41,0,0,0-76.42-76.41Z"/><path class="f" d="M210.46,354.74C199,357,199.59,368.86,197.19,373s-7.79,4.43-10.26,12.62,3.89,15.16.9,25.16-9,13-9,29.2h63.64c0-17.17-12.85-20.62-7.5-34.09,4.46-11.26,6.38-17.35-5.94-31.4C224.64,369.46,223,352.26,210.46,354.74Z"/><path class="g" d="M235,405.9c4.46-11.26,6.38-17.35-5.94-31.4-4.23-4.81-5.91-20.7-17-20,0,17.19,13.93,22.32,15.14,25.49s-17.42,6.56-8.24,33c5.64,16.22,19,10.77,23.52,27C242.51,422.82,229.66,419.37,235,405.9Z"/><path class="c" d="M426.79,360.81c20.81-52.21,57.61-60.36,86.81-105.13a49.67,49.67,0,0,0,3-5.38L486.7,238.12l36-4.92c12.91-50.61,3.72-136.93,56.25-157.73-52.74,7.22-100.36,36.78-129.25,78.11l8.9,8.22-13.92-.64A156.45,156.45,0,0,0,422,223.44C413.61,287.15,431,298,426.79,360.81Z"/><path class="d" d="M578.92,75.47C517.5,93.15,435.8,202.4,426.79,360.81c20.81-52.21,57.61-60.36,86.81-105.13a49.67,49.67,0,0,0,3-5.38L486.7,238.12l36-4.92C535.58,182.59,526.39,96.27,578.92,75.47Z"/><path class="j" d="M294.86,360.86c-22.74,0-20.21,34.27-35.33,34.27s-23.92-8.89-32.3-2.68S213.77,419.74,206,421.86s-12.38-7.24-25.42-4.62S156.86,440,140.65,440H294.86Z"/><path class="c" d="M46.92,245.26c15.28,14.51,36,19,58.31,23.63l16.64-7.17-9.37,8.69q3.38.72,6.78,1.48l14.92-6.59-7.07,8.47h0c22,5.59,44.44,14.39,63.89,35.4a159.24,159.24,0,0,0,44.25,33.95l34-8.89-19.72,15.6C286,365.46,319.08,369.71,343.18,416c0,0-17.45-147.58-107.79-181.82-23.61-8.94-44.47-11.84-63.26-11.41l-11.69.7C113.48,227.93,79.67,251.34,46.92,245.26Zm176.35,70.38c1.19-1.36,3.74-1.08,5.7.63s2.6,4.21,1.41,5.57-3.74,1.08-5.71-.63S222.08,317,223.27,315.64Z"/><path class="d" d="M127.13,273.77h0c22,5.59,44.44,14.39,63.89,35.4a159.24,159.24,0,0,0,44.25,33.95l34-8.89-19.72,15.6C286,365.46,319.08,369.71,343.18,416c-18.08-49.69-41.59-113.24-109.57-149.77-77-41.36-154.34-1.81-186.69-20.92,15.28,14.51,36,19,58.31,23.63l16.64-7.17-9.37,8.69q3.38.72,6.78,1.48Zm103.25,48.07c-1.19,1.36-3.74,1.08-5.71-.63s-2.59-4.21-1.4-5.57,3.74-1.08,5.7.63S231.57,320.48,230.38,321.84Z"/><path class="r" d="M515.12,74.55a58,58,0,0,1,58,58"/><path class="j" d="M81,373.68c7.28,1.38,7.37,11.53,9.39,14.76s7.61,1.85,9.92,7.17-2.8,12,.6,17.56-1.41,5.86.16,10.7,5.43,5.44,5.43,16.13H58.64c0-14.38,4.94-15.11,6.15-24.62s-6.46-15.68-4.88-20.87,7.41-5.05,9.66-7.89S73.69,372.3,81,373.68Z"/><path class="m" d="M100.89,413.17c-3.4-5.54,1.7-12.23-.6-17.56s-7.9-3.94-9.92-7.17S88.26,375.06,81,373.68a6.16,6.16,0,0,0-1.25-.11c0,.06-9,14.2-4.33,21s14.81,2.75,15.34,4.41-9.65,5.7-6.91,11.86,10.24,5.88,11,7.4-4.66,2.56-2.54,7,14.15,5.28,14.15,14.76c0-10.69-3.85-11.29-5.43-16.13S104.29,418.7,100.89,413.17Z"/><path class="c" d="M327.58,232.73A114.84,114.84,0,0,0,312,186.64l-10.23.23,6.68-5.88c-20.51-30.82-54.95-53.32-93.54-59.51,38.2,16.15,30,79.35,38.61,116.71l26.32,4.22-22.18,8.43a38.53,38.53,0,0,0,2.13,4c20.68,33.35,47.55,40,61.93,78.63C319.68,287.3,332.65,279.63,327.58,232.73Z"/><path class="d" d="M253.53,238.19l26.32,4.22-22.18,8.43a38.53,38.53,0,0,0,2.13,4c20.68,33.35,47.55,40,61.93,78.63-3.92-116.41-62-198-106.81-212C253.12,137.63,244.91,200.83,253.53,238.19Z"/><path class="s" d="M320.47,213.75h1V251h-1a1.31,1.31,0,0,1-1.31-1.31V215.05A1.31,1.31,0,0,1,320.47,213.75Z"/><path class="s" d="M320.47,264.75h1v21.58h-1a1.31,1.31,0,0,1-1.31-1.31v-19A1.31,1.31,0,0,1,320.47,264.75Z"/><path class="s" d="M444.39,249.71h-1v21.58h1a1.31,1.31,0,0,0,1.3-1.31V251A1.31,1.31,0,0,0,444.39,249.71Z"/><rect class="q" x="320.8" y="175.16" width="123.59" height="264.84" rx="13.73"/><rect class="j" x="323.74" y="188.57" width="117.7" height="240.64" rx="7.85"/><path class="s" d="M351.2,183.67a2.62,2.62,0,1,1-2.61-2.62,2.61,2.61,0,0,1,2.61,2.62"/><path class="s" d="M408.09,183.5a2.45,2.45,0,1,1-2.45-2.45,2.44,2.44,0,0,1,2.45,2.45"/><path class="s" d="M341.4,183.67a1.31,1.31,0,1,1-1.31-1.31,1.31,1.31,0,0,1,1.31,1.31"/><path class="s" d="M364.61,183.67a1.31,1.31,0,1,1-1.31-1.31,1.31,1.31,0,0,1,1.31,1.31"/><path class="s" d="M359.05,183.67a2,2,0,1,1-2-2,2,2,0,0,1,2,2"/><path class="s" d="M418.88,183.5a1.8,1.8,0,1,1-1.79-1.8,1.79,1.79,0,0,1,1.79,1.8"/><path class="s" d="M374.58,181.38h16a1.15,1.15,0,1,1,0,2.29h-16a1.15,1.15,0,0,1,0-2.29Z"/><rect class="f" x="348.1" y="377.55" width="68.99" height="14.65" rx="7.33" transform="translate(765.18 769.74) rotate(180)"/><rect class="i" x="328.8" y="224.35" width="107.58" height="127.96" rx="4"/><rect class="t" x="333.48" y="305.09" width="55.49" height="6.11"/><polygon class="t" points="333.48 319.04 333.48 326.44 333.48 333.85 411.63 333.85 411.63 326.44 426.69 326.44 426.69 319.04 333.48 319.04"/><rect class="c" x="328.52" y="235.45" width="107.86" height="54.5"/><circle class="e" cx="373.24" cy="364.89" r="2.58"/><circle class="d" cx="382.56" cy="364.89" r="2.58"/><circle class="d" cx="391.95" cy="364.89" r="2.58"/><circle class="i" cx="398.12" cy="260.89" r="1.81"/><path class="e" d="M405.63,257.12a7.44,7.44,0,0,1-1.47,4.44H392.08a7.5,7.5,0,1,1,13.55-4.44Z"/><path class="d" d="M396.78,261.56h-4.7a7.49,7.49,0,0,1,6-11.95C396.06,249.61,393.24,254.3,396.78,261.56Z"/><line class="u" x1="398.12" y1="249.61" x2="398.12" y2="235.45"/><circle class="i" cx="383.31" cy="269.57" r="2.43"/><path class="e" d="M393.38,264.52a10,10,0,0,1-2,6h-16.2a10.06,10.06,0,1,1,18.17-6Z"/><path class="d" d="M381.52,270.48h-6.31a10.05,10.05,0,0,1,8.1-16C380.55,254.45,376.76,260.74,381.52,270.48Z"/><line class="u" x1="383.31" y1="254.45" x2="383.31" y2="235.45"/><path class="j" d="M530.6,440c2.46,0,4.36-5.92,10.1-5.92S551,440,556.65,440h-26"/><path class="j" d="M467.91,440c2.46,0,4.36-5.92,10.1-5.92S488.29,440,494,440H467.91"/><path class="j" d="M369.37,440c9.19,0,16.66-4.72,23.35-4.72s11.75,2.92,15.94,2.92,7.5-5.69,13.64-5.69,10.18,7.6,19.47,7.6Z"/><path class="i" d="M246.32,58.8s2.25-6.64,7.25-6.64,8.53,4.94,8.53,4.94,3.37-2.55,6.43-2.55c4.62,0,7.94,4.25,10.4,4.25Z"/><path class="i" d="M197.93,80.45s2.58-12.09,12.14-12.09S223,77.47,223,77.47s3.13-4.65,7.88-4.65c9.06,0,9.5,7.63,19.82,7.63Z"/><path class="j" d="M343.15,430.14c0,8,11.74,9.86,17.78,9.86l-46.69,0v-9.82l5.16-4.2Z"/><path class="c" d="M477.26,446.89c1.33-6,1-10.4-3.35-14.59-4.13-3.94-10-5.21-10.9-10-1.64,10.49,5.42,16.32,9.6,17.21C475.06,440,477.1,443.08,477.26,446.89Z"/><path class="c" d="M477.78,443.8c1.64-9.26,5.33-8.8,8.08-14s-2.61-18.25,4.1-22.3c-9.28,1.8-15.74,11.29-15.42,20.33C474.8,435.47,477.49,434.93,477.78,443.8Z"/><path class="c" d="M204.43,442.51c3.94-2.25,7.88-.6,10.34-5.28s6.45-6.28,8.41-5.6C216.23,428.42,204.9,433,204.43,442.51Z"/><path class="c" d="M203.05,442.58c4.22-10.05-12.85-17.08-7.69-29.76-.16,6,7.3,7.7,10.82,12.48S207.4,439,203.05,442.58Z"/><path class="c" d="M203.93,441.91c-1.24-.91-6.16-1.48-7-4.67-.91-3.65-5.66-4.55-7-4.09C192.41,431.34,206.77,431.12,203.93,441.91Z"/><path class="e" d="M266.76,367.45c-8.14,6-11.5,17.71-15.73,27.17l3.39,2.34-4.71.47c-3,6-6.68,10.67-12.75,11.46,19.13,6.62,33.16-4.35,44.45-16.59l-4.24-2.83,6.16.71c11.55-13,20.2-26.3,28.66-20.91C312,369.27,290.7,349.85,266.76,367.45Zm4.39,30.34a1.92,1.92,0,1,1-.14-3A2.17,2.17,0,0,1,271.15,397.79Z"/><path class="c" d="M281.41,392.3l-4.24-2.83,6.16.71c11.55-13,20.2-26.3,28.66-20.91a39.66,39.66,0,0,0-11-6.55h0c-30.45-11.52-31.71,50.41-64.06,46.17C256.09,415.51,270.12,404.54,281.41,392.3Zm-13.33,3.29a2,2,0,1,1,.14,3.07A2.2,2.2,0,0,1,268.08,395.59Z"/><path class="j" d="M317.09,347.75c-9.35,2.2-8.83,13.65-10.78,17.66s-6.34,4.28-8.34,12.2,3.16,14.65.72,24.32-7.28,12.59-7.28,28.21h51.74c0-16.59-10.45-19.92-6.1-32.95,3.63-10.87,5.19-16.76-4.83-30.33C328.62,362,327.3,345.35,317.09,347.75Z"/><path class="m" d="M337.05,397.19c3.63-10.87,5.19-16.76-4.83-30.33-3.43-4.66-4.8-20-13.8-19.31,0,8.2-5.92,12.3-1.14,18.71s9.61,5.2,11,9.3-15.85,15.85-10.39,29.1,21.6,9.83,25.28,25.48C343.15,413.55,332.7,410.22,337.05,397.19Z"/><ellipse class="h" cx="500.39" cy="213.75" rx="6.93" ry="5.39" transform="translate(33.25 492.78) rotate(-53.98)"/><polygon class="d" points="306.14 440 329.93 444.44 440.75 444.44 464.67 440 306.14 440"/><path class="j" d="M358.05,461.38c-3.21,0-6.3-4.24-10.85-4.24a13.7,13.7,0,0,0-8.13,3.16,17.13,17.13,0,0,0-6.29-1.62c-3,0-6.86,2.7-10.65,2.7Z"/><polygon class="e" points="121.67 475 310.23 475 159.98 490.52 121.67 475"/><path class="j" d="M122.63,451.72s3.73-5.65,10.19-5.65A14.35,14.35,0,0,1,143,450.28a22.28,22.28,0,0,1,8.31-2.15c5.95,0,10.24,3.59,13.42,3.59Z"/><path class="j" d="M506,301.36c1.55,2.15-.46,6.66-.46,6.66l-1-.31.63,3.5-2.5-.36s-1.8-7.74-.47-9.62C502.93,300.09,505.25,300.39,506,301.36Z"/><polygon class="j" points="509.57 324.22 496.24 327.69 500.41 307.21 506.18 309.4 509.57 324.22"/><polygon class="j" points="503.21 304.78 494.45 304.78 493.53 304.12 500.43 301.78 500.93 299.12 504.39 297.7 506.41 300.12 511.52 298.91 511.52 299.88 503.21 304.78"/><polygon class="j" points="497.3 327.13 498.21 328.92 507.87 331.76 503.5 349.78 505.29 348.91 508.02 343.28 511.85 340.84 518.4 331.03 509.57 324.22 503.5 323.91 497.3 327.13"/><path class="v" d="M514,315.59c6.91-12.13,16.38-18.13,28.49-20.46"/><polygon class="j" points="508.12 317.88 514.47 313.78 517.8 309.09 516.18 315.59 508.9 324.5 508.12 317.88"/><path class="i" d="M513.61,440.38a.38.38,0,0,1-.37-.29c-7.28-30.46,4.59-57.75,15.06-81.82,9.59-22,18.65-42.85,11.77-62.58a.38.38,0,0,1,.23-.48.39.39,0,0,1,.48.23c7,20-2.14,41-11.79,63.13-10.43,24-22.24,51.13-15,81.34a.37.37,0,0,1-.28.45Z"/><path class="d" d="M541.29,530.05a3.48,3.48,0,0,1-2.28,3.19c-1.83.35-2.13-2.24-3.81-1.92-3.09.58-4.26,18-9.41,19s-5.6-18.94-8.09-18.47-2,7.3-5.7,8c-2,.38-3.37-2.18-3.37-7.12V463.26L541.29,457Z"/><path class="c" d="M541.29,473c0,2.12-1.18,5.3-2.93,5.63-2.06.39-3.21-4.73-5.65-4.27-3,.56-4.14,14.87-7.16,15.44S521,479.55,518.44,480s-4,5.16-7,5.73a2.5,2.5,0,0,1-2.83-2.22V463.26L541.29,457Z"/><path class="e" d="M498,440c0,4.79-17.3,5.61-14.93,10.77s20.37,5.65,25.43,12.55L541.29,457c-5.4-5.48-20.4-5.22-22.78-8.43s12.09-3.16,12.09-8.54Z"/><path class="c" d="M488.31,450c-.56-1.56,3.69-3.13,7.3-3.88-2.37,1.19-5.64,3.86,0,6.94C493,452.89,488.88,451.59,488.31,450Z"/><path class="j" d="M348.79,275.82h1.83c0,3.15,3.38,5.44,3.38,9.54a7,7,0,0,1-1.57,4.59h-3.64Z"/><path class="j" d="M348.79,275.82H347c0,3.15-3.38,5.44-3.38,9.54a7,7,0,0,0,1.58,4.59h3.63Z"/><ellipse class="j" cx="348.79" cy="274.24" rx="3.71" ry="2.91"/><path class="j" d="M350.24,271.83c.5-.6,1.74-1.48,2.52-1.33a3.73,3.73,0,0,1-.82,2.73Z"/><path class="j" d="M347.35,271.83c-.5-.6-1.74-1.48-2.52-1.33a3.73,3.73,0,0,0,.82,2.73Z"/><rect class="d" x="383.31" y="280.79" width="53.07" height="9.16"/><path class="w" d="M415.4,280.79v-9h-1.33c0,1.12-1.58,4.34-1.58,5.89s1,2.49,1,3.15Z"/><path class="w" d="M415.4,280.79v-9h1.32c0,1.12,1.59,4.34,1.59,5.89s-1,2.49-1,3.15Z"/></svg>