<svg xmlns="http://www.w3.org/2000/svg" width="660" height="660"><defs><style>.cls-3{fill:#17204c}.cls-4{fill:#3d55cc}.cls-5{fill:#ffb057}.cls-6{fill:#ffc785}.cls-7{fill:#556ff2}.cls-8{fill:#fff}.cls-9{fill:#1f2a66}.cls-10{fill:#50d9e5}.cls-11{fill:#364ab2}.cls-14{fill:#299ba6}.cls-15{fill:#8adee5;opacity:.4}</style></defs><g id="Contact"><path fill="#242459" d="M470 580l-280 50V30h280v550z"/><circle cx="330" cy="330" r="240" fill="#141733"/><path class="cls-3" d="M70.26 440c40.79 0 42-64.54 79-64.54s13.71-90.6 37.18-111 60.05-9.73 81.15-9.73 42.92-70.66 91.45-65.59 41.43 67.56 97.78 81.55 55.21 96.34 64 106.6 19.91-4.7 36 4.42S603.22 440 629 440z"/><path class="cls-4" d="M29 440h600l-439 84.96L29 440z"/><path class="cls-5" d="M589.06 374.1c-9.49 1.75-9 10.91-10.95 14.12s-6.43 3.43-8.46 9.76 3.21 11.72.74 19.45S563 427.5 563 440h52.5c0-13.27-10.6-15.94-6.19-26.35 3.68-8.7 5.27-13.41-4.9-24.27-3.65-3.9-4.99-17.2-15.35-15.28z"/><path class="cls-6" d="M609.31 413.65c3.68-8.7 5.27-13.41-4.9-24.27-3.49-3.72-4.87-16-14-15.44 0 13.28 11.49 17.25 12.49 19.7s-14.37 5.07-6.79 25.52c4.64 12.54 15.66 8.32 19.4 20.84-.01-13.27-10.61-15.94-6.2-26.35z"/><path class="cls-3" d="M500.75 390.88c9.81 0 16.81 21.27 29.39 21.27s19.86-5.52 26.86-1.67 11.19 16.95 17.65 18.26 10.3-4.49 21.14-2.87S615.52 440 629 440H389.45l14.31-59c12.93 0 18.77 11.25 25.92 16s11.46-3.72 20.08-1.36 15.56 14 24.59 12.36 16.24-17.12 26.4-17.12z"/><circle class="cls-7" cx="544.17" cy="100.43" r="2.46"/><circle class="cls-7" cx="544.17" cy="112.77" r="2.46"/><circle class="cls-7" cx="531.83" cy="100.43" r="2.46"/><circle class="cls-7" cx="531.83" cy="112.77" r="2.46"/><circle class="cls-7" cx="544.17" cy="125.11" r="2.46"/><circle class="cls-7" cx="531.83" cy="125.11" r="2.46"/><circle class="cls-7" cx="544.17" cy="137.45" r="2.46"/><circle class="cls-7" cx="531.83" cy="137.45" r="2.46"/><circle class="cls-7" cx="544.17" cy="149.79" r="2.46"/><circle class="cls-7" cx="531.83" cy="149.79" r="2.46"/><circle class="cls-7" cx="544.17" cy="162.13" r="2.46"/><circle class="cls-7" cx="531.83" cy="162.13" r="2.46"/><circle class="cls-7" cx="544.17" cy="174.47" r="2.46"/><circle class="cls-7" cx="531.83" cy="174.47" r="2.46"/><circle class="cls-7" cx="519.49" cy="100.43" r="2.46"/><circle class="cls-7" cx="519.49" cy="112.77" r="2.46"/><circle class="cls-7" cx="507.15" cy="100.43" r="2.46"/><circle class="cls-7" cx="507.15" cy="112.77" r="2.46"/><circle class="cls-7" cx="519.49" cy="125.11" r="2.46"/><circle class="cls-7" cx="507.15" cy="125.11" r="2.46"/><circle class="cls-7" cx="519.49" cy="137.45" r="2.46"/><circle class="cls-7" cx="507.15" cy="137.45" r="2.46"/><circle class="cls-7" cx="519.49" cy="149.79" r="2.46"/><circle class="cls-7" cx="507.15" cy="149.79" r="2.46"/><circle class="cls-7" cx="519.49" cy="162.13" r="2.46"/><circle class="cls-7" cx="507.15" cy="162.13" r="2.46"/><circle class="cls-7" cx="519.49" cy="174.47" r="2.46"/><circle class="cls-7" cx="507.15" cy="174.47" r="2.46"/><circle class="cls-7" cx="494.81" cy="100.43" r="2.46"/><circle class="cls-7" cx="494.81" cy="112.77" r="2.46"/><circle class="cls-7" cx="482.47" cy="100.43" r="2.46"/><circle class="cls-7" cx="482.47" cy="112.77" r="2.46"/><circle class="cls-7" cx="494.81" cy="125.11" r="2.46"/><circle class="cls-7" cx="482.47" cy="125.11" r="2.46"/><circle class="cls-7" cx="494.81" cy="137.45" r="2.46"/><circle class="cls-7" cx="482.47" cy="137.45" r="2.46"/><circle class="cls-7" cx="494.81" cy="149.79" r="2.46"/><circle class="cls-7" cx="482.47" cy="149.79" r="2.46"/><circle class="cls-7" cx="494.81" cy="162.13" r="2.46"/><circle class="cls-7" cx="482.47" cy="162.13" r="2.46"/><circle class="cls-7" cx="494.81" cy="174.47" r="2.46"/><circle class="cls-7" cx="470.13" cy="100.43" r="2.46"/><circle class="cls-7" cx="470.13" cy="112.77" r="2.46"/><circle class="cls-7" cx="470.13" cy="125.11" r="2.46"/><circle class="cls-7" cx="470.13" cy="137.45" r="2.46"/><circle class="cls-7" cx="470.13" cy="149.79" r="2.46"/><circle class="cls-7" cx="470.13" cy="162.13" r="2.46"/><circle class="cls-7" cx="482.47" cy="174.47" r="2.46"/><circle class="cls-7" cx="470.13" cy="174.47" r="2.46"/><circle class="cls-7" cx="457.79" cy="100.43" r="2.46"/><circle class="cls-7" cx="457.79" cy="112.77" r="2.46"/><circle class="cls-7" cx="445.45" cy="100.43" r="2.46"/><circle class="cls-7" cx="445.45" cy="112.77" r="2.46"/><circle class="cls-7" cx="457.79" cy="125.11" r="2.46"/><circle class="cls-7" cx="445.45" cy="125.11" r="2.46"/><circle class="cls-7" cx="457.79" cy="137.45" r="2.46"/><circle class="cls-7" cx="445.45" cy="137.45" r="2.46"/><circle class="cls-7" cx="457.79" cy="149.79" r="2.46"/><circle class="cls-7" cx="445.45" cy="149.79" r="2.46"/><circle class="cls-7" cx="457.79" cy="162.13" r="2.46"/><circle class="cls-7" cx="445.45" cy="162.13" r="2.46"/><circle class="cls-7" cx="457.79" cy="174.47" r="2.46"/><circle class="cls-7" cx="445.45" cy="174.47" r="2.46"/><circle class="cls-7" cx="433.11" cy="100.43" r="2.46"/><circle class="cls-7" cx="433.11" cy="112.77" r="2.46"/><circle class="cls-7" cx="433.11" cy="125.11" r="2.46"/><circle class="cls-7" cx="433.11" cy="137.45" r="2.46"/><circle class="cls-7" cx="433.11" cy="149.79" r="2.46"/><circle class="cls-7" cx="433.11" cy="162.13" r="2.46"/><circle class="cls-7" cx="433.11" cy="174.47" r="2.46"/><path class="cls-8" d="M376.67 72.51s4.49-13.26 14.47-13.26 17 9.86 17 9.86S414.88 64 421 64c9.2 0 15.83 8.48 20.74 8.48zM100.57 239.22S105.11 220 121.89 220a24.8 24.8 0 0122.7 13.91s5.5-6.2 13.84-6.2c15.91 0 17 11.51 26.14 11.51z"/><path class="cls-3" d="M115.58 287c16.81 3.19 17 26.61 21.67 34.06s17.55 4.26 22.88 16.55-6.45 27.73 1.4 40.51-3.27 13.52.37 24.69 12.52 12.56 12.52 37.22H64c0-33.17 11.39-34.88 14.19-56.8S63.33 347 67 335s17.09-11.66 22.27-18.2 9.5-33.02 26.31-29.8z"/><path class="cls-9" d="M161.53 378.09c-7.85-12.78 3.92-28.21-1.4-40.51s-18.21-9.1-22.88-16.55-4.86-30.87-21.67-34.06a14.71 14.71 0 00-2.89-.26c-.09.13-20.83 32.78-10 48.53s34.17 6.34 35.4 10.19-22.26 13.15-15.95 27.36 23.63 13.57 25.48 17.07-10.76 5.9-5.85 16.09 32.64 12.17 32.64 34.05c0-24.66-8.88-26-12.52-37.22s7.48-11.92-.36-24.69z"/><path class="cls-5" d="M80.22 362.27c-12.1 2.07-11.43 12.87-14 16.66s-8.19 4-10.79 11.51 4.09 13.82 1 22.94S47 425.26 47 440h66.92c0-15.65-13.51-18.8-7.89-31.08 4.69-10.26 6.72-15.82-6.24-28.63-4.66-4.59-6.37-20.29-19.57-18.02z"/><path class="cls-6" d="M106 408.92c4.69-10.26 6.72-15.82-6.24-28.63-4.45-4.39-6.21-18.87-17.86-18.21 0 15.67 14.65 20.35 15.92 23.25s-18.32 6-8.66 30.09c5.93 14.79 20 9.82 24.73 24.58.03-15.65-13.48-18.8-7.89-31.08z"/><path class="cls-3" d="M149.23 440c-9.29 0-16.41-13.64-29-13.64s-19.93 10.49-27.73 10.49S81.33 432 74.45 432s-11.58 8-24 8z"/><path class="cls-10" d="M446.68 629.59h-3c0-3.14-1.47-4.67-3.18-6.45-1.88-2-4-4.18-4-8.52s2.13-6.57 4-8.53c1.71-1.77 3.18-3.3 3.18-6.44s-1.47-4.67-3.18-6.45c-1.88-2-4-4.17-4-8.52s2.13-6.56 4-8.52c1.71-1.77 3.18-3.31 3.18-6.44s-1.47-4.67-3.18-6.45c-1.88-1.95-4-4.17-4-8.52s2.13-6.56 4-8.52c1.71-1.77 3.18-3.3 3.18-6.44h3c0 4.34-2.13 6.56-4 8.52-1.71 1.77-3.18 3.31-3.18 6.44s1.47 4.67 3.18 6.45c1.88 1.95 4 4.17 4 8.52s-2.13 6.56-4 8.52c-1.71 1.77-3.18 3.3-3.18 6.44s1.47 4.67 3.18 6.45c1.88 2 4 4.17 4 8.52s-2.13 6.56-4 8.52c-1.71 1.78-3.18 3.31-3.18 6.45s1.47 4.67 3.18 6.44c1.87 1.94 4 4.18 4 8.53zM431.93 629.59h-3c0-3.14-1.47-4.67-3.17-6.45-1.88-2-4-4.18-4-8.52s2.13-6.57 4-8.53c1.7-1.77 3.17-3.3 3.17-6.44s-1.47-4.67-3.17-6.45c-1.88-2-4-4.17-4-8.52s2.13-6.56 4-8.52c1.7-1.77 3.17-3.31 3.17-6.44s-1.47-4.67-3.17-6.45c-1.88-1.95-4-4.17-4-8.52s2.13-6.56 4-8.52c1.7-1.77 3.17-3.3 3.17-6.44h3c0 4.34-2.13 6.56-4 8.52-1.7 1.77-3.17 3.31-3.17 6.44s1.47 4.67 3.17 6.45c1.88 1.95 4 4.17 4 8.52s-2.13 6.56-4 8.52c-1.7 1.77-3.17 3.3-3.17 6.44s1.47 4.67 3.17 6.45c1.88 2 4 4.17 4 8.52s-2.13 6.56-4 8.52c-1.7 1.78-3.17 3.31-3.17 6.45s1.47 4.67 3.17 6.44c1.87 1.94 4 4.18 4 8.53zM417.19 629.59h-3c0-3.14-1.47-4.67-3.17-6.45-1.88-2-4-4.18-4-8.52s2.13-6.57 4-8.53c1.7-1.77 3.17-3.3 3.17-6.44s-1.47-4.65-3.19-6.45c-1.88-2-4-4.17-4-8.52s2.13-6.56 4-8.52c1.7-1.77 3.17-3.31 3.17-6.44s-1.47-4.67-3.17-6.45c-1.88-1.95-4-4.17-4-8.52s2.13-6.56 4-8.52c1.7-1.77 3.17-3.3 3.17-6.44h3c0 4.34-2.13 6.56-4 8.52-1.7 1.77-3.17 3.31-3.17 6.44s1.47 4.67 3.17 6.45c1.88 1.95 4 4.17 4 8.52s-2.13 6.56-4 8.52c-1.7 1.77-3.17 3.3-3.17 6.44s1.47 4.67 3.17 6.45c1.88 2 4 4.17 4 8.52s-2.13 6.56-4 8.52c-1.7 1.78-3.17 3.31-3.17 6.45s1.47 4.67 3.17 6.44c1.89 1.94 4.02 4.18 4.02 8.53zM402.45 629.59h-3c0-3.14-1.47-4.67-3.18-6.45-1.88-2-4-4.18-4-8.52s2.13-6.57 4-8.53c1.71-1.77 3.18-3.3 3.18-6.44s-1.45-4.65-3.18-6.45c-1.88-2-4-4.17-4-8.52s2.13-6.56 4-8.52c1.71-1.77 3.18-3.31 3.18-6.44s-1.47-4.67-3.18-6.45c-1.88-1.95-4-4.17-4-8.52s2.13-6.56 4-8.52c1.71-1.77 3.18-3.3 3.18-6.44h3c0 4.34-2.13 6.56-4 8.52-1.71 1.77-3.18 3.31-3.18 6.44s1.47 4.67 3.18 6.45c1.88 1.95 4 4.17 4 8.52s-2.13 6.56-4 8.52c-1.71 1.77-3.18 3.3-3.18 6.44s1.47 4.67 3.18 6.45c1.88 2 4 4.17 4 8.52s-2.13 6.56-4 8.52c-1.71 1.78-3.18 3.31-3.18 6.45s1.47 4.67 3.18 6.44c1.87 1.94 4 4.18 4 8.53zM387.71 629.59h-3c0-3.14-1.48-4.67-3.18-6.45-1.88-2-4-4.18-4-8.52s2.13-6.57 4-8.53c1.7-1.77 3.18-3.3 3.18-6.44s-1.48-4.67-3.18-6.45c-1.88-2-4-4.17-4-8.52s2.13-6.56 4-8.52c1.7-1.77 3.18-3.31 3.18-6.44s-1.48-4.67-3.18-6.45c-1.88-1.95-4-4.17-4-8.52s2.13-6.56 4-8.52c1.7-1.77 3.18-3.3 3.18-6.44h3c0 4.34-2.13 6.56-4 8.52-1.71 1.77-3.18 3.31-3.18 6.44s1.47 4.67 3.18 6.45c1.88 1.95 4 4.17 4 8.52s-2.13 6.56-4 8.52c-1.71 1.77-3.18 3.3-3.18 6.44s1.47 4.67 3.18 6.45c1.88 2 4 4.17 4 8.52s-2.13 6.56-4 8.52c-1.71 1.78-3.18 3.31-3.18 6.45s1.47 4.67 3.18 6.44c1.87 1.94 4 4.18 4 8.53z"/><path class="cls-3" d="M479 250.51c22.76 4 23 32.95 29.34 42.17s23.77 5.28 31 20.5-8.72 34.34 1.9 50.15-4.43 16.74.5 30.58 16.95 15.56 16.95 46.09H409.2c0-41.08 15.42-43.19 19.22-70.34s-20.17-44.81-15.24-59.66 23.14-14.44 30.16-22.54 12.9-40.91 35.66-36.95z"/><path class="cls-9" d="M541.22 363.33c-10.62-15.81 5.31-34.93-1.9-50.15s-24.66-11.27-31-20.5-6.58-38.22-29.34-42.17a21.61 21.61 0 00-3.92-.33c-.11.17-28.2 40.6-13.52 60.1s46.27 7.85 47.93 12.61-30.13 16.29-21.59 33.89 32 16.8 34.5 21.14-14.57 7.3-7.93 19.92 44.2 15.07 44.2 42.16c0-30.53-12-32.25-16.95-46.09s10.14-14.76-.48-30.58z"/><path class="cls-4" d="M219.94 369c-20.41 12.22-14.27 48.61-50.43 60.12 42.78 6.1 65.67-22.46 79.33-42l-8.08-1.66 10.61-2c5.37-7.81 9.16-13.43 12.23-13.43a3.85 3.85 0 014 2.89c-2.03-9.92-33.6-12.33-47.66-3.92zm-8.77 23.17c-.66 1.63-2 2.63-3 2.22s-1.29-2.07-.63-3.7 2-2.63 3-2.22 1.29 2.09.63 3.73z"/><path class="cls-11" d="M248.84 387.15l-8.08-1.66 10.61-2c5.37-7.81 9.16-13.43 12.23-13.43a3.85 3.85 0 014 2.89c-.92-4.64-8.24-7.64-17.21-8.67l-.44-.05-.9-.08c-31.57-2.94-24.57 62-79.5 65 42.74 6.1 65.63-22.46 79.29-42z"/><path class="cls-3" d="M404.89 471.3c-3.21 0-6.3-4.24-10.85-4.24a13.7 13.7 0 00-8.13 3.16 17.22 17.22 0 00-6.29-1.61c-3 0-6.86 2.69-10.65 2.69z"/><path class="cls-7" d="M121.67 475h188.56l-150.25 15.52L121.67 475z"/><path class="cls-3" d="M122.63 451.72s3.73-5.65 10.19-5.65a14.35 14.35 0 0110.18 4.21 22.28 22.28 0 018.31-2.15c5.95 0 10.24 3.59 13.42 3.59z"/><path class="cls-7" d="M274.61 453.75h253.14L450 465.61l-175.39-11.86z"/><path class="cls-4" d="M360.84 379.28c23-31.9 49.42-31.15 76.89-56.56a35.55 35.55 0 003-3.13l-18.24-13.38 25.26 2.8c17.41-32.16 25.9-92.34 65.12-97.49-37-4.1-74.41 7.84-101.09 31l4.64 7.1-9.34-2.81a109.47 109.47 0 00-26 38.42c-16.61 41.77-6.64 52.14-20.24 94.05z"/><path class="cls-11" d="M512.84 211.52c-44.72 1.48-118.84 61.74-152 167.76 23-31.9 49.42-31.15 76.89-56.56a35.55 35.55 0 003-3.13l-18.24-13.38 25.26 2.8c17.38-32.16 25.87-92.34 65.09-97.49z"/><path class="cls-7" d="M376.43 332.46l-1.11 16.3-1.15 17c44.43-16 79.06 63.36 134.83 33.35-44.59-2.59-46-95.27-132.57-66.65z"/><path class="cls-4" d="M375.63 348.25l-.31.51-1.15 17c44.43-16 79.06 63.36 134.83 33.35-53.75 7.89-64.62-79.28-133.37-50.86z"/><path class="cls-8" d="M330.22 221.78h-2v-7.86h2zm0-15.72h-2v-7.86h2zm0-15.73h-2v-7.86h2zm0-15.72h-2v-2.06c0-1.91-.06-3.84-.18-5.74l2-.12c.13 1.93.19 3.9.19 5.86zm-3-15.52c-.39-2.55-.89-5.12-1.5-7.62l1.94-.48c.62 2.56 1.14 5.19 1.54 7.8zM323.54 144c-.83-2.44-1.77-4.88-2.81-7.24l1.83-.8c1.06 2.41 2 4.9 2.88 7.4zm-6.25-14.2a94.992 94.992 0 00-4-6.64l1.67-1.12c1.47 2.2 2.85 4.49 4.12 6.79zm-8.62-12.91c-1.62-2-3.34-4-5.13-5.84l1.45-1.39c1.82 1.91 3.58 3.92 5.24 6zm-10.74-11.22c-1.93-1.7-4-3.34-6.05-4.87l1.18-1.61c2.13 1.56 4.21 3.24 6.19 5zm-12.51-9.2c-2.21-1.34-4.5-2.6-6.81-3.75l.88-1.79a99.28 99.28 0 017 3.83zm-13.93-6.88c-2.4-.94-4.87-1.78-7.35-2.5l.56-1.92c2.53.74 5.06 1.6 7.52 2.56zm-14.9-4.34c-2.52-.5-5.11-.89-7.68-1.17l.21-2c2.63.29 5.28.69 7.86 1.2zm-15.44-1.67h-7.84v-2h7.92zm-15.7 0h-7.86v-2h7.86z"/><circle cx="163" cy="117.16" r="58" fill="none" stroke="#ffc785" stroke-miterlimit="10" stroke-width="3"/><path class="cls-4" d="M306 235.4a156 156 0 00-33.52-57l-13.55 3.15 7.25-9.69c-35.85-35.32-87.94-55.71-141-53.24 55.34 10.89 62 97.29 83.8 144.63l36.2-1.69L218 278.91a50.38 50.38 0 003.94 4.73c36.78 38.65 74.39 40 104.27 87.46-15.56-60.87-.43-74.68-20.21-135.7z"/><path class="cls-11" d="M209 263.22l36.2-1.69-27.2 17.38a50.38 50.38 0 003.94 4.73c36.78 38.65 74.39 40 104.27 87.46-37.54-153.86-137.55-246.28-201-252.51 55.28 10.89 61.9 97.29 83.79 144.63z"/><path class="cls-7" d="M203.36 300.86c-21 4.46-37.7 24.15-54.14 38.75l4.52 7.47-9.52-3.2c-11.09 9-22.23 14.78-34.64 11 31.16 29.51 67.87 20.56 100.36 6.78l-5.71-9.16 11.28 6.74c33.66-15 62-33.16 73.65-15.34 0 0-24.16-56.14-85.8-43.04zm-18.74 61.22c-1.53.88-3.35.62-4.05-.6s0-2.91 1.51-3.8 3.35-.62 4 .6.07 2.91-1.46 3.8z"/><path class="cls-4" d="M209.94 361.66l-5.71-9.16 11.28 6.74c33.66-15 62-33.16 73.65-15.34a84 84 0 00-15.47-22.24c-48.76-48.88-105.32 69.68-164.11 33.22 31.16 29.51 67.87 20.56 100.36 6.78zm-27.86-4c1.54-.88 3.35-.62 4 .6s0 2.91-1.51 3.8-3.35.62-4.05-.6.03-2.89 1.56-3.78z"/><path d="M324.24 241.43l-82.85 79.27h175.66l-82.85-79.27a7.21 7.21 0 00-9.96 0z" fill="#33bfcc"/><path class="cls-14" d="M241.39 320.7h175.65V440H241.39z"/><path class="cls-8" d="M397.88 414.98H261.09V254.77h104.86l31.93 31.93v128.28z"/><path class="cls-15" d="M261.09 333.25l47.75 40.92h41.42l47.62-41.39v55.72H261.09v-55.25z"/><path class="cls-10" d="M241.39 320.7l87.83 77.58 87.83-77.58V440H241.39V320.7z"/><circle class="cls-5" cx="329.49" cy="316.6" r="21.6"/><path class="cls-8" d="M325.36 327.57l-9.18-9.18 3.86-3.87 5.32 5.32 12.7-12.7 3.86 3.86-16.56 16.57z"/><path class="cls-14" d="M355.05 375.46l62 64.54H241.39l61.75-64.54 26.08 22.82 25.83-22.82z"/><path class="cls-10" d="M324.24 360.72L241.39 440h175.66l-82.85-79.28a7.21 7.21 0 00-9.96 0z"/><path class="cls-15" d="M365.95 254.77l-2.49 35.48 34.42-3.55-31.93-31.93z"/><path class="cls-8" d="M397.88 286.7h-31.93v-31.93l31.93 31.93z"/><path class="cls-3" d="M342.08 440c-35.38 0-41.69-20.26-58-20.26a21.36 21.36 0 00-15.73 7s-12.53-18.56-34.85-18.56V440zM447.16 440c-8.33 0-14.72-12.24-26-12.24s-17.89 9.41-24.89 9.41-10.06-4.36-16.22-4.36-10.4 7.19-21.5 7.19z"/><path class="cls-4" d="M437.74 447.53c1.33-6 1-10.4-3.35-14.59-4.13-3.95-10-5.21-10.9-10-1.64 10.49 5.42 16.31 9.6 17.21 2.45.48 4.49 3.57 4.65 7.38z"/><path class="cls-4" d="M438.26 444.44c1.64-9.26 5.33-8.8 8.08-14s-2.61-18.25 4.1-22.3c-9.28 1.79-15.73 11.28-15.42 20.33.27 7.63 2.98 7.09 3.24 15.97z"/><path class="cls-8" d="M329.22 227.72l-5.47-6.5h10.94l-5.47 6.5zM195.25 81.56h7.86v2h-7.86z"/><path class="cls-11" d="M210.83 440l32.42 4.44h151l32.59-4.44H210.83z"/></g></svg>