<svg xmlns="http://www.w3.org/2000/svg" width="660" height="660"><defs><clipPath id="clip-path"><path d="M170.53 307.31H278.9v104.54a1.62 1.62 0 01-1.62 1.62H170.53V307.31z" fill="none"/></clipPath><style>.cls-3{fill:#141733}.cls-4{fill:#50d9e5}.cls-5{fill:#ffc785}.cls-6{fill:#fff}.cls-7{fill:#364ab2}.cls-8{fill:#3d55cc}.cls-9{fill:#ffb057}.cls-10{fill:#17204c}.cls-11{fill:#1f2a66}.cls-12{fill:#556ff2}.cls-13{fill:#299ba6}.cls-14{fill:#33bfcc}.cls-15{fill:#8adee5}</style></defs><g id="About"><path fill="#242459" d="M470 630l-280-45.31V30h280v600z"/><circle class="cls-3" cx="330" cy="330" r="240"/><circle class="cls-4" cx="565.24" cy="93.95" r="2.46"/><circle class="cls-4" cx="565.24" cy="106.29" r="2.46"/><circle class="cls-4" cx="552.9" cy="93.95" r="2.46"/><circle class="cls-4" cx="552.9" cy="106.29" r="2.46"/><circle class="cls-4" cx="565.24" cy="118.62" r="2.46"/><circle class="cls-4" cx="552.9" cy="118.62" r="2.46"/><circle class="cls-4" cx="565.24" cy="130.96" r="2.46"/><circle class="cls-4" cx="552.9" cy="130.96" r="2.46"/><circle class="cls-4" cx="565.24" cy="143.3" r="2.46"/><circle class="cls-4" cx="552.9" cy="143.3" r="2.46"/><circle class="cls-4" cx="565.24" cy="155.64" r="2.46"/><circle class="cls-4" cx="552.9" cy="155.64" r="2.46"/><circle class="cls-4" cx="565.24" cy="167.98" r="2.46"/><circle class="cls-4" cx="552.9" cy="167.98" r="2.46"/><circle class="cls-4" cx="540.56" cy="93.95" r="2.46"/><circle class="cls-4" cx="540.56" cy="106.29" r="2.46"/><circle class="cls-4" cx="528.22" cy="93.95" r="2.46"/><circle class="cls-4" cx="528.22" cy="106.29" r="2.46"/><circle class="cls-4" cx="540.56" cy="118.62" r="2.46"/><circle class="cls-4" cx="528.22" cy="118.62" r="2.46"/><circle class="cls-4" cx="540.56" cy="130.96" r="2.46"/><circle class="cls-4" cx="528.22" cy="130.96" r="2.46"/><circle class="cls-4" cx="540.56" cy="143.3" r="2.46"/><circle class="cls-4" cx="528.22" cy="143.3" r="2.46"/><circle class="cls-4" cx="540.56" cy="155.64" r="2.46"/><circle class="cls-4" cx="528.22" cy="155.64" r="2.46"/><circle class="cls-4" cx="540.56" cy="167.98" r="2.46"/><circle class="cls-4" cx="515.88" cy="93.95" r="2.46"/><circle class="cls-4" cx="515.88" cy="106.29" r="2.46"/><circle class="cls-4" cx="515.88" cy="118.62" r="2.46"/><circle class="cls-4" cx="515.88" cy="130.96" r="2.46"/><circle class="cls-4" cx="515.88" cy="143.3" r="2.46"/><circle class="cls-4" cx="515.88" cy="155.64" r="2.46"/><circle class="cls-4" cx="528.22" cy="167.98" r="2.46"/><circle class="cls-4" cx="515.88" cy="167.98" r="2.46"/><circle class="cls-4" cx="503.54" cy="93.95" r="2.46"/><circle class="cls-4" cx="503.54" cy="106.29" r="2.46"/><circle class="cls-4" cx="491.2" cy="93.95" r="2.46"/><circle class="cls-4" cx="491.2" cy="106.29" r="2.46"/><circle class="cls-4" cx="503.54" cy="118.62" r="2.46"/><circle class="cls-4" cx="491.2" cy="118.62" r="2.46"/><circle class="cls-4" cx="503.54" cy="130.96" r="2.46"/><circle class="cls-4" cx="491.2" cy="130.96" r="2.46"/><circle class="cls-4" cx="503.54" cy="143.3" r="2.46"/><circle class="cls-4" cx="491.2" cy="143.3" r="2.46"/><circle class="cls-4" cx="503.54" cy="155.64" r="2.46"/><circle class="cls-4" cx="491.2" cy="155.64" r="2.46"/><circle class="cls-4" cx="503.54" cy="167.98" r="2.46"/><circle class="cls-4" cx="491.2" cy="167.98" r="2.46"/><circle class="cls-4" cx="478.86" cy="93.95" r="2.46"/><circle class="cls-4" cx="478.86" cy="106.29" r="2.46"/><circle class="cls-4" cx="478.86" cy="118.62" r="2.46"/><circle class="cls-4" cx="478.86" cy="130.96" r="2.46"/><circle class="cls-4" cx="478.86" cy="143.3" r="2.46"/><circle class="cls-4" cx="478.86" cy="155.64" r="2.46"/><circle class="cls-4" cx="478.86" cy="167.98" r="2.46"/><path class="cls-5" d="M97.66 174.33a59.5 59.5 0 1159.5-59.5 59.57 59.57 0 01-59.5 59.5zm0-116a56.5 56.5 0 1056.5 56.5 56.56 56.56 0 00-56.5-56.5z"/><path class="cls-4" d="M212.92 545.58A47.65 47.65 0 01165.33 498v-44h2v44a45.59 45.59 0 1091.18 0v-44h2v44a47.65 47.65 0 01-47.59 47.58z"/><rect class="cls-6" x="275.72" y="516.35" width="36.19" height="36.19" rx="6.97" ry="6.97"/><circle class="cls-7" cx="293.81" cy="534.45" r="10.13"/><rect class="cls-4" x="285.98" y="531.49" width="15.67" height="5.91" rx="2.95" ry="2.95"/><path class="cls-4" d="M272.3 656a22.54 22.54 0 01-22.52-22.51V454h2v179.49a20.52 20.52 0 0041 0v-99h2v99A22.54 22.54 0 01272.3 656z"/><path class="cls-8" d="M29 440h600l-159 84.96L29 440z"/><path class="cls-9" d="M602.89 379.79c-9.37 1.6-8.85 10-10.81 12.9s-6.34 3.13-8.35 8.92 3.17 10.71.73 17.77-7.3 9.2-7.3 20.62H629c0-12.13-10.47-14.56-6.12-24.08 3.64-7.95 5.21-12.25-4.83-22.17-3.61-3.56-4.93-15.75-15.16-13.96z"/><path class="cls-5" d="M622.88 415.92c3.64-7.95 5.21-12.25-4.83-22.17-3.44-3.4-4.81-14.62-13.83-14.11 0 12.14 11.34 15.77 12.33 18s-14.19 4.63-6.71 23.31c4.59 11.46 15.47 7.6 19.16 19 0-12.08-10.47-14.51-6.12-24.03z"/><path class="cls-10" d="M446.86 322.57c26.78 0 23.81 50.85 41.61 50.85s28.17-13.19 38-4 15.84 40.5 25 43.64 27.88-5.45 43.22-1.56 14.7 28.5 33.79 28.5H446.86z"/><path class="cls-10" d="M525 251.1c21.61 3.94 21.85 32.85 27.86 42s22.57 5.25 29.41 20.43-8.28 34.23 1.81 50-4.21 16.68.48 30.48 16.09 15.5 16.09 45.94H458.69c0-40.95 14.65-43.05 18.26-70.12s-19.16-44.67-14.47-59.45 22-14.39 28.63-22.47 12.25-40.75 33.89-36.81z"/><path class="cls-11" d="M584.05 363.58c-10.09-15.77 5-34.82-1.81-50s-23.41-11.23-29.41-20.43S546.58 255 525 251.1a20.26 20.26 0 00-3.72-.32c-.11.17-26.78 40.47-12.84 59.91s43.93 7.82 45.51 12.57-28.61 16.23-20.5 33.78 30.38 16.75 32.76 21.07-13.84 7.28-7.53 19.86 42 15 42 42c0-30.44-11.41-32.14-16.09-45.94s9.54-14.69-.54-30.45z"/><path class="cls-8" d="M315.91 338.33c36.77-60.93 84.43-63.51 130.16-113.4a65.74 65.74 0 004.89-6.09l-34.88-21.4 46 1.29C488.61 138.17 495 28.44 564.88 13.31c-67.38-1.87-133 25.22-177.6 70.87l9.43 12.12-17.26-3.68a198.26 198.26 0 00-41.16 73.12c-23.64 77.86-4.12 95.02-22.38 172.59z"/><path class="cls-7" d="M564.88 13.31c-80.38 9.41-205 129-249 325 36.77-60.93 84.43-63.51 130.16-113.4a65.74 65.74 0 004.89-6.09l-24-18.09 35-2C488.61 138.17 495 28.44 564.88 13.31z"/><ellipse class="cls-3" cx="449.77" cy="163.94" rx="6.93" ry="5.39" transform="rotate(-53.98 449.784 163.933)"/><path class="cls-10" d="M29 440c61.24 0 75-58.78 111.29-58.78s-25.23-78.17 8.62-112.61 64.77 17.7 85.47 17.7 45.14-100 77.78-100 75.32 80.88 89.83 89.15 71.9-51.74 96.89-32.61S500.73 440 546.66 440z"/><path class="cls-12" d="M567.81 318.13c0 14.74-5 24.24-10.31 27.94-2.71 1.9-5.54 2.29-7.87 1.09-3.19-1.63-5.1-6-1.63-10.76 4.82-6.65 15.09-3.47 19.81-18.27z"/><path class="cls-4" d="M548 350.71l2.83 1.44s-.32 5.8-9 22.71-31.83 56.77-34.57 55.39z"/><path class="cls-13" d="M548 350.71l-2.83-1.45s-4.52 3.65-13.17 20.55-27.42 59.06-24.73 60.44z"/><path class="cls-13" transform="rotate(27.11 547.706 347.872)" d="M546.08 345.44h3.18v4.8h-3.18z"/><path class="cls-13" transform="rotate(27.11 550.534 349.319)" d="M548.91 346.89h3.18v4.8h-3.18z"/><path class="cls-14" transform="rotate(-9.44 504.058 364.577)" d="M502.67 338.16h2.36v52.63h-2.36z"/><path class="cls-4" d="M510.79 390l-1.46.24-8.64-51.91 1.6.53 8.5 51.14z"/><path class="cls-13" d="M507 390.63l-1.47.25-8.5-51.15 1.34-1.02 8.63 51.92z"/><path class="cls-14" transform="rotate(2.09 512.557 364.664)" d="M511.91 334.49h1.96v60.56h-1.96z"/><path class="cls-4" d="M513.99 395.11l-1.23-.04 2.21-60.52 1.2.94-2.18 59.62z"/><path class="cls-13" d="M510.8 395l-1.23-.05 2.18-59.62 1.26-.85L510.8 395z"/><path class="cls-14" transform="rotate(-14 510.757 381.69)" d="M500.14 355.26h3.54v52.63h-3.54z"/><path class="cls-4" d="M512.44 406.02l-2.16.57-13.3-50.93 2.37.2 13.09 50.16z"/><path class="cls-13" d="M506.85 407.48l-2.17.57-13.09-50.17 1.96-1.32 13.3 50.92z"/><path class="cls-14" d="M491.37 369.68h56.56V440h-56.56z"/><path class="cls-13" d="M491.37 369.68h15.26V440h-15.26z"/><rect class="cls-6" x="489.97" y="367.3" width="59.36" height="3.88" rx="1.94" ry="1.94"/><path class="cls-13" d="M547.39 371.18h-55.48a1.94 1.94 0 01-1.94-1.94h59.36a1.94 1.94 0 01-1.94 1.94z"/><rect class="cls-4" x="489.97" y="436.12" width="59.36" height="3.88" rx="1.94" ry="1.94"/><path class="cls-13" d="M547.39 440h-55.48a1.94 1.94 0 01-1.94-1.94h59.36a1.94 1.94 0 01-1.94 1.94zM490.06 397.39h59.27l-1.32 1.31h-56.64l-1.31-1.31z"/><path class="cls-4" d="M490.06 397.39h59.27l-1.32-1.32h-56.64l-1.31 1.32z"/><path class="cls-13" d="M490.06 400.92h59.27l-1.32 1.32h-56.64l-1.31-1.32z"/><path class="cls-4" d="M490.06 400.92h59.27l-1.32-1.32h-56.64l-1.31 1.32z"/><path class="cls-13" d="M490.06 404.45h59.27l-1.32 1.32h-56.64l-1.31-1.32z"/><path class="cls-4" d="M490.06 404.45h59.27l-1.32-1.32h-56.64l-1.31 1.32z"/><path class="cls-13" d="M490.06 407.98h59.27l-1.32 1.32h-56.64l-1.31-1.32z"/><path class="cls-4" d="M490.06 407.98h59.27l-1.32-1.31h-56.64l-1.31 1.31z"/><path class="cls-13" d="M490.06 411.52h59.27l-1.32 1.31h-56.64l-1.31-1.31z"/><path class="cls-4" d="M490.06 411.52h59.27l-1.32-1.32h-56.64l-1.31 1.32z"/><path class="cls-12" d="M563.35 345.75c-1.57 0-.93-3.55-2.47-2.69-2.86 1.6 1.36 20-1.49 20-3.14 0 1.27-20.31-1.33-17.36l-2.41-5.7 10.46-8.21c-3.11 9.32-1.19 13.96-2.76 13.96z"/><path class="cls-9" d="M180.66 439.89c0-15.16-12.06-22.53-13.29-31.29s4.38-18.59 3.15-27.76-7.78-17.73-14.1-20.55-9.86-17.29-19-16.17-10.18 16-14.91 19-12.52 5-13.46 13.76 11.25 21 4.68 30.55-9.32 20-9.32 32.59z"/><path class="cls-5" d="M135.83 362.25c4.67 5.06 12.18 2 13.64 4.39s-6.79 8.57-5.64 21.94 16.45 10.57 26.08 26.38a17.36 17.36 0 01-2.55-6.37c-1.23-8.77 4.38-18.59 3.15-27.76s-7.78-17.73-14.1-20.55-9.86-17.29-19-16.17c-.03.01-6.25 13.07-1.58 18.14z"/><path class="cls-7" d="M291.18 195.47a152 152 0 00-42-48.85L236.75 152l5.25-10.55c-40.48-27.64-93.93-38.16-144.37-26.61 54.91.86 76.21 82.51 105.34 124.1l34.4-7.89-23 21.36a49.13 49.13 0 004.6 3.85c41.93 30.67 78.2 25.43 115 65.76-25.38-55.64-13.26-71.5-42.79-126.55z"/><path class="cls-8" d="M203 238.94l34.4-7.89-23 21.36a49.13 49.13 0 004.6 3.85c41.93 30.67 78.2 25.43 115 65.76-62.59-140.94-174.42-212.2-236.34-207.18 54.91.86 76.21 82.51 105.34 124.1zM347.46 375.42c14.92-51.68 57.16-53.6 104.82-67.56L435.55 295l31 8.29c6-2.11 12.12-4.51 18.22-7.29l-29.05-6.31 40.13.76 1.74-.94c42.48-23.8 42.79-84.65 78.91-109.79-48.71 12.4-56.91 27.27-103.24 46l6.05 7.5-13.8-4.47c-7.82 3-16.63 6-26.76 9.14-68.63 21.34-90.01 69.97-91.29 137.53z"/><path class="cls-7" d="M347.46 375.42c14.92-51.68 57.16-53.6 104.82-67.56L435.55 295l31 8.29c6-2.11 12.12-4.51 18.22-7.29l-29.05-6.31 40.13.76 1.74-.94c42.48-23.8 42.79-84.65 78.91-109.79-48.22 16.79-50.34 63.29-122.29 85.19-66.51 20.26-96.12 43.51-106.75 110.51z"/><path class="cls-10" d="M94.49 440c10.19 0 21.22-18.19 35.86-18.19a19.17 19.17 0 0114.12 6.29s14.08-16.67 34.94-16.67c29.93 0 35.4 28.57 35.4 28.57zM392.45 156.93c23.22 6.14 23.47 39.89 29.92 54.23S446.61 219.35 454 243s-8.9 53.33 1.93 77.91-4.51 26 .52 47.5S473.7 392.57 473.7 440H321.27c0-63.81 15.73-67.09 19.6-109.27s-20.57-69.61-15.54-92.65 23.6-22.42 30.76-35 13.15-52.29 36.36-46.15z"/><path class="cls-11" d="M455.9 320.91c-10.83-24.58 5.42-54.26-1.93-77.91s-25.15-17.51-31.6-31.84-6.7-48.09-29.92-54.23a14.54 14.54 0 00-4-.5c-.12.26-28.77 51.77-13.79 82.06s47.18 12.19 48.88 19.59-30.74 25.3-22 52.64 32.62 26.1 35.18 32.84-14.86 11.35-8.08 30.94 45.06 23.42 45.06 65.5c0-47.43-12.26-50.09-17.28-71.59s10.31-22.93-.52-47.5z"/><path class="cls-7" d="M251.13 319.06c43.17-41.3 17.86-71.3 9.5-77.95l-8-5-78.5 9.33c20.59 20.58 23.34 46.17 56 73.63z"/><rect class="cls-13" x="161.87" y="267.92" width="243.48" height="169.71" rx="8.55" ry="8.55"/><path class="cls-14" d="M396.8 438.63H170.42a9.56 9.56 0 01-9.55-9.55V276.47a9.57 9.57 0 019.55-9.55H396.8a9.56 9.56 0 019.55 9.55v152.61a9.56 9.56 0 01-9.55 9.55zM170.42 268.92a7.56 7.56 0 00-7.55 7.55v152.61a7.56 7.56 0 007.55 7.55H396.8a7.56 7.56 0 007.55-7.55V276.47a7.56 7.56 0 00-7.55-7.55z"/><path class="cls-10" d="M170.53 279.86h226.16v140.69H170.53z"/><path class="cls-4" d="M134.1 433.36h299.03v1.9H134.1z"/><path class="cls-13" d="M283.61 435.26H134.1S149 440 171.47 440h112.14zM283.61 435.26h149.52S418.2 440 395.75 440H283.61z"/><path class="cls-14" d="M255.06 433.36h57.11v1.9h-57.11zM250.78 291.53h139.49v112.65a1.62 1.62 0 01-1.62 1.62H252.4a1.62 1.62 0 01-1.62-1.62V291.53z"/><path class="cls-3" d="M252.4 284.61h136.25a1.62 1.62 0 011.62 1.62v5.3H250.78v-5.3a1.62 1.62 0 011.62-1.62z"/><circle class="cls-6" cx="255.52" cy="288.07" r="1.44"/><circle class="cls-6" cx="259.84" cy="288.07" r="1.44"/><circle class="cls-6" cx="264.16" cy="288.07" r="1.44"/><path class="cls-4" d="M170.53 307.31H278.9v104.54a1.62 1.62 0 01-1.62 1.62H170.53V307.31z"/><path class="cls-3" d="M170.53 300.38h106.75a1.62 1.62 0 011.62 1.62v5.3H170.53v-6.92zM349.9 346.5l-.22-.23 2-1.25L350 336l.25-6 .49-4.21-.57-.93-1.79 1.33-1.13 1.44v1h.41l-.41 3.72-3.11 1 .29-3.84.63-.26.35-1.09 1.73-2.31.11-2.13 1.22-2.25 1-2.34.52-2.54 2.31-1.55v-.35l.58-.17v-.92l-.49-.43-.29-1.53.46-1.39s.06-2.13 1.7-2 1.67 2.14 1.67 2.14l.15.86.28.58-.34 1.38-.41.75v.38L357 314l1.46-1.36 1.84-3.14-.47-.28.28-.93.35-.51.87-1.24v-.75l-.32-.93.58-1.47.23-4.81-2.48-.26.14-.64 5.6.44-.15.63-2.42-.11-.23 4.21.46.95.26 1.73-.35 1-.14 2.85-.64.14-1.44 4.13-1.15 1.93-1 1.27-.95 5.51.54 7.09 2.38 5.69 1.43 8.44 1.53 3.05v.44H362l-1.56-1-.73-2.34-.42-.25-2-7.29-3.19-5.19-1.39 6.72.41 2.88.5 4.7-.29 1.21z"/><path class="cls-6" d="M375.06 331.57v14.64h-55.2v-14.64h55.2m1-1h-57.2v16.64h57.2v-16.64z"/><path class="cls-6" d="M324.31 330.57h1v16.64h-1zM369.6 330.57h1v16.64h-1zM346.96 330.57h1v16.64h-1z"/><path class="cls-6" d="M318.86 333.79h57.2v1h-57.2zM323.52 330.57h-3a1.5 1.5 0 113 0z"/><path class="cls-6" d="M321.52 267.09h1v62.73h-1zM374.39 330.57h-3a1.5 1.5 0 113 0z"/><path class="cls-6" d="M372.39 267.09h1v62.73h-1z"/><path class="cls-13" d="M320.11 349.05h54.7v3.52a3.08 3.08 0 01-3.08 3.08h-48.55a3.08 3.08 0 01-3.08-3.08v-3.52h.01z"/><path class="cls-6" d="M318.86 347.21h57.2V349a3.08 3.08 0 01-3.06 3h-51a3.08 3.08 0 01-3.08-3.08v-1.76z"/><rect class="cls-6" x="181.49" y="317.82" width="45.68" height="80.1" rx="2.17" ry="2.17"/><path class="cls-14" d="M181.49 324.89h45.68v30.04h-45.68z"/><path class="cls-15" d="M181.49 354.92v-.5l44.92-29.54h.76v.5l-44.92 29.54h-.76z"/><path class="cls-15" d="M227.17 354.92h-.76l-44.92-29.54v-.5h.76l44.92 29.54v.5z"/><path class="cls-14" d="M184.21 359.37H210v3.1h-25.79z"/><path class="cls-15" d="M184.21 365.34h40.23v1.71h-40.23zM184.21 368.65h40.23v1.71h-40.23zM184.21 371.95h40.23v1.71h-40.23zM184.21 375.26h31.17v1.71h-31.17z"/><rect class="cls-14" x="190.09" y="382.79" width="28.47" height="6.05" rx="3.02" ry="3.02"/><g clip-path="url(#clip-path)"><rect class="cls-6" x="260.89" y="317.82" width="45.68" height="80.1" rx="2.17" ry="2.17"/><path class="cls-14" d="M260.89 324.89h45.68v30.04h-45.68z"/><path class="cls-15" d="M260.89 354.92v-.5l44.92-29.54h.76v.5l-44.92 29.54h-.76z"/><path class="cls-15" d="M306.57 354.92h-.76l-44.92-29.54v-.5h.76l44.92 29.54v.5z"/><path class="cls-14" d="M263.61 359.37h25.79v3.1h-25.79z"/><path class="cls-15" d="M263.61 365.34h40.23v1.71h-40.23zM263.61 368.65h40.23v1.71h-40.23zM263.61 371.95h40.23v1.71h-40.23zM263.61 375.26h31.17v1.71h-31.17z"/><path class="cls-14" d="M263.61 383.22h40.23v14.71h-40.23z"/></g><path class="cls-6" d="M230.41 386.31v-1c10.15 0 12.21-12 14.19-23.53 1.93-11.2 3.75-21.79 12.61-21.79v1c-8 0-9.77 10.18-11.62 21-2.06 11.94-4.19 24.32-15.18 24.32z"/><path class="cls-10" d="M172.36 383.2c-6.45 1.51-6.09 9.4-7.44 12.17s-4.37 2.95-5.75 8.41 2.18 10.1.51 16.77-5 8.68-5 19.45h35.68c0-11.44-7.21-13.74-4.21-22.72 2.5-7.49 3.58-11.55-3.33-20.91-2.51-3.37-3.42-14.83-10.46-13.17z"/><path class="cls-11" d="M186.12 417.28c2.5-7.49 3.58-11.55-3.33-20.91-2.37-3.21-3.31-13.8-9.52-13.31 0 5.65-4.07 8.48-.78 12.9s6.63 3.58 7.57 6.41-10.93 10.93-7.16 20.07 14.89 6.77 17.43 17.56c0-11.44-7.21-13.74-4.21-22.72z"/><path class="cls-8" d="M145.3 233.78c-21.15 14.81-30.42 44.51-41.77 68.42l8.52 6.15-12 .93c-8 15.22-17.69 26.84-33.22 28.48 48.41 18.05 84.89-9.13 114.42-39.69l-10.65-7.47 15.68 2.16c30.26-32.43 53.12-65.92 74.4-51.65-.05 0-53.23-50.85-115.38-7.33zm8 76.66c-1.28 1.7-3.42 2.26-4.76 1.24s-1.4-3.22-.12-4.92 3.42-2.26 4.76-1.24 1.43 3.22.15 4.92z"/><path class="cls-12" d="M181.2 298.07l-10.65-7.47 15.68 2.16c30.26-32.43 53.12-65.92 74.4-51.65A101.27 101.27 0 00233 223.74c-77-31.23-83.94 126.77-166.24 114 48.43 18.07 84.91-9.11 114.44-39.67zm-32.75 8.69c1.28-1.7 3.42-2.26 4.76-1.24s1.4 3.22.12 4.92-3.42 2.26-4.76 1.24-1.4-3.22-.12-4.92z"/><path class="cls-10" d="M334 440c7.49 0 13.22-11 23.33-11s16.06 8.45 22.34 8.45 9-3.92 14.57-3.92 9.33 6.46 19.29 6.46z"/><path class="cls-8" d="M541.57 486.72c3.26-1.63 3.8 5.34 5.84 4.6 2.58-.94 2.14-4.77 3.8-5.23s4.25 6.48 4.25 21.86-3.62 30.69.88 30.69.75-18.88.75-30.57 1.81-20.12 4.75-20.85c4.14-1 5 4.29 8.12 3.79 4.63-.75 3.91-15.75 6.63-16.69 3.62-1.25 3.91-4.69 3.91-8.41l-27.91 4.73-11 15.13z"/><path class="cls-12" d="M568.88 440c0 4.64-31.5 5.8-31.5 10s29.3 3.56 43.12 15.94l-38.93 20.81c-11.67-21.67-50-26.42-50-34.25 0-6 36.58-9.25 12.62-12.47z"/><path class="cls-8" d="M510.23 447.68c-18.36 3.88-3.19 10.05.13 8.6 5.84-2.55-12.36-3.71-.13-8.6z"/><ellipse class="cls-12" cx="583.79" cy="445.47" rx="6.24" ry="1.17"/><path class="cls-10" d="M434.73 440h85c-15.76 0-15.13-14.2-28.32-14.2v-12.18c-27.35 0-36.71 26.38-56.68 26.38z"/><path class="cls-8" d="M469.88 447.72c1.67-7.63 1.3-13.13-4.23-18.42-5.21-5-12.65-6.58-13.76-12.68-2.07 13.25 6.84 20.6 12.12 21.73 3.09.65 5.66 4.56 5.87 9.37z"/><path class="cls-8" d="M470.54 443.82c2.07-11.7 6.73-11.11 10.19-17.62s-3.29-23 5.18-28.15c-11.71 2.26-19.86 14.24-19.46 25.66.33 9.59 3.72 8.9 4.09 20.11zM67.43 442c3.94-2.25 7.88-.6 10.34-5.28s6.45-6.28 8.41-5.6c-6.95-3.2-18.28 1.37-18.75 10.88z"/><path class="cls-8" d="M66.05 442.08C70.27 432 53.2 425 58.36 412.32c-.16 6 7.3 7.7 10.82 12.48s1.22 13.71-3.13 17.28z"/><path class="cls-8" d="M66.93 441.41c-1.24-.91-6.16-1.48-7-4.67-.91-3.65-5.66-4.55-7-4.09 2.48-1.81 16.84-2.03 14 8.76z"/><path class="cls-10" d="M480.23 475.56c-3.21 0-6.3-4.25-10.85-4.25a13.68 13.68 0 00-8.13 3.17 17.13 17.13 0 00-6.29-1.62c-3 0-6.86 2.7-10.65 2.7z"/><path class="cls-12" d="M201.8 465.14h146.7l-88.76 8.3-57.94-8.3z"/><path class="cls-10" d="M217.4 454.92s3.74-5.66 10.19-5.66a14.34 14.34 0 0110.19 4.22 22.14 22.14 0 018.31-2.16c5.95 0 10.24 3.6 13.42 3.6z"/><path class="cls-12" d="M389.9 499.57l72.37-4.07-31.21 10.89-41.16-6.82z"/><path class="cls-7" d="M134.09 440l32.4 5.87h245.58l21.06-5.87H134.09z"/><path class="cls-12" d="M364.37 549.79h3c0 3.14 1.47 4.67 3.17 6.45 1.88 2 4 4.18 4 8.52s-2.13 6.57-4 8.52c-1.7 1.78-3.17 3.31-3.17 6.45s1.47 4.67 3.17 6.44c1.88 2 4 4.18 4 8.53s-2.13 6.56-4 8.52c-1.7 1.77-3.17 3.3-3.17 6.44s1.47 4.67 3.17 6.44c1.88 2 4 4.18 4 8.52s-2.13 6.57-4 8.52c-1.7 1.78-3.17 3.31-3.17 6.45h-3c0-4.35 2.13-6.57 4-8.52 1.7-1.78 3.17-3.31 3.17-6.45s-1.47-4.66-3.17-6.44c-1.88-2-4-4.17-4-8.52s2.13-6.56 4-8.52c1.7-1.77 3.17-3.3 3.17-6.44s-1.47-4.67-3.17-6.45c-1.88-2-4-4.18-4-8.52s2.13-6.57 4-8.52c1.7-1.78 3.17-3.31 3.17-6.45s-1.47-4.67-3.17-6.44c-1.87-1.96-4-4.18-4-8.53zM379.11 549.79h3c0 3.14 1.47 4.67 3.17 6.45 1.88 2 4 4.18 4 8.52s-2.13 6.57-4 8.52c-1.7 1.78-3.17 3.31-3.17 6.45s1.47 4.67 3.17 6.44c1.88 2 4 4.18 4 8.53s-2.13 6.56-4 8.52c-1.7 1.77-3.17 3.3-3.17 6.44s1.47 4.67 3.17 6.44c1.88 2 4 4.18 4 8.52s-2.13 6.57-4 8.52c-1.7 1.78-3.17 3.31-3.17 6.45h-3c0-4.35 2.13-6.57 4-8.52 1.7-1.78 3.17-3.31 3.17-6.45s-1.47-4.66-3.17-6.44c-1.88-2-4-4.17-4-8.52s2.13-6.56 4-8.52c1.7-1.77 3.17-3.3 3.17-6.44s-1.47-4.67-3.17-6.45c-1.88-2-4-4.18-4-8.52s2.13-6.57 4-8.52c1.7-1.78 3.17-3.31 3.17-6.45s-1.47-4.67-3.17-6.44c-1.87-1.96-4-4.18-4-8.53zM393.85 549.79h3c0 3.14 1.47 4.67 3.18 6.45 1.88 2 4 4.18 4 8.52s-2.13 6.57-4 8.52c-1.71 1.78-3.18 3.31-3.18 6.45s1.47 4.67 3.18 6.44c1.88 2 4 4.18 4 8.53s-2.13 6.56-4 8.52c-1.71 1.77-3.18 3.3-3.18 6.44s1.47 4.67 3.18 6.44c1.88 2 4 4.18 4 8.52s-2.13 6.57-4 8.52c-1.71 1.78-3.18 3.31-3.18 6.45h-3c0-4.35 2.13-6.57 4-8.52 1.71-1.78 3.18-3.31 3.18-6.45s-1.47-4.66-3.18-6.44c-1.88-2-4-4.17-4-8.52s2.13-6.56 4-8.52c1.71-1.77 3.18-3.3 3.18-6.44s-1.47-4.67-3.18-6.45c-1.88-2-4-4.18-4-8.52s2.13-6.57 4-8.52c1.71-1.78 3.18-3.31 3.18-6.45s-1.47-4.67-3.18-6.44c-1.85-1.96-4-4.18-4-8.53zM408.6 549.79h3c0 3.14 1.47 4.67 3.17 6.45 1.88 2 4 4.18 4 8.52s-2.13 6.57-4 8.52c-1.7 1.78-3.17 3.31-3.17 6.45s1.47 4.67 3.17 6.44c1.88 2 4 4.18 4 8.53s-2.13 6.56-4 8.52c-1.7 1.77-3.17 3.3-3.17 6.44s1.47 4.67 3.17 6.44c1.88 2 4 4.18 4 8.52s-2.13 6.57-4 8.52c-1.7 1.78-3.17 3.31-3.17 6.45h-3c0-4.35 2.13-6.57 4-8.52 1.7-1.78 3.17-3.31 3.17-6.45s-1.47-4.66-3.17-6.44c-1.88-2-4-4.17-4-8.52s2.13-6.56 4-8.52c1.7-1.77 3.17-3.3 3.17-6.44s-1.47-4.67-3.17-6.45c-1.88-2-4-4.18-4-8.52s2.13-6.57 4-8.52c1.7-1.78 3.17-3.31 3.17-6.45s-1.47-4.67-3.17-6.44c-1.87-1.96-4-4.18-4-8.53zM423.34 549.79h3c0 3.14 1.47 4.67 3.17 6.45 1.88 2 4 4.18 4 8.52s-2.13 6.57-4 8.52c-1.7 1.78-3.17 3.31-3.17 6.45s1.47 4.67 3.17 6.44c1.88 2 4 4.18 4 8.53s-2.13 6.56-4 8.52c-1.7 1.77-3.17 3.3-3.17 6.44s1.47 4.67 3.17 6.44c1.88 2 4 4.18 4 8.52s-2.13 6.57-4 8.52c-1.7 1.78-3.17 3.31-3.17 6.45h-3c0-4.35 2.13-6.57 4-8.52 1.7-1.78 3.17-3.31 3.17-6.45s-1.47-4.66-3.17-6.44c-1.88-2-4-4.17-4-8.52s2.13-6.56 4-8.52c1.7-1.77 3.17-3.3 3.17-6.44s-1.47-4.67-3.17-6.45c-1.88-2-4-4.18-4-8.52s2.13-6.57 4-8.52c1.7-1.78 3.17-3.31 3.17-6.45s-1.47-4.67-3.17-6.44c-1.87-1.96-4-4.18-4-8.53z"/><path class="cls-3" d="M152.51 80.14l-10.09-3.74-8.35 5.21-.87 2.33-1.05-2.68-9.41-1.75-8.25 7.11 2.83.04 6.77-3.05 6.6-.01 3.1 3.26 1.38-2.97 7.18-3.19 7.06.63 3.1-1.19zM140.02 59.88l4.68-4.6 5.94.82 1.06 1.07-.08-1.75 4.79-3.32 6.37 1.9-1.57.72h-4.52l-3.68 1.64-.91 2.58-1.5-1.3-4.79.02-3.77 2.11-2.02.11z"/><path class="cls-6" d="M265.6 117.48s5.77-8.73 15.74-8.73a22.19 22.19 0 0115.74 6.51s6.73-3.33 12.84-3.33c9.19 0 15.82 5.55 20.73 5.55zM204.33 68.09s4.54-19.23 21.31-19.23a24.82 24.82 0 0122.71 13.92s5.5-6.2 13.83-6.2c15.91 0 16.72 11.51 33.15 11.51zM557.5 346.07c-2.71 1.9-5.54 2.29-7.87 1.09-3.19-1.63-5.1-6-1.63-10.76 0 0-1.23 3.88-.93 4.21s2.55-2.29 3-1.92-.06 4.39 1 5.06 2.42-1.78 3.68-.78-.59 3.44 2.75 3.1z"/></g></svg>