<svg width="120" height="22" xmlns="http://www.w3.org/2000/svg"><path d="M48.452 0c3.06 0 5.746.816 7.473 1.981l-2.137 3.644c-1.493-.667-3.508-1.136-4.931-1.136-3.998 0-5.866 2.65-5.866 6.48 0 4.098 2.163 6.625 6.155 6.625.733 0 1.64-.028 2.366-.14V13.72h-2.626V9.395h6.895c.545 0 .856.443.856.964v10.944c-1.942.432-4.973.697-7.228.697-7.912 0-12.083-3.763-12.083-11.03C37.326 4.49 41.497 0 48.452 0zm41.814 0c6.505 0 10.185 4.896 10.185 10.97C100.45 17.1 96.77 22 90.266 22c-6.948 0-10.623-4.9-10.623-11.03C79.643 4.896 83.318 0 90.266 0zm22.118 0c3.388 0 6.014 1.197 7.354 2.477l-2.945 3.348c-1.458-.867-2.946-1.545-4.615-1.545-2.011 0-3.148.762-3.148 1.87 0 1.1 1.46 1.66 3.295 2.211 3.245 1 7.675 2.021 7.675 6.266 0 4.37-3.498 7.373-9.103 7.373-3.586 0-6.918-1.284-8.403-2.303l2.418-4.281c1.349.814 3.973 2.068 6.394 2.068 1.37 0 3.1-.265 3.1-1.784 0-1.426-1.933-1.864-4.47-2.586-3.062-.878-6.627-2.094-6.627-6.205 0-4.432 3.943-6.909 9.075-6.909zM7.267.408l4.993 11.961L17.483.408h6.712v21.183h-5.43V9.36l-5.253 12.23h-2.917L5.429 9.36v12.23H0V.408h7.267zm25.743 0c.41 0 .813.408.813.847v20.336H28.37V.408h4.64zm43.683 6.123c0 2.36-1.31 4.778-3.763 5.267 1.222.415 2.453 1.982 3.122 3.68l2.425 6.113H72.76l-2.517-5.83c-.515-1.187-.873-1.778-1.965-1.778H66.07v7.608h-5.332V1.255c0-.439.484-.847.83-.847h7.53c4.089 0 7.595.847 7.595 6.123zm13.573-2.042c-2.862 0-4.899 2.042-4.899 6.48 0 4.507 2.036 6.54 4.899 6.54 2.453 0 4.462-2.033 4.462-6.54 0-4.438-2.009-6.48-4.462-6.48zm-21.527 0H66.07v5.313h2.669c1.595 0 2.849-.85 2.849-2.862 0-2.044-1.254-2.45-2.85-2.45z" fill="#141733" fill-rule="nonzero"/></svg>