<svg width="145" height="24" xmlns="http://www.w3.org/2000/svg"><path d="M25.564 4.966V17.69c0 .93.31 1.758.828 2.379.517.517 1.345.828 2.173.828.828 0 1.656-.31 2.174-.828.517-.517.828-1.345.828-2.38V4.967h3.312V17.69c0 .93.31 1.758.828 2.379.517.517 1.345.828 2.173.828.828 0 1.656-.31 2.174-.828.517-.517.828-1.345.828-2.38V4.967h3.311V17.69c0 1.862-.62 3.413-1.759 4.551C41.296 23.38 39.743 24 37.88 24c-1.76 0-3.415-.62-4.657-1.862C31.98 23.379 30.428 24 28.565 24c-1.76 0-3.415-.62-4.554-1.759-1.138-1.138-1.759-2.69-1.759-4.551V4.966h3.312zm39.743 0v18.517h-3.312V8.173h-4.76c-1.864 0-3.416.724-4.451 1.861-1.035 1.138-1.656 2.794-1.656 4.552 0 1.759.517 3.31 1.656 4.552 1.138 1.138 2.69 1.862 4.45 1.862 1.139 0 2.174-.31 3.105-.724v3.207c-1.035.414-2.07.517-3.105.517-2.587 0-5.071-1.034-6.727-2.69-1.76-1.758-2.691-4.138-2.691-6.827 0-2.586.931-5.07 2.69-6.828 1.76-1.758 4.037-2.69 6.728-2.69h8.073zm26.599-.621c1.76 0 3.519.414 4.968 1.241 1.552 1.035 2.69 2.276 3.622 3.828l-2.898 1.552C96.978 9.93 96.253 9 95.321 8.379c-.931-.62-2.07-.93-3.312-.93-1.76 0-3.519.723-4.657 1.965a6.903 6.903 0 00-1.863 4.758c0 1.862.62 3.518 1.863 4.656 1.138 1.241 2.794 1.965 4.657 1.965 1.242 0 2.38-.31 3.312-.93 1.035-.622 1.76-1.45 2.277-2.587l2.795 1.655c-.828 1.552-2.07 2.793-3.52 3.724-1.448.828-3.208 1.242-4.967 1.242-2.691 0-5.175-1.035-6.935-2.794-1.759-1.758-2.794-4.24-2.794-6.93 0-2.69 1.035-5.173 2.794-6.932 1.76-1.758 4.244-2.896 6.935-2.896zm15.42-3.931v6.31c1.45-1.448 3.623-2.172 5.797-2.172 2.484 0 4.45.827 6.003 2.276 1.552 1.551 2.277 3.724 2.277 6.413v10.345h-3.312V13.241c0-1.655-.31-3-1.139-3.93-.931-1.035-2.277-1.552-3.83-1.552-1.655 0-3.104.517-4.14 1.551-1.034 1.035-1.655 2.483-1.655 4.242V23.69h-3.312V.414h3.312zM17.699 5.069v3.103H5.692c-.62 0-1.138.207-1.552.621-.414.414-.621.931-.621 1.552 0 .62.31 1.138.62 1.552.415.413.932.517 1.553.517h7.245c1.656 0 3.002.517 4.037 1.552C18.009 15 18.63 16.345 18.63 18c0 1.655-.621 3-1.656 4.034a5.904 5.904 0 01-4.037 1.552H.621V20.38h12.213c.62 0 1.242-.207 1.656-.62a2.495 2.495 0 000-3.518c-.414-.413-1.035-.62-1.656-.62H5.589a5.683 5.683 0 01-3.83-1.449C.724 13.242 0 11.897 0 10.345s.621-2.897 1.656-3.828a5.683 5.683 0 013.83-1.448h12.212zm56.2-4.655v4.655h5.899v3.103h-5.9v9.931c0 .518.104 1.035.414 1.449.414.517.932.724 1.553.724h3.933v3.103h-3.933v.104c-1.553 0-2.898-.62-3.83-1.552-.931-.931-1.449-2.276-1.449-3.724V.414h3.312zM145 4.966v18.517h-18.526V4.966H145zm-7.038 1.862h-4.45V12h-5.175v4.448h5.175v5.173h4.45v-5.173h5.175V12h-5.175V6.828zM121.3 0c1.139 0 2.07.931 2.07 2.069a2.076 2.076 0 01-2.07 2.069 2.076 2.076 0 01-2.07-2.069c0-1.138.932-2.069 2.07-2.069zm0 .414c-.931 0-1.656.724-1.656 1.655s.725 1.655 1.656 1.655c.932 0 1.656-.724 1.656-1.655s-.724-1.655-1.656-1.655zm.31.517c.415 0 .622.207.622.62 0 .415-.207.621-.621.621l.62.931h-.413l-.621-.93h-.31v.93h-.415V.931h1.139zm0 .31h-.724v.621h.725c.207 0 .31-.103.31-.31 0-.207-.103-.31-.31-.31z" fill="#141733" fill-rule="nonzero"/></svg>