<svg width="108" height="24" xmlns="http://www.w3.org/2000/svg"><path d="M10.977.291c6.397-.019 11.19 4.793 10.887 11.793.151 6.529-4.264 11.812-10.887 11.774C4.45 24.085.033 18.896.11 12.084.07 5.178 4.75.291 10.977.291zM32.393.103c6.302.188 8.85 3.717 8.85 7.717H36.09s.472-3.057-3.792-3.189c-1.604-.038-3.321.604-3.529 2.076-.528 3.868 12.623 1 12.718 9.755.038 4.34-3.981 7.283-8.982 7.208-9.925-.133-9.34-7.378-9.377-7.982h5.245c-.207 2.302 2.151 3.566 4.264 3.529 1.566-.038 3.491-.302 3.736-2.359.491-4.113-12.85-1.151-12.944-9.717-.037-4.548 4.529-7.17 8.963-7.038zm58.474.584l5.208 9.095 5.547-9.095h5.435l.019 22.152h-5.397V10.443l-5.528 9.132-5.435-8.774v12.02H85.15V.686h5.717zm-14.698 0l8.056 22.133h-5.528l-1.302-3.868h-8.717l-1.34 3.868h-5.566L69.848.687h6.32zm-21.077.02c4.076 0 7.246 3.49 7 7.773-.17 3.208-1.566 5.585-4.51 6.925l3.7 7.415h-5.68L52.3 15.745H48.94v7.075h-5.17V.706h11.321zM10.977 4.951c-3.906-.057-5.51 3.68-5.566 7.132.056 3.434 1.792 6.963 5.547 6.963 3.812-.038 5.321-3.68 5.548-6.982.018-3.604-1.623-7.17-5.529-7.113zm62.078 1.264v.057l-2.83 8.038h5.604l-2.774-8.095zm-18.925-.83h-5.265v5.943h5.416c1.528 0 2.585-1.66 2.51-3.019-.076-1.547-1.114-2.924-2.661-2.924z" fill="#141733" fill-rule="evenodd"/></svg>