<svg width="120" height="21" xmlns="http://www.w3.org/2000/svg"><path d="M113.377 0a6.19 6.19 0 016.193 6.191v8.264c0 3.415-2.77 6.19-6.193 6.19h-8.257a6.195 6.195 0 01-6.195-6.19V7.01h4.722v7.366a1.55 1.55 0 001.55 1.549h8.103c.859 0 1.55-.694 1.55-1.549V6.272c0-.856-.691-1.55-1.55-1.55l-7.27-.002V0h7.347zM80.263 0v14.176c0 .853.306 1.748 1.597 1.748h7.592c2.607 0 4.737 2.028 4.789 4.549v.172l-12.46-.004c-3.53 0-6.388-2.77-6.388-6.19V0h4.87zM63.997 0c3.678 0 6.684 2.825 6.684 6.272v6.047H53.72l.006 2.106c.025.833.75 1.497 1.644 1.497h15.1c-.74 2.707-3.363 4.723-6.474 4.723h-8.63c-3.67 0-6.676-2.82-6.676-6.271V6.272C48.691 2.825 51.697 0 55.366 0zM45.55 0v4.728h-7.786v15.917h-4.856V4.728H25.13A6.322 6.322 0 0131.239 0h14.31zM13.395 0v4.72l-7.192.001a1.54 1.54 0 00-1.532 1.55v8.103a1.54 1.54 0 001.532 1.548h8.014c.843 0 1.532-.693 1.532-1.548V7.008h4.67v7.448c0 3.415-2.742 6.19-6.126 6.19H6.127C2.744 20.645 0 17.87 0 14.455V6.19C0 2.771 2.744 0 6.127 0h7.268zm50.607 4.732h-8.63c-.909 0-1.65.69-1.65 1.543v2.083H65.65V6.275c0-.853-.737-1.543-1.648-1.543zM103.662 0v4.712h-4.711A6.563 6.563 0 01103.663 0zM15.752 0a6.573 6.573 0 014.712 4.712H15.75z" fill="#141733" fill-rule="nonzero"/></svg>