<svg width="131" height="56" xmlns="http://www.w3.org/2000/svg"><path d="M74.705 13.515c.046-1.117-.047-2.28.37-3.257.279-1.07.093-2.28-.231-3.304-.093-1.35-.51-2.513-1.391-3.537-.789-1.117-2.133-1.303-3.154-2.094-.927-.837-2.225-.93-3.477-.884-.789 0-1.53-.186-2.273-.326-1.159-.279-2.365 0-3.385.373-.834.14-1.67.186-2.411.558-.928.512-2.04.791-2.69 1.768-.51.605-1.159 1.117-1.298 1.908-.14.977.046 1.955.881 2.606.232.28.696.28.788.652-.092.698-.463 1.302-.649 1.907-.417.745.65 1.117.278 1.908l-1.53 2.7c-.185.372-.417.744-.417 1.21.185.744 1.066.464 1.53.93.325.419-.185.744-.185 1.117-.093.325.417.465.185.79-.278.466.232.838.371 1.257.046.605-.325 1.256.14 1.768 1.158.838 2.967.186 4.173.791.649.466.51 1.303.51 2.001-.325 2.932-1.762 5.445-3.571 7.771-.185.28-.37.652-.232.978.278.14.65.093.928 0 3.338-1.164 5.935-4.049 9.181-5.398 1.252-.605 2.69-.838 4.035-1.117.324-.28.139-.745.046-1.07-.65-1.769-1.438-3.583-1.299-5.63 0-.745.835-.932 1.345-1.21.881-.233 1.438-1.118 1.809-1.862.649-1.163 1.484-2.094 1.623-3.304zM20.496 47.996c-1.252.233-1.53.233-2.272.233-1.53 0-2.365-.372-3.153-1.396-.696-.884-1.113-2.14-1.113-3.583 0-2.932 1.67-5.072 3.941-5.072h.51l1.02 2.233h1.438v-2.606c-1.113-.372-1.994-.558-2.875-.558-3.756 0-6.26 2.606-6.26 6.515 0 3.443 1.994 5.863 4.87 5.863.88 0 1.808-.186 2.874-.512l1.16-.372.231-.093-.139-.791-.232.14zm12.52-6.887c0-2.42-1.251-3.955-3.199-3.955-.788 0-1.901.372-3.617 1.21l-.325.14V30.22l-4.127 1.023v.559l1.902.651v15.542l-1.763.884v.652h5.797v-.652l-1.762-.884v-8.841c.51-.14 1.437-.326 2.133-.326 1.994 0 2.782.838 2.782 2.885v6.282l-1.762.884v.652h5.89v-.652l-1.856-.884V41.11h-.092zm14.608-3.024l1.715.837-2.457 7.539v-.093c-.186-.745-.232-.791-.418-1.257l-2.318-7.585h-.881l-3.107 9.12-.093-.371-.185-.792-.186-.698-1.947-6.095 1.669-.605v-.652H33.99v.652l1.345.698 3.756 10.935h1.113l2.922-8.47 2.643 8.47h1.02l4.034-10.842 1.345-.838v-.651h-4.637v.698h.093zm13.17 8.888v-6.701c0-2.001-1.114-2.978-3.386-2.978-1.066 0-2.318.279-4.034.884v2.28h1.391l.974-2.094c.278-.047.37-.047.603-.047 1.762 0 2.318.512 2.318 2.048v2.699c-1.623.14-2.968.372-3.895.605-1.577.372-2.458 1.35-2.458 2.885 0 1.768 1.299 3.07 3.2 3.07.417 0 .835-.046 1.113-.185l1.066-.466.789-.418.278-.14c.139.838.556 1.21 1.252 1.21h.093c.324-.047.742-.093.974-.186l1.669-.605v-.512l-1.299-.372c-.602-.28-.649-.373-.649-.977zm-2.087.93l-.186.047c-.417.14-.65.186-.742.186-.278.093-.603.093-.88.093-1.392 0-2.227-.791-2.227-2.001 0-1.024.51-1.629 1.623-1.908a14.332 14.332 0 012.458-.465v4.048h-.046zm9.042-9.306l-.14.093v-1.583l-4.08 1.07v.606l1.809.605v8.608l-1.809.884v.652h6.446v-.652l-2.365-.884v-8.655c.556-.233 1.16-.372 1.67-.372h.602l.696 1.489h1.576v-2.792c-.37-.233-.742-.372-1.159-.372-.65 0-1.716.465-3.246 1.303zm5.796 2.233h.789l1.16-2.28h4.033l-6.492 10.098v.837h9.228v-3.769h-.742l-1.298 2.606h-4.452l6.539-10.098v-.79h-8.718v3.396h-.047zM90.1 42.226l3.246-3.397 2.272-.79v-.606H90.24v.605l1.53.652-4.127 4.28 4.823 6.515h3.478v-.651l-1.67-.745-4.173-5.863zm-2.55-12.005l-4.22 1.023v.559l1.994.651v15.542l-1.901.884v.652h6.028v-.652l-1.901-.884V30.221zm41.085.698c-3.2 0-5.38 1.907-5.38 4.792v1.722h-1.854v1.117h1.809v9.4l-1.809.884v.651h6.492v-.651l-2.365-.884v-9.4h3.385v-1.117h-3.385V35.34c0-1.35.232-2.233.881-2.745.51-.42 1.345-.745 2.087-.745l.325.047.649 1.535H131v-2.14c-.603-.28-1.438-.372-2.365-.372zm-26.57 6.282c-3.293 0-5.937 2.652-5.937 6.56 0 3.584 2.505 6.097 5.611 6.097 3.293 0 5.982-2.746 5.982-6.562 0-3.63-2.504-6.095-5.657-6.095zm0 11.54c-2.041 0-3.247-2.001-3.247-5.352 0-3.21 1.113-5.025 3.014-5.025 2.04 0 3.246 2.047 3.246 5.537-.046 3.025-1.113 4.84-3.014 4.84zm-95.11-8.609l-2.503-1.815c-1.67-1.163-2.458-1.721-2.458-2.931 0-1.769 1.577-2.606 3.942-2.606.417 0 .602.046 1.205.093l.186.046 1.159 3.258h.881V32.36l-.37-.093-.975-.233a6.05 6.05 0 00-1.252-.232 15.166 15.166 0 00-1.808-.14C2.226 31.57 0 33.478 0 36.27c0 .884.185 1.489.603 2.187.417.791 1.113 1.21 2.365 2.094l2.597 1.722c1.669 1.21 2.365 1.908 2.365 3.257 0 1.861-1.577 2.885-3.85 2.885-.648 0-1.159-.046-1.761-.14l-1.16-3.303H.28v3.955l.231.093 1.345.372c1.02.28 2.133.42 2.921.42 3.107 0 5.519-1.909 5.519-4.887 0-1.024-.325-1.861-.789-2.606-.51-.837-1.02-1.07-2.55-2.187zm108.881-2.838c-.695 0-2.086.511-3.431 1.303V37.06l-4.127 1.024v.558l1.855.652v15.262l-1.855.792V56h6.492v-.698l-2.272-.791v-5.119c.463.14.695.186 1.298.186 3.71 0 6.77-2.838 6.77-6.747 0-3.118-2.272-5.537-4.73-5.537zm-1.854 11.168c-.464 0-1.02-.047-1.53-.093V39.2c.556-.232 1.437-.372 2.179-.372 2.226 0 3.71 1.908 3.71 4.747.046 3.07-1.577 4.886-4.36 4.886z" fill="#141733" fill-rule="nonzero"/></svg>