<svg width="155" height="24" xmlns="http://www.w3.org/2000/svg"><path d="M125.84 16.032v3.887L124.098 24h-1.938l1.454-4.081h-1.647v-3.887h3.875zM94.357 0c3.39 0 5.425 2.04 6.103 4.761L96.972 5.83c-.581-1.846-1.453-2.624-2.713-2.624-1.259 0-2.034.778-2.034 2.138 0 2.915 8.428 3.207 8.428 9.328 0 3.4-2.325 5.636-6.297 5.636-3.003 0-5.425-1.652-6.393-5.539l3.68-.777c.388 2.332 1.744 3.206 2.907 3.206 1.356 0 2.325-.874 2.325-2.332 0-3.79-8.428-3.79-8.428-9.328 0-3.4 2.034-5.538 5.91-5.538zM61.128 0c3.681 0 6.2 1.749 6.2 6.607v6.996c0 4.859-2.519 6.608-6.2 6.608s-6.2-1.75-6.2-6.608V6.607c0-4.858 2.519-6.607 6.2-6.607zM11.625.291V14.09c0 1.846.775 2.818 2.616 2.818 1.84 0 2.712-.972 2.712-2.818V.291H45.92v8.162h.097L50.859.291h4.07L49.89 8.26l5.618 11.757h-4.262l-3.875-8.259-1.453 2.235v6.024h-3.875V3.596h-4.069v16.42h-3.778V3.596h-5.813v16.42h-3.778V3.596h-4.069v10.493c0 4.373-2.518 6.122-6.393 6.122S7.75 18.364 7.75 14.089V3.595H3.778v16.421H0V.291h11.625zM148.509 0c3.294 0 6.007 1.749 6.007 5.344 0 1.75-.775 3.498-2.325 4.275 2.034.778 2.809 2.43 2.809 4.664 0 3.887-2.81 5.83-6.49 5.83-3.682 0-6.491-1.943-6.491-5.83 0-2.137.775-3.886 2.81-4.664-1.55-.777-2.326-2.526-2.326-4.275 0-3.692 2.616-5.344 6.006-5.344zM134.85 0c3.39 0 5.813 1.943 6.006 5.441h-3.487c0-1.36-1.066-2.332-2.422-2.332-2.034 0-3.003.875-3.003 4.081v1.263c.969-.777 2.131-.971 3.681-.971 3.875 0 5.619 2.429 5.619 5.83 0 3.984-1.938 6.801-6.394 6.801-4.166 0-6.49-2.623-6.49-6.801v-6.51c0-4.179 2.324-6.802 6.49-6.802zM70.816.291l2.615 12.826h.097L76.144.291h3.681l2.712 12.826L85.153.291h3.585l-4.36 19.725h-3.584L77.984 6.51l-3.003 13.506h-3.584L67.328.291h3.488zm34.293 0v8.162L110.05.291h4.069L109.08 8.26l5.619 11.757h-4.166l-3.972-8.259-1.453 2.235v6.024h-3.778V.291h3.778zm14.241 0v19.725h-3.778V.291h3.778zm29.063 10.883c-1.841 0-3.004 1.166-3.004 3.012 0 1.652.775 2.818 3.004 2.818 2.228 0 3.003-1.166 3.003-2.818 0-1.846-1.163-3.012-3.003-3.012zm-13.563-.972c-1.647 0-2.906 1.166-3.003 3.11 0 2.818 1.066 3.692 3.003 3.692 1.84 0 2.81-1.36 2.81-3.595 0-2.235-1.163-3.207-2.81-3.207zM61.031 3.304c-1.453 0-2.422.68-2.422 2.817v8.065c0 2.235.97 2.818 2.422 2.818 1.453 0 2.422-.68 2.422-2.818V6.121c0-2.234-.969-2.817-2.422-2.817zm64.713 4.566v3.887h-3.875V7.87h3.875zm22.669-4.76c-1.454 0-2.52 1.165-2.52 2.526 0 1.36 1.163 2.429 2.52 2.429 1.453 0 2.518-1.069 2.518-2.43 0-1.36-1.065-2.526-2.518-2.526z" fill="#141733" fill-rule="nonzero"/></svg>