<?xml version="1.0" encoding="UTF-8"?>
<svg width="224px" height="40px" viewBox="0 0 224 40" version="1.1" xmlns="http://www.w3.org/2000/svg" xmlns:xlink="http://www.w3.org/1999/xlink">
    <title>Combined Shape</title>
    <g id="2-0-0_Work" stroke="none" stroke-width="1" fill="none" fill-rule="evenodd">
        <g id="clients-copy-2" transform="translate(-545.000000, -144.000000)" fill="#141733" fill-rule="nonzero">
            <g id="Client-Compilation" transform="translate(0.000000, 64.000000)">
                <g id="bundesministerium" transform="translate(448.000000, 0.000000)">
                    <path d="M118.309153,80 C119.416889,80 120.553403,80.3641612 121.952384,80.3641612 C122.309323,80.3641612 122.555479,80.351885 122.764717,80.2618659 C122.674455,80.5401037 122.280598,80.9451684 121.923669,81.2765964 C122.145206,81.5835033 122.719586,82.3077197 122.719586,83.4861164 C122.719586,85.3805593 121.472372,86.9394995 121.472372,88.8502829 C121.472372,89.9878285 122.346199,90.9902408 122.612877,91.5876198 C122.776984,91.5999066 122.932888,91.6039917 123.096996,91.6039917 C126.009858,91.6039917 128.894048,89.7300791 128.894048,87.3241596 C128.894048,86.0435305 128.31554,85.1474462 127.601671,84.1531727 C127.183174,84.2227348 126.801626,84.2636487 126.502127,84.2636487 C125.181036,84.2636487 124.467167,83.5558356 124.41794,82.8643419 C124.41794,82.246464 124.922602,81.7759224 125.710317,81.7759224 C126.93705,81.7759224 129.164811,82.9133632 131.413053,82.9133632 C131.191506,83.081125 130.822267,83.257057 130.379173,83.4248188 C131.696126,84.6032155 132.57824,86.1907515 132.914667,87.888795 L132.914667,87.888795 L136.356769,93.3838944 C136.939362,94.3045103 138.157904,96.1088713 140,97.516453 L140,97.516453 L139.614424,97.5163373 C137.597079,97.5117721 136.184553,97.3907389 134.412165,94.594972 L134.412165,94.594972 L132.647748,91.7756815 C132.516462,92.1438859 132.356462,92.4998664 132.167736,92.8476558 L132.167736,92.8476558 L135.67548,98.4491776 C136.26217,99.3779637 137.468423,101.165984 139.322807,102.585821 L139.322807,102.585821 L138.937232,102.585706 C136.919886,102.58114 135.50736,102.460107 133.734972,99.6643402 L133.734972,99.6643402 L130.711305,94.8402461 C130.485651,95.081655 130.247698,95.3148833 129.997436,95.5399204 L129.997436,95.5399204 L134.260125,102.348435 C134.84671,103.277221 136.048867,105.061156 137.903252,106.480993 C135.675491,106.480993 134.202675,106.5341 132.315416,103.559512 L132.315416,103.559512 L128.159436,96.9228868 C127.884555,97.0947337 127.605568,97.2624955 127.314281,97.4220661 L127.314281,97.4220661 L132.389262,105.519484 C132.975952,106.44827 134.178109,108.228121 136.032493,109.647958 C133.804732,109.647958 132.32782,109.701064 130.444658,106.730562 L130.444658,106.730562 L125.221902,98.3877229 C124.910093,98.5063796 124.598295,98.6209407 124.278283,98.723236 L124.278283,98.723236 L130.182045,108.146324 C130.760437,109.062855 131.991267,110.875491 133.825171,112.278883 L133.825171,112.278883 L133.439595,112.278767 C131.42225,112.274202 130.009724,112.153169 128.237336,109.357402 L128.237336,109.357402 L121.943813,99.3124343 C121.882267,99.3247106 121.816624,99.3328913 121.755088,99.3492632 C121.582778,99.8893878 121.463801,100.396748 121.463801,100.904118 C121.463801,104.05887 123.539796,106.849313 126.034225,108.997452 C125.874224,109.067003 125.595237,109.091556 125.336772,109.091556 C124.82398,109.091556 124.49167,109.062908 124.257813,109.021994 C124.836311,110.331323 126.07527,112.02525 126.702984,112.896771 C127.519371,112.753562 128.705049,112.634905 129.48456,112.634905 C130.296893,112.634905 130.387155,113.113638 130.387155,113.535075 C130.387155,114.271557 130.042525,114.85666 129.640465,115.183992 C129.492795,114.807565 129.189157,114.30429 127.683467,114.30429 C127.654753,114.30429 127.605515,114.308375 127.53167,114.312461 C127.974785,114.803407 129.349189,115.908198 129.349189,116.804272 C129.349189,117.393512 128.696867,118.281405 127.839403,118.281405 C127.892726,118.089101 127.884534,117.913159 127.884534,117.782226 C127.884534,117.05801 127.240415,116.21103 126.698866,115.621832 C126.715251,115.797775 126.707059,115.781413 126.707059,115.985993 C126.707059,117.696292 126.551196,118.48189 125.463941,118.48189 C124.930595,118.48189 124.561346,118.187291 124.434167,118.101367 C125.139822,117.450788 125.17675,116.943469 125.17675,115.981929 L125.176488,115.67954 C125.176095,115.5235 125.175112,115.355087 125.172654,115.151322 C125.172654,114.934465 125.172654,114.643962 125.209582,114.435286 C124.819832,114.378 124.659831,114.378 124.360332,114.378 C124.360332,114.378 122.813639,114.259344 122.444401,115.061303 C122.025925,114.676674 121.414627,114.132527 121.414627,113.539233 C121.414627,113.142339 121.603353,112.69635 122.39927,112.69635 C122.698706,112.69635 123.646474,112.880473 124.442391,112.880473 C124.229078,112.405762 123.281363,111.022827 122.45672,110.020373 C122.333648,110.409118 122.140815,110.830565 121.705934,111.174259 C121.648484,110.527765 121.266957,108.486048 120.253599,107.291311 C120.134623,108.097439 119.978718,108.923888 119.978718,110.671058 C119.978718,114.918209 121.004427,118.056494 123.178834,118.657969 C122.895782,119.148967 122.296751,119.586776 121.673144,119.586776 C120.970902,119.586776 120.552907,118.889108 120.159889,118.145929 L120.0034,117.847776 C119.773597,118.46976 119.137733,120 118.501806,120 C117.865879,120 117.229963,118.469708 117.000213,117.847776 C116.557202,118.690702 116.12229,119.586776 115.330469,119.586776 C114.706851,119.586776 114.107863,119.148967 113.824779,118.657969 C115.999228,118.056515 117.024895,114.918209 117.024895,110.671058 C117.024895,108.923888 116.864894,108.097366 116.745918,107.291311 C115.736667,108.486048 115.355119,110.527775 115.297679,111.174259 C114.862798,110.830524 114.669976,110.409076 114.546893,110.020373 C113.722313,111.022901 112.774556,112.405846 112.561222,112.880473 C113.357129,112.880473 114.304844,112.69635 114.604343,112.69635 C115.40026,112.69635 115.588986,113.142339 115.588986,113.539233 C115.588986,114.132496 114.981784,114.676685 114.559212,115.061303 C114.185941,114.259344 112.643281,114.378 112.643281,114.378 C112.343792,114.378 112.183781,114.378 111.794031,114.435286 C111.830959,114.643951 111.835055,114.934465 111.830959,115.151322 C111.826863,115.490931 111.826863,115.732339 111.826863,115.981929 C111.826863,116.943501 111.859684,117.450808 112.569457,118.101367 C112.442278,118.187291 112.073029,118.48189 111.539683,118.48189 C110.452469,118.48189 110.296565,117.696292 110.296565,115.985993 C110.296565,115.781403 110.288341,115.797775 110.304757,115.621832 C109.763209,116.21103 109.119089,117.057999 109.119089,117.782226 C109.119089,117.913159 109.110887,118.089101 109.16422,118.281405 C108.306756,118.281405 107.654435,117.39347 107.654435,116.804272 C107.654435,115.908167 109.032966,114.803459 109.471954,114.312461 C109.398108,114.308375 109.348871,114.30429 109.320156,114.30429 C107.814456,114.30429 107.51085,114.807555 107.363159,115.183992 C106.961099,114.85666 106.616469,114.271568 106.616469,113.535075 C106.616469,113.113628 106.70673,112.634905 107.519063,112.634905 C108.298585,112.634905 109.484211,112.753562 110.30064,112.896771 C110.928291,112.025282 112.167334,110.331323 112.74581,109.021994 C112.512006,109.062918 112.179685,109.091556 111.666852,109.091556 C111.408387,109.091556 111.129399,109.067014 110.969399,108.997452 C113.463827,106.849313 115.539822,104.058765 115.539822,100.904118 C115.539822,100.396727 115.420846,99.8893564 115.248536,99.3492632 C115.186989,99.3328913 115.121346,99.3247106 115.05981,99.3124343 L115.05981,99.3124343 L108.766288,109.357402 C106.9939,112.153238 105.581374,112.27421 103.564028,112.278768 L103.178453,112.278883 C105.012357,110.875491 106.243208,109.062855 106.821684,108.146324 L106.821684,108.146324 L112.725445,98.723236 C112.405433,98.6209512 112.093635,98.5063796 111.785933,98.3877229 L111.785933,98.3877229 L106.559081,106.730562 C104.675919,109.701148 103.199007,109.647958 100.971246,109.647958 C102.821639,108.228121 104.027798,106.448291 104.614477,105.519484 L104.614477,105.519484 L109.689458,97.4220661 C109.398161,97.2624955 109.119184,97.0947337 108.844303,96.9228868 L108.844303,96.9228868 L104.688323,103.559512 C102.80516,106.534183 101.324152,106.480993 99.0963913,106.480993 C100.950881,105.061156 102.157039,103.277242 102.743719,102.348435 L102.743719,102.348435 L107.006408,95.5399204 C106.756146,95.3148728 106.518183,95.081655 106.29254,94.8402461 L106.29254,94.8402461 L103.268872,99.6643402 C101.496484,102.460176 100.083958,102.581148 98.0666123,102.585706 L97.6810368,102.585821 C99.5314302,101.166089 100.741685,99.3779846 101.328364,98.4491776 L101.328364,98.4491776 L104.836108,92.8476558 C104.647382,92.4999083 104.487382,92.1439278 104.356096,91.7756815 L104.356096,91.7756815 L102.591931,94.5948253 C100.819543,97.3906613 99.4033888,97.5116335 97.3856164,97.5161914 L97,97.5163064 C98.8462973,96.1088294 100.068851,94.3043741 100.647327,93.3837478 L100.647327,93.3837478 L104.089429,87.8886483 C104.42594,86.1906049 105.30797,84.6030689 106.620827,83.4246722 C106.181839,83.2569104 105.812601,83.0809784 105.591054,82.9132166 C107.839295,82.9132166 110.067056,81.7757757 111.29379,81.7757757 C112.081536,81.7757757 112.590263,82.2463593 112.590263,82.8641953 C112.536908,83.555647 111.823029,84.2635021 110.50198,84.2635021 C110.202459,84.2635021 109.820911,84.2225881 109.402436,84.1530261 C108.688535,85.1472786 108.110059,86.0432791 108.110059,87.324013 C108.110059,89.7298277 110.994249,91.603845 113.907111,91.603845 C114.071218,91.603845 114.227123,91.5997494 114.39123,91.5874732 C114.969622,89.6399239 116.196366,88.35919 117.176903,87.1112417 C115.999427,86.6857619 114.690666,85.5687152 114.690666,85.0654403 C114.690666,85.0245159 114.711178,84.9999738 114.752202,85.0163457 C116.032186,85.4991531 116.315301,85.5850766 117.324562,85.7855716 C117.390205,85.7978584 117.435336,85.7937732 117.492776,85.7774014 C117.767646,85.6914779 118.013812,85.2332126 118.013812,85.1922986 C117.771826,85.1513847 116.323556,85.0040903 115.359425,84.6522054 C114.625034,84.3862439 114.251689,83.8993408 114.251689,83.7152177 C114.251689,83.6865591 114.288606,83.6783888 114.305022,83.6783888 C114.489557,83.6783888 115.383981,84.1489305 116.692742,84.1489305 C117.180936,84.1489305 117.271197,84.1284735 117.755316,84.0711877 C117.418909,83.2651015 116.778855,82.5858842 116.064986,82.5858842 C115.777838,82.5858842 115.145986,82.7659222 114.620843,83.0277882 C114.255701,82.4591201 113.931593,81.7143944 113.931593,81.3052341 C113.931593,80.8224161 114.411574,80.2577703 115.761401,80.2577703 C116.134736,80.2577703 116.487569,80.2905036 116.815783,80.3518745 C117.078354,80.4009796 117.299891,80.4582654 117.533748,80.5523695 C117.517342,80.5196363 117.505033,80.4500847 117.505033,80.3805226 C117.505033,80.1963994 117.677343,80 118.309153,80 Z M157,82 L157,119 L151,119 L151,82 L157,82 Z M254.545909,103.066688 L254.545909,118.737639 L252.919921,118.737639 L252.919921,117.623006 L252.878718,117.623006 C252.833405,117.709061 252.751105,117.827899 252.635853,117.983623 C252.51648,118.135244 252.355936,118.286866 252.150122,118.442589 C251.948417,118.594211 251.689091,118.725344 251.380364,118.835989 C251.075758,118.946634 250.71352,118.999906 250.306032,118.999906 C249.807951,118.999906 249.334581,118.901556 248.885848,118.704856 C248.441289,118.508156 248.04612,118.192618 247.708561,117.762333 C247.375134,117.332048 247.107568,116.778833 246.909983,116.098619 C246.708289,115.422464 246.609497,114.598769 246.609497,113.635726 C246.609644,112.573892 246.749597,111.680508 247.029514,110.967457 C247.30942,110.254418 247.667538,109.676581 248.107956,109.238177 C248.544296,108.799698 249.042367,108.492354 249.602221,108.307949 C250.157934,108.123544 250.713646,108.033387 251.273416,108.033387 C251.610953,108.033387 251.90322,108.062069 252.150195,108.111249 C252.401291,108.160419 252.607105,108.225996 252.767649,108.295654 L252.767649,103.263388 L254.545909,103.066688 Z M228.497679,108.229982 L228.497679,114.991529 C228.497679,115.868485 228.641752,116.491378 228.925778,116.864322 C229.213925,117.237233 229.654364,117.421638 230.255337,117.421638 C230.769878,117.421638 231.202087,117.294607 231.552017,117.040533 C231.906015,116.782368 232.181811,116.532386 232.387625,116.286517 L232.387625,108.229982 L234.170005,108.229982 L234.170005,118.737041 L232.544017,118.737041 L232.544017,117.55275 L232.498705,117.55275 C232.453392,117.642907 232.358752,117.769938 232.214678,117.937957 C232.066495,118.105975 231.877141,118.26579 231.650746,118.417412 C231.424341,118.573135 231.148545,118.70836 230.827478,118.823106 C230.506401,118.941945 230.148272,118.999318 229.749036,118.999318 C229.279776,118.999318 228.859906,118.92965 228.485339,118.790323 C228.114871,118.650997 227.793793,118.429707 227.530347,118.122362 C227.266902,117.815017 227.065197,117.417515 226.925244,116.929888 C226.789401,116.44224 226.715309,115.839803 226.715309,115.122662 L226.715309,108.229982 L228.497679,108.229982 Z M283.322637,105.300276 L283.322637,108.230318 L285.850031,108.230318 L285.631993,109.676781 L283.322732,109.676781 L283.322732,115.495846 C283.322732,116.241669 283.417362,116.749795 283.606758,117.020244 C283.800233,117.286613 284.1213,117.421837 284.5741,117.421837 C284.837546,117.421837 285.068061,117.384952 285.257415,117.315294 C285.44677,117.241534 285.586723,117.175968 285.673164,117.118594 L285.915925,118.540603 C285.841844,118.597977 285.668939,118.688123 285.389033,118.815165 C285.109116,118.938105 284.734538,118.99957 284.269388,118.99957 C283.359678,118.99957 282.676384,118.745497 282.223573,118.245554 C281.770783,117.741509 281.540268,116.905581 281.540268,115.737656 L281.540268,109.676886 L280.268351,109.676886 L280.268351,108.496686 L281.540268,108.230318 L281.737852,105.300276 L283.322637,105.300276 Z M221.72633,107.967737 C222.137959,107.967737 222.487846,108.008713 222.780113,108.090677 C223.07649,108.168538 223.327585,108.27099 223.54163,108.398022 C223.751564,108.520962 223.928568,108.643891 224.068521,108.766831 C224.208485,108.893863 224.319617,108.996314 224.410179,109.086471 L223.64039,110.352642 C223.521018,110.221508 223.311083,110.045297 223.002356,109.819915 C222.69364,109.590432 222.29023,109.479787 221.792191,109.479787 C221.32292,109.479787 220.964803,109.590432 220.713749,109.80762 C220.466763,110.024808 220.343281,110.287075 220.343281,110.59442 C220.343281,110.98782 220.454424,111.311551 220.680818,111.569726 C220.911334,111.8238 221.257101,112.098361 221.726372,112.389309 L222.384986,112.782709 C223.105342,113.208892 223.669338,113.663757 224.080946,114.151426 C224.488465,114.639074 224.694279,115.27015 224.694279,116.044676 C224.694279,116.876554 224.406143,117.577256 223.82573,118.146899 C223.249447,118.716511 222.41798,118.999266 221.331214,118.999266 C220.907224,118.999266 220.532635,118.954187 220.211569,118.868132 C219.886371,118.777976 219.606465,118.679626 219.3636,118.560787 C219.120734,118.441949 218.91903,118.314907 218.758496,118.179683 C218.597963,118.040356 218.46624,117.913314 218.363327,117.794476 L219.219526,116.393029 C219.310046,116.483185 219.417111,116.585627 219.540604,116.700373 C219.664097,116.819212 219.8164,116.929857 219.989284,117.040502 C220.166288,117.151147 220.363872,117.241303 220.582037,117.315063 C220.804322,117.384732 221.059527,117.421606 221.351794,117.421606 C221.882795,117.421606 222.286205,117.30686 222.561959,117.073285 C222.841865,116.8397 222.981818,116.552854 222.981818,116.216817 C222.981818,115.970947 222.94894,115.75785 222.883078,115.573446 C222.817217,115.393132 222.718425,115.229226 222.586702,115.081696 C222.450869,114.934176 222.290325,114.798941 222.100981,114.663706 C221.911627,114.532573 221.689342,114.389144 221.442367,114.229329 L220.783752,113.81134 C220.121017,113.389258 219.606465,112.942587 219.231845,112.475459 C218.857257,112.008299 218.672023,111.414118 218.672023,110.684703 C218.672023,110.287201 218.746104,109.926584 218.902538,109.598709 C219.054841,109.270876 219.273006,108.988121 219.552922,108.746343 C219.828719,108.504565 220.153906,108.316058 220.528494,108.176731 C220.903082,108.037405 221.302361,107.967737 221.72633,107.967737 Z M213.485248,107.96759 C214.493761,107.96759 215.288166,108.28723 215.856261,108.922408 C216.428433,109.553484 216.71658,110.508281 216.71658,111.7787 C216.716664,112.229495 216.700225,112.618793 216.671352,112.946647 C216.642583,113.27448 216.61371,113.565428 216.584941,113.811308 L211.196631,113.811308 C211.254272,115.052983 211.521818,115.962733 211.999318,116.548741 C212.476809,117.130648 213.160166,117.421596 214.057463,117.421596 C214.36208,117.421596 214.641986,117.384711 214.888972,117.315053 C215.140067,117.241293 215.354112,117.155238 215.539346,117.052786 C215.72458,116.950334 215.876894,116.847893 216.000376,116.745441 C216.123869,116.64299 216.218541,116.561036 216.276172,116.503663 L216.934787,117.753521 C216.860706,117.823189 216.749553,117.929732 216.60548,118.069059 C216.457297,118.208385 216.259712,118.34362 216.012726,118.482947 C215.761631,118.622273 215.452904,118.745213 215.086556,118.847665 C214.720198,118.946015 214.287978,118.999287 213.789876,118.999287 C213.131261,118.999287 212.534398,118.888642 211.999287,118.671453 C211.464165,118.450163 211.011365,118.114137 210.636745,117.651069 C210.262156,117.192102 209.97401,116.610196 209.768195,115.901226 C209.562381,115.19638 209.459469,114.343992 209.459469,113.35231 C209.459469,112.417991 209.566491,111.61065 209.780546,110.934527 C209.990481,110.254271 210.282737,109.696944 210.649095,109.258434 C211.015443,108.819956 211.439433,108.496225 211.921012,108.28723 C212.406743,108.074143 212.925394,107.96759 213.485248,107.96759 Z M271.010864,107.968303 C272.023487,107.968303 272.813782,108.287943 273.385986,108.923121 C273.958159,109.554197 274.242185,110.508995 274.242185,111.779414 C274.242291,112.230208 274.229962,112.619506 274.201088,112.94736 C274.17232,113.275193 274.139336,113.566141 274.110568,113.812021 L268.726367,113.812021 C268.784009,115.053696 269.051554,115.963446 269.529055,116.549455 C270.006545,117.131361 270.689903,117.422309 271.583089,117.422309 C271.891816,117.422309 272.167602,117.385424 272.418708,117.315766 C272.665683,117.242006 272.883848,117.155951 273.069082,117.0535 C273.250206,116.951048 273.40251,116.848606 273.530112,116.746155 C273.653605,116.643703 273.744167,116.56175 273.801799,116.504376 L274.464523,117.754234 C274.390442,117.823902 274.279289,117.930446 274.135216,118.069772 C273.987033,118.209098 273.789448,118.344334 273.538353,118.48366 C273.291367,118.622987 272.98264,118.745927 272.616292,118.848378 C272.249934,118.946728 271.817714,119 271.319612,119 C270.660997,119 270.064134,118.889355 269.529023,118.672167 C268.993901,118.450877 268.536981,118.11485 268.166481,117.651782 C267.791893,117.192816 267.503746,116.610909 267.297932,115.90194 C267.092117,115.197093 266.989205,114.344706 266.989205,113.353023 C266.989205,112.418704 267.096227,111.611364 267.306162,110.935241 C267.520217,110.254984 267.808363,109.697657 268.174711,109.259148 C268.54107,108.820669 268.969169,108.496938 269.450738,108.287943 C269.936469,108.074857 270.45512,107.968303 271.010864,107.968303 Z M203.76673,103.373886 C204.338903,103.373886 204.824623,103.423056 205.228012,103.525508 C205.631411,103.627959 205.977178,103.750889 206.261215,103.898419 C206.549351,104.045939 206.779866,104.189367 206.95687,104.336897 C207.129754,104.480326 207.277947,104.607357 207.393199,104.709809 L206.49173,106.041599 C206.421759,105.97193 206.310606,105.87358 206.162423,105.746549 C206.018349,105.623609 205.828995,105.50477 205.6026,105.385932 C205.376195,105.271185 205.104519,105.168744 204.791672,105.078587 C204.474715,104.992532 204.104247,104.947454 203.680246,104.947454 C203.108073,104.947454 202.560601,105.049906 202.041929,105.254799 C201.519158,105.459692 201.062237,105.803922 200.667058,106.283377 C200.271889,106.766933 199.954932,107.39801 199.712067,108.176627 C199.469201,108.955244 199.349829,109.922378 199.349829,111.077924 C199.349829,112.213014 199.436239,113.180148 199.613274,113.97513 C199.790278,114.770123 200.053724,115.421688 200.403612,115.925764 C200.75762,116.425707 201.18572,116.790425 201.700293,117.01994 C202.214834,117.245321 202.815828,117.355966 203.503211,117.355966 C203.886029,117.355966 204.244147,117.323183 204.581653,117.249423 C204.91919,117.175663 205.219676,117.085507 205.483122,116.987157 L205.483122,112.586009 L203.062687,112.586009 L203.062687,111.077977 L207.327243,111.077977 L207.327507,117.728784 C207.224552,117.814838 207.072301,117.929585 206.866476,118.068912 C206.660662,118.208238 206.393106,118.343473 206.063799,118.4828 C205.734492,118.622126 205.343433,118.745066 204.890622,118.847518 C204.433712,118.945868 203.91505,118.99914 203.326386,118.99914 C202.461957,118.99914 201.6593,118.863905 200.91828,118.593445 C200.181453,118.322985 199.543409,117.884507 199.008297,117.269838 C198.473176,116.65925 198.053306,115.843737 197.75282,114.831598 C197.452323,113.815315 197.30414,112.565406 197.30414,111.077935 C197.30414,109.660017 197.489374,108.463452 197.863962,107.488135 C198.23854,106.508737 198.728391,105.713744 199.337573,105.103188 C199.946797,104.488498 200.634254,104.045939 201.403937,103.779581 C202.173694,103.509121 202.959954,103.373886 203.76673,103.373886 Z M178.685462,108.230087 L178.685462,114.991633 C178.685462,115.86859 178.825415,116.491483 179.113562,116.864426 C179.397588,117.237338 179.842148,117.421743 180.44312,117.421743 C180.957662,117.421743 181.389871,117.294711 181.739801,117.040638 C182.093809,116.782473 182.369605,116.532491 182.575419,116.286622 L182.575419,108.230087 L184.357799,108.230087 L184.357799,118.737146 L182.727702,118.737146 L182.727702,117.552855 L182.686499,117.552855 C182.641186,117.643012 182.546546,117.770043 182.398352,117.938062 C182.254289,118.10608 182.064935,118.265895 181.83853,118.417516 C181.612135,118.57324 181.336339,118.708465 181.015261,118.823211 C180.694195,118.94205 180.331957,118.999423 179.936819,118.999423 C179.467549,118.999423 179.04769,118.929755 178.673122,118.790428 C178.298534,118.651102 177.981577,118.429812 177.718131,118.122467 C177.454685,117.815122 177.252981,117.41762 177.113028,116.929993 C176.973075,116.442366 176.903093,115.839908 176.903093,115.122767 L176.903093,108.230087 L178.685462,108.230087 Z M241.35723,107.96782 C241.8265,107.96782 242.25048,108.037489 242.633256,108.176815 C243.011965,108.316142 243.337152,108.537432 243.600598,108.844777 C243.864043,109.152122 244.069858,109.549623 244.213931,110.03725 C244.362125,110.524898 244.436216,111.127335 244.436216,111.840385 L244.436216,118.737156 L242.653794,118.737545 L242.653794,111.971812 C242.653794,111.082561 242.505611,110.447414 242.205114,110.058106 C241.904617,109.672899 241.443587,109.480301 240.830243,109.480301 C240.303351,109.480301 239.862901,109.611434 239.508904,109.873701 C239.159016,110.135968 238.8791,110.390041 238.677395,110.640012 L238.677395,118.737545 L236.895026,118.737545 L236.895026,108.230097 L238.521014,108.230097 L238.521014,109.414388 L238.566326,109.414388 C238.611639,109.324232 238.706279,109.1972 238.850353,109.029182 C238.998536,108.861163 239.18789,108.701349 239.422525,108.549727 C239.65715,108.398105 239.937067,108.258779 240.258133,108.144032 C240.583331,108.029285 240.945569,107.96782 241.35723,107.96782 Z M259.052993,103.067328 L259.052993,109.304341 L259.098306,109.304341 C259.155948,109.218286 259.246499,109.099448 259.374102,108.95602 C259.497595,108.80849 259.670479,108.665072 259.888643,108.517542 C260.106808,108.370011 260.378484,108.24298 260.691331,108.132335 C261.008288,108.025792 261.374647,107.968418 261.802757,107.968418 C262.724817,107.968418 263.457513,108.26757 264.000844,108.865863 C264.540086,109.464156 264.811772,110.455828 264.811772,111.84091 L264.811772,118.737754 L263.033513,118.737754 L263.033513,111.972022 C263.033513,111.082771 262.881199,110.447624 262.580712,110.058316 C262.280216,109.673109 261.823306,109.480511 261.205841,109.480511 C260.678949,109.480511 260.2385,109.611644 259.888612,109.873911 C259.538724,110.136177 259.258808,110.390251 259.052993,110.640222 L259.052993,118.737754 L257.274734,118.737754 L257.274734,103.264028 L259.052993,103.067328 Z M278.399603,108.230223 L278.399603,118.737671 L276.617234,118.737671 L276.617234,108.230223 L278.399603,108.230223 Z M190.972819,108.033135 C191.223915,108.033135 191.42562,108.057725 191.577923,108.098702 C191.730226,108.14378 191.853719,108.180665 191.940161,108.209347 L191.721943,109.78325 C191.676631,109.754569 191.58199,109.721786 191.433797,109.676707 C191.289724,109.631629 191.092139,109.611141 190.841044,109.611141 C190.285342,109.611141 189.849012,109.75866 189.532034,110.057812 C189.219187,110.356964 188.992792,110.684797 188.861069,111.033118 L188.861069,118.737251 L187.082809,118.737251 L187.082809,108.229804 L188.708797,108.229804 L188.708797,109.651813 L188.75411,109.651813 C188.824081,109.451011 188.922884,109.25022 189.038147,109.05352 C189.153399,108.85682 189.301593,108.680608 189.478586,108.528987 C189.65559,108.373264 189.861415,108.254425 190.10427,108.164269 C190.347135,108.078214 190.635282,108.033135 190.972819,108.033135 Z M174.198621,102.935198 C174.58145,102.935198 174.902517,102.98847 175.165963,103.08682 C175.429408,103.189271 175.606412,103.271224 175.696975,103.328598 L175.322386,104.795612 C175.231866,104.738239 175.108342,104.672672 174.947798,104.611207 C174.787264,104.541539 174.58968,104.512857 174.355045,104.512857 C173.931065,104.512857 173.605868,104.643991 173.387703,104.906257 C173.165428,105.168524 173.058396,105.647978 173.058396,106.348723 L173.058396,108.229699 L175.429408,108.229699 L175.211275,109.676225 L173.058396,109.676225 L173.058396,118.736695 L171.276026,118.736695 L171.276026,109.676225 L170,109.676225 L170,108.496025 L171.276026,108.254247 L171.276026,106.152023 C171.276026,105.582412 171.358327,105.094774 171.518892,104.685009 C171.679425,104.275223 171.89347,103.943288 172.156916,103.681021 C172.420361,103.418755 172.724979,103.226157 173.078976,103.11141 C173.428874,102.992572 173.803452,102.935198 174.198621,102.935198 Z M113.710214,108.854504 C113.492773,108.854504 113.382,108.887248 113.258917,108.936342 C113.075642,109.431409 112.719155,110.072424 112.322104,110.711476 L112.080067,111.093489 C111.345719,112.23172 110.565898,113.267743 110.514205,113.338937 L110.514205,113.338937 L110.493693,113.36349 L110.460871,113.359405 C109.948017,113.277577 108.626968,113.077082 107.519231,113.077082 L107.519231,113.077082 L107.42175,113.077737 C107.323288,113.080355 107.222202,113.093449 107.149993,113.15892 C107.080243,113.232578 107.047422,113.359415 107.047422,113.535358 C107.047422,113.8095 107.162302,114.280042 107.301791,114.476441 C107.687455,114.05909 108.31518,113.866786 109.320335,113.866786 C109.62393,113.866786 109.98087,113.956805 110.173692,114.009995 L110.173692,114.009995 L110.341906,114.050909 L109.763429,114.627831 C108.86909,115.519746 108.097781,116.289014 108.097781,116.804565 C108.097781,117.111441 108.397281,117.51242 108.676257,117.692458 C108.733603,116.751417 109.685467,115.499363 110.608573,114.795593 L110.608573,114.795593 L110.686525,114.734222 L110.702941,115.06565 C110.719347,115.290697 110.735763,115.62621 110.735763,115.986276 C110.735763,117.774286 110.916275,118.044333 111.539883,118.044333 C111.634251,118.044333 111.781942,118.015695 111.872203,117.982962 C111.523477,117.553292 111.383989,116.980455 111.383989,115.982097 L111.383989,115.982097 L111.388085,115.523831 L111.392181,115.151489 C111.392181,114.742329 111.351157,114.439549 111.318335,114.194045 L111.318335,114.194045 L111.301919,114.059016 L111.351146,114.050846 L111.396277,114.042676 C111.687563,114.001762 112.229122,113.9322 112.643491,113.9322 C113.525542,113.9322 114.124531,114.009943 114.563519,114.419103 C114.846602,114.18997 115.141995,113.788991 115.141995,113.539401 C115.141995,113.162963 114.908138,113.134326 114.604543,113.134326 C114.448638,113.134326 114.30915,113.158868 114.108115,113.18342 C113.726651,113.236611 113.15225,113.322534 111.974774,113.322534 L111.974774,113.322534 L111.900929,113.322534 L111.925558,113.248908 C112.224994,112.397843 113.045583,111.15398 114.362536,109.562359 C114.24356,109.132731 114.124583,108.854504 113.710214,108.854504 Z M123.293756,108.85441 C122.87528,108.85441 122.7604,109.132648 122.641434,109.562286 C123.958387,111.153907 124.778913,112.39777 125.078412,113.248834 L125.078412,113.248834 L125.103031,113.322482 L125.029185,113.322482 C123.851773,113.322482 123.277393,113.236558 122.895845,113.183368 C122.69481,113.158826 122.551215,113.134273 122.399417,113.134273 C122.095821,113.134273 121.861965,113.162911 121.861965,113.539348 C121.861965,113.788938 122.157357,114.189918 122.440441,114.41905 C122.875259,114.00989 123.478396,113.932147 124.360468,113.932147 C124.774838,113.932147 125.316396,114.001709 125.607683,114.042623 L125.607683,114.042623 L125.70204,114.058995 L125.685624,114.194024 C125.652803,114.439518 125.611779,114.742308 125.611779,115.151468 L125.611779,115.151468 L125.615875,115.52381 L125.619971,115.982076 C125.619971,116.980487 125.480483,117.553313 125.131756,117.982941 C125.222018,118.015674 125.369719,118.044312 125.464077,118.044312 C126.083578,118.044312 126.268197,117.774276 126.268197,115.986255 C126.268197,115.62619 126.284602,115.290666 126.301018,115.065629 L126.301018,115.065629 L126.313328,114.734201 L126.395386,114.795572 C127.318546,115.499258 128.270367,116.751354 128.331903,117.692437 C128.606784,117.512399 128.91038,117.11142 128.91038,116.804544 C128.91038,116.353428 128.316742,115.708124 127.569167,114.956291 L127.240635,114.62781 L126.662159,114.050888 L126.752421,114.026335 L126.830373,114.009963 C127.023195,113.956773 127.380134,113.866754 127.68373,113.866754 C128.688916,113.866754 129.31662,114.059058 129.702274,114.47641 C129.841762,114.28001 129.956643,113.809468 129.956643,113.535326 C129.956643,113.359384 129.923821,113.232536 129.854072,113.158889 C129.763821,113.07705 129.628428,113.07705 129.509452,113.07705 L129.484833,113.07705 C128.377097,113.07705 127.056027,113.277536 126.543193,113.359384 L126.543193,113.359384 L126.510372,113.363469 L126.48986,113.338916 C126.403631,113.220239 124.294899,110.421625 123.749244,108.936322 C123.617958,108.887216 123.511291,108.85441 123.293851,108.85441 Z M251.404991,109.546004 C250.993352,109.546004 250.610534,109.615673 250.248253,109.754999 C249.890136,109.890234 249.581409,110.119718 249.313842,110.443449 C249.050397,110.763089 248.844582,111.176977 248.688159,111.689215 C248.535855,112.201453 248.457643,112.828396 248.457643,113.570191 C248.457643,114.303719 248.519395,114.910163 248.642888,115.397874 C248.770491,115.889624 248.943374,116.283023 249.161539,116.582165 C249.379704,116.881316 249.63081,117.094403 249.910716,117.225536 C250.186512,117.356669 250.478768,117.422236 250.787495,117.422236 C251.067454,117.422236 251.314429,117.38534 251.536714,117.315682 C251.754879,117.241922 251.948343,117.151766 252.108887,117.041121 C252.26942,116.930476 252.405264,116.819831 252.512286,116.700992 C252.623428,116.586246 252.70987,116.483804 252.767502,116.393647 L252.767502,109.918916 C252.606958,109.816464 252.417614,109.726318 252.207679,109.652547 C251.993624,109.582879 251.726069,109.546004 251.404991,109.546004 Z M270.903726,109.414923 C270.273995,109.414923 269.767716,109.67719 269.384876,110.201723 C269.006167,110.726256 268.783893,111.484416 268.726261,112.476099 L272.570885,112.476099 C272.587324,112.40643 272.599653,112.299887 272.603763,112.16056 C272.612193,112.021234 272.616092,111.873704 272.616092,111.709787 C272.616092,110.984452 272.472019,110.418911 272.175642,110.017329 C271.883376,109.615736 271.459396,109.414923 270.903726,109.414923 Z M213.374221,109.41421 C212.74428,109.41421 212.238,109.676477 211.855161,110.20101 C211.476452,110.725543 211.254178,111.483703 211.196546,112.475385 L215.045279,112.475385 C215.057609,112.405717 215.069938,112.299174 215.078158,112.159847 C215.086588,112.020521 215.086588,111.87299 215.086588,111.709074 C215.086588,110.983739 214.942515,110.418198 214.650248,110.016615 C214.353871,109.615022 213.929892,109.41421 213.374221,109.41421 Z M182.311974,104.095318 C182.60424,104.095318 182.855336,104.19777 183.06115,104.402663 C183.262855,104.607556 183.365757,104.878016 183.365757,105.209951 C183.365757,105.545978 183.262802,105.816437 183.06115,106.021341 C182.855336,106.226234 182.60424,106.328686 182.311974,106.328686 C182.019717,106.328686 181.768622,106.226234 181.562807,106.021341 C181.361103,105.816448 181.25819,105.545988 181.25819,105.209951 C181.25819,104.878016 181.361145,104.607556 181.562807,104.402663 C181.768622,104.19777 182.019717,104.095318 182.311974,104.095318 Z M178.92426,104.095318 C179.220637,104.095318 179.467612,104.19777 179.673437,104.402663 C179.879251,104.607556 179.982164,104.878016 179.982164,105.209951 C179.982164,105.545978 179.879209,105.816437 179.673437,106.021341 C179.467612,106.226234 179.220637,106.328686 178.92426,106.328686 C178.632004,106.328686 178.385018,106.226234 178.179204,106.021341 C177.973389,105.816448 177.870477,105.545988 177.870477,105.209951 C177.870477,104.878016 177.973431,104.607556 178.179204,104.402663 C178.385018,104.19777 178.632004,104.095318 178.92426,104.095318 Z M277.518704,103.177459 C277.868591,103.177459 278.156738,103.292206 278.374903,103.52578 C278.597188,103.759365 278.70421,104.058507 278.70421,104.423225 C278.70421,104.80433 278.597188,105.107573 278.374903,105.34526 C278.156738,105.574743 277.868591,105.693581 277.518704,105.693581 C277.152345,105.693581 276.860089,105.574743 276.637804,105.34526 C276.419639,105.107583 276.308497,104.80434 276.308497,104.423225 C276.308497,104.058507 276.419639,103.759365 276.637804,103.52578 C276.860089,103.292195 277.152345,103.177459 277.518704,103.177459 Z M224.121453,85.9017933 C224.533092,85.9017933 224.88298,85.9427698 225.179346,86.0247334 C225.471602,86.1025951 225.722708,86.2050469 225.936753,86.3279765 C226.150808,86.4509165 226.323692,86.577948 226.463645,86.700888 C226.603598,86.8238281 226.71474,86.9303713 226.805302,87.0164262 L226.035398,88.2865831 C225.916025,88.1554498 225.70609,87.9751468 225.397363,87.7497549 C225.088636,87.524363 224.685238,87.4096267 224.187198,87.4096267 C223.717938,87.4096267 223.35982,87.5202717 223.112866,87.7415617 C222.861771,87.9587499 222.738278,88.2210164 222.738278,88.5283614 C222.738278,88.9217612 222.84942,89.2454925 223.079936,89.4995659 C223.306341,89.7577306 223.652108,90.0322922 224.121369,90.3232507 L224.784104,90.7166505 C225.50035,91.1387318 226.06424,91.5936069 226.475953,92.0853672 C226.883472,92.5730151 227.089286,93.2040914 227.089286,93.978617 C227.089286,94.810495 226.80114,95.5111978 226.220737,96.0767494 C225.644455,96.6463609 224.812988,96.9332175 223.726221,96.9332175 C223.302242,96.9332175 222.927653,96.8881392 222.606576,96.8020843 C222.285509,96.7119275 222.001483,96.6094862 221.758618,96.4947393 C221.519862,96.3759011 221.318168,96.2488592 221.153514,96.1095327 C220.99297,95.9702062 220.861247,95.8431643 220.758345,95.728428 L221.618654,94.3269804 C221.705064,94.4171372 221.812129,94.5154871 221.935622,94.6343253 C222.059104,94.7490722 222.211407,94.8638086 222.384301,94.9744536 C222.561305,95.0809967 222.75889,95.1752553 222.981164,95.2449133 C223.199329,95.3186732 223.454545,95.3555584 223.746812,95.3555584 C224.277813,95.3555584 224.681212,95.2367201 224.956977,95.0072369 C225.236893,94.7736518 225.376846,94.4868056 225.376846,94.1507688 C225.376846,93.9048886 225.343968,93.6877004 225.278107,93.5073974 C225.212245,93.3229926 225.113453,93.159076 224.97761,93.0156477 C224.845887,92.868128 224.685354,92.728791 224.495999,92.5976577 C224.306655,92.4665244 224.08437,92.3230961 223.837385,92.1591795 L223.17877,91.7452914 C222.516045,91.3232101 222.001483,90.8765282 221.626968,90.4094105 C221.25649,89.9422508 221.067146,89.3439789 221.067146,88.6145631 C221.067146,88.2211633 221.145337,87.8605468 221.297661,87.5327661 C221.449964,87.2049329 221.668129,86.9180762 221.948035,86.6803998 C222.223831,86.4386215 222.549029,86.2501148 222.923617,86.1107883 C223.298195,85.9714618 223.697484,85.9017933 224.121453,85.9017933 Z M209.615797,81 L209.615797,96.6667547 L207.9857,96.6667547 L207.9857,95.5521219 L207.944497,95.5521219 C207.899184,95.6422786 207.821004,95.7611169 207.701631,95.9127384 C207.586379,96.0684618 207.425835,96.2200833 207.220021,96.3717049 C207.014206,96.5274283 206.754881,96.6585615 206.450264,96.7651047 C206.141537,96.8757497 205.783419,96.9331231 205.371822,96.9331231 C204.87374,96.9331231 204.40036,96.8347732 203.951638,96.6339714 C203.507067,96.4372715 203.116019,96.1258247 202.778461,95.6955502 C202.440923,95.2652652 202.173357,94.7079488 201.975773,94.0318361 C201.778188,93.3515796 201.679396,92.5319862 201.679396,91.5689434 C201.679544,90.5031131 201.819497,89.6138197 202.095293,88.9007694 C202.375209,88.1836382 202.733327,87.6098934 203.173735,87.1714886 C203.614185,86.7330104 204.112255,86.4215742 204.668,86.2412607 C205.223702,86.0568558 205.783535,85.966699 206.339195,85.966699 C206.676743,85.966699 206.968999,85.9912892 207.220094,86.0445607 C207.46708,86.0937305 207.672895,86.1552058 207.833428,86.2289656 L207.833428,81.1966999 L209.615797,81 Z M215.880466,85.9015311 C216.888968,85.9015311 217.683384,86.2170692 218.251479,86.8522473 C218.823652,87.4874254 219.111798,88.442212 219.111798,89.7085399 C219.111872,90.163415 219.095433,90.5527234 219.066559,90.8805671 C219.037791,91.2084003 219.008917,91.495257 218.980149,91.7452285 L213.591838,91.7452285 C213.64948,92.9869032 213.917025,93.8966535 214.394526,94.4785705 C214.872016,95.0645684 215.555374,95.3555269 216.448561,95.3555269 C216.757288,95.3555269 217.037204,95.3186417 217.284179,95.2448819 C217.535275,95.1752134 217.75345,95.0850671 217.934564,94.9826153 C218.115688,94.8801635 218.272101,94.7777222 218.395594,94.6793722 C218.519087,94.5769204 218.613759,94.4949674 218.67139,94.437594 L219.330005,95.6833601 C219.255924,95.7571199 219.148881,95.8636736 219.000698,96.0030001 C218.852504,96.1382352 218.65492,96.2775617 218.407945,96.4168881 C218.156849,96.5562146 217.852242,96.6750528 217.485884,96.7775047 C217.115416,96.8799565 216.683196,96.933228 216.185094,96.933228 C215.526479,96.933228 214.929616,96.822583 214.394505,96.6053949 C213.859373,96.3841048 213.406583,96.0439766 213.031963,95.5850101 C212.657343,95.1260436 212.369228,94.5441371 212.163414,93.8351677 C211.957599,93.1261982 211.854687,92.2779338 211.854687,91.2862515 C211.854687,90.3519217 211.961709,89.5445918 212.175764,88.8684686 C212.389808,88.1882121 212.677955,87.6308852 213.044313,87.1923756 C213.410661,86.7538973 213.834651,86.430166 214.32034,86.2170692 C214.80195,86.0080742 215.320612,85.9015311 215.880466,85.9015311 Z M266.548766,85.900996 C266.960405,85.900996 267.310293,85.9419726 267.602549,86.0239361 C267.898926,86.1017978 268.150021,86.2042496 268.364076,86.3271792 C268.574011,86.4501192 268.751015,86.5771507 268.890968,86.7000907 C269.030921,86.8230308 269.142063,86.929574 269.232625,87.0156289 L268.462837,88.2857858 C268.343464,88.1546525 268.133529,87.9743495 267.824802,87.7489576 C267.516076,87.5235658 267.112677,87.4088294 266.614638,87.4088294 C266.145377,87.4088294 265.787259,87.5194744 265.540305,87.7407644 C265.28921,87.9579526 265.165717,88.2202191 265.165717,88.5275641 C265.165717,88.9209639 265.276859,89.2446952 265.503265,89.4987686 C265.73378,89.7569333 266.079547,90.0314949 266.548808,90.3224534 L267.207422,90.7158532 C267.927789,91.1379345 268.491774,91.5928096 268.903381,92.0845699 C269.310901,92.5722179 269.516715,93.2032941 269.516715,93.9778197 C269.516715,94.8096977 269.228568,95.5104005 268.648166,96.0759521 C268.071883,96.6455636 267.240416,96.9324203 266.153649,96.9324203 C265.72967,96.9324203 265.355082,96.8873419 265.034005,96.801287 C264.708818,96.7111302 264.428901,96.6086889 264.186046,96.4939421 C263.943181,96.3751038 263.741476,96.2480619 263.580943,96.1087354 C263.420399,95.969409 263.288676,95.842367 263.185774,95.7276307 L264.041973,94.3261831 C264.132493,94.4163399 264.235437,94.5146898 264.36304,94.633528 C264.486532,94.7482749 264.638836,94.8630113 264.81173,94.9736563 C264.988723,95.0801995 265.186308,95.1744581 265.404483,95.244116 C265.626758,95.3178759 265.881974,95.3547611 266.17423,95.3547611 C266.705242,95.3547611 267.108641,95.2359228 267.384395,95.0064396 C267.664311,94.7728545 267.804264,94.4860084 267.804264,94.1499715 C267.804264,93.9040913 267.771386,93.6869032 267.70131,93.5066001 C267.639558,93.3221953 267.540776,93.1582787 267.409053,93.0148504 C267.27733,92.8673307 267.112677,92.7279937 266.923322,92.5968604 C266.733968,92.4657271 266.511693,92.3222988 266.264708,92.1583822 L265.606093,91.7444941 C264.943369,91.3224128 264.428806,90.8757309 264.054292,90.4086132 C263.679703,89.9414535 263.494469,89.3431816 263.494469,88.6137658 C263.494469,88.220366 263.57266,87.8597495 263.724984,87.5319688 C263.877288,87.2041356 264.095452,86.9172789 264.375358,86.6796025 C264.651154,86.4378242 264.976352,86.2493175 265.35093,86.109991 C265.725518,85.9706645 266.124807,85.900996 266.548766,85.900996 Z M273.801725,83.2333256 L273.801725,86.1633675 L276.333229,86.1633675 L276.110986,87.6098305 L273.801725,87.6098305 L273.801725,93.4288958 C273.801725,94.1747189 273.900465,94.6828446 274.089861,94.9492026 C274.279215,95.2196623 274.604402,95.3548974 275.057203,95.3548974 C275.320649,95.3548974 275.547054,95.3180123 275.736398,95.2442524 C275.929872,95.1745839 276.069825,95.1049259 276.156267,95.0475525 L276.399133,96.4736531 C276.325052,96.5310265 276.148037,96.6211728 275.868121,96.7441129 C275.592324,96.8711443 275.217747,96.9326196 274.748476,96.9326196 C273.838766,96.9326196 273.159581,96.6785462 272.702661,96.1745014 C272.24986,95.6704566 272.023466,94.8386205 272.023466,93.6706951 L272.023466,87.6099249 L270.747439,87.6099249 L270.747439,86.425634 L272.023466,86.1633675 L272.22105,83.2333256 L273.801725,83.2333256 Z M183.563447,86.1634095 L183.563447,92.9249559 C183.563447,93.8019123 183.70752,94.4248058 183.995667,94.7977489 C184.279693,95.1706604 184.720143,95.3550653 185.325225,95.3550653 C185.835646,95.3550653 186.267866,95.2280339 186.621906,94.9739605 C186.971793,94.7157958 187.251699,94.4658243 187.457524,94.2158423 L187.457524,86.1634095 L189.235784,86.1634095 L189.235784,96.6663771 L187.609796,96.6663771 L187.609796,95.4861776 L187.564483,95.4861776 C187.52328,95.5722325 187.42453,95.7033658 187.280457,95.8713842 C187.132263,96.0394027 186.947029,96.1992174 186.720635,96.3508389 C186.494229,96.5024605 186.218433,96.641787 185.893246,96.7565338 C185.572169,96.8712807 185.214051,96.9327455 184.818914,96.9327455 C184.349654,96.9327455 183.925664,96.863077 183.555217,96.7237505 C183.180628,96.584424 182.859551,96.363134 182.596105,96.0557891 C182.332659,95.7484441 182.130965,95.350953 181.991012,94.8633155 C181.855169,94.3756676 181.785187,93.7732308 181.785187,93.0560892 L181.785187,86.1634095 L183.563447,86.1634095 Z M281.51974,85.901038 C282.532363,85.901038 283.322658,86.2165761 283.894863,86.8517542 C284.467067,87.4869324 284.751062,88.441719 284.751062,89.7080468 C284.751167,90.1629219 284.734728,90.5522304 284.705854,90.8800741 C284.677086,91.2079073 284.648213,91.4947639 284.619444,91.7447354 L279.235243,91.7447354 C279.292885,92.9864102 279.56043,93.8961604 280.033811,94.4780774 C280.511301,95.0640753 281.198768,95.3550338 282.091955,95.3550338 C282.400682,95.3550338 282.676478,95.3181487 282.927574,95.2443888 C283.17456,95.1747203 283.392724,95.0845741 283.573838,94.9821223 C283.759072,94.8796704 283.911386,94.7772291 284.034868,94.6788792 C284.162482,94.5764274 284.253033,94.4944743 284.310665,94.4371009 L284.969279,95.682867 C284.899308,95.7566269 284.788166,95.8631805 284.639972,96.002507 C284.495899,96.1377421 284.298314,96.2770686 284.047219,96.4163951 C283.800244,96.5557216 283.491517,96.6745598 283.125158,96.7770116 C282.75881,96.8794634 282.326591,96.932735 281.828478,96.932735 C281.169863,96.932735 280.56889,96.82209 280.033779,96.6049018 C279.502767,96.3836118 279.045857,96.0434835 278.671237,95.5845171 C278.300769,95.1255506 278.008502,94.5436441 277.802688,93.8346746 C277.600983,93.1257367 277.498081,92.2774407 277.498081,91.2857585 C277.498081,90.3514286 277.605103,89.5440987 277.815038,88.8679756 C278.029083,88.1877191 278.317229,87.6303922 278.683588,87.1918825 C279.049935,86.7534043 279.473925,86.4296729 279.959614,86.2165761 C280.441225,86.0075812 280.963996,85.901038 281.51974,85.901038 Z M299.742986,86.1627905 L299.742986,92.9243369 C299.742986,93.8012933 299.887059,94.4241869 300.171085,94.7971299 C300.459232,95.1700415 300.899682,95.3544463 301.500644,95.3544463 C302.015185,95.3544463 302.447405,95.2274149 302.801434,94.9733416 C303.151322,94.7151769 303.427118,94.4652054 303.632932,94.2152234 L303.632932,86.1627905 L305.415323,86.1627905 L305.415323,96.6657581 L303.789335,96.6657581 L303.789335,95.4855586 L303.744022,95.4855586 C303.69871,95.5716135 303.604069,95.7027468 303.459996,95.8707653 C303.311803,96.0387837 303.126568,96.1985984 302.896053,96.35022 C302.669659,96.5018415 302.397972,96.641168 302.072785,96.7559149 C301.751708,96.8706617 301.39359,96.9321265 300.998453,96.9321265 C300.529193,96.9321265 300.105203,96.862458 299.734756,96.7231316 C299.360167,96.5838051 299.03909,96.362515 298.775644,96.0551701 C298.512198,95.7478252 298.310504,95.350334 298.170551,94.8626966 C298.030588,94.3750486 297.964726,93.7726119 297.964726,93.0554702 L297.964726,86.1627905 L299.742986,86.1627905 Z M238.829266,85.9014366 C240.969711,85.9014366 242.040039,87.1431114 242.040039,89.6223696 L242.040039,96.6666393 L240.25767,96.6666393 L240.25767,89.9050929 C240.25767,89.0445334 240.105366,88.4256997 239.79664,88.0446789 C239.487923,87.6676655 239.035123,87.4791693 238.434098,87.4791693 C237.936016,87.4791693 237.520267,87.5980075 237.190949,87.8397858 C236.861631,88.0815641 236.602306,88.3110473 236.412962,88.5282355 C236.44173,88.6880502 236.462384,88.8601705 236.478823,89.0445754 C236.491153,89.2248889 236.499372,89.4174869 236.499372,89.6223801 L236.499372,96.6666498 L234.716898,96.6670065 L234.716898,89.9054496 C234.716898,89.0448901 234.593405,88.4260564 234.346429,88.0450356 C234.095334,87.6680222 233.691935,87.479526 233.136265,87.479526 C232.844008,87.479526 232.584672,87.5164111 232.354157,87.5860691 C232.127762,87.659829 231.926058,87.7499857 231.753174,87.8606307 C231.57617,87.9712757 231.419757,88.090114 231.288034,88.2212472 C231.156311,88.3523805 231.049278,88.4712187 230.958727,88.5736705 L230.958727,96.6670065 L229.180467,96.6670065 L229.180467,86.1637556 L230.806455,86.1637556 L230.806455,87.3480465 L230.847658,87.3480465 C230.921739,87.2292083 231.032892,87.0857799 231.181075,86.9177615 C231.325148,86.749743 231.510382,86.5899283 231.728547,86.4383068 C231.946722,86.2866852 232.206048,86.1555519 232.498304,86.0531001 C232.790571,85.9547502 233.119878,85.9014366 233.486226,85.9014366 C234.688171,85.9014366 235.540261,86.3686383 236.038384,87.3029261 C236.141339,87.1554065 236.28125,86.9996831 236.454133,86.8316646 C236.631137,86.6636462 236.836952,86.5120246 237.071587,86.3726982 C237.306212,86.2333717 237.569658,86.1186248 237.861925,86.0325699 C238.154181,85.946515 238.479368,85.9014366 238.829266,85.9014366 Z M317.793337,85.9004925 C319.929672,85.9004925 321,87.1421672 321,89.6214254 L321,96.6656952 L319.22174,96.6656952 L319.22174,89.9041488 C319.22174,89.0435893 319.065317,88.4247556 318.75659,88.0437347 C318.451983,87.6667213 317.995073,87.4782251 317.394048,87.4782251 C316.895977,87.4782251 316.484338,87.5970633 316.155009,87.8388416 C315.825681,88.0806199 315.562256,88.3101031 315.372902,88.5272913 C315.401776,88.6871061 315.426434,88.8592264 315.438763,89.0436312 C315.455202,89.2239447 315.459312,89.4165428 315.459312,89.6214359 L315.459312,96.6657057 L313.680968,96.6660623 L313.680968,89.9045054 C313.680968,89.0439459 313.557475,88.4251123 313.30638,88.0440914 C313.055284,87.667078 312.655995,87.4785818 312.096215,87.4785818 C311.803959,87.4785818 311.544623,87.515467 311.318228,87.585125 C311.091822,87.6588848 310.890128,87.7490416 310.713124,87.8596866 C310.53612,87.9703316 310.383817,88.0891698 310.252094,88.2203031 C310.120371,88.3514364 310.009228,88.4702746 309.922787,88.5727264 L309.922787,96.6660623 L308.140417,96.6660623 L308.140417,86.1628115 L309.766405,86.1628115 L309.766405,87.3471023 L309.811718,87.3471023 C309.885799,87.2282641 309.996952,87.0848358 310.141025,86.9168173 C310.289219,86.7487989 310.470333,86.5889841 310.692618,86.4373626 C310.910782,86.2857411 311.165998,86.1546078 311.462375,86.052156 C311.754631,85.953806 312.083938,85.9004925 312.450297,85.9004925 C313.652242,85.9004925 314.500222,86.3676941 314.998345,87.301982 C315.101194,87.1544623 315.2412,86.9987389 315.418204,86.8307205 C315.591098,86.662702 315.796913,86.5110805 316.031538,86.371754 C316.266173,86.2324275 316.529619,86.1176807 316.825995,86.0316258 C317.118252,85.9455709 317.439329,85.9004925 317.793337,85.9004925 Z M196.423029,85.9011324 C196.89229,85.9011324 197.320389,85.9708009 197.699056,86.1101274 C198.081874,86.2494539 198.402941,86.4707439 198.666387,86.7780888 C198.929833,87.0813319 199.135658,87.4788336 199.283841,87.9705624 C199.427914,88.4582103 199.502005,89.0606471 199.502005,89.7736974 L199.502005,96.6663771 L197.723693,96.6666708 L197.723693,89.9051244 C197.723693,89.0158729 197.57139,88.3807263 197.270904,87.9914178 C196.970407,87.6062112 196.513497,87.4095113 195.896032,87.4095113 C195.369141,87.4095113 194.928691,87.5406446 194.578803,87.807013 C194.224795,88.0692795 193.948999,88.3233528 193.743184,88.5733243 L193.743184,96.6666708 L191.960815,96.6666708 L191.960815,86.1634095 L193.586803,86.1634095 L193.586803,87.3477003 L193.632116,87.3477003 C193.677428,87.2575435 193.772069,87.1305121 193.920262,86.9624937 C194.064335,86.7944752 194.2578,86.6346605 194.492435,86.4830389 C194.72295,86.3273156 195.002856,86.1920909 195.323933,86.0773441 C195.64912,85.9585058 196.015479,85.9011324 196.423029,85.9011324 Z M246.477437,86.163399 L246.477437,96.6666498 L244.699177,96.6666498 L244.699177,86.163399 L246.477437,86.163399 Z M291.016068,85.9663633 C291.267163,85.9663633 291.468868,85.9868516 291.621171,86.03193 C291.773475,86.0770084 291.896967,86.1138935 291.983409,86.142575 L291.761072,87.7164785 C291.719869,87.6877971 291.625239,87.6509119 291.477045,87.6099354 C291.332972,87.564857 291.131278,87.5402669 290.884292,87.5402669 C290.32859,87.5402669 289.89226,87.6918884 289.575282,87.9910401 C289.262435,88.2901919 289.03604,88.6139232 288.904317,88.9663465 L288.904317,96.6662827 L287.126058,96.6662827 L287.126058,86.1630318 L288.752046,86.1630318 L288.752046,87.585041 L288.797358,87.585041 C288.86733,87.3801479 288.966132,87.1793462 289.081395,86.9826462 C289.200768,86.7859463 289.344841,86.6138365 289.521834,86.4581131 C289.698838,86.3064916 289.904663,86.1835515 290.147518,86.0974966 C290.390384,86.0114417 290.67853,85.9663633 291.016068,85.9663633 Z M261.185124,86.1631052 L261.185124,96.6663561 L259.402754,96.6663561 L259.402754,86.1631052 L261.185124,86.1631052 Z M253.668761,85.9011114 C254.138021,85.9011114 254.562,85.9707799 254.944787,86.1101064 C255.323496,86.2494329 255.644573,86.4707229 255.912128,86.7780678 C256.175574,87.0813109 256.377279,87.4788126 256.525462,87.9705414 C256.673656,88.4581893 256.743637,89.0606261 256.743637,89.7736764 L256.743637,96.6663561 L254.965315,96.6666498 L254.965315,89.9051034 C254.965315,89.0158519 254.813001,88.3807053 254.512514,87.9913968 C254.212018,87.6061902 253.755108,87.4094903 253.141753,87.4094903 C252.610741,87.4094903 252.174411,87.5406236 251.820414,87.806992 C251.470526,88.0692585 251.19061,88.3233319 250.984795,88.5733034 L250.984795,96.6666498 L249.206536,96.6666498 L249.206536,86.1633885 L250.832524,86.1633885 L250.832524,87.3476793 L250.873726,87.3476793 C250.919039,87.2575226 251.01369,87.1304911 251.161873,86.9624727 C251.310067,86.7944542 251.49941,86.6346395 251.734046,86.483018 C251.968681,86.3272946 252.244467,86.1920699 252.569664,86.0773231 C252.890742,85.9584849 253.25709,85.9011114 253.668761,85.9011114 Z M174.066803,81.5697793 C174.960053,81.5697793 175.729779,81.6599361 176.363735,81.8402391 C177.001769,82.0246439 177.528692,82.2828191 177.936191,82.6188455 C178.347819,82.9548719 178.644196,83.3605668 178.82532,83.8317759 C179.010554,84.3071288 179.101117,84.8357637 179.101117,85.4217406 L179.101159,85.4222232 C179.101159,85.9467563 179.035297,86.4057228 178.903574,86.7991226 C178.771851,87.1925224 178.594847,87.5326507 178.364332,87.8154055 C178.137937,88.1022621 177.874492,88.3317454 177.573995,88.5038552 C177.273498,88.6800668 176.960661,88.8112001 176.639584,88.9013569 L176.639584,88.9423334 C177.034753,89.0160932 177.405221,89.1554302 177.751009,89.3603233 C178.096777,89.5652164 178.393153,89.8192898 178.652489,90.1266347 C178.907695,90.4339796 179.11352,90.7945961 179.265823,91.2084318 C179.422246,91.6264217 179.500448,92.0812863 179.500448,92.5771485 C179.500448,93.1754414 179.393426,93.7204208 179.187611,94.2163144 C178.985906,94.712166 178.66484,95.1424406 178.23262,95.5112817 C177.8004,95.8718982 177.257048,96.1587549 176.594303,96.363648 C175.935688,96.5685412 175.15357,96.6668911 174.243839,96.6668911 L171.14424,96.6668911 L171.14424,81.5697793 L174.066803,81.5697793 Z M295.301141,86.1625073 L295.301141,96.6657581 L293.522882,96.6657581 L293.522882,86.1625073 L295.301141,86.1625073 Z M206.47077,87.4792322 C206.059141,87.4792322 205.676323,87.5489007 205.318142,87.6841253 C204.955904,87.8234518 204.647187,88.0529351 204.383742,88.372575 C204.120296,88.6963064 203.910361,89.1101945 203.753937,89.6224325 C203.601634,90.1346706 203.523422,90.7616135 203.523422,91.5034082 C203.523422,92.2328344 203.585174,92.8433805 203.712777,93.3310914 C203.836259,93.8187393 204.009153,94.2121391 204.227318,94.5112909 C204.449603,94.8145339 204.696578,95.0276307 204.976495,95.158764 C205.25228,95.2898973 205.548657,95.3554639 205.857384,95.3554639 C206.133233,95.3554639 206.384328,95.3185578 206.602493,95.2447979 C206.820668,95.1751295 207.014132,95.0808813 207.174666,94.9743382 C207.33521,94.8636932 207.471042,94.7489568 207.582185,94.6342099 C207.693328,94.5153717 207.77566,94.4170218 207.833281,94.326865 L207.833281,87.8480419 C207.672747,87.7455901 207.487513,87.6595352 207.273458,87.5857754 C207.059414,87.5161069 206.791847,87.4792322 206.47077,87.4792322 Z M128.709271,83.9289212 C128.577985,83.9616544 128.450796,83.9903026 128.323616,84.0189402 C128.89388,84.7145609 129.903141,85.8765124 129.903141,87.4191122 C129.903141,90.4550811 126.682545,93.0901123 123.014737,93.1392069 C123.043452,93.454263 123.039356,93.7284052 123.039356,93.9616335 C123.039356,94.3993895 123.014737,94.8208366 122.961372,95.2340924 C127.125545,95.1604557 130.772872,91.780814 130.772872,88.1432868 C130.772872,86.0524444 129.246723,84.3953673 128.709271,83.9289212 Z M108.294563,83.9278737 C107.757131,84.3943093 106.230961,86.0513969 106.230961,88.1422393 C106.230961,91.8083518 109.93158,95.2084819 114.132723,95.2330345 C114.087592,94.8361924 114.062973,94.4147454 114.062973,93.9605756 C114.062973,93.6782527 114.075283,93.4041105 114.099901,93.1422445 C110.382835,93.1422445 107.104788,90.4827341 107.104788,87.4180648 C107.104788,85.8754649 108.109943,84.7134715 108.680217,84.0178928 C108.553027,83.9892446 108.425848,83.960607 108.294563,83.9278737 Z M174.354939,89.7982665 L173.058259,89.7982665 L173.058259,95.0927987 L174.243765,95.0927987 C175.371629,95.0927987 176.190841,94.8715087 176.697078,94.4248373 C177.199269,93.9822573 177.454485,93.3224785 177.454485,92.4455641 C177.454559,91.6259811 177.186993,90.9826413 176.651871,90.5072045 C176.116749,90.0317677 175.351081,89.7982665 174.354939,89.7982665 Z M215.769229,87.3481409 C215.139509,87.3481409 214.633219,87.6104075 214.250379,88.1349406 C213.87167,88.6594737 213.649385,89.4176338 213.591764,90.4093161 L217.440498,90.4093161 C217.452827,90.3355562 217.465156,90.2331044 217.473376,90.093778 C217.481806,89.9544515 217.485705,89.8028299 217.485705,89.6430047 C217.485705,88.9135785 217.337511,88.3480374 217.045255,87.9464548 C216.748878,87.5489532 216.324899,87.3481409 215.769229,87.3481409 Z M281.408492,87.3476478 C280.778762,87.3476478 280.272482,87.6099144 279.893752,88.1344475 C279.510923,88.6589806 279.292759,89.4171407 279.235138,90.408823 L283.079761,90.408823 C283.0962,90.3350632 283.10442,90.2326114 283.112639,90.0932849 C283.12107,89.9539584 283.124969,89.8023369 283.124969,89.6425116 C283.124969,88.9130854 282.976786,88.3475443 282.684519,87.9459618 C282.392262,87.5484601 281.968283,87.3476478 281.408492,87.3476478 Z M174.066845,83.0777595 L173.058343,83.0777595 L173.058343,88.2861635 L174.046265,88.2861635 C175.071238,88.2861635 175.849183,88.0402938 176.376075,87.5403403 C176.902966,87.0485905 177.166412,86.3601408 177.166412,85.4832264 C177.166476,84.7865625 176.9195,84.2087998 176.421419,83.758016 C175.923338,83.3031514 175.137068,83.0777595 174.066845,83.0777595 Z M115.761254,80.7697706 C114.895598,80.7697706 114.444301,81.0398172 114.444301,81.3057788 C114.444301,81.5635177 114.698659,82.1404397 114.834051,82.3777531 C115.182809,82.2304588 115.736667,82.0749733 116.064881,82.0749733 C116.786942,82.0749733 117.320298,82.5291535 117.644406,82.9096762 C118.001345,83.3310708 118.280322,83.8875569 118.411608,84.4317457 L118.411,84.43 L118.490832,84.2547453 C118.622165,83.9539536 118.744528,83.6251277 118.781667,83.2742341 L118.793114,83.0610975 C118.793114,81.6249305 117.656705,80.7697706 115.761254,80.7697706 Z M245.600657,81.1065327 C245.950545,81.1065327 246.238692,81.2253709 246.456856,81.458956 C246.679131,81.6925411 246.786164,81.9916823 246.786164,82.3564006 C246.786164,82.7334141 246.679131,83.0407485 246.456856,83.2743336 C246.238692,83.5079187 245.950545,83.6267569 245.600657,83.6267569 C245.234299,83.6267569 244.942043,83.5079187 244.719758,83.2743336 C244.501593,83.0407485 244.39045,82.7334141 244.39045,82.3564006 C244.39045,81.9916823 244.501593,81.6925411 244.719758,81.458956 C244.942043,81.2253709 245.234299,81.1065327 245.600657,81.1065327 Z M260.308344,81.1062389 C260.658232,81.1062389 260.942258,81.2250772 261.164543,81.4586622 C261.382708,81.6922473 261.493851,81.9913885 261.493851,82.3561069 C261.493851,82.7331203 261.382708,83.0404548 261.164543,83.2740398 C260.942258,83.5076249 260.658232,83.6264631 260.308344,83.6264631 C259.941986,83.6264631 259.645609,83.5076249 259.427445,83.2740398 C259.20928,83.0404548 259.098137,82.7331203 259.098137,82.3561069 C259.098137,81.9913885 259.20928,81.6922473 259.427445,81.4586622 C259.645609,81.2250772 259.941986,81.1062389 260.308344,81.1062389 Z M294.424362,81.105641 C294.774249,81.105641 295.062396,81.2244792 295.280561,81.4580643 C295.498725,81.6916494 295.609868,81.9907906 295.609868,82.3555089 C295.609868,82.7325223 295.498725,83.0398568 295.280561,83.2734419 C295.062396,83.5070269 294.774249,83.6258652 294.424362,83.6258652 C294.058003,83.6258652 293.765747,83.5070269 293.543462,83.2734419 C293.325297,83.0398568 293.214155,82.7325223 293.214155,82.3555089 C293.214155,81.9907906 293.325297,81.6916494 293.543462,81.4580643 C293.765747,81.2244792 294.058003,81.105641 294.424362,81.105641 Z M119.568519,81.0439338 C118.96953,80.7534197 118.817732,81.1053047 118.805423,81.4776466 C119.043376,81.7927446 119.195174,82.160991 119.264923,82.5660662 C120.298803,82.7665507 121.004459,81.4530941 120.023923,81.2157807 C120.159304,81.6494935 119.494673,81.9563689 119.494673,81.9563689 C119.494673,81.9563689 119.244411,81.3753618 119.568519,81.0439338 Z" id="Combined-Shape"></path>
                </g>
            </g>
        </g>
    </g>
</svg>